<?xml version="1.0" encoding="UTF-8" standalone="no"?>
<!DOCTYPE svg PUBLIC "-//W3C//DTD SVG 1.1//EN"
 "http://www.w3.org/Graphics/SVG/1.1/DTD/svg11.dtd">
<!-- Generated by graphviz version 2.38.0 (20140413.2041)
 -->
<!-- Title: getDataSetTitles Pages: 1 -->
<svg width="669pt" height="75pt"
 viewBox="0.00 0.00 669.00 75.00" xmlns="http://www.w3.org/2000/svg" xmlns:xlink="http://www.w3.org/1999/xlink">
<g id="graph0" class="graph" transform="scale(1 1) rotate(0) translate(4 71)">
<title>getDataSetTitles</title>
<polygon fill="white" stroke="none" points="-4,4 -4,-71 665,-71 665,4 -4,4"/>
<!-- Node1 -->
<g id="node1" class="node"><title>Node1</title>
<polygon fill="#bfbfbf" stroke="black" points="0,-28.5 0,-47.5 90,-47.5 90,-28.5 0,-28.5"/>
<text text-anchor="middle" x="45" y="-35.5" font-family="Helvetica,sans-Serif" font-size="10.00">getDataSetTitles</text>
</g>
<!-- Node2 -->
<g id="node2" class="node"><title>Node2</title>
<g id="a_node2"><a xlink:href="backend_8js.html#a06ed191b32ca45ffc8c3ad30bf6f6cf4" target="_top" xlink:title="getDataSourceAccessPoints">
<polygon fill="white" stroke="black" points="126,-28.5 126,-47.5 269,-47.5 269,-28.5 126,-28.5"/>
<text text-anchor="middle" x="197.5" y="-35.5" font-family="Helvetica,sans-Serif" font-size="10.00">getDataSourceAccessPoints</text>
</a>
</g>
</g>
<!-- Node1&#45;&gt;Node2 -->
<g id="edge1" class="edge"><title>Node1&#45;&gt;Node2</title>
<path fill="none" stroke="midnightblue" d="M100.561,-38C108.808,-38 117.414,-38 125.939,-38"/>
<polygon fill="midnightblue" stroke="midnightblue" points="100.341,-34.5001 90.341,-38 100.341,-41.5001 100.341,-34.5001"/>
</g>
<!-- Node3 -->
<g id="node3" class="node"><title>Node3</title>
<g id="a_node3"><a xlink:href="backend_8js.html#ab2defb5f9c70cf24da0dca77cadcdd4c" target="_top" xlink:title="addDSA">
<polygon fill="white" stroke="black" points="319.5,-47.5 319.5,-66.5 372.5,-66.5 372.5,-47.5 319.5,-47.5"/>
<text text-anchor="middle" x="346" y="-54.5" font-family="Helvetica,sans-Serif" font-size="10.00">addDSA</text>
</a>
</g>
</g>
<!-- Node1&#45;&gt;Node3 -->
<g id="edge7" class="edge"><title>Node1&#45;&gt;Node3</title>
<path fill="none" stroke="midnightblue" d="M88.2268,-49.9699C100.323,-52.8676 113.594,-55.547 126,-57 195.483,-65.138 278.22,-61.5776 319.263,-58.9312"/>
<polygon fill="midnightblue" stroke="midnightblue" points="88.9383,-46.54 78.3876,-47.5066 87.2382,-53.3305 88.9383,-46.54"/>
</g>
<!-- Node4 -->
<g id="node4" class="node"><title>Node4</title>
<g id="a_node4"><a xlink:href="backend_8js.html#a40b1dad19404febd0ef4c2b8be5e1033" target="_top" xlink:title="getAllMetadata">
<polygon fill="white" stroke="black" points="305,-0.5 305,-19.5 387,-19.5 387,-0.5 305,-0.5"/>
<text text-anchor="middle" x="346" y="-7.5" font-family="Helvetica,sans-Serif" font-size="10.00">getAllMetadata</text>
</a>
</g>
</g>
<!-- Node1&#45;&gt;Node4 -->
<g id="edge8" class="edge"><title>Node1&#45;&gt;Node4</title>
<path fill="none" stroke="midnightblue" d="M89.922,-25.968C101.566,-23.2192 114.188,-20.63 126,-19 188.009,-10.4432 260.754,-9.16705 304.833,-9.34795"/>
<polygon fill="midnightblue" stroke="midnightblue" points="88.8638,-22.6237 79.9852,-28.4047 90.531,-29.4223 88.8638,-22.6237"/>
</g>
<!-- Node2&#45;&gt;Node3 -->
<g id="edge2" class="edge"><title>Node2&#45;&gt;Node3</title>
<path fill="none" stroke="midnightblue" d="M279.293,-48.4783C293.857,-50.3671 308.019,-52.2038 319.442,-53.6854"/>
<polygon fill="midnightblue" stroke="midnightblue" points="279.542,-44.9814 269.175,-47.1661 278.642,-51.9232 279.542,-44.9814"/>
</g>
<!-- Node2&#45;&gt;Node4 -->
<g id="edge3" class="edge"><title>Node2&#45;&gt;Node4</title>
<path fill="none" stroke="midnightblue" d="M258.607,-26.5119C274.204,-23.5309 290.623,-20.3928 304.909,-17.6624"/>
<polygon fill="midnightblue" stroke="midnightblue" points="257.672,-23.1272 248.507,-28.4423 258.987,-30.0027 257.672,-23.1272"/>
</g>
<!-- Node5 -->
<g id="node5" class="node"><title>Node5</title>
<g id="a_node5"><a xlink:href="backend_8js.html#a6879c4dc7db6793991cd72ab19ca85ea" target="_top" xlink:title="getProviders">
<polygon fill="white" stroke="black" points="423,-0.5 423,-19.5 494,-19.5 494,-0.5 423,-0.5"/>
<text text-anchor="middle" x="458.5" y="-7.5" font-family="Helvetica,sans-Serif" font-size="10.00">getProviders</text>
</a>
</g>
</g>
<!-- Node4&#45;&gt;Node5 -->
<g id="edge4" class="edge"><title>Node4&#45;&gt;Node5</title>
<path fill="none" stroke="midnightblue" d="M397.278,-3.27435C405.968,-3.18903 414.823,-3.32794 422.974,-3.69109"/>
<polygon fill="midnightblue" stroke="midnightblue" points="397.133,0.223527 387.206,-3.47752 397.274,-6.77505 397.133,0.223527"/>
</g>
<!-- Node5&#45;&gt;Node4 -->
<g id="edge6" class="edge"><title>Node5&#45;&gt;Node4</title>
<path fill="none" stroke="midnightblue" d="M412.854,-16.6383C404.371,-16.8191 395.541,-16.7805 387.206,-16.5225"/>
<polygon fill="midnightblue" stroke="midnightblue" points="413.093,-20.1324 422.974,-16.3089 412.865,-13.1361 413.093,-20.1324"/>
</g>
<!-- Node6 -->
<g id="node6" class="node"><title>Node6</title>
<g id="a_node6"><a xlink:href="namespace_webservices.html#a982728deb9ddc1d58b4496ef46159b73" target="_top" xlink:title="Webservices\\getProviders">
<polygon fill="white" stroke="black" points="530,-0.5 530,-19.5 661,-19.5 661,-0.5 530,-0.5"/>
<text text-anchor="middle" x="595.5" y="-7.5" font-family="Helvetica,sans-Serif" font-size="10.00">Webservices\getProviders</text>
</a>
</g>
</g>
<!-- Node5&#45;&gt;Node6 -->
<g id="edge5" class="edge"><title>Node5&#45;&gt;Node6</title>
<path fill="none" stroke="midnightblue" d="M504.364,-10C512.584,-10 521.31,-10 529.972,-10"/>
<polygon fill="midnightblue" stroke="midnightblue" points="504.266,-6.5001 494.266,-10 504.266,-13.5001 504.266,-6.5001"/>
</g>
</g>
</svg>
