<?xml version="1.0" encoding="UTF-8" standalone="no"?>
<!DOCTYPE svg PUBLIC "-//W3C//DTD SVG 1.1//EN"
 "http://www.w3.org/Graphics/SVG/1.1/DTD/svg11.dtd">
<!-- Generated by graphviz version 2.38.0 (20140413.2041)
 -->
<!-- Title: getProviders Pages: 1 -->
<!--zoomable 408 -->
<svg id="main" version="1.1" xmlns="http://www.w3.org/2000/svg" xmlns:xlink="http://www.w3.org/1999/xlink" xml:space="preserve" onload="init(evt)">
<style type="text/css"><![CDATA[
.edge:hover path { stroke: red; }
.edge:hover polygon { stroke: red; fill: red; }
]]></style>
<script type="text/javascript"><![CDATA[
var edges = document.getElementsByTagName('g');
if (edges && edges.length) {
  for (var i=0;i<edges.length;i++) {
    if (edges[i].id.substr(0,4)=='edge') {
      edges[i].setAttribute('class','edge');
    }
  }
}
]]></script>
        <defs>
                <circle id="rim" cx="0" cy="0" r="7"/>
                <circle id="rim2" cx="0" cy="0" r="3.5"/>
                <g id="zoomPlus">
                        <use xlink:href="#rim" fill="#404040">
                                <set attributeName="fill" to="#808080" begin="zoomplus.mouseover" end="zoomplus.mouseout"/>
                        </use>
                        <path d="M-4,0h8M0,-4v8" fill="none" stroke="white" stroke-width="1.5" pointer-events="none"/>
                </g>
                <g id="zoomMin">
                        <use xlink:href="#rim" fill="#404040">
                                <set attributeName="fill" to="#808080" begin="zoomminus.mouseover" end="zoomminus.mouseout"/>
                        </use>
                        <path d="M-4,0h8" fill="none" stroke="white" stroke-width="1.5" pointer-events="none"/>
                </g>
                <g id="dirArrow">
                        <path fill="none" stroke="white" stroke-width="1.5" d="M0,-3.0v7 M-2.5,-0.5L0,-3.0L2.5,-0.5"/>
                </g>
               <g id="resetDef">
                       <use xlink:href="#rim2" fill="#404040">
                               <set attributeName="fill" to="#808080" begin="reset.mouseover" end="reset.mouseout"/>
                       </use>
               </g>
        </defs>

<script type="text/javascript">
var viewWidth = 533;
var viewHeight = 408;
var sectionId = 'dynsection-11';
</script>
<script xlink:href="svgpan.js"/>
<svg id="graph" class="graph">
<g id="viewport">
<title>getProviders</title>
<polygon fill="white" stroke="none" points="-4,4 -4,-404 529,-404 529,4 -4,4"/>
<!-- Node1 -->
<g id="node1" class="node"><title>Node1</title>
<polygon fill="#bfbfbf" stroke="black" points="0,-190.5 0,-209.5 71,-209.5 71,-190.5 0,-190.5"/>
<text text-anchor="middle" x="35.5" y="-197.5" font-family="Helvetica,sans-Serif" font-size="10.00">getProviders</text>
</g>
<!-- Node2 -->
<g id="node2" class="node"><title>Node2</title>
<g id="a_node2"><a xlink:href="backend_8js.html#a97b71eb0b809c2808e6b79e2503278ba" target="_top" xlink:title="deleteOldValues">
<polygon fill="white" stroke="black" points="252.5,-380.5 252.5,-399.5 340.5,-399.5 340.5,-380.5 252.5,-380.5"/>
<text text-anchor="middle" x="296.5" y="-387.5" font-family="Helvetica,sans-Serif" font-size="10.00">deleteOldValues</text>
</a>
</g>
</g>
<!-- Node1&#45;&gt;Node2 -->
<g id="edge1" class="edge"><title>Node1&#45;&gt;Node2</title>
<path fill="none" stroke="midnightblue" d="M45.8829,-209.819C72.0703,-236.787 149.026,-313.099 225,-360 235.33,-366.377 247.255,-372.02 258.325,-376.642"/>
<polygon fill="midnightblue" stroke="midnightblue" points="257.187,-379.957 267.771,-380.433 259.794,-373.46 257.187,-379.957"/>
</g>
<!-- Node3 -->
<g id="node3" class="node"><title>Node3</title>
<g id="a_node3"><a xlink:href="backend_8js.html#a40b1dad19404febd0ef4c2b8be5e1033" target="_top" xlink:title="getAllMetadata">
<polygon fill="white" stroke="black" points="107,-190.5 107,-209.5 189,-209.5 189,-190.5 107,-190.5"/>
<text text-anchor="middle" x="148" y="-197.5" font-family="Helvetica,sans-Serif" font-size="10.00">getAllMetadata</text>
</a>
</g>
</g>
<!-- Node1&#45;&gt;Node3 -->
<g id="edge2" class="edge"><title>Node1&#45;&gt;Node3</title>
<path fill="none" stroke="midnightblue" d="M71.1597,-193.685C79.2573,-193.327 88.0434,-193.19 96.6684,-193.274"/>
<polygon fill="midnightblue" stroke="midnightblue" points="96.6005,-196.773 106.668,-193.474 96.7404,-189.774 96.6005,-196.773"/>
</g>
<!-- Node14 -->
<g id="node14" class="node"><title>Node14</title>
<g id="a_node14"><a xlink:href="backend_8js.html#a46a518d9683fe224cd47219f3da32d07" target="_top" xlink:title="getCountConcepts">
<polygon fill="white" stroke="black" points="247.5,-0.5 247.5,-19.5 345.5,-19.5 345.5,-0.5 247.5,-0.5"/>
<text text-anchor="middle" x="296.5" y="-7.5" font-family="Helvetica,sans-Serif" font-size="10.00">getCountConcepts</text>
</a>
</g>
</g>
<!-- Node1&#45;&gt;Node14 -->
<g id="edge18" class="edge"><title>Node1&#45;&gt;Node14</title>
<path fill="none" stroke="midnightblue" d="M44.3415,-190.15C68.1812,-160.88 143.183,-73.6973 225,-29 229.161,-26.7267 233.612,-24.7121 238.178,-22.929"/>
<polygon fill="midnightblue" stroke="midnightblue" points="239.391,-26.2125 247.658,-19.5858 237.063,-19.611 239.391,-26.2125"/>
</g>
<!-- Node3&#45;&gt;Node1 -->
<g id="edge14" class="edge"><title>Node3&#45;&gt;Node1</title>
<path fill="none" stroke="midnightblue" d="M106.668,-206.526C98.3907,-206.78 89.6299,-206.818 81.2084,-206.64"/>
<polygon fill="midnightblue" stroke="midnightblue" points="81.2676,-203.14 71.1597,-206.315 81.0414,-210.136 81.2676,-203.14"/>
</g>
<!-- Node3&#45;&gt;Node2 -->
<g id="edge16" class="edge"><title>Node3&#45;&gt;Node2</title>
<path fill="none" stroke="midnightblue" d="M152.866,-209.581C166.505,-243.213 212.242,-354.472 225,-366 230.156,-370.659 236.255,-374.42 242.674,-377.454"/>
<polygon fill="midnightblue" stroke="midnightblue" points="241.655,-380.82 252.234,-381.399 244.325,-374.349 241.655,-380.82"/>
</g>
<!-- Node4 -->
<g id="node4" class="node"><title>Node4</title>
<g id="a_node4"><a xlink:href="backend_8js.html#a06ed191b32ca45ffc8c3ad30bf6f6cf4" target="_top" xlink:title="getDataSourceAccessPoints">
<polygon fill="white" stroke="black" points="225,-304.5 225,-323.5 368,-323.5 368,-304.5 225,-304.5"/>
<text text-anchor="middle" x="296.5" y="-311.5" font-family="Helvetica,sans-Serif" font-size="10.00">getDataSourceAccessPoints</text>
</a>
</g>
</g>
<!-- Node3&#45;&gt;Node4 -->
<g id="edge3" class="edge"><title>Node3&#45;&gt;Node4</title>
<path fill="none" stroke="midnightblue" d="M154.619,-209.627C165.757,-227.896 192.398,-267.752 225,-290 231.241,-294.259 238.306,-297.824 245.494,-300.79"/>
<polygon fill="midnightblue" stroke="midnightblue" points="244.714,-304.236 255.306,-304.473 247.174,-297.682 244.714,-304.236"/>
</g>
<!-- Node5 -->
<g id="node5" class="node"><title>Node5</title>
<g id="a_node5"><a xlink:href="backend_8js.html#a82c76ce90ab8a91de559f9b35d0088d7" target="_top" xlink:title="getDataSetTitles">
<polygon fill="white" stroke="black" points="419.5,-332.5 419.5,-351.5 509.5,-351.5 509.5,-332.5 419.5,-332.5"/>
<text text-anchor="middle" x="464.5" y="-339.5" font-family="Helvetica,sans-Serif" font-size="10.00">getDataSetTitles</text>
</a>
</g>
</g>
<!-- Node3&#45;&gt;Node5 -->
<g id="edge6" class="edge"><title>Node3&#45;&gt;Node5</title>
<path fill="none" stroke="midnightblue" d="M151.112,-209.618C157.285,-235.122 177.916,-304.476 225,-333 282.312,-367.721 362.391,-362.166 413.601,-353.365"/>
<polygon fill="midnightblue" stroke="midnightblue" points="414.232,-356.808 423.443,-351.573 412.978,-349.921 414.232,-356.808"/>
</g>
<!-- Node6 -->
<g id="node6" class="node"><title>Node6</title>
<g id="a_node6"><a xlink:href="backend_8js.html#a51fe50f57ea6df6fb0bcbd22099962ab" target="_top" xlink:title="getSchemas">
<polygon fill="white" stroke="black" points="429,-275.5 429,-294.5 500,-294.5 500,-275.5 429,-275.5"/>
<text text-anchor="middle" x="464.5" y="-282.5" font-family="Helvetica,sans-Serif" font-size="10.00">getSchemas</text>
</a>
</g>
</g>
<!-- Node3&#45;&gt;Node6 -->
<g id="edge7" class="edge"><title>Node3&#45;&gt;Node6</title>
<path fill="none" stroke="midnightblue" d="M158.274,-209.616C171.645,-222.804 197.739,-246.106 225,-257 288.973,-282.565 369.731,-286.793 418.95,-286.577"/>
<polygon fill="midnightblue" stroke="midnightblue" points="418.995,-290.077 428.957,-286.47 418.92,-283.077 418.995,-290.077"/>
</g>
<!-- Node7 -->
<g id="node7" class="node"><title>Node7</title>
<g id="a_node7"><a xlink:href="backend_8js.html#ab8857c782e0fd01946658e1a47bd295c" target="_top" xlink:title="saveDSAPoint">
<polygon fill="white" stroke="black" points="256,-228.5 256,-247.5 337,-247.5 337,-228.5 256,-228.5"/>
<text text-anchor="middle" x="296.5" y="-235.5" font-family="Helvetica,sans-Serif" font-size="10.00">saveDSAPoint</text>
</a>
</g>
</g>
<!-- Node3&#45;&gt;Node7 -->
<g id="edge8" class="edge"><title>Node3&#45;&gt;Node7</title>
<path fill="none" stroke="midnightblue" d="M185.968,-209.589C205.126,-214.558 228.714,-220.677 249.088,-225.961"/>
<polygon fill="midnightblue" stroke="midnightblue" points="248.239,-229.357 258.798,-228.48 249.997,-222.581 248.239,-229.357"/>
</g>
<!-- Node9 -->
<g id="node9" class="node"><title>Node9</title>
<g id="a_node9"><a xlink:href="backend_8js.html#abcad65499b560fbefbaa2b51424bf9ff" target="_top" xlink:title="getCapabilities">
<polygon fill="white" stroke="black" points="256,-190.5 256,-209.5 337,-209.5 337,-190.5 256,-190.5"/>
<text text-anchor="middle" x="296.5" y="-197.5" font-family="Helvetica,sans-Serif" font-size="10.00">getCapabilities</text>
</a>
</g>
</g>
<!-- Node3&#45;&gt;Node9 -->
<g id="edge10" class="edge"><title>Node3&#45;&gt;Node9</title>
<path fill="none" stroke="midnightblue" d="M189.032,-200C206.545,-200 227.272,-200 245.762,-200"/>
<polygon fill="midnightblue" stroke="midnightblue" points="245.771,-203.5 255.77,-200 245.77,-196.5 245.771,-203.5"/>
</g>
<!-- Node10 -->
<g id="node10" class="node"><title>Node10</title>
<g id="a_node10"><a xlink:href="backend_8js.html#a5f8e953a90f434851f20518b1e3baeb6" target="_top" xlink:title="getArchives">
<polygon fill="white" stroke="black" points="262.5,-152.5 262.5,-171.5 330.5,-171.5 330.5,-152.5 262.5,-152.5"/>
<text text-anchor="middle" x="296.5" y="-159.5" font-family="Helvetica,sans-Serif" font-size="10.00">getArchives</text>
</a>
</g>
</g>
<!-- Node3&#45;&gt;Node10 -->
<g id="edge11" class="edge"><title>Node3&#45;&gt;Node10</title>
<path fill="none" stroke="midnightblue" d="M185.968,-190.411C206.073,-185.196 231.057,-178.716 252.085,-173.261"/>
<polygon fill="midnightblue" stroke="midnightblue" points="253.25,-176.575 262.051,-170.676 251.492,-169.799 253.25,-176.575"/>
</g>
<!-- Node11 -->
<g id="node11" class="node"><title>Node11</title>
<g id="a_node11"><a xlink:href="backend_8js.html#add7d88a4ad05a1fb2478eff9a1857824" target="_top" xlink:title="getUsefulLinks">
<polygon fill="white" stroke="black" points="255.5,-114.5 255.5,-133.5 337.5,-133.5 337.5,-114.5 255.5,-114.5"/>
<text text-anchor="middle" x="296.5" y="-121.5" font-family="Helvetica,sans-Serif" font-size="10.00">getUsefulLinks</text>
</a>
</g>
</g>
<!-- Node3&#45;&gt;Node11 -->
<g id="edge12" class="edge"><title>Node3&#45;&gt;Node11</title>
<path fill="none" stroke="midnightblue" d="M159.457,-190.071C173.363,-177.385 199.201,-155.57 225,-143 231.503,-139.832 238.609,-137.132 245.727,-134.849"/>
<polygon fill="midnightblue" stroke="midnightblue" points="246.79,-138.185 255.385,-131.99 244.803,-131.473 246.79,-138.185"/>
</g>
<!-- Node12 -->
<g id="node12" class="node"><title>Node12</title>
<g id="a_node12"><a xlink:href="general_8js.html#ad9f2873ff9e09926e2f18c529721c6f8" target="_top" xlink:title="getMessages">
<polygon fill="white" stroke="black" points="259,-76.5 259,-95.5 334,-95.5 334,-76.5 259,-76.5"/>
<text text-anchor="middle" x="296.5" y="-83.5" font-family="Helvetica,sans-Serif" font-size="10.00">getMessages</text>
</a>
</g>
</g>
<!-- Node3&#45;&gt;Node12 -->
<g id="edge13" class="edge"><title>Node3&#45;&gt;Node12</title>
<path fill="none" stroke="midnightblue" d="M154.019,-190.231C164.482,-170.871 190.541,-127.559 225,-105 232.242,-100.259 240.636,-96.6955 249.052,-94.0185"/>
<polygon fill="midnightblue" stroke="midnightblue" points="250.191,-97.3344 258.875,-91.2658 248.302,-90.5941 250.191,-97.3344"/>
</g>
<!-- Node13 -->
<g id="node13" class="node"><title>Node13</title>
<g id="a_node13"><a xlink:href="backend_8js.html#af5cbf7c37f28fddd8b8a5149a7ed5900" target="_top" xlink:title="getLinkCategories">
<polygon fill="white" stroke="black" points="249,-38.5 249,-57.5 344,-57.5 344,-38.5 249,-38.5"/>
<text text-anchor="middle" x="296.5" y="-45.5" font-family="Helvetica,sans-Serif" font-size="10.00">getLinkCategories</text>
</a>
</g>
</g>
<!-- Node3&#45;&gt;Node13 -->
<g id="edge15" class="edge"><title>Node3&#45;&gt;Node13</title>
<path fill="none" stroke="midnightblue" d="M151.709,-190.234C159.071,-165.561 181.846,-100.316 225,-67 229.327,-63.6593 234.197,-60.905 239.304,-58.6343"/>
<polygon fill="midnightblue" stroke="midnightblue" points="240.596,-61.8875 248.687,-55.047 238.096,-55.349 240.596,-61.8875"/>
</g>
<!-- Node3&#45;&gt;Node14 -->
<g id="edge17" class="edge"><title>Node3&#45;&gt;Node14</title>
<path fill="none" stroke="midnightblue" d="M152.822,-190.101C166.313,-155.359 211.61,-40.4603 225,-29 228.774,-25.7699 233.044,-23.0835 237.571,-20.85"/>
<polygon fill="midnightblue" stroke="midnightblue" points="239.253,-23.9412 247.145,-16.8725 236.568,-17.4768 239.253,-23.9412"/>
</g>
<!-- Node4&#45;&gt;Node5 -->
<g id="edge4" class="edge"><title>Node4&#45;&gt;Node5</title>
<path fill="none" stroke="midnightblue" d="M354.163,-323.558C371.986,-326.564 391.616,-329.875 409.266,-332.852"/>
<polygon fill="midnightblue" stroke="midnightblue" points="408.958,-336.349 419.401,-334.562 410.122,-329.447 408.958,-336.349"/>
</g>
<!-- Node4&#45;&gt;Node6 -->
<g id="edge5" class="edge"><title>Node4&#45;&gt;Node6</title>
<path fill="none" stroke="midnightblue" d="M352.315,-304.424C373.804,-300.67 398.155,-296.416 418.578,-292.848"/>
<polygon fill="midnightblue" stroke="midnightblue" points="419.312,-296.273 428.56,-291.104 418.107,-289.377 419.312,-296.273"/>
</g>
<!-- Node8 -->
<g id="node8" class="node"><title>Node8</title>
<g id="a_node8"><a xlink:href="general_8js.html#aecfeb655371b751d36422b7a93a66279" target="_top" xlink:title="displaySystemMessage">
<polygon fill="white" stroke="black" points="404,-228.5 404,-247.5 525,-247.5 525,-228.5 404,-228.5"/>
<text text-anchor="middle" x="464.5" y="-235.5" font-family="Helvetica,sans-Serif" font-size="10.00">displaySystemMessage</text>
</a>
</g>
</g>
<!-- Node7&#45;&gt;Node8 -->
<g id="edge9" class="edge"><title>Node7&#45;&gt;Node8</title>
<path fill="none" stroke="midnightblue" d="M337.261,-238C354.25,-238 374.593,-238 393.936,-238"/>
<polygon fill="midnightblue" stroke="midnightblue" points="393.937,-241.5 403.937,-238 393.937,-234.5 393.937,-241.5"/>
</g>
</g>
</svg>
        <g id="navigator" transform="translate(0 0)" fill="#404254">
                <rect fill="#f2f5e9" fill-opacity="0.5" stroke="#606060" stroke-width=".5" x="0" y="0" width="60" height="60"/>
                <use id="zoomplus" xlink:href="#zoomPlus" x="17" y="9" onmousedown="handleZoom(evt,'in')"/>
                <use id="zoomminus" xlink:href="#zoomMin" x="42" y="9" onmousedown="handleZoom(evt,'out')"/>
                <use id="reset" xlink:href="#resetDef" x="30" y="36" onmousedown="handleReset()"/>
                <g id="arrowUp" xlink:href="#dirArrow" transform="translate(30 24)" onmousedown="handlePan(0,-1)">
                  <use xlink:href="#rim" fill="#404040">
                        <set attributeName="fill" to="#808080" begin="arrowUp.mouseover" end="arrowUp.mouseout"/>
                  </use>
                  <path fill="none" stroke="white" stroke-width="1.5" d="M0,-3.0v7 M-2.5,-0.5L0,-3.0L2.5,-0.5"/>
                </g>
                <g id="arrowRight" xlink:href="#dirArrow" transform="rotate(90) translate(36 -43)" onmousedown="handlePan(1,0)">
                  <use xlink:href="#rim" fill="#404040">
                        <set attributeName="fill" to="#808080" begin="arrowRight.mouseover" end="arrowRight.mouseout"/>
                  </use>
                  <path fill="none" stroke="white" stroke-width="1.5" d="M0,-3.0v7 M-2.5,-0.5L0,-3.0L2.5,-0.5"/>
                </g>
                <g id="arrowDown" xlink:href="#dirArrow" transform="rotate(180) translate(-30 -48)" onmousedown="handlePan(0,1)">
                  <use xlink:href="#rim" fill="#404040">
                        <set attributeName="fill" to="#808080" begin="arrowDown.mouseover" end="arrowDown.mouseout"/>
                  </use>
                  <path fill="none" stroke="white" stroke-width="1.5" d="M0,-3.0v7 M-2.5,-0.5L0,-3.0L2.5,-0.5"/>
                </g>
                <g id="arrowLeft" xlink:href="#dirArrow" transform="rotate(270) translate(-36 17)" onmousedown="handlePan(-1,0)">
                  <use xlink:href="#rim" fill="#404040">
                        <set attributeName="fill" to="#808080" begin="arrowLeft.mouseover" end="arrowLeft.mouseout"/>
                  </use>
                  <path fill="none" stroke="white" stroke-width="1.5" d="M0,-3.0v7 M-2.5,-0.5L0,-3.0L2.5,-0.5"/>
                </g>
        </g>
        <svg viewBox="0 0 15 15" width="100%" height="30px" preserveAspectRatio="xMaxYMin meet">
         <g id="arrow_out" transform="scale(0.3 0.3)">
          <a xlink:href="backend_8js_a6879c4dc7db6793991cd72ab19ca85ea_cgraph_org.svg" target="_base">
           <rect id="button" ry="5" rx="5" y="6" x="6" height="38" width="38"
                fill="#f2f5e9" fill-opacity="0.5" stroke="#606060" stroke-width="1.0"/>
           <path id="arrow"
             d="M 11.500037,31.436501 C 11.940474,20.09759 22.043105,11.32322 32.158766,21.979434 L 37.068811,17.246167 C 37.068811,17.246167 37.088388,32 37.088388,32 L 22.160133,31.978069 C 22.160133,31.978069 26.997745,27.140456 26.997745,27.140456 C 18.528582,18.264221 13.291696,25.230495 11.500037,31.436501 z"
             style="fill:#404040;"/>
          </a>
         </g>
        </svg>
</svg>
