<?xml version="1.0" encoding="UTF-8" standalone="no"?>
<!DOCTYPE svg PUBLIC "-//W3C//DTD SVG 1.1//EN"
 "http://www.w3.org/Graphics/SVG/1.1/DTD/svg11.dtd">
<!-- Generated by graphviz version 2.38.0 (20140413.2041)
 -->
<!-- Title: getDataSourceAccessPoints Pages: 1 -->
<svg width="543pt" height="66pt"
 viewBox="0.00 0.00 543.00 66.00" xmlns="http://www.w3.org/2000/svg" xmlns:xlink="http://www.w3.org/1999/xlink">
<g id="graph0" class="graph" transform="scale(1 1) rotate(0) translate(4 62)">
<title>getDataSourceAccessPoints</title>
<polygon fill="white" stroke="none" points="-4,4 -4,-62 539,-62 539,4 -4,4"/>
<!-- Node1 -->
<g id="node1" class="node"><title>Node1</title>
<polygon fill="#bfbfbf" stroke="black" points="0,-19.5 0,-38.5 143,-38.5 143,-19.5 0,-19.5"/>
<text text-anchor="middle" x="71.5" y="-26.5" font-family="Helvetica,sans-Serif" font-size="10.00">getDataSourceAccessPoints</text>
</g>
<!-- Node2 -->
<g id="node2" class="node"><title>Node2</title>
<g id="a_node2"><a xlink:href="backend_8js.html#ab2defb5f9c70cf24da0dca77cadcdd4c" target="_top" xlink:title="addDSA">
<polygon fill="white" stroke="black" points="193.5,-38.5 193.5,-57.5 246.5,-57.5 246.5,-38.5 193.5,-38.5"/>
<text text-anchor="middle" x="220" y="-45.5" font-family="Helvetica,sans-Serif" font-size="10.00">addDSA</text>
</a>
</g>
</g>
<!-- Node1&#45;&gt;Node2 -->
<g id="edge1" class="edge"><title>Node1&#45;&gt;Node2</title>
<path fill="none" stroke="midnightblue" d="M153.293,-39.4783C167.857,-41.3671 182.019,-43.2038 193.442,-44.6854"/>
<polygon fill="midnightblue" stroke="midnightblue" points="153.542,-35.9814 143.175,-38.1661 152.642,-42.9232 153.542,-35.9814"/>
</g>
<!-- Node3 -->
<g id="node3" class="node"><title>Node3</title>
<g id="a_node3"><a xlink:href="backend_8js.html#a40b1dad19404febd0ef4c2b8be5e1033" target="_top" xlink:title="getAllMetadata">
<polygon fill="white" stroke="black" points="179,-0.5 179,-19.5 261,-19.5 261,-0.5 179,-0.5"/>
<text text-anchor="middle" x="220" y="-7.5" font-family="Helvetica,sans-Serif" font-size="10.00">getAllMetadata</text>
</a>
</g>
</g>
<!-- Node1&#45;&gt;Node3 -->
<g id="edge2" class="edge"><title>Node1&#45;&gt;Node3</title>
<path fill="none" stroke="midnightblue" d="M153.252,-18.527C162.147,-17.3735 170.892,-16.2393 178.956,-15.1934"/>
<polygon fill="midnightblue" stroke="midnightblue" points="152.642,-15.0767 143.175,-19.8339 153.542,-22.0186 152.642,-15.0767"/>
</g>
<!-- Node4 -->
<g id="node4" class="node"><title>Node4</title>
<g id="a_node4"><a xlink:href="backend_8js.html#a6879c4dc7db6793991cd72ab19ca85ea" target="_top" xlink:title="getProviders">
<polygon fill="white" stroke="black" points="297,-0.5 297,-19.5 368,-19.5 368,-0.5 297,-0.5"/>
<text text-anchor="middle" x="332.5" y="-7.5" font-family="Helvetica,sans-Serif" font-size="10.00">getProviders</text>
</a>
</g>
</g>
<!-- Node3&#45;&gt;Node4 -->
<g id="edge3" class="edge"><title>Node3&#45;&gt;Node4</title>
<path fill="none" stroke="midnightblue" d="M271.278,-3.27435C279.968,-3.18903 288.823,-3.32794 296.974,-3.69109"/>
<polygon fill="midnightblue" stroke="midnightblue" points="271.133,0.223527 261.206,-3.47752 271.274,-6.77505 271.133,0.223527"/>
</g>
<!-- Node4&#45;&gt;Node3 -->
<g id="edge5" class="edge"><title>Node4&#45;&gt;Node3</title>
<path fill="none" stroke="midnightblue" d="M286.854,-16.6383C278.371,-16.8191 269.541,-16.7805 261.206,-16.5225"/>
<polygon fill="midnightblue" stroke="midnightblue" points="287.093,-20.1324 296.974,-16.3089 286.865,-13.1361 287.093,-20.1324"/>
</g>
<!-- Node5 -->
<g id="node5" class="node"><title>Node5</title>
<g id="a_node5"><a xlink:href="namespace_webservices.html#a982728deb9ddc1d58b4496ef46159b73" target="_top" xlink:title="Webservices\\getProviders">
<polygon fill="white" stroke="black" points="404,-0.5 404,-19.5 535,-19.5 535,-0.5 404,-0.5"/>
<text text-anchor="middle" x="469.5" y="-7.5" font-family="Helvetica,sans-Serif" font-size="10.00">Webservices\getProviders</text>
</a>
</g>
</g>
<!-- Node4&#45;&gt;Node5 -->
<g id="edge4" class="edge"><title>Node4&#45;&gt;Node5</title>
<path fill="none" stroke="midnightblue" d="M378.364,-10C386.584,-10 395.31,-10 403.972,-10"/>
<polygon fill="midnightblue" stroke="midnightblue" points="378.266,-6.5001 368.266,-10 378.266,-13.5001 378.266,-6.5001"/>
</g>
</g>
</svg>
