<?xml version="1.0" encoding="UTF-8" standalone="no"?>
<!DOCTYPE svg PUBLIC "-//W3C//DTD SVG 1.1//EN"
 "http://www.w3.org/Graphics/SVG/1.1/DTD/svg11.dtd">
<!-- Generated by graphviz version 2.38.0 (20140413.2041)
 -->
<!-- Title: getSchemas Pages: 1 -->
<svg width="671pt" height="132pt"
 viewBox="0.00 0.00 671.00 132.00" xmlns="http://www.w3.org/2000/svg" xmlns:xlink="http://www.w3.org/1999/xlink">
<g id="graph0" class="graph" transform="scale(1 1) rotate(0) translate(4 128)">
<title>getSchemas</title>
<polygon fill="white" stroke="none" points="-4,4 -4,-128 667,-128 667,4 -4,4"/>
<!-- Node1 -->
<g id="node1" class="node"><title>Node1</title>
<polygon fill="#bfbfbf" stroke="black" points="0,-47.5 0,-66.5 71,-66.5 71,-47.5 0,-47.5"/>
<text text-anchor="middle" x="35.5" y="-54.5" font-family="Helvetica,sans-Serif" font-size="10.00">getSchemas</text>
</g>
<!-- Node2 -->
<g id="node2" class="node"><title>Node2</title>
<g id="a_node2"><a xlink:href="namespace_consistency.html#a489e7863dc1879d02c46deb03793bc03" target="_top" xlink:title="Consistency\\getMappedElements">
<polygon fill="white" stroke="black" points="107,-104.5 107,-123.5 271,-123.5 271,-104.5 107,-104.5"/>
<text text-anchor="middle" x="189" y="-111.5" font-family="Helvetica,sans-Serif" font-size="10.00">Consistency\getMappedElements</text>
</a>
</g>
</g>
<!-- Node1&#45;&gt;Node2 -->
<g id="edge1" class="edge"><title>Node1&#45;&gt;Node2</title>
<path fill="none" stroke="midnightblue" d="M64.2319,-71.1556C77.0546,-77.3944 92.6034,-84.533 107,-90 121.26,-95.4151 137.302,-100.391 151.324,-104.392"/>
<polygon fill="midnightblue" stroke="midnightblue" points="65.5375,-67.8967 55.0219,-66.6027 62.4354,-74.1719 65.5375,-67.8967"/>
</g>
<!-- Node3 -->
<g id="node3" class="node"><title>Node3</title>
<g id="a_node3"><a xlink:href="backend_8js.html#a06ed191b32ca45ffc8c3ad30bf6f6cf4" target="_top" xlink:title="getDataSourceAccessPoints">
<polygon fill="white" stroke="black" points="117.5,-28.5 117.5,-47.5 260.5,-47.5 260.5,-28.5 117.5,-28.5"/>
<text text-anchor="middle" x="189" y="-35.5" font-family="Helvetica,sans-Serif" font-size="10.00">getDataSourceAccessPoints</text>
</a>
</g>
</g>
<!-- Node1&#45;&gt;Node3 -->
<g id="edge2" class="edge"><title>Node1&#45;&gt;Node3</title>
<path fill="none" stroke="midnightblue" d="M81.2868,-51.3832C92.588,-49.9659 105,-48.4093 117.237,-46.8745"/>
<polygon fill="midnightblue" stroke="midnightblue" points="80.7439,-47.9238 71.2572,-52.641 81.615,-54.8693 80.7439,-47.9238"/>
</g>
<!-- Node4 -->
<g id="node4" class="node"><title>Node4</title>
<g id="a_node4"><a xlink:href="backend_8js.html#ab2defb5f9c70cf24da0dca77cadcdd4c" target="_top" xlink:title="addDSA">
<polygon fill="white" stroke="black" points="321.5,-47.5 321.5,-66.5 374.5,-66.5 374.5,-47.5 321.5,-47.5"/>
<text text-anchor="middle" x="348" y="-54.5" font-family="Helvetica,sans-Serif" font-size="10.00">addDSA</text>
</a>
</g>
</g>
<!-- Node1&#45;&gt;Node4 -->
<g id="edge8" class="edge"><title>Node1&#45;&gt;Node4</title>
<path fill="none" stroke="midnightblue" d="M81.3223,-57C147.378,-57 268.729,-57 321.439,-57"/>
<polygon fill="midnightblue" stroke="midnightblue" points="81.2145,-53.5001 71.2145,-57 81.2145,-60.5001 81.2145,-53.5001"/>
</g>
<!-- Node5 -->
<g id="node5" class="node"><title>Node5</title>
<g id="a_node5"><a xlink:href="backend_8js.html#a40b1dad19404febd0ef4c2b8be5e1033" target="_top" xlink:title="getAllMetadata">
<polygon fill="white" stroke="black" points="307,-0.5 307,-19.5 389,-19.5 389,-0.5 307,-0.5"/>
<text text-anchor="middle" x="348" y="-7.5" font-family="Helvetica,sans-Serif" font-size="10.00">getAllMetadata</text>
</a>
</g>
</g>
<!-- Node1&#45;&gt;Node5 -->
<g id="edge9" class="edge"><title>Node1&#45;&gt;Node5</title>
<path fill="none" stroke="midnightblue" d="M58.2492,-41.8975C71.6521,-33.4753 89.5597,-23.7503 107,-19 175.19,-0.426687 258.295,-2.503 306.67,-6.02666"/>
<polygon fill="midnightblue" stroke="midnightblue" points="56.213,-39.0469 49.7511,-47.4431 60.0385,-44.9092 56.213,-39.0469"/>
</g>
<!-- Node3&#45;&gt;Node4 -->
<g id="edge3" class="edge"><title>Node3&#45;&gt;Node4</title>
<path fill="none" stroke="midnightblue" d="M270.874,-47.7873C289.214,-50.0068 307.382,-52.2054 321.367,-53.8979"/>
<polygon fill="midnightblue" stroke="midnightblue" points="271.04,-44.282 260.692,-46.5551 270.199,-51.2313 271.04,-44.282"/>
</g>
<!-- Node3&#45;&gt;Node5 -->
<g id="edge4" class="edge"><title>Node3&#45;&gt;Node5</title>
<path fill="none" stroke="midnightblue" d="M253.912,-26.6016C271.694,-23.4304 290.51,-20.0747 306.537,-17.2164"/>
<polygon fill="midnightblue" stroke="midnightblue" points="252.822,-23.2409 243.591,-28.4423 254.051,-30.1321 252.822,-23.2409"/>
</g>
<!-- Node6 -->
<g id="node6" class="node"><title>Node6</title>
<g id="a_node6"><a xlink:href="backend_8js.html#a6879c4dc7db6793991cd72ab19ca85ea" target="_top" xlink:title="getProviders">
<polygon fill="white" stroke="black" points="425,-0.5 425,-19.5 496,-19.5 496,-0.5 425,-0.5"/>
<text text-anchor="middle" x="460.5" y="-7.5" font-family="Helvetica,sans-Serif" font-size="10.00">getProviders</text>
</a>
</g>
</g>
<!-- Node5&#45;&gt;Node6 -->
<g id="edge5" class="edge"><title>Node5&#45;&gt;Node6</title>
<path fill="none" stroke="midnightblue" d="M399.278,-3.27435C407.968,-3.18903 416.823,-3.32794 424.974,-3.69109"/>
<polygon fill="midnightblue" stroke="midnightblue" points="399.133,0.223527 389.206,-3.47752 399.274,-6.77505 399.133,0.223527"/>
</g>
<!-- Node6&#45;&gt;Node5 -->
<g id="edge7" class="edge"><title>Node6&#45;&gt;Node5</title>
<path fill="none" stroke="midnightblue" d="M414.854,-16.6383C406.371,-16.8191 397.541,-16.7805 389.206,-16.5225"/>
<polygon fill="midnightblue" stroke="midnightblue" points="415.093,-20.1324 424.974,-16.3089 414.865,-13.1361 415.093,-20.1324"/>
</g>
<!-- Node7 -->
<g id="node7" class="node"><title>Node7</title>
<g id="a_node7"><a xlink:href="namespace_webservices.html#a982728deb9ddc1d58b4496ef46159b73" target="_top" xlink:title="Webservices\\getProviders">
<polygon fill="white" stroke="black" points="532,-0.5 532,-19.5 663,-19.5 663,-0.5 532,-0.5"/>
<text text-anchor="middle" x="597.5" y="-7.5" font-family="Helvetica,sans-Serif" font-size="10.00">Webservices\getProviders</text>
</a>
</g>
</g>
<!-- Node6&#45;&gt;Node7 -->
<g id="edge6" class="edge"><title>Node6&#45;&gt;Node7</title>
<path fill="none" stroke="midnightblue" d="M506.364,-10C514.584,-10 523.31,-10 531.972,-10"/>
<polygon fill="midnightblue" stroke="midnightblue" points="506.266,-6.5001 496.266,-10 506.266,-13.5001 506.266,-6.5001"/>
</g>
</g>
</svg>
