<?xml version="1.0" encoding="UTF-8" standalone="no"?>
<!DOCTYPE svg PUBLIC "-//W3C//DTD SVG 1.1//EN"
 "http://www.w3.org/Graphics/SVG/1.1/DTD/svg11.dtd">
<!-- Generated by graphviz version 2.38.0 (20140413.2041)
 -->
<!-- Title: getAllMetadata Pages: 1 -->
<svg width="364pt" height="28pt"
 viewBox="0.00 0.00 364.00 28.00" xmlns="http://www.w3.org/2000/svg" xmlns:xlink="http://www.w3.org/1999/xlink">
<g id="graph0" class="graph" transform="scale(1 1) rotate(0) translate(4 24)">
<title>getAllMetadata</title>
<polygon fill="white" stroke="none" points="-4,4 -4,-24 360,-24 360,4 -4,4"/>
<!-- Node1 -->
<g id="node1" class="node"><title>Node1</title>
<polygon fill="#bfbfbf" stroke="black" points="0,-0.5 0,-19.5 82,-19.5 82,-0.5 0,-0.5"/>
<text text-anchor="middle" x="41" y="-7.5" font-family="Helvetica,sans-Serif" font-size="10.00">getAllMetadata</text>
</g>
<!-- Node2 -->
<g id="node2" class="node"><title>Node2</title>
<g id="a_node2"><a xlink:href="backend_8js.html#a6879c4dc7db6793991cd72ab19ca85ea" target="_top" xlink:title="getProviders">
<polygon fill="white" stroke="black" points="118,-0.5 118,-19.5 189,-19.5 189,-0.5 118,-0.5"/>
<text text-anchor="middle" x="153.5" y="-7.5" font-family="Helvetica,sans-Serif" font-size="10.00">getProviders</text>
</a>
</g>
</g>
<!-- Node1&#45;&gt;Node2 -->
<g id="edge1" class="edge"><title>Node1&#45;&gt;Node2</title>
<path fill="none" stroke="midnightblue" d="M92.2784,-3.27435C100.968,-3.18903 109.823,-3.32794 117.974,-3.69109"/>
<polygon fill="midnightblue" stroke="midnightblue" points="92.133,0.223527 82.2056,-3.47752 92.2742,-6.77505 92.133,0.223527"/>
</g>
<!-- Node2&#45;&gt;Node1 -->
<g id="edge3" class="edge"><title>Node2&#45;&gt;Node1</title>
<path fill="none" stroke="midnightblue" d="M107.854,-16.6383C99.3711,-16.8191 90.5411,-16.7805 82.2056,-16.5225"/>
<polygon fill="midnightblue" stroke="midnightblue" points="108.093,-20.1324 117.974,-16.3089 107.865,-13.1361 108.093,-20.1324"/>
</g>
<!-- Node3 -->
<g id="node3" class="node"><title>Node3</title>
<g id="a_node3"><a xlink:href="namespace_webservices.html#a982728deb9ddc1d58b4496ef46159b73" target="_top" xlink:title="Webservices\\getProviders">
<polygon fill="white" stroke="black" points="225,-0.5 225,-19.5 356,-19.5 356,-0.5 225,-0.5"/>
<text text-anchor="middle" x="290.5" y="-7.5" font-family="Helvetica,sans-Serif" font-size="10.00">Webservices\getProviders</text>
</a>
</g>
</g>
<!-- Node2&#45;&gt;Node3 -->
<g id="edge2" class="edge"><title>Node2&#45;&gt;Node3</title>
<path fill="none" stroke="midnightblue" d="M199.364,-10C207.584,-10 216.31,-10 224.972,-10"/>
<polygon fill="midnightblue" stroke="midnightblue" points="199.266,-6.5001 189.266,-10 199.266,-13.5001 199.266,-6.5001"/>
</g>
</g>
</svg>
