<?xml version="1.0" encoding="UTF-8" standalone="no"?>
<!DOCTYPE svg PUBLIC "-//W3C//DTD SVG 1.1//EN"
 "http://www.w3.org/Graphics/SVG/1.1/DTD/svg11.dtd">
<!-- Generated by graphviz version 2.38.0 (20140413.2041)
 -->
<!-- Title: deleteOldValues Pages: 1 -->
<svg width="370pt" height="66pt"
 viewBox="0.00 0.00 370.00 66.00" xmlns="http://www.w3.org/2000/svg" xmlns:xlink="http://www.w3.org/1999/xlink">
<g id="graph0" class="graph" transform="scale(1 1) rotate(0) translate(4 62)">
<title>deleteOldValues</title>
<polygon fill="white" stroke="none" points="-4,4 -4,-62 366,-62 366,4 -4,4"/>
<!-- Node1 -->
<g id="node1" class="node"><title>Node1</title>
<polygon fill="#bfbfbf" stroke="black" points="0,-0.5 0,-19.5 88,-19.5 88,-0.5 0,-0.5"/>
<text text-anchor="middle" x="44" y="-7.5" font-family="Helvetica,sans-Serif" font-size="10.00">deleteOldValues</text>
</g>
<!-- Node2 -->
<g id="node2" class="node"><title>Node2</title>
<g id="a_node2"><a xlink:href="backend_8js.html#a6879c4dc7db6793991cd72ab19ca85ea" target="_top" xlink:title="getProviders">
<polygon fill="white" stroke="black" points="124,-19.5 124,-38.5 195,-38.5 195,-19.5 124,-19.5"/>
<text text-anchor="middle" x="159.5" y="-26.5" font-family="Helvetica,sans-Serif" font-size="10.00">getProviders</text>
</a>
</g>
</g>
<!-- Node1&#45;&gt;Node2 -->
<g id="edge1" class="edge"><title>Node1&#45;&gt;Node2</title>
<path fill="none" stroke="midnightblue" d="M98.3175,-18.9254C106.991,-20.3774 115.772,-21.8474 123.846,-23.199"/>
<polygon fill="midnightblue" stroke="midnightblue" points="98.6739,-15.4364 88.2333,-17.2373 97.5181,-22.3404 98.6739,-15.4364"/>
</g>
<!-- Node4 -->
<g id="node4" class="node"><title>Node4</title>
<g id="a_node4"><a xlink:href="backend_8js.html#a40b1dad19404febd0ef4c2b8be5e1033" target="_top" xlink:title="getAllMetadata">
<polygon fill="white" stroke="black" points="255.5,-0.5 255.5,-19.5 337.5,-19.5 337.5,-0.5 255.5,-0.5"/>
<text text-anchor="middle" x="296.5" y="-7.5" font-family="Helvetica,sans-Serif" font-size="10.00">getAllMetadata</text>
</a>
</g>
</g>
<!-- Node1&#45;&gt;Node4 -->
<g id="edge5" class="edge"><title>Node1&#45;&gt;Node4</title>
<path fill="none" stroke="midnightblue" d="M98.071,-10C145.135,-10 212.841,-10 255.479,-10"/>
<polygon fill="midnightblue" stroke="midnightblue" points="98.0625,-6.5001 88.0625,-10 98.0625,-13.5001 98.0625,-6.5001"/>
</g>
<!-- Node3 -->
<g id="node3" class="node"><title>Node3</title>
<g id="a_node3"><a xlink:href="namespace_webservices.html#a982728deb9ddc1d58b4496ef46159b73" target="_top" xlink:title="Webservices\\getProviders">
<polygon fill="white" stroke="black" points="231,-38.5 231,-57.5 362,-57.5 362,-38.5 231,-38.5"/>
<text text-anchor="middle" x="296.5" y="-45.5" font-family="Helvetica,sans-Serif" font-size="10.00">Webservices\getProviders</text>
</a>
</g>
</g>
<!-- Node2&#45;&gt;Node3 -->
<g id="edge2" class="edge"><title>Node2&#45;&gt;Node3</title>
<path fill="none" stroke="midnightblue" d="M205.364,-35.3142C213.584,-36.4711 222.31,-37.6993 230.972,-38.9182"/>
<polygon fill="midnightblue" stroke="midnightblue" points="205.656,-31.8209 195.266,-33.893 204.68,-38.7526 205.656,-31.8209"/>
</g>
<!-- Node2&#45;&gt;Node4 -->
<g id="edge3" class="edge"><title>Node2&#45;&gt;Node4</title>
<path fill="none" stroke="midnightblue" d="M198.464,-17.5176C216.182,-14.2428 237.281,-11.2416 255.273,-9.4273"/>
<polygon fill="midnightblue" stroke="midnightblue" points="197.615,-14.1172 188.472,-19.4705 198.958,-20.9872 197.615,-14.1172"/>
</g>
<!-- Node4&#45;&gt;Node2 -->
<g id="edge4" class="edge"><title>Node4&#45;&gt;Node2</title>
<path fill="none" stroke="midnightblue" d="M257.83,-21.428C238.229,-25.062 214.426,-28.3661 195.266,-30.0953"/>
<polygon fill="midnightblue" stroke="midnightblue" points="258.51,-24.8613 267.651,-19.5041 257.164,-17.9919 258.51,-24.8613"/>
</g>
</g>
</svg>
