<?xml version="1.0" encoding="UTF-8" standalone="no"?>
<!DOCTYPE svg PUBLIC "-//W3C//DTD SVG 1.1//EN"
 "http://www.w3.org/Graphics/SVG/1.1/DTD/svg11.dtd">
<!-- Generated by graphviz version 2.38.0 (20140413.2041)
 -->
<!-- Title: getAllMetadata Pages: 1 -->
<svg width="426pt" height="448pt"
 viewBox="0.00 0.00 426.00 447.78" xmlns="http://www.w3.org/2000/svg" xmlns:xlink="http://www.w3.org/1999/xlink">
<g id="graph0" class="graph" transform="scale(1 1) rotate(0) translate(4 443.781)">
<title>getAllMetadata</title>
<polygon fill="white" stroke="none" points="-4,4 -4,-443.781 422,-443.781 422,4 -4,4"/>
<!-- Node1 -->
<g id="node1" class="node"><title>Node1</title>
<polygon fill="#bfbfbf" stroke="black" points="0,-190.5 0,-209.5 82,-209.5 82,-190.5 0,-190.5"/>
<text text-anchor="middle" x="41" y="-197.5" font-family="Helvetica,sans-Serif" font-size="10.00">getAllMetadata</text>
</g>
<!-- Node2 -->
<g id="node2" class="node"><title>Node2</title>
<g id="a_node2"><a xlink:href="backend_8js.html#a06ed191b32ca45ffc8c3ad30bf6f6cf4" target="_top" xlink:title="getDataSourceAccessPoints">
<polygon fill="white" stroke="black" points="118,-380.5 118,-399.5 261,-399.5 261,-380.5 118,-380.5"/>
<text text-anchor="middle" x="189.5" y="-387.5" font-family="Helvetica,sans-Serif" font-size="10.00">getDataSourceAccessPoints</text>
</a>
</g>
</g>
<!-- Node1&#45;&gt;Node2 -->
<g id="edge1" class="edge"><title>Node1&#45;&gt;Node2</title>
<path fill="none" stroke="midnightblue" d="M43.6959,-209.831C49.11,-238.259 68.6125,-321.375 118,-366 122.486,-370.054 127.686,-373.427 133.189,-376.234"/>
<polygon fill="midnightblue" stroke="midnightblue" points="132.104,-379.582 142.664,-380.442 134.946,-373.184 132.104,-379.582"/>
</g>
<!-- Node3 -->
<g id="node3" class="node"><title>Node3</title>
<g id="a_node3"><a xlink:href="backend_8js.html#a82c76ce90ab8a91de559f9b35d0088d7" target="_top" xlink:title="getDataSetTitles">
<polygon fill="white" stroke="black" points="312.5,-408.5 312.5,-427.5 402.5,-427.5 402.5,-408.5 312.5,-408.5"/>
<text text-anchor="middle" x="357.5" y="-415.5" font-family="Helvetica,sans-Serif" font-size="10.00">getDataSetTitles</text>
</a>
</g>
</g>
<!-- Node1&#45;&gt;Node3 -->
<g id="edge4" class="edge"><title>Node1&#45;&gt;Node3</title>
<path fill="none" stroke="midnightblue" d="M42.0402,-209.638C42.7637,-243.792 50.2954,-359.649 118,-409 174.819,-450.416 261.101,-440.882 312.824,-429.745"/>
<polygon fill="midnightblue" stroke="midnightblue" points="313.709,-433.133 322.688,-427.51 312.162,-426.306 313.709,-433.133"/>
</g>
<!-- Node4 -->
<g id="node4" class="node"><title>Node4</title>
<g id="a_node4"><a xlink:href="backend_8js.html#a51fe50f57ea6df6fb0bcbd22099962ab" target="_top" xlink:title="getSchemas">
<polygon fill="white" stroke="black" points="322,-351.5 322,-370.5 393,-370.5 393,-351.5 322,-351.5"/>
<text text-anchor="middle" x="357.5" y="-358.5" font-family="Helvetica,sans-Serif" font-size="10.00">getSchemas</text>
</a>
</g>
</g>
<!-- Node1&#45;&gt;Node4 -->
<g id="edge5" class="edge"><title>Node1&#45;&gt;Node4</title>
<path fill="none" stroke="midnightblue" d="M44.3355,-209.781C50.9381,-235.076 72.3033,-302.782 118,-333 176.235,-371.509 260.339,-371.618 311.547,-367.088"/>
<polygon fill="midnightblue" stroke="midnightblue" points="312.033,-370.557 321.643,-366.096 311.349,-363.59 312.033,-370.557"/>
</g>
<!-- Node5 -->
<g id="node5" class="node"><title>Node5</title>
<g id="a_node5"><a xlink:href="backend_8js.html#ab8857c782e0fd01946658e1a47bd295c" target="_top" xlink:title="saveDSAPoint">
<polygon fill="white" stroke="black" points="149,-304.5 149,-323.5 230,-323.5 230,-304.5 149,-304.5"/>
<text text-anchor="middle" x="189.5" y="-311.5" font-family="Helvetica,sans-Serif" font-size="10.00">saveDSAPoint</text>
</a>
</g>
</g>
<!-- Node1&#45;&gt;Node5 -->
<g id="edge6" class="edge"><title>Node1&#45;&gt;Node5</title>
<path fill="none" stroke="midnightblue" d="M47.0194,-209.769C57.4817,-229.129 83.541,-272.441 118,-295 124.416,-299.2 131.736,-302.476 139.175,-305.03"/>
<polygon fill="midnightblue" stroke="midnightblue" points="138.371,-308.444 148.956,-307.989 140.398,-301.744 138.371,-308.444"/>
</g>
<!-- Node7 -->
<g id="node7" class="node"><title>Node7</title>
<g id="a_node7"><a xlink:href="backend_8js.html#abcad65499b560fbefbaa2b51424bf9ff" target="_top" xlink:title="getCapabilities">
<polygon fill="white" stroke="black" points="149,-266.5 149,-285.5 230,-285.5 230,-266.5 149,-266.5"/>
<text text-anchor="middle" x="189.5" y="-273.5" font-family="Helvetica,sans-Serif" font-size="10.00">getCapabilities</text>
</a>
</g>
</g>
<!-- Node1&#45;&gt;Node7 -->
<g id="edge8" class="edge"><title>Node1&#45;&gt;Node7</title>
<path fill="none" stroke="midnightblue" d="M52.4566,-209.929C66.3626,-222.615 92.2013,-244.43 118,-257 124.581,-260.206 131.78,-262.933 138.985,-265.233"/>
<polygon fill="midnightblue" stroke="midnightblue" points="138.172,-268.643 148.753,-268.111 140.15,-261.928 138.172,-268.643"/>
</g>
<!-- Node8 -->
<g id="node8" class="node"><title>Node8</title>
<g id="a_node8"><a xlink:href="backend_8js.html#a5f8e953a90f434851f20518b1e3baeb6" target="_top" xlink:title="getArchives">
<polygon fill="white" stroke="black" points="155.5,-228.5 155.5,-247.5 223.5,-247.5 223.5,-228.5 155.5,-228.5"/>
<text text-anchor="middle" x="189.5" y="-235.5" font-family="Helvetica,sans-Serif" font-size="10.00">getArchives</text>
</a>
</g>
</g>
<!-- Node1&#45;&gt;Node8 -->
<g id="edge9" class="edge"><title>Node1&#45;&gt;Node8</title>
<path fill="none" stroke="midnightblue" d="M78.9681,-209.589C99.0732,-214.804 124.057,-221.284 145.085,-226.739"/>
<polygon fill="midnightblue" stroke="midnightblue" points="144.492,-230.201 155.051,-229.324 146.25,-223.425 144.492,-230.201"/>
</g>
<!-- Node9 -->
<g id="node9" class="node"><title>Node9</title>
<g id="a_node9"><a xlink:href="backend_8js.html#add7d88a4ad05a1fb2478eff9a1857824" target="_top" xlink:title="getUsefulLinks">
<polygon fill="white" stroke="black" points="148.5,-190.5 148.5,-209.5 230.5,-209.5 230.5,-190.5 148.5,-190.5"/>
<text text-anchor="middle" x="189.5" y="-197.5" font-family="Helvetica,sans-Serif" font-size="10.00">getUsefulLinks</text>
</a>
</g>
</g>
<!-- Node1&#45;&gt;Node9 -->
<g id="edge10" class="edge"><title>Node1&#45;&gt;Node9</title>
<path fill="none" stroke="midnightblue" d="M82.0318,-200C99.3213,-200 119.743,-200 138.054,-200"/>
<polygon fill="midnightblue" stroke="midnightblue" points="138.262,-203.5 148.262,-200 138.262,-196.5 138.262,-203.5"/>
</g>
<!-- Node10 -->
<g id="node10" class="node"><title>Node10</title>
<g id="a_node10"><a xlink:href="general_8js.html#ad9f2873ff9e09926e2f18c529721c6f8" target="_top" xlink:title="getMessages">
<polygon fill="white" stroke="black" points="152,-152.5 152,-171.5 227,-171.5 227,-152.5 152,-152.5"/>
<text text-anchor="middle" x="189.5" y="-159.5" font-family="Helvetica,sans-Serif" font-size="10.00">getMessages</text>
</a>
</g>
</g>
<!-- Node1&#45;&gt;Node10 -->
<g id="edge11" class="edge"><title>Node1&#45;&gt;Node10</title>
<path fill="none" stroke="midnightblue" d="M78.9681,-190.411C98.1262,-185.442 121.714,-179.323 142.088,-174.039"/>
<polygon fill="midnightblue" stroke="midnightblue" points="142.997,-177.419 151.798,-171.52 141.239,-170.643 142.997,-177.419"/>
</g>
<!-- Node11 -->
<g id="node11" class="node"><title>Node11</title>
<g id="a_node11"><a xlink:href="backend_8js.html#a6879c4dc7db6793991cd72ab19ca85ea" target="_top" xlink:title="getProviders">
<polygon fill="white" stroke="black" points="154,-76.5 154,-95.5 225,-95.5 225,-76.5 154,-76.5"/>
<text text-anchor="middle" x="189.5" y="-83.5" font-family="Helvetica,sans-Serif" font-size="10.00">getProviders</text>
</a>
</g>
</g>
<!-- Node1&#45;&gt;Node11 -->
<g id="edge12" class="edge"><title>Node1&#45;&gt;Node11</title>
<path fill="none" stroke="midnightblue" d="M45.1745,-190.347C54.381,-169.833 82.6952,-125.093 118,-101 125.843,-95.6479 134.988,-91.3915 144.042,-88.255"/>
<polygon fill="midnightblue" stroke="midnightblue" points="145.22,-91.555 153.765,-85.2923 143.179,-84.859 145.22,-91.555"/>
</g>
<!-- Node12 -->
<g id="node12" class="node"><title>Node12</title>
<g id="a_node12"><a xlink:href="backend_8js.html#a97b71eb0b809c2808e6b79e2503278ba" target="_top" xlink:title="deleteOldValues">
<polygon fill="white" stroke="black" points="313.5,-104.5 313.5,-123.5 401.5,-123.5 401.5,-104.5 313.5,-104.5"/>
<text text-anchor="middle" x="357.5" y="-111.5" font-family="Helvetica,sans-Serif" font-size="10.00">deleteOldValues</text>
</a>
</g>
</g>
<!-- Node1&#45;&gt;Node12 -->
<g id="edge17" class="edge"><title>Node1&#45;&gt;Node12</title>
<path fill="none" stroke="midnightblue" d="M51.2808,-190.4C64.6584,-177.23 90.7612,-153.951 118,-143 178.339,-118.742 253.644,-113.275 303.306,-112.708"/>
<polygon fill="midnightblue" stroke="midnightblue" points="303.517,-116.208 313.499,-112.657 303.481,-109.208 303.517,-116.208"/>
</g>
<!-- Node13 -->
<g id="node13" class="node"><title>Node13</title>
<g id="a_node13"><a xlink:href="backend_8js.html#a46a518d9683fe224cd47219f3da32d07" target="_top" xlink:title="getCountConcepts">
<polygon fill="white" stroke="black" points="308.5,-57.5 308.5,-76.5 406.5,-76.5 406.5,-57.5 308.5,-57.5"/>
<text text-anchor="middle" x="357.5" y="-64.5" font-family="Helvetica,sans-Serif" font-size="10.00">getCountConcepts</text>
</a>
</g>
</g>
<!-- Node1&#45;&gt;Node13 -->
<g id="edge18" class="edge"><title>Node1&#45;&gt;Node13</title>
<path fill="none" stroke="midnightblue" d="M44.0541,-190.284C50.0824,-164.536 70.3866,-94.6311 118,-67 178.811,-31.7103 263.88,-43.235 314.273,-54.9971"/>
<polygon fill="midnightblue" stroke="midnightblue" points="313.63,-58.4429 324.175,-57.4162 315.291,-51.6429 313.63,-58.4429"/>
</g>
<!-- Node14 -->
<g id="node14" class="node"><title>Node14</title>
<g id="a_node14"><a xlink:href="backend_8js.html#af5cbf7c37f28fddd8b8a5149a7ed5900" target="_top" xlink:title="getLinkCategories">
<polygon fill="white" stroke="black" points="142,-0.5 142,-19.5 237,-19.5 237,-0.5 142,-0.5"/>
<text text-anchor="middle" x="189.5" y="-7.5" font-family="Helvetica,sans-Serif" font-size="10.00">getLinkCategories</text>
</a>
</g>
</g>
<!-- Node1&#45;&gt;Node14 -->
<g id="edge16" class="edge"><title>Node1&#45;&gt;Node14</title>
<path fill="none" stroke="midnightblue" d="M43.6959,-190.169C49.11,-161.741 68.6125,-78.6251 118,-34 122.486,-29.9463 127.686,-26.5727 133.189,-23.766"/>
<polygon fill="midnightblue" stroke="midnightblue" points="134.946,-26.8156 142.664,-19.5578 132.104,-20.4182 134.946,-26.8156"/>
</g>
<!-- Node2&#45;&gt;Node3 -->
<g id="edge2" class="edge"><title>Node2&#45;&gt;Node3</title>
<path fill="none" stroke="midnightblue" d="M247.163,-399.558C264.986,-402.564 284.616,-405.875 302.266,-408.852"/>
<polygon fill="midnightblue" stroke="midnightblue" points="301.958,-412.349 312.401,-410.562 303.122,-405.447 301.958,-412.349"/>
</g>
<!-- Node2&#45;&gt;Node4 -->
<g id="edge3" class="edge"><title>Node2&#45;&gt;Node4</title>
<path fill="none" stroke="midnightblue" d="M245.315,-380.424C266.804,-376.67 291.155,-372.416 311.578,-368.848"/>
<polygon fill="midnightblue" stroke="midnightblue" points="312.312,-372.273 321.56,-367.104 311.107,-365.377 312.312,-372.273"/>
</g>
<!-- Node6 -->
<g id="node6" class="node"><title>Node6</title>
<g id="a_node6"><a xlink:href="general_8js.html#aecfeb655371b751d36422b7a93a66279" target="_top" xlink:title="displaySystemMessage">
<polygon fill="white" stroke="black" points="297,-304.5 297,-323.5 418,-323.5 418,-304.5 297,-304.5"/>
<text text-anchor="middle" x="357.5" y="-311.5" font-family="Helvetica,sans-Serif" font-size="10.00">displaySystemMessage</text>
</a>
</g>
</g>
<!-- Node5&#45;&gt;Node6 -->
<g id="edge7" class="edge"><title>Node5&#45;&gt;Node6</title>
<path fill="none" stroke="midnightblue" d="M230.261,-314C247.25,-314 267.593,-314 286.936,-314"/>
<polygon fill="midnightblue" stroke="midnightblue" points="286.937,-317.5 296.937,-314 286.937,-310.5 286.937,-317.5"/>
</g>
<!-- Node11&#45;&gt;Node1 -->
<g id="edge14" class="edge"><title>Node11&#45;&gt;Node1</title>
<path fill="none" stroke="midnightblue" d="M173.119,-95.5785C158.064,-100.96 134.981,-107.412 118,-119 92.8859,-136.138 71.3093,-163.725 57.6316,-182.081"/>
<polygon fill="midnightblue" stroke="midnightblue" points="54.7099,-180.145 51.5708,-190.264 60.3351,-184.311 54.7099,-180.145"/>
</g>
<!-- Node11&#45;&gt;Node12 -->
<g id="edge13" class="edge"><title>Node11&#45;&gt;Node12</title>
<path fill="none" stroke="midnightblue" d="M225.299,-91.8697C247.96,-95.6921 277.957,-100.752 303.548,-105.068"/>
<polygon fill="midnightblue" stroke="midnightblue" points="303.036,-108.531 313.479,-106.743 304.201,-101.629 303.036,-108.531"/>
</g>
<!-- Node11&#45;&gt;Node13 -->
<g id="edge15" class="edge"><title>Node11&#45;&gt;Node13</title>
<path fill="none" stroke="midnightblue" d="M225.299,-82.017C246.345,-79.6081 273.72,-76.4749 298.015,-73.6941"/>
<polygon fill="midnightblue" stroke="midnightblue" points="298.674,-77.1415 308.212,-72.527 297.878,-70.1869 298.674,-77.1415"/>
</g>
</g>
</svg>
