<?xml version="1.0" encoding="UTF-8" standalone="no"?>
<!DOCTYPE svg PUBLIC "-//W3C//DTD SVG 1.1//EN"
 "http://www.w3.org/Graphics/SVG/1.1/DTD/svg11.dtd">
<!-- Generated by graphviz version 2.38.0 (20140413.2041)
 -->
<!-- Title: getAllMetadata Pages: 1 -->
<svg width="426pt" height="486pt"
 viewBox="0.00 0.00 426.00 486.28" xmlns="http://www.w3.org/2000/svg" xmlns:xlink="http://www.w3.org/1999/xlink">
<g id="graph0" class="graph" transform="scale(1 1) rotate(0) translate(4 482.283)">
<title>getAllMetadata</title>
<polygon fill="white" stroke="none" points="-4,4 -4,-482.283 422,-482.283 422,4 -4,4"/>
<!-- Node1 -->
<g id="node1" class="node"><title>Node1</title>
<polygon fill="#bfbfbf" stroke="black" points="0,-209.5 0,-228.5 82,-228.5 82,-209.5 0,-209.5"/>
<text text-anchor="middle" x="41" y="-216.5" font-family="Helvetica,sans-Serif" font-size="10.00">getAllMetadata</text>
</g>
<!-- Node2 -->
<g id="node2" class="node"><title>Node2</title>
<g id="a_node2"><a xlink:href="backend_8js.html#a06ed191b32ca45ffc8c3ad30bf6f6cf4" target="_top" xlink:title="getDataSourceAccessPoints">
<polygon fill="white" stroke="black" points="118,-418.5 118,-437.5 261,-437.5 261,-418.5 118,-418.5"/>
<text text-anchor="middle" x="189.5" y="-425.5" font-family="Helvetica,sans-Serif" font-size="10.00">getDataSourceAccessPoints</text>
</a>
</g>
</g>
<!-- Node1&#45;&gt;Node2 -->
<g id="edge1" class="edge"><title>Node1&#45;&gt;Node2</title>
<path fill="none" stroke="midnightblue" d="M43.1515,-228.617C47.2852,-258.91 64.1154,-353.34 118,-404 122.285,-408.028 127.272,-411.383 132.578,-414.176"/>
<polygon fill="midnightblue" stroke="midnightblue" points="131.189,-417.389 141.739,-418.365 134.101,-411.023 131.189,-417.389"/>
</g>
<!-- Node3 -->
<g id="node3" class="node"><title>Node3</title>
<g id="a_node3"><a xlink:href="backend_8js.html#a82c76ce90ab8a91de559f9b35d0088d7" target="_top" xlink:title="getDataSetTitles">
<polygon fill="white" stroke="black" points="312.5,-446.5 312.5,-465.5 402.5,-465.5 402.5,-446.5 312.5,-446.5"/>
<text text-anchor="middle" x="357.5" y="-453.5" font-family="Helvetica,sans-Serif" font-size="10.00">getDataSetTitles</text>
</a>
</g>
</g>
<!-- Node1&#45;&gt;Node3 -->
<g id="edge4" class="edge"><title>Node1&#45;&gt;Node3</title>
<path fill="none" stroke="midnightblue" d="M41.7161,-228.973C41.2831,-265.464 45.226,-392.433 118,-447 174.565,-489.413 261.677,-479.287 313.488,-467.816"/>
<polygon fill="midnightblue" stroke="midnightblue" points="314.414,-471.194 323.36,-465.519 312.827,-464.377 314.414,-471.194"/>
</g>
<!-- Node4 -->
<g id="node4" class="node"><title>Node4</title>
<g id="a_node4"><a xlink:href="backend_8js.html#a51fe50f57ea6df6fb0bcbd22099962ab" target="_top" xlink:title="getSchemas">
<polygon fill="white" stroke="black" points="322,-389.5 322,-408.5 393,-408.5 393,-389.5 322,-389.5"/>
<text text-anchor="middle" x="357.5" y="-396.5" font-family="Helvetica,sans-Serif" font-size="10.00">getSchemas</text>
</a>
</g>
</g>
<!-- Node1&#45;&gt;Node4 -->
<g id="edge5" class="edge"><title>Node1&#45;&gt;Node4</title>
<path fill="none" stroke="midnightblue" d="M43.5676,-228.512C48.634,-255.925 67.2878,-335.405 118,-371 175.304,-411.222 260.056,-410.723 311.587,-405.62"/>
<polygon fill="midnightblue" stroke="midnightblue" points="312.184,-409.075 321.745,-404.511 311.424,-402.117 312.184,-409.075"/>
</g>
<!-- Node5 -->
<g id="node5" class="node"><title>Node5</title>
<g id="a_node5"><a xlink:href="backend_8js.html#ab8857c782e0fd01946658e1a47bd295c" target="_top" xlink:title="saveDSAPoint">
<polygon fill="white" stroke="black" points="149,-342.5 149,-361.5 230,-361.5 230,-342.5 149,-342.5"/>
<text text-anchor="middle" x="189.5" y="-349.5" font-family="Helvetica,sans-Serif" font-size="10.00">saveDSAPoint</text>
</a>
</g>
</g>
<!-- Node1&#45;&gt;Node5 -->
<g id="edge6" class="edge"><title>Node1&#45;&gt;Node5</title>
<path fill="none" stroke="midnightblue" d="M45.64,-228.662C54.4642,-250.735 79.1717,-305.103 118,-333 124.37,-337.577 131.779,-341.051 139.353,-343.688"/>
<polygon fill="midnightblue" stroke="midnightblue" points="138.384,-347.052 148.969,-346.601 140.413,-340.352 138.384,-347.052"/>
</g>
<!-- Node7 -->
<g id="node7" class="node"><title>Node7</title>
<g id="a_node7"><a xlink:href="backend_8js.html#abcad65499b560fbefbaa2b51424bf9ff" target="_top" xlink:title="getCapabilities">
<polygon fill="white" stroke="black" points="149,-304.5 149,-323.5 230,-323.5 230,-304.5 149,-304.5"/>
<text text-anchor="middle" x="189.5" y="-311.5" font-family="Helvetica,sans-Serif" font-size="10.00">getCapabilities</text>
</a>
</g>
</g>
<!-- Node1&#45;&gt;Node7 -->
<g id="edge8" class="edge"><title>Node1&#45;&gt;Node7</title>
<path fill="none" stroke="midnightblue" d="M48.8102,-228.521C60.8798,-244.683 87.6322,-277.438 118,-295 124.413,-298.709 131.571,-301.714 138.801,-304.144"/>
<polygon fill="midnightblue" stroke="midnightblue" points="138.056,-307.575 148.641,-307.113 140.078,-300.874 138.056,-307.575"/>
</g>
<!-- Node8 -->
<g id="node8" class="node"><title>Node8</title>
<g id="a_node8"><a xlink:href="backend_8js.html#a5f8e953a90f434851f20518b1e3baeb6" target="_top" xlink:title="getArchives">
<polygon fill="white" stroke="black" points="155.5,-266.5 155.5,-285.5 223.5,-285.5 223.5,-266.5 155.5,-266.5"/>
<text text-anchor="middle" x="189.5" y="-273.5" font-family="Helvetica,sans-Serif" font-size="10.00">getArchives</text>
</a>
</g>
</g>
<!-- Node1&#45;&gt;Node8 -->
<g id="edge9" class="edge"><title>Node1&#45;&gt;Node8</title>
<path fill="none" stroke="midnightblue" d="M58.7637,-228.608C73.8777,-236.97 96.9041,-248.976 118,-257 126.788,-260.342 136.402,-263.343 145.625,-265.919"/>
<polygon fill="midnightblue" stroke="midnightblue" points="144.858,-269.337 155.423,-268.544 146.669,-262.576 144.858,-269.337"/>
</g>
<!-- Node9 -->
<g id="node9" class="node"><title>Node9</title>
<g id="a_node9"><a xlink:href="backend_8js.html#add7d88a4ad05a1fb2478eff9a1857824" target="_top" xlink:title="getUsefulLinks">
<polygon fill="white" stroke="black" points="148.5,-228.5 148.5,-247.5 230.5,-247.5 230.5,-228.5 148.5,-228.5"/>
<text text-anchor="middle" x="189.5" y="-235.5" font-family="Helvetica,sans-Serif" font-size="10.00">getUsefulLinks</text>
</a>
</g>
</g>
<!-- Node1&#45;&gt;Node9 -->
<g id="edge10" class="edge"><title>Node1&#45;&gt;Node9</title>
<path fill="none" stroke="midnightblue" d="M82.0318,-224.192C99.4017,-226.445 119.933,-229.107 138.309,-231.491"/>
<polygon fill="midnightblue" stroke="midnightblue" points="137.895,-234.966 148.262,-232.781 138.796,-228.024 137.895,-234.966"/>
</g>
<!-- Node10 -->
<g id="node10" class="node"><title>Node10</title>
<g id="a_node10"><a xlink:href="landingpage_8js.html#aee30447fc51512cf1a5e364c6b313a3c" target="_top" xlink:title="ready">
<polygon fill="white" stroke="black" points="169,-190.5 169,-209.5 210,-209.5 210,-190.5 169,-190.5"/>
<text text-anchor="middle" x="189.5" y="-197.5" font-family="Helvetica,sans-Serif" font-size="10.00">ready</text>
</a>
</g>
</g>
<!-- Node1&#45;&gt;Node10 -->
<g id="edge11" class="edge"><title>Node1&#45;&gt;Node10</title>
<path fill="none" stroke="midnightblue" d="M82.0318,-213.808C106.203,-210.673 136.497,-206.744 158.584,-203.88"/>
<polygon fill="midnightblue" stroke="midnightblue" points="159.238,-207.325 168.704,-202.567 158.337,-200.383 159.238,-207.325"/>
</g>
<!-- Node11 -->
<g id="node11" class="node"><title>Node11</title>
<g id="a_node11"><a xlink:href="general_8js.html#ad9f2873ff9e09926e2f18c529721c6f8" target="_top" xlink:title="getMessages">
<polygon fill="white" stroke="black" points="152,-152.5 152,-171.5 227,-171.5 227,-152.5 152,-152.5"/>
<text text-anchor="middle" x="189.5" y="-159.5" font-family="Helvetica,sans-Serif" font-size="10.00">getMessages</text>
</a>
</g>
</g>
<!-- Node1&#45;&gt;Node11 -->
<g id="edge12" class="edge"><title>Node1&#45;&gt;Node11</title>
<path fill="none" stroke="midnightblue" d="M58.7637,-209.392C73.8777,-201.03 96.9041,-189.024 118,-181 125.665,-178.085 133.959,-175.429 142.073,-173.089"/>
<polygon fill="midnightblue" stroke="midnightblue" points="143.122,-176.43 151.829,-170.394 141.258,-169.683 143.122,-176.43"/>
</g>
<!-- Node12 -->
<g id="node12" class="node"><title>Node12</title>
<g id="a_node12"><a xlink:href="backend_8js.html#a6879c4dc7db6793991cd72ab19ca85ea" target="_top" xlink:title="getProviders">
<polygon fill="white" stroke="black" points="154,-76.5 154,-95.5 225,-95.5 225,-76.5 154,-76.5"/>
<text text-anchor="middle" x="189.5" y="-83.5" font-family="Helvetica,sans-Serif" font-size="10.00">getProviders</text>
</a>
</g>
</g>
<!-- Node1&#45;&gt;Node12 -->
<g id="edge13" class="edge"><title>Node1&#45;&gt;Node12</title>
<path fill="none" stroke="midnightblue" d="M44.3889,-209.492C52.1963,-186.382 78.7346,-130.542 118,-101 125.663,-95.2344 134.804,-90.7951 143.923,-87.6164"/>
<polygon fill="midnightblue" stroke="midnightblue" points="145.173,-90.8951 153.738,-84.6588 143.154,-84.1928 145.173,-90.8951"/>
</g>
<!-- Node13 -->
<g id="node13" class="node"><title>Node13</title>
<g id="a_node13"><a xlink:href="backend_8js.html#a97b71eb0b809c2808e6b79e2503278ba" target="_top" xlink:title="deleteOldValues">
<polygon fill="white" stroke="black" points="313.5,-104.5 313.5,-123.5 401.5,-123.5 401.5,-104.5 313.5,-104.5"/>
<text text-anchor="middle" x="357.5" y="-111.5" font-family="Helvetica,sans-Serif" font-size="10.00">deleteOldValues</text>
</a>
</g>
</g>
<!-- Node1&#45;&gt;Node13 -->
<g id="edge18" class="edge"><title>Node1&#45;&gt;Node13</title>
<path fill="none" stroke="midnightblue" d="M48.3769,-209.281C59.979,-192.507 86.2932,-158.441 118,-143 176.765,-114.381 252.952,-109.933 303.213,-110.787"/>
<polygon fill="midnightblue" stroke="midnightblue" points="303.135,-114.287 313.218,-111.033 303.307,-107.289 303.135,-114.287"/>
</g>
<!-- Node14 -->
<g id="node14" class="node"><title>Node14</title>
<g id="a_node14"><a xlink:href="backend_8js.html#a46a518d9683fe224cd47219f3da32d07" target="_top" xlink:title="getCountConcepts">
<polygon fill="white" stroke="black" points="308.5,-57.5 308.5,-76.5 406.5,-76.5 406.5,-57.5 308.5,-57.5"/>
<text text-anchor="middle" x="357.5" y="-64.5" font-family="Helvetica,sans-Serif" font-size="10.00">getCountConcepts</text>
</a>
</g>
</g>
<!-- Node1&#45;&gt;Node14 -->
<g id="edge19" class="edge"><title>Node1&#45;&gt;Node14</title>
<path fill="none" stroke="midnightblue" d="M43.3746,-209.196C47.918,-180.989 65.2956,-99.5731 118,-67 178.632,-29.5275 265.562,-42.4498 316.008,-54.9369"/>
<polygon fill="midnightblue" stroke="midnightblue" points="315.336,-58.3783 325.894,-57.495 317.09,-51.6015 315.336,-58.3783"/>
</g>
<!-- Node15 -->
<g id="node15" class="node"><title>Node15</title>
<g id="a_node15"><a xlink:href="backend_8js.html#af5cbf7c37f28fddd8b8a5149a7ed5900" target="_top" xlink:title="getLinkCategories">
<polygon fill="white" stroke="black" points="142,-0.5 142,-19.5 237,-19.5 237,-0.5 142,-0.5"/>
<text text-anchor="middle" x="189.5" y="-7.5" font-family="Helvetica,sans-Serif" font-size="10.00">getLinkCategories</text>
</a>
</g>
</g>
<!-- Node1&#45;&gt;Node15 -->
<g id="edge17" class="edge"><title>Node1&#45;&gt;Node15</title>
<path fill="none" stroke="midnightblue" d="M43.1515,-209.383C47.2852,-179.09 64.1154,-84.6599 118,-34 122.285,-29.9718 127.272,-26.6174 132.578,-23.8245"/>
<polygon fill="midnightblue" stroke="midnightblue" points="134.101,-26.9767 141.739,-19.6345 131.189,-20.611 134.101,-26.9767"/>
</g>
<!-- Node2&#45;&gt;Node3 -->
<g id="edge2" class="edge"><title>Node2&#45;&gt;Node3</title>
<path fill="none" stroke="midnightblue" d="M247.163,-437.558C264.986,-440.564 284.616,-443.875 302.266,-446.852"/>
<polygon fill="midnightblue" stroke="midnightblue" points="301.958,-450.349 312.401,-448.562 303.122,-443.447 301.958,-450.349"/>
</g>
<!-- Node2&#45;&gt;Node4 -->
<g id="edge3" class="edge"><title>Node2&#45;&gt;Node4</title>
<path fill="none" stroke="midnightblue" d="M245.315,-418.424C266.804,-414.67 291.155,-410.416 311.578,-406.848"/>
<polygon fill="midnightblue" stroke="midnightblue" points="312.312,-410.273 321.56,-405.104 311.107,-403.377 312.312,-410.273"/>
</g>
<!-- Node6 -->
<g id="node6" class="node"><title>Node6</title>
<g id="a_node6"><a xlink:href="general_8js.html#aecfeb655371b751d36422b7a93a66279" target="_top" xlink:title="displaySystemMessage">
<polygon fill="white" stroke="black" points="297,-342.5 297,-361.5 418,-361.5 418,-342.5 297,-342.5"/>
<text text-anchor="middle" x="357.5" y="-349.5" font-family="Helvetica,sans-Serif" font-size="10.00">displaySystemMessage</text>
</a>
</g>
</g>
<!-- Node5&#45;&gt;Node6 -->
<g id="edge7" class="edge"><title>Node5&#45;&gt;Node6</title>
<path fill="none" stroke="midnightblue" d="M230.261,-352C247.25,-352 267.593,-352 286.936,-352"/>
<polygon fill="midnightblue" stroke="midnightblue" points="286.937,-355.5 296.937,-352 286.937,-348.5 286.937,-355.5"/>
</g>
<!-- Node12&#45;&gt;Node1 -->
<g id="edge15" class="edge"><title>Node12&#45;&gt;Node1</title>
<path fill="none" stroke="midnightblue" d="M172.01,-95.5377C156.771,-100.614 134.117,-106.874 118,-119 88.6136,-141.11 66.3558,-177.949 53.7432,-200.428"/>
<polygon fill="midnightblue" stroke="midnightblue" points="50.5737,-198.926 48.7857,-209.369 56.6957,-202.32 50.5737,-198.926"/>
</g>
<!-- Node12&#45;&gt;Node13 -->
<g id="edge14" class="edge"><title>Node12&#45;&gt;Node13</title>
<path fill="none" stroke="midnightblue" d="M225.299,-91.8697C247.96,-95.6921 277.957,-100.752 303.548,-105.068"/>
<polygon fill="midnightblue" stroke="midnightblue" points="303.036,-108.531 313.479,-106.743 304.201,-101.629 303.036,-108.531"/>
</g>
<!-- Node12&#45;&gt;Node14 -->
<g id="edge16" class="edge"><title>Node12&#45;&gt;Node14</title>
<path fill="none" stroke="midnightblue" d="M225.299,-82.017C246.345,-79.6081 273.72,-76.4749 298.015,-73.6941"/>
<polygon fill="midnightblue" stroke="midnightblue" points="298.674,-77.1415 308.212,-72.527 297.878,-70.1869 298.674,-77.1415"/>
</g>
</g>
</svg>
