<?xml version="1.0" encoding="UTF-8" standalone="no"?>
<!DOCTYPE svg PUBLIC "-//W3C//DTD SVG 1.1//EN"
 "http://www.w3.org/Graphics/SVG/1.1/DTD/svg11.dtd">
<!-- Generated by graphviz version 2.38.0 (20140413.2041)
 -->
<!-- Title: getCountConcepts Pages: 1 -->
<svg width="434pt" height="85pt"
 viewBox="0.00 0.00 434.00 85.00" xmlns="http://www.w3.org/2000/svg" xmlns:xlink="http://www.w3.org/1999/xlink">
<g id="graph0" class="graph" transform="scale(1 1) rotate(0) translate(4 81)">
<title>getCountConcepts</title>
<polygon fill="white" stroke="none" points="-4,4 -4,-81 430,-81 430,4 -4,4"/>
<!-- Node1 -->
<g id="node1" class="node"><title>Node1</title>
<polygon fill="#bfbfbf" stroke="black" points="0,-19.5 0,-38.5 98,-38.5 98,-19.5 0,-19.5"/>
<text text-anchor="middle" x="49" y="-26.5" font-family="Helvetica,sans-Serif" font-size="10.00">getCountConcepts</text>
</g>
<!-- Node2 -->
<g id="node2" class="node"><title>Node2</title>
<g id="a_node2"><a xlink:href="class_bms_1_1_bms.html#aec5f7b55928d9eb969567ab87ea9e021" target="_top" xlink:title="Bms\\Bms\\frontController">
<polygon fill="white" stroke="black" points="134,-57.5 134,-76.5 259,-76.5 259,-57.5 134,-57.5"/>
<text text-anchor="middle" x="196.5" y="-64.5" font-family="Helvetica,sans-Serif" font-size="10.00">Bms\Bms\frontController</text>
</a>
</g>
</g>
<!-- Node1&#45;&gt;Node2 -->
<g id="edge1" class="edge"><title>Node1&#45;&gt;Node2</title>
<path fill="none" stroke="midnightblue" d="M96.6532,-41.1843C116.853,-46.46 140.148,-52.5438 159.048,-57.4799"/>
<polygon fill="midnightblue" stroke="midnightblue" points="97.2757,-37.7296 86.7158,-38.589 95.5068,-44.5024 97.2757,-37.7296"/>
</g>
<!-- Node3 -->
<g id="node3" class="node"><title>Node3</title>
<g id="a_node3"><a xlink:href="backend_8js.html#a6879c4dc7db6793991cd72ab19ca85ea" target="_top" xlink:title="getProviders">
<polygon fill="white" stroke="black" points="161,-19.5 161,-38.5 232,-38.5 232,-19.5 161,-19.5"/>
<text text-anchor="middle" x="196.5" y="-26.5" font-family="Helvetica,sans-Serif" font-size="10.00">getProviders</text>
</a>
</g>
</g>
<!-- Node1&#45;&gt;Node3 -->
<g id="edge2" class="edge"><title>Node1&#45;&gt;Node3</title>
<path fill="none" stroke="midnightblue" d="M108.356,-29C126.159,-29 145.161,-29 160.863,-29"/>
<polygon fill="midnightblue" stroke="midnightblue" points="108.045,-25.5001 98.0454,-29 108.045,-32.5001 108.045,-25.5001"/>
</g>
<!-- Node5 -->
<g id="node5" class="node"><title>Node5</title>
<g id="a_node5"><a xlink:href="backend_8js.html#a40b1dad19404febd0ef4c2b8be5e1033" target="_top" xlink:title="getAllMetadata">
<polygon fill="white" stroke="black" points="319.5,-0.5 319.5,-19.5 401.5,-19.5 401.5,-0.5 319.5,-0.5"/>
<text text-anchor="middle" x="360.5" y="-7.5" font-family="Helvetica,sans-Serif" font-size="10.00">getAllMetadata</text>
</a>
</g>
</g>
<!-- Node1&#45;&gt;Node5 -->
<g id="edge6" class="edge"><title>Node1&#45;&gt;Node5</title>
<path fill="none" stroke="midnightblue" d="M93.9892,-17.116C106.792,-14.185 120.868,-11.4666 134,-10 198.586,-2.78671 274.228,-4.92815 319.432,-7.32539"/>
<polygon fill="midnightblue" stroke="midnightblue" points="92.9503,-13.7656 84.0366,-19.4923 94.5761,-20.5742 92.9503,-13.7656"/>
</g>
<!-- Node4 -->
<g id="node4" class="node"><title>Node4</title>
<g id="a_node4"><a xlink:href="namespace_webservices.html#a982728deb9ddc1d58b4496ef46159b73" target="_top" xlink:title="Webservices\\getProviders">
<polygon fill="white" stroke="black" points="295,-38.5 295,-57.5 426,-57.5 426,-38.5 295,-38.5"/>
<text text-anchor="middle" x="360.5" y="-45.5" font-family="Helvetica,sans-Serif" font-size="10.00">Webservices\getProviders</text>
</a>
</g>
</g>
<!-- Node3&#45;&gt;Node4 -->
<g id="edge3" class="edge"><title>Node3&#45;&gt;Node4</title>
<path fill="none" stroke="midnightblue" d="M242.495,-34.2771C258.661,-36.1732 277.23,-38.351 294.742,-40.4049"/>
<polygon fill="midnightblue" stroke="midnightblue" points="242.593,-30.7647 232.253,-33.076 241.777,-37.7171 242.593,-30.7647"/>
</g>
<!-- Node3&#45;&gt;Node5 -->
<g id="edge4" class="edge"><title>Node3&#45;&gt;Node5</title>
<path fill="none" stroke="midnightblue" d="M241.118,-17.8188C265.48,-14.0023 295.62,-10.5163 319.392,-8.78552"/>
<polygon fill="midnightblue" stroke="midnightblue" points="240.367,-14.3952 231.067,-19.4705 241.502,-21.3026 240.367,-14.3952"/>
</g>
<!-- Node5&#45;&gt;Node3 -->
<g id="edge5" class="edge"><title>Node5&#45;&gt;Node3</title>
<path fill="none" stroke="midnightblue" d="M315.858,-21.185C289.631,-25.2929 256.712,-29.0173 232.253,-30.5813"/>
<polygon fill="midnightblue" stroke="midnightblue" points="316.613,-24.6079 325.914,-19.533 315.478,-17.7005 316.613,-24.6079"/>
</g>
</g>
</svg>
