<?xml version="1.0" encoding="UTF-8" standalone="no"?>
<!DOCTYPE svg PUBLIC "-//W3C//DTD SVG 1.1//EN"
 "http://www.w3.org/Graphics/SVG/1.1/DTD/svg11.dtd">
<!-- Generated by graphviz version 2.38.0 (20140413.2041)
 -->
<!-- Title: addDSA Pages: 1 -->
<svg width="397pt" height="160pt"
 viewBox="0.00 0.00 397.00 160.37" xmlns="http://www.w3.org/2000/svg" xmlns:xlink="http://www.w3.org/1999/xlink">
<g id="graph0" class="graph" transform="scale(1 1) rotate(0) translate(4 156.365)">
<title>addDSA</title>
<polygon fill="white" stroke="none" points="-4,4 -4,-156.365 393,-156.365 393,4 -4,4"/>
<!-- Node1 -->
<g id="node1" class="node"><title>Node1</title>
<polygon fill="#bfbfbf" stroke="black" points="0,-64.9705 0,-83.9705 53,-83.9705 53,-64.9705 0,-64.9705"/>
<text text-anchor="middle" x="26.5" y="-71.9705" font-family="Helvetica,sans-Serif" font-size="10.00">addDSA</text>
</g>
<!-- Node2 -->
<g id="node2" class="node"><title>Node2</title>
<g id="a_node2"><a xlink:href="backend_8js.html#a06ed191b32ca45ffc8c3ad30bf6f6cf4" target="_top" xlink:title="getDataSourceAccessPoints">
<polygon fill="white" stroke="black" points="89,-102.97 89,-121.97 232,-121.97 232,-102.97 89,-102.97"/>
<text text-anchor="middle" x="160.5" y="-109.97" font-family="Helvetica,sans-Serif" font-size="10.00">getDataSourceAccessPoints</text>
</a>
</g>
</g>
<!-- Node1&#45;&gt;Node2 -->
<g id="edge1" class="edge"><title>Node1&#45;&gt;Node2</title>
<path fill="none" stroke="midnightblue" d="M53.2643,-81.8875C71.2705,-87.0711 95.7377,-94.1147 116.653,-100.136"/>
<polygon fill="midnightblue" stroke="midnightblue" points="115.705,-103.505 126.283,-102.908 117.641,-96.778 115.705,-103.505"/>
</g>
<!-- Node3 -->
<g id="node3" class="node"><title>Node3</title>
<g id="a_node3"><a xlink:href="backend_8js.html#a82c76ce90ab8a91de559f9b35d0088d7" target="_top" xlink:title="getDataSetTitles">
<polygon fill="white" stroke="black" points="283.5,-130.97 283.5,-149.97 373.5,-149.97 373.5,-130.97 283.5,-130.97"/>
<text text-anchor="middle" x="328.5" y="-137.97" font-family="Helvetica,sans-Serif" font-size="10.00">getDataSetTitles</text>
</a>
</g>
</g>
<!-- Node1&#45;&gt;Node3 -->
<g id="edge4" class="edge"><title>Node1&#45;&gt;Node3</title>
<path fill="none" stroke="midnightblue" d="M34.4811,-84.3597C44.6779,-97.8722 65.0585,-121.557 89,-131.47 148.455,-156.089 223.546,-154.15 273.421,-148.816"/>
<polygon fill="midnightblue" stroke="midnightblue" points="273.823,-152.293 283.357,-147.673 273.023,-145.339 273.823,-152.293"/>
</g>
<!-- Node4 -->
<g id="node4" class="node"><title>Node4</title>
<g id="a_node4"><a xlink:href="backend_8js.html#a51fe50f57ea6df6fb0bcbd22099962ab" target="_top" xlink:title="getSchemas">
<polygon fill="white" stroke="black" points="293,-73.9705 293,-92.9705 364,-92.9705 364,-73.9705 293,-73.9705"/>
<text text-anchor="middle" x="328.5" y="-80.9705" font-family="Helvetica,sans-Serif" font-size="10.00">getSchemas</text>
</a>
</g>
</g>
<!-- Node1&#45;&gt;Node4 -->
<g id="edge5" class="edge"><title>Node1&#45;&gt;Node4</title>
<path fill="none" stroke="midnightblue" d="M53.0778,-75.2378C104.083,-76.768 219.011,-80.2158 282.769,-82.1286"/>
<polygon fill="midnightblue" stroke="midnightblue" points="282.821,-85.6316 292.921,-82.4331 283.031,-78.6348 282.821,-85.6316"/>
</g>
<!-- Node5 -->
<g id="node5" class="node"><title>Node5</title>
<g id="a_node5"><a xlink:href="backend_8js.html#ab8857c782e0fd01946658e1a47bd295c" target="_top" xlink:title="saveDSAPoint">
<polygon fill="white" stroke="black" points="120,-26.9705 120,-45.9705 201,-45.9705 201,-26.9705 120,-26.9705"/>
<text text-anchor="middle" x="160.5" y="-33.9705" font-family="Helvetica,sans-Serif" font-size="10.00">saveDSAPoint</text>
</a>
</g>
</g>
<!-- Node1&#45;&gt;Node5 -->
<g id="edge6" class="edge"><title>Node1&#45;&gt;Node5</title>
<path fill="none" stroke="midnightblue" d="M53.2643,-67.0535C71.2705,-61.8699 95.7377,-54.8263 116.653,-48.8053"/>
<polygon fill="midnightblue" stroke="midnightblue" points="117.641,-52.163 126.283,-46.0331 115.705,-45.4362 117.641,-52.163"/>
</g>
<!-- Node6 -->
<g id="node6" class="node"><title>Node6</title>
<g id="a_node6"><a xlink:href="general_8js.html#aecfeb655371b751d36422b7a93a66279" target="_top" xlink:title="displaySystemMessage">
<polygon fill="white" stroke="black" points="268,-7.9705 268,-26.9705 389,-26.9705 389,-7.9705 268,-7.9705"/>
<text text-anchor="middle" x="328.5" y="-14.9705" font-family="Helvetica,sans-Serif" font-size="10.00">displaySystemMessage</text>
</a>
</g>
</g>
<!-- Node1&#45;&gt;Node6 -->
<g id="edge8" class="edge"><title>Node1&#45;&gt;Node6</title>
<path fill="none" stroke="midnightblue" d="M34.0924,-64.9117C44.1107,-51.3306 64.6048,-27.0371 89,-17.4705 148.325,5.79368 222.515,1.08678 272.258,-6.36847"/>
<polygon fill="midnightblue" stroke="midnightblue" points="271.753,-9.8321 282.177,-7.94021 272.848,-2.91834 271.753,-9.8321"/>
</g>
<!-- Node2&#45;&gt;Node3 -->
<g id="edge2" class="edge"><title>Node2&#45;&gt;Node3</title>
<path fill="none" stroke="midnightblue" d="M218.163,-122.028C235.986,-125.034 255.616,-128.346 273.266,-131.323"/>
<polygon fill="midnightblue" stroke="midnightblue" points="272.958,-134.82 283.401,-133.032 274.122,-127.917 272.958,-134.82"/>
</g>
<!-- Node2&#45;&gt;Node4 -->
<g id="edge3" class="edge"><title>Node2&#45;&gt;Node4</title>
<path fill="none" stroke="midnightblue" d="M216.315,-102.894C237.804,-99.1402 262.155,-94.8863 282.578,-91.3184"/>
<polygon fill="midnightblue" stroke="midnightblue" points="283.312,-94.7432 292.56,-89.5744 282.107,-87.8477 283.312,-94.7432"/>
</g>
<!-- Node5&#45;&gt;Node6 -->
<g id="edge7" class="edge"><title>Node5&#45;&gt;Node6</title>
<path fill="none" stroke="midnightblue" d="M201.261,-31.9195C218.25,-29.975 238.593,-27.6466 257.936,-25.4327"/>
<polygon fill="midnightblue" stroke="midnightblue" points="258.399,-28.9025 267.937,-24.288 257.603,-21.9479 258.399,-28.9025"/>
</g>
</g>
</svg>
