<?xml version="1.0" encoding="UTF-8" standalone="no"?>
<!DOCTYPE svg PUBLIC "-//W3C//DTD SVG 1.1//EN"
 "http://www.w3.org/Graphics/SVG/1.1/DTD/svg11.dtd">
<!-- Generated by graphviz version 2.38.0 (20140413.2041)
 -->
<!-- Title: getCapabilities Pages: 1 -->
<svg width="481pt" height="28pt"
 viewBox="0.00 0.00 481.00 28.00" xmlns="http://www.w3.org/2000/svg" xmlns:xlink="http://www.w3.org/1999/xlink">
<g id="graph0" class="graph" transform="scale(1 1) rotate(0) translate(4 24)">
<title>getCapabilities</title>
<polygon fill="white" stroke="none" points="-4,4 -4,-24 477,-24 477,4 -4,4"/>
<!-- Node1 -->
<g id="node1" class="node"><title>Node1</title>
<polygon fill="#bfbfbf" stroke="black" points="0,-0.5 0,-19.5 81,-19.5 81,-0.5 0,-0.5"/>
<text text-anchor="middle" x="40.5" y="-7.5" font-family="Helvetica,sans-Serif" font-size="10.00">getCapabilities</text>
</g>
<!-- Node2 -->
<g id="node2" class="node"><title>Node2</title>
<g id="a_node2"><a xlink:href="backend_8js.html#a40b1dad19404febd0ef4c2b8be5e1033" target="_top" xlink:title="getAllMetadata">
<polygon fill="white" stroke="black" points="117,-0.5 117,-19.5 199,-19.5 199,-0.5 117,-0.5"/>
<text text-anchor="middle" x="158" y="-7.5" font-family="Helvetica,sans-Serif" font-size="10.00">getAllMetadata</text>
</a>
</g>
</g>
<!-- Node1&#45;&gt;Node2 -->
<g id="edge1" class="edge"><title>Node1&#45;&gt;Node2</title>
<path fill="none" stroke="midnightblue" d="M91.4222,-10C99.8971,-10 108.601,-10 116.786,-10"/>
<polygon fill="midnightblue" stroke="midnightblue" points="91.2486,-6.5001 81.2485,-10 91.2485,-13.5001 91.2486,-6.5001"/>
</g>
<!-- Node3 -->
<g id="node3" class="node"><title>Node3</title>
<g id="a_node3"><a xlink:href="backend_8js.html#a6879c4dc7db6793991cd72ab19ca85ea" target="_top" xlink:title="getProviders">
<polygon fill="white" stroke="black" points="235,-0.5 235,-19.5 306,-19.5 306,-0.5 235,-0.5"/>
<text text-anchor="middle" x="270.5" y="-7.5" font-family="Helvetica,sans-Serif" font-size="10.00">getProviders</text>
</a>
</g>
</g>
<!-- Node2&#45;&gt;Node3 -->
<g id="edge2" class="edge"><title>Node2&#45;&gt;Node3</title>
<path fill="none" stroke="midnightblue" d="M209.278,-3.27435C217.968,-3.18903 226.823,-3.32794 234.974,-3.69109"/>
<polygon fill="midnightblue" stroke="midnightblue" points="209.133,0.223527 199.206,-3.47752 209.274,-6.77505 209.133,0.223527"/>
</g>
<!-- Node3&#45;&gt;Node2 -->
<g id="edge4" class="edge"><title>Node3&#45;&gt;Node2</title>
<path fill="none" stroke="midnightblue" d="M224.854,-16.6383C216.371,-16.8191 207.541,-16.7805 199.206,-16.5225"/>
<polygon fill="midnightblue" stroke="midnightblue" points="225.093,-20.1324 234.974,-16.3089 224.865,-13.1361 225.093,-20.1324"/>
</g>
<!-- Node4 -->
<g id="node4" class="node"><title>Node4</title>
<g id="a_node4"><a xlink:href="namespace_webservices.html#a982728deb9ddc1d58b4496ef46159b73" target="_top" xlink:title="Webservices\\getProviders">
<polygon fill="white" stroke="black" points="342,-0.5 342,-19.5 473,-19.5 473,-0.5 342,-0.5"/>
<text text-anchor="middle" x="407.5" y="-7.5" font-family="Helvetica,sans-Serif" font-size="10.00">Webservices\getProviders</text>
</a>
</g>
</g>
<!-- Node3&#45;&gt;Node4 -->
<g id="edge3" class="edge"><title>Node3&#45;&gt;Node4</title>
<path fill="none" stroke="midnightblue" d="M316.364,-10C324.584,-10 333.31,-10 341.972,-10"/>
<polygon fill="midnightblue" stroke="midnightblue" points="316.266,-6.5001 306.266,-10 316.266,-13.5001 316.266,-6.5001"/>
</g>
</g>
</svg>
