<?xml version="1.0" encoding="UTF-8" standalone="no"?>
<!DOCTYPE svg PUBLIC "-//W3C//DTD SVG 1.1//EN"
 "http://www.w3.org/Graphics/SVG/1.1/DTD/svg11.dtd">
<!-- Generated by graphviz version 2.38.0 (20140413.2041)
 -->
<!-- Title: frontController Pages: 1 -->
<!--zoomable 327 -->
<svg id="main" version="1.1" xmlns="http://www.w3.org/2000/svg" xmlns:xlink="http://www.w3.org/1999/xlink" xml:space="preserve" onload="init(evt)">
<style type="text/css"><![CDATA[
.edge:hover path { stroke: red; }
.edge:hover polygon { stroke: red; fill: red; }
]]></style>
<script type="text/javascript"><![CDATA[
var edges = document.getElementsByTagName('g');
if (edges && edges.length) {
  for (var i=0;i<edges.length;i++) {
    if (edges[i].id.substr(0,4)=='edge') {
      edges[i].setAttribute('class','edge');
    }
  }
}
]]></script>
        <defs>
                <circle id="rim" cx="0" cy="0" r="7"/>
                <circle id="rim2" cx="0" cy="0" r="3.5"/>
                <g id="zoomPlus">
                        <use xlink:href="#rim" fill="#404040">
                                <set attributeName="fill" to="#808080" begin="zoomplus.mouseover" end="zoomplus.mouseout"/>
                        </use>
                        <path d="M-4,0h8M0,-4v8" fill="none" stroke="white" stroke-width="1.5" pointer-events="none"/>
                </g>
                <g id="zoomMin">
                        <use xlink:href="#rim" fill="#404040">
                                <set attributeName="fill" to="#808080" begin="zoomminus.mouseover" end="zoomminus.mouseout"/>
                        </use>
                        <path d="M-4,0h8" fill="none" stroke="white" stroke-width="1.5" pointer-events="none"/>
                </g>
                <g id="dirArrow">
                        <path fill="none" stroke="white" stroke-width="1.5" d="M0,-3.0v7 M-2.5,-0.5L0,-3.0L2.5,-0.5"/>
                </g>
               <g id="resetDef">
                       <use xlink:href="#rim2" fill="#404040">
                               <set attributeName="fill" to="#808080" begin="reset.mouseover" end="reset.mouseout"/>
                       </use>
               </g>
        </defs>

<script type="text/javascript">
var viewWidth = 748;
var viewHeight = 327;
var sectionId = 'dynsection-0';
</script>
<script xlink:href="svgpan.js"/>
<svg id="graph" class="graph">
<g id="viewport">
<title>frontController</title>
<polygon fill="white" stroke="none" points="-4,4 -4,-322.503 744,-322.503 744,4 -4,4"/>
<!-- Node1 -->
<g id="node1" class="node"><title>Node1</title>
<polygon fill="#bfbfbf" stroke="black" points="0,-208.614 0,-227.614 78,-227.614 78,-208.614 0,-208.614"/>
<text text-anchor="middle" x="39" y="-215.614" font-family="Helvetica,sans-Serif" font-size="10.00">frontController</text>
</g>
<!-- Node2 -->
<g id="node2" class="node"><title>Node2</title>
<g id="a_node2"><a xlink:href="general_8js.html#ad9f2873ff9e09926e2f18c529721c6f8" target="_top" xlink:title="getMessages">
<polygon fill="white" stroke="black" points="364,-246.614 364,-265.614 439,-265.614 439,-246.614 364,-246.614"/>
<text text-anchor="middle" x="401.5" y="-253.614" font-family="Helvetica,sans-Serif" font-size="10.00">getMessages</text>
</a>
</g>
</g>
<!-- Node1&#45;&gt;Node2 -->
<g id="edge1" class="edge"><title>Node1&#45;&gt;Node2</title>
<path fill="none" stroke="midnightblue" d="M71.7817,-227.651C84.7593,-231.183 99.9861,-234.87 114,-237.114 197.64,-250.507 296.472,-254.492 353.479,-255.657"/>
<polygon fill="midnightblue" stroke="midnightblue" points="353.561,-259.159 363.623,-255.843 353.689,-252.16 353.561,-259.159"/>
</g>
<!-- Node3 -->
<g id="node3" class="node"><title>Node3</title>
<g id="a_node3"><a xlink:href="frontend_8js.html#a21252d1127cf770a69bfa63e443fd229" target="_top" xlink:title="getSchema">
<polygon fill="white" stroke="black" points="130.5,-170.614 130.5,-189.614 196.5,-189.614 196.5,-170.614 130.5,-170.614"/>
<text text-anchor="middle" x="163.5" y="-177.614" font-family="Helvetica,sans-Serif" font-size="10.00">getSchema</text>
</a>
</g>
</g>
<!-- Node1&#45;&gt;Node3 -->
<g id="edge2" class="edge"><title>Node1&#45;&gt;Node3</title>
<path fill="none" stroke="midnightblue" d="M70.9119,-208.525C86.2903,-203.755 105.082,-197.926 121.633,-192.792"/>
<polygon fill="midnightblue" stroke="midnightblue" points="123.084,-196.006 131.598,-189.7 121.01,-189.32 123.084,-196.006"/>
</g>
<!-- Node4 -->
<g id="node4" class="node"><title>Node4</title>
<g id="a_node4"><a xlink:href="frontend_8js.html#a816e9b3b3cd90b9b151a46331c601fbe" target="_top" xlink:title="getCurrentRecords">
<polygon fill="white" stroke="black" points="114,-208.614 114,-227.614 213,-227.614 213,-208.614 114,-208.614"/>
<text text-anchor="middle" x="163.5" y="-215.614" font-family="Helvetica,sans-Serif" font-size="10.00">getCurrentRecords</text>
</a>
</g>
</g>
<!-- Node1&#45;&gt;Node4 -->
<g id="edge3" class="edge"><title>Node1&#45;&gt;Node4</title>
<path fill="none" stroke="midnightblue" d="M78.0883,-218.114C86.1653,-218.114 94.8724,-218.114 103.519,-218.114"/>
<polygon fill="midnightblue" stroke="midnightblue" points="103.601,-221.614 113.601,-218.114 103.601,-214.614 103.601,-221.614"/>
</g>
<!-- Node9 -->
<g id="node9" class="node"><title>Node9</title>
<g id="a_node9"><a xlink:href="frontend_8js.html#aa6fd7ff8d2590761fcda0342978b0b22" target="_top" xlink:title="getCitation">
<polygon fill="white" stroke="black" points="503.5,-284.614 503.5,-303.614 567.5,-303.614 567.5,-284.614 503.5,-284.614"/>
<text text-anchor="middle" x="535.5" y="-291.614" font-family="Helvetica,sans-Serif" font-size="10.00">getCitation</text>
</a>
</g>
</g>
<!-- Node1&#45;&gt;Node9 -->
<g id="edge26" class="edge"><title>Node1&#45;&gt;Node9</title>
<path fill="none" stroke="midnightblue" d="M54.5955,-227.763C69.0328,-236.773 92.0844,-249.759 114,-256.114 248.644,-295.162 416.804,-297.075 493.251,-295.545"/>
<polygon fill="midnightblue" stroke="midnightblue" points="493.5,-299.04 503.416,-295.31 493.338,-292.042 493.5,-299.04"/>
</g>
<!-- Node17 -->
<g id="node17" class="node"><title>Node17</title>
<g id="a_node17"><a xlink:href="backend_8js.html#a46a518d9683fe224cd47219f3da32d07" target="_top" xlink:title="getCountConcepts">
<polygon fill="white" stroke="black" points="114.5,-132.614 114.5,-151.614 212.5,-151.614 212.5,-132.614 114.5,-132.614"/>
<text text-anchor="middle" x="163.5" y="-139.614" font-family="Helvetica,sans-Serif" font-size="10.00">getCountConcepts</text>
</a>
</g>
</g>
<!-- Node1&#45;&gt;Node17 -->
<g id="edge25" class="edge"><title>Node1&#45;&gt;Node17</title>
<path fill="none" stroke="midnightblue" d="M50.3541,-208.593C64.0808,-196.348 89.4411,-175.009 114,-161.114 117.443,-159.166 121.127,-157.329 124.867,-155.622"/>
<polygon fill="midnightblue" stroke="midnightblue" points="126.348,-158.795 134.177,-151.656 123.605,-152.355 126.348,-158.795"/>
</g>
<!-- Node5 -->
<g id="node5" class="node"><title>Node5</title>
<g id="a_node5"><a xlink:href="frontend_8js.html#a026aacb2020ed839706c99a8805c244b" target="_top" xlink:title="showProgress">
<polygon fill="white" stroke="black" points="249,-208.614 249,-227.614 328,-227.614 328,-208.614 249,-208.614"/>
<text text-anchor="middle" x="288.5" y="-215.614" font-family="Helvetica,sans-Serif" font-size="10.00">showProgress</text>
</a>
</g>
</g>
<!-- Node4&#45;&gt;Node5 -->
<g id="edge4" class="edge"><title>Node4&#45;&gt;Node5</title>
<path fill="none" stroke="midnightblue" d="M213.113,-218.114C221.515,-218.114 230.253,-218.114 238.661,-218.114"/>
<polygon fill="midnightblue" stroke="midnightblue" points="238.709,-221.614 248.709,-218.114 238.709,-214.614 238.709,-221.614"/>
</g>
<!-- Node10 -->
<g id="node10" class="node"><title>Node10</title>
<g id="a_node10"><a xlink:href="general_8js.html#a33e21da30cef3db82208e64a6801aa44" target="_top" xlink:title="logbook">
<polygon fill="white" stroke="black" points="661,-284.614 661,-303.614 711,-303.614 711,-284.614 661,-284.614"/>
<text text-anchor="middle" x="686" y="-291.614" font-family="Helvetica,sans-Serif" font-size="10.00">logbook</text>
</a>
</g>
</g>
<!-- Node4&#45;&gt;Node10 -->
<g id="edge23" class="edge"><title>Node4&#45;&gt;Node10</title>
<path fill="none" stroke="midnightblue" d="M187.324,-227.678C237.97,-248.32 364.052,-296.521 475,-313.114 528.186,-321.069 542.519,-318.759 596,-313.114 614.347,-311.178 634.472,-307.055 650.938,-303.143"/>
<polygon fill="midnightblue" stroke="midnightblue" points="651.79,-306.538 660.668,-300.756 650.122,-299.74 651.79,-306.538"/>
</g>
<!-- Node14 -->
<g id="node14" class="node"><title>Node14</title>
<g id="a_node14"><a xlink:href="frontend_8js.html#a24a888339bf25830f0d3c73e18aca77b" target="_top" xlink:title="showDate">
<polygon fill="white" stroke="black" points="655.5,-18.6144 655.5,-37.6144 716.5,-37.6144 716.5,-18.6144 655.5,-18.6144"/>
<text text-anchor="middle" x="686" y="-25.6144" font-family="Helvetica,sans-Serif" font-size="10.00">showDate</text>
</a>
</g>
</g>
<!-- Node4&#45;&gt;Node14 -->
<g id="edge24" class="edge"><title>Node4&#45;&gt;Node14</title>
<path fill="none" stroke="midnightblue" d="M194.733,-208.573C201.021,-205.966 207.425,-202.817 213,-199.114 232.113,-186.421 231.409,-176.844 249,-162.114 341.999,-84.2412 359.033,-44.6772 475,-9.11439 532.674,8.57201 603.113,-4.38414 645.985,-15.8617"/>
<polygon fill="midnightblue" stroke="midnightblue" points="645.172,-19.2683 655.744,-18.5771 647.048,-12.5244 645.172,-19.2683"/>
</g>
<!-- Node5&#45;&gt;Node2 -->
<g id="edge5" class="edge"><title>Node5&#45;&gt;Node2</title>
<path fill="none" stroke="midnightblue" d="M317.51,-227.703C331.182,-232.384 347.831,-238.084 362.618,-243.146"/>
<polygon fill="midnightblue" stroke="midnightblue" points="361.904,-246.601 372.499,-246.528 364.172,-239.978 361.904,-246.601"/>
</g>
<!-- Node6 -->
<g id="node6" class="node"><title>Node6</title>
<g id="a_node6"><a xlink:href="frontend_8js.html#a2f4ec7b87c92d886af91eccd0080c024" target="_top" xlink:title="populateUI">
<polygon fill="white" stroke="black" points="369.5,-132.614 369.5,-151.614 433.5,-151.614 433.5,-132.614 369.5,-132.614"/>
<text text-anchor="middle" x="401.5" y="-139.614" font-family="Helvetica,sans-Serif" font-size="10.00">populateUI</text>
</a>
</g>
</g>
<!-- Node5&#45;&gt;Node6 -->
<g id="edge6" class="edge"><title>Node5&#45;&gt;Node6</title>
<path fill="none" stroke="midnightblue" d="M302.881,-208.608C317.734,-198.095 342.454,-180.713 364,-166.114 368.175,-163.285 372.644,-160.307 376.973,-157.447"/>
<polygon fill="midnightblue" stroke="midnightblue" points="379.085,-160.247 385.521,-151.83 375.241,-154.397 379.085,-160.247"/>
</g>
<!-- Node6&#45;&gt;Node4 -->
<g id="edge22" class="edge"><title>Node6&#45;&gt;Node4</title>
<path fill="none" stroke="midnightblue" d="M370.853,-151.662C328.607,-165.266 251.004,-190.257 203.944,-205.412"/>
<polygon fill="midnightblue" stroke="midnightblue" points="202.835,-202.092 194.39,-208.489 204.981,-208.755 202.835,-202.092"/>
</g>
<!-- Node7 -->
<g id="node7" class="node"><title>Node7</title>
<g id="a_node7"><a xlink:href="general_8js.html#a3c52670d7ece95bdca65208692bc18f2" target="_top" xlink:title="displayErrorMessage">
<polygon fill="white" stroke="black" points="632,-94.6144 632,-113.614 740,-113.614 740,-94.6144 632,-94.6144"/>
<text text-anchor="middle" x="686" y="-101.614" font-family="Helvetica,sans-Serif" font-size="10.00">displayErrorMessage</text>
</a>
</g>
</g>
<!-- Node6&#45;&gt;Node7 -->
<g id="edge7" class="edge"><title>Node6&#45;&gt;Node7</title>
<path fill="none" stroke="midnightblue" d="M433.653,-132.737C446.37,-129.228 461.286,-125.515 475,-123.114 523.803,-114.573 579.698,-109.752 621.547,-107.106"/>
<polygon fill="midnightblue" stroke="midnightblue" points="621.831,-110.595 631.6,-106.494 621.406,-103.608 621.831,-110.595"/>
</g>
<!-- Node8 -->
<g id="node8" class="node"><title>Node8</title>
<g id="a_node8"><a xlink:href="frontend_8js.html#ad1b6f7258037f83d33075afa5ed17c83" target="_top" xlink:title="buildUI">
<polygon fill="white" stroke="black" points="512,-56.6144 512,-75.6144 559,-75.6144 559,-56.6144 512,-56.6144"/>
<text text-anchor="middle" x="535.5" y="-63.6144" font-family="Helvetica,sans-Serif" font-size="10.00">buildUI</text>
</a>
</g>
</g>
<!-- Node6&#45;&gt;Node8 -->
<g id="edge8" class="edge"><title>Node6&#45;&gt;Node8</title>
<path fill="none" stroke="midnightblue" d="M414.228,-132.35C428.101,-121.13 452.198,-102.654 475,-90.1144 483.601,-85.3843 493.331,-81.0668 502.394,-77.4383"/>
<polygon fill="midnightblue" stroke="midnightblue" points="503.807,-80.6447 511.881,-73.7845 501.291,-74.1124 503.807,-80.6447"/>
</g>
<!-- Node6&#45;&gt;Node9 -->
<g id="edge9" class="edge"><title>Node6&#45;&gt;Node9</title>
<path fill="none" stroke="midnightblue" d="M408.38,-151.672C415.756,-163.758 428.687,-185.267 439,-204.114 455.983,-235.152 448.061,-252.178 475,-275.114 480.381,-279.696 486.878,-283.176 493.575,-285.819"/>
<polygon fill="midnightblue" stroke="midnightblue" points="492.828,-289.26 503.422,-289.122 495.054,-282.623 492.828,-289.26"/>
</g>
<!-- Node11 -->
<g id="node11" class="node"><title>Node11</title>
<g id="a_node11"><a xlink:href="general_8js.html#ab624ce9aebffbb8bc3159502c4afc32b" target="_top" xlink:title="copyToClipboard">
<polygon fill="white" stroke="black" points="490.5,-208.614 490.5,-227.614 580.5,-227.614 580.5,-208.614 490.5,-208.614"/>
<text text-anchor="middle" x="535.5" y="-215.614" font-family="Helvetica,sans-Serif" font-size="10.00">copyToClipboard</text>
</a>
</g>
</g>
<!-- Node6&#45;&gt;Node11 -->
<g id="edge12" class="edge"><title>Node6&#45;&gt;Node11</title>
<path fill="none" stroke="midnightblue" d="M418.153,-151.626C424.754,-155.836 432.419,-160.988 439,-166.114 456.123,-179.453 456.224,-188.226 475,-199.114 478.641,-201.226 482.545,-203.134 486.55,-204.851"/>
<polygon fill="midnightblue" stroke="midnightblue" points="485.41,-208.163 495.998,-208.52 487.943,-201.638 485.41,-208.163"/>
</g>
<!-- Node12 -->
<g id="node12" class="node"><title>Node12</title>
<g id="a_node12"><a xlink:href="general_8js.html#aecfeb655371b751d36422b7a93a66279" target="_top" xlink:title="displaySystemMessage">
<polygon fill="white" stroke="black" points="475,-170.614 475,-189.614 596,-189.614 596,-170.614 475,-170.614"/>
<text text-anchor="middle" x="535.5" y="-177.614" font-family="Helvetica,sans-Serif" font-size="10.00">displaySystemMessage</text>
</a>
</g>
</g>
<!-- Node6&#45;&gt;Node12 -->
<g id="edge13" class="edge"><title>Node6&#45;&gt;Node12</title>
<path fill="none" stroke="midnightblue" d="M433.782,-151.12C450.972,-156.069 472.555,-162.282 491.327,-167.686"/>
<polygon fill="midnightblue" stroke="midnightblue" points="490.557,-171.106 501.135,-170.509 492.493,-164.379 490.557,-171.106"/>
</g>
<!-- Node13 -->
<g id="node13" class="node"><title>Node13</title>
<g id="a_node13"><a xlink:href="frontend_8js.html#a2e24b94e011170375215c3a8b745e9a4" target="_top" xlink:title="getCountConcept">
<polygon fill="white" stroke="black" points="489,-246.614 489,-265.614 582,-265.614 582,-246.614 489,-246.614"/>
<text text-anchor="middle" x="535.5" y="-253.614" font-family="Helvetica,sans-Serif" font-size="10.00">getCountConcept</text>
</a>
</g>
</g>
<!-- Node6&#45;&gt;Node13 -->
<g id="edge14" class="edge"><title>Node6&#45;&gt;Node13</title>
<path fill="none" stroke="midnightblue" d="M421.014,-151.689C427.272,-155.56 433.947,-160.459 439,-166.114 462.573,-192.498 448.061,-214.178 475,-237.114 476.987,-238.806 479.126,-240.347 481.371,-241.752"/>
<polygon fill="midnightblue" stroke="midnightblue" points="479.976,-244.973 490.457,-246.519 483.228,-238.774 479.976,-244.973"/>
</g>
<!-- Node15 -->
<g id="node15" class="node"><title>Node15</title>
<g id="a_node15"><a xlink:href="frontend_8js.html#add7d88a4ad05a1fb2478eff9a1857824" target="_top" xlink:title="getUsefulLinks">
<polygon fill="white" stroke="black" points="494.5,-18.6144 494.5,-37.6144 576.5,-37.6144 576.5,-18.6144 494.5,-18.6144"/>
<text text-anchor="middle" x="535.5" y="-25.6144" font-family="Helvetica,sans-Serif" font-size="10.00">getUsefulLinks</text>
</a>
</g>
</g>
<!-- Node6&#45;&gt;Node15 -->
<g id="edge19" class="edge"><title>Node6&#45;&gt;Node15</title>
<path fill="none" stroke="midnightblue" d="M407.255,-132.474C417.176,-113.343 441.933,-70.4238 475,-47.1144 478.199,-44.8594 481.679,-42.8626 485.296,-41.0959"/>
<polygon fill="midnightblue" stroke="midnightblue" points="486.674,-44.3135 494.492,-37.1628 483.921,-37.8775 486.674,-44.3135"/>
</g>
<!-- Node16 -->
<g id="node16" class="node"><title>Node16</title>
<g id="a_node16"><a xlink:href="frontend_8js.html#a5f8e953a90f434851f20518b1e3baeb6" target="_top" xlink:title="getArchives">
<polygon fill="white" stroke="black" points="501.5,-132.614 501.5,-151.614 569.5,-151.614 569.5,-132.614 501.5,-132.614"/>
<text text-anchor="middle" x="535.5" y="-139.614" font-family="Helvetica,sans-Serif" font-size="10.00">getArchives</text>
</a>
</g>
</g>
<!-- Node6&#45;&gt;Node16 -->
<g id="edge21" class="edge"><title>Node6&#45;&gt;Node16</title>
<path fill="none" stroke="midnightblue" d="M433.782,-142.114C450.893,-142.114 472.356,-142.114 491.068,-142.114"/>
<polygon fill="midnightblue" stroke="midnightblue" points="491.135,-145.614 501.135,-142.114 491.135,-138.614 491.135,-145.614"/>
</g>
<!-- Node9&#45;&gt;Node5 -->
<g id="edge10" class="edge"><title>Node9&#45;&gt;Node5</title>
<path fill="none" stroke="midnightblue" d="M503.239,-287.338C493.728,-284.452 483.54,-280.478 475,-275.114 455.298,-262.742 459.748,-247.638 439,-237.114 408.004,-221.392 368.922,-216.871 338.491,-216.159"/>
<polygon fill="midnightblue" stroke="midnightblue" points="338.151,-212.655 328.116,-216.054 338.08,-219.655 338.151,-212.655"/>
</g>
<!-- Node9&#45;&gt;Node10 -->
<g id="edge11" class="edge"><title>Node9&#45;&gt;Node10</title>
<path fill="none" stroke="midnightblue" d="M567.63,-294.114C591.891,-294.114 625.549,-294.114 650.604,-294.114"/>
<polygon fill="midnightblue" stroke="midnightblue" points="650.763,-297.614 660.763,-294.114 650.762,-290.614 650.763,-297.614"/>
</g>
<!-- Node13&#45;&gt;Node5 -->
<g id="edge15" class="edge"><title>Node13&#45;&gt;Node5</title>
<path fill="none" stroke="midnightblue" d="M495.998,-246.52C488.779,-243.978 481.473,-240.868 475,-237.114 456.224,-226.226 459.229,-211.983 439,-204.114 402.439,-189.893 357.201,-197.229 326.121,-205.693"/>
<polygon fill="midnightblue" stroke="midnightblue" points="324.79,-202.434 316.157,-208.576 326.736,-209.158 324.79,-202.434"/>
</g>
<!-- Node13&#45;&gt;Node7 -->
<g id="edge16" class="edge"><title>Node13&#45;&gt;Node7</title>
<path fill="none" stroke="midnightblue" d="M578.894,-246.511C584.972,-244.044 590.888,-240.961 596,-237.114 636.533,-206.615 664.52,-151.969 677.239,-123.133"/>
<polygon fill="midnightblue" stroke="midnightblue" points="680.529,-124.341 681.229,-113.769 674.089,-121.597 680.529,-124.341"/>
</g>
<!-- Node13&#45;&gt;Node10 -->
<g id="edge17" class="edge"><title>Node13&#45;&gt;Node10</title>
<path fill="none" stroke="midnightblue" d="M573.973,-265.703C597.518,-271.728 627.664,-279.443 650.601,-285.312"/>
<polygon fill="midnightblue" stroke="midnightblue" points="650.027,-288.778 660.582,-287.866 651.762,-281.996 650.027,-288.778"/>
</g>
<!-- Node13&#45;&gt;Node14 -->
<g id="edge18" class="edge"><title>Node13&#45;&gt;Node14</title>
<path fill="none" stroke="midnightblue" d="M582.038,-247.174C587.256,-244.616 592.095,-241.331 596,-237.114 643.176,-186.182 599.278,-146.344 632,-85.1144 640.303,-69.5787 653.893,-55.0849 665.232,-44.6003"/>
<polygon fill="midnightblue" stroke="midnightblue" points="667.83,-46.974 672.984,-37.7169 663.182,-41.7398 667.83,-46.974"/>
</g>
<!-- Node15&#45;&gt;Node7 -->
<g id="edge20" class="edge"><title>Node15&#45;&gt;Node7</title>
<path fill="none" stroke="midnightblue" d="M571.693,-37.6795C579.831,-40.3474 588.345,-43.5166 596,-47.1144 620.605,-58.679 646.543,-75.9518 664.028,-88.4508"/>
<polygon fill="midnightblue" stroke="midnightblue" points="662.202,-91.4501 672.349,-94.4963 666.316,-85.7869 662.202,-91.4501"/>
</g>
</g>
</svg>
        <g id="navigator" transform="translate(0 0)" fill="#404254">
                <rect fill="#f2f5e9" fill-opacity="0.5" stroke="#606060" stroke-width=".5" x="0" y="0" width="60" height="60"/>
                <use id="zoomplus" xlink:href="#zoomPlus" x="17" y="9" onmousedown="handleZoom(evt,'in')"/>
                <use id="zoomminus" xlink:href="#zoomMin" x="42" y="9" onmousedown="handleZoom(evt,'out')"/>
                <use id="reset" xlink:href="#resetDef" x="30" y="36" onmousedown="handleReset()"/>
                <g id="arrowUp" xlink:href="#dirArrow" transform="translate(30 24)" onmousedown="handlePan(0,-1)">
                  <use xlink:href="#rim" fill="#404040">
                        <set attributeName="fill" to="#808080" begin="arrowUp.mouseover" end="arrowUp.mouseout"/>
                  </use>
                  <path fill="none" stroke="white" stroke-width="1.5" d="M0,-3.0v7 M-2.5,-0.5L0,-3.0L2.5,-0.5"/>
                </g>
                <g id="arrowRight" xlink:href="#dirArrow" transform="rotate(90) translate(36 -43)" onmousedown="handlePan(1,0)">
                  <use xlink:href="#rim" fill="#404040">
                        <set attributeName="fill" to="#808080" begin="arrowRight.mouseover" end="arrowRight.mouseout"/>
                  </use>
                  <path fill="none" stroke="white" stroke-width="1.5" d="M0,-3.0v7 M-2.5,-0.5L0,-3.0L2.5,-0.5"/>
                </g>
                <g id="arrowDown" xlink:href="#dirArrow" transform="rotate(180) translate(-30 -48)" onmousedown="handlePan(0,1)">
                  <use xlink:href="#rim" fill="#404040">
                        <set attributeName="fill" to="#808080" begin="arrowDown.mouseover" end="arrowDown.mouseout"/>
                  </use>
                  <path fill="none" stroke="white" stroke-width="1.5" d="M0,-3.0v7 M-2.5,-0.5L0,-3.0L2.5,-0.5"/>
                </g>
                <g id="arrowLeft" xlink:href="#dirArrow" transform="rotate(270) translate(-36 17)" onmousedown="handlePan(-1,0)">
                  <use xlink:href="#rim" fill="#404040">
                        <set attributeName="fill" to="#808080" begin="arrowLeft.mouseover" end="arrowLeft.mouseout"/>
                  </use>
                  <path fill="none" stroke="white" stroke-width="1.5" d="M0,-3.0v7 M-2.5,-0.5L0,-3.0L2.5,-0.5"/>
                </g>
        </g>
        <svg viewBox="0 0 15 15" width="100%" height="30px" preserveAspectRatio="xMaxYMin meet">
         <g id="arrow_out" transform="scale(0.3 0.3)">
          <a xlink:href="class_bms_1_1_bms_aec5f7b55928d9eb969567ab87ea9e021_cgraph_org.svg" target="_base">
           <rect id="button" ry="5" rx="5" y="6" x="6" height="38" width="38"
                fill="#f2f5e9" fill-opacity="0.5" stroke="#606060" stroke-width="1.0"/>
           <path id="arrow"
             d="M 11.500037,31.436501 C 11.940474,20.09759 22.043105,11.32322 32.158766,21.979434 L 37.068811,17.246167 C 37.068811,17.246167 37.088388,32 37.088388,32 L 22.160133,31.978069 C 22.160133,31.978069 26.997745,27.140456 26.997745,27.140456 C 18.528582,18.264221 13.291696,25.230495 11.500037,31.436501 z"
             style="fill:#404040;"/>
          </a>
         </g>
        </svg>
</svg>
