<?xml version="1.0" encoding="UTF-8" standalone="no"?>
<!DOCTYPE svg PUBLIC "-//W3C//DTD SVG 1.1//EN"
 "http://www.w3.org/Graphics/SVG/1.1/DTD/svg11.dtd">
<!-- Generated by graphviz version 2.38.0 (20140413.2041)
 -->
<!-- Title: extractExampleValues Pages: 1 -->
<svg width="293pt" height="28pt"
 viewBox="0.00 0.00 293.00 28.00" xmlns="http://www.w3.org/2000/svg" xmlns:xlink="http://www.w3.org/1999/xlink">
<g id="graph0" class="graph" transform="scale(1 1) rotate(0) translate(4 24)">
<title>extractExampleValues</title>
<polygon fill="white" stroke="none" points="-4,4 -4,-24 289,-24 289,4 -4,4"/>
<!-- Node1 -->
<g id="node1" class="node"><title>Node1</title>
<polygon fill="#bfbfbf" stroke="black" points="0,-0.5 0,-19.5 115,-19.5 115,-0.5 0,-0.5"/>
<text text-anchor="middle" x="57.5" y="-7.5" font-family="Helvetica,sans-Serif" font-size="10.00">extractExampleValues</text>
</g>
<!-- Node2 -->
<g id="node2" class="node"><title>Node2</title>
<g id="a_node2"><a xlink:href="consistency_8js.html#a813c8c7bf883cb5ff071d2c59436ce1a" target="_top" xlink:title="checkRules">
<polygon fill="white" stroke="black" points="151,-0.5 151,-19.5 219,-19.5 219,-0.5 151,-0.5"/>
<text text-anchor="middle" x="185" y="-7.5" font-family="Helvetica,sans-Serif" font-size="10.00">checkRules</text>
</a>
</g>
</g>
<!-- Node1&#45;&gt;Node2 -->
<g id="edge1" class="edge"><title>Node1&#45;&gt;Node2</title>
<path fill="none" stroke="midnightblue" d="M125.075,-10C133.987,-10 142.795,-10 150.777,-10"/>
<polygon fill="midnightblue" stroke="midnightblue" points="125.009,-6.5001 115.009,-10 125.009,-13.5001 125.009,-6.5001"/>
</g>
<!-- Node3 -->
<g id="node3" class="node"><title>Node3</title>
<g id="a_node3"><a xlink:href="consistency_8js.html#a0e434d0abe4686a98fa7119ad3b98a23" target="_top" xlink:title="fire">
<polygon fill="white" stroke="black" points="255,-0.5 255,-19.5 285,-19.5 285,-0.5 255,-0.5"/>
<text text-anchor="middle" x="270" y="-7.5" font-family="Helvetica,sans-Serif" font-size="10.00">fire</text>
</a>
</g>
</g>
<!-- Node2&#45;&gt;Node3 -->
<g id="edge2" class="edge"><title>Node2&#45;&gt;Node3</title>
<path fill="none" stroke="midnightblue" d="M229.329,-10C238.627,-10 247.801,-10 254.982,-10"/>
<polygon fill="midnightblue" stroke="midnightblue" points="229.281,-6.5001 219.281,-10 229.281,-13.5001 229.281,-6.5001"/>
</g>
</g>
</svg>
