<?xml version="1.0" encoding="UTF-8" standalone="no"?>
<!DOCTYPE svg PUBLIC "-//W3C//DTD SVG 1.1//EN"
 "http://www.w3.org/Graphics/SVG/1.1/DTD/svg11.dtd">
<!-- Generated by graphviz version 2.38.0 (20140413.2041)
 -->
<!-- Title: fire Pages: 1 -->
<svg width="531pt" height="123pt"
 viewBox="0.00 0.00 531.00 123.00" xmlns="http://www.w3.org/2000/svg" xmlns:xlink="http://www.w3.org/1999/xlink">
<g id="graph0" class="graph" transform="scale(1 1) rotate(0) translate(4 119)">
<title>fire</title>
<polygon fill="white" stroke="none" points="-4,4 -4,-119 527,-119 527,4 -4,4"/>
<!-- Node1 -->
<g id="node1" class="node"><title>Node1</title>
<polygon fill="#bfbfbf" stroke="black" points="0,-19.5 0,-38.5 30,-38.5 30,-19.5 0,-19.5"/>
<text text-anchor="middle" x="15" y="-26.5" font-family="Helvetica,sans-Serif" font-size="10.00">fire</text>
</g>
<!-- Node2 -->
<g id="node2" class="node"><title>Node2</title>
<g id="a_node2"><a xlink:href="consistency_8js.html#a813c8c7bf883cb5ff071d2c59436ce1a" target="_top" xlink:title="checkRules">
<polygon fill="white" stroke="black" points="69.5,-38.5 69.5,-57.5 137.5,-57.5 137.5,-38.5 69.5,-38.5"/>
<text text-anchor="middle" x="103.5" y="-45.5" font-family="Helvetica,sans-Serif" font-size="10.00">checkRules</text>
</a>
</g>
</g>
<!-- Node1&#45;&gt;Node2 -->
<g id="edge1" class="edge"><title>Node1&#45;&gt;Node2</title>
<path fill="none" stroke="midnightblue" d="M30.2837,-32.1375C38.3565,-33.9107 48.921,-36.2312 59.4683,-38.548"/>
<polygon fill="midnightblue" stroke="midnightblue" points="58.9754,-42.023 69.4934,-40.75 60.4772,-35.186 58.9754,-42.023"/>
</g>
<!-- Node9 -->
<g id="node9" class="node"><title>Node9</title>
<g id="a_node9"><a xlink:href="general_8js.html#ad9f2873ff9e09926e2f18c529721c6f8" target="_top" xlink:title="getMessages">
<polygon fill="white" stroke="black" points="66,-0.5 66,-19.5 141,-19.5 141,-0.5 66,-0.5"/>
<text text-anchor="middle" x="103.5" y="-7.5" font-family="Helvetica,sans-Serif" font-size="10.00">getMessages</text>
</a>
</g>
</g>
<!-- Node1&#45;&gt;Node9 -->
<g id="edge8" class="edge"><title>Node1&#45;&gt;Node9</title>
<path fill="none" stroke="midnightblue" d="M30.2837,-25.8625C37.4777,-24.2823 46.6506,-22.2675 56.0267,-20.208"/>
<polygon fill="midnightblue" stroke="midnightblue" points="56.7804,-23.626 65.7966,-18.062 55.2785,-16.789 56.7804,-23.626"/>
</g>
<!-- Node3 -->
<g id="node3" class="node"><title>Node3</title>
<g id="a_node3"><a xlink:href="consistency_8js.html#a52ab9a53e64b869e116476df0f75c72c" target="_top" xlink:title="checkForErrors">
<polygon fill="white" stroke="black" points="193,-57.5 193,-76.5 276,-76.5 276,-57.5 193,-57.5"/>
<text text-anchor="middle" x="234.5" y="-64.5" font-family="Helvetica,sans-Serif" font-size="10.00">checkForErrors</text>
</a>
</g>
</g>
<!-- Node2&#45;&gt;Node3 -->
<g id="edge2" class="edge"><title>Node2&#45;&gt;Node3</title>
<path fill="none" stroke="midnightblue" d="M137.721,-52.893C151.307,-54.8941 167.337,-57.2551 182.357,-59.4672"/>
<polygon fill="midnightblue" stroke="midnightblue" points="182.147,-62.9741 192.551,-60.9687 183.167,-56.0488 182.147,-62.9741"/>
</g>
<!-- Node6 -->
<g id="node6" class="node"><title>Node6</title>
<g id="a_node6"><a xlink:href="consistency_8js.html#ac57f515c2a7b72cd20b9a9a6526352c1" target="_top" xlink:title="extractExampleValues">
<polygon fill="white" stroke="black" points="177,-19.5 177,-38.5 292,-38.5 292,-19.5 177,-19.5"/>
<text text-anchor="middle" x="234.5" y="-26.5" font-family="Helvetica,sans-Serif" font-size="10.00">extractExampleValues</text>
</a>
</g>
</g>
<!-- Node2&#45;&gt;Node6 -->
<g id="edge5" class="edge"><title>Node2&#45;&gt;Node6</title>
<path fill="none" stroke="midnightblue" d="M137.721,-43.107C146.679,-41.7876 156.699,-40.3117 166.792,-38.8252"/>
<polygon fill="midnightblue" stroke="midnightblue" points="167.489,-42.2605 176.872,-37.3406 166.468,-35.3352 167.489,-42.2605"/>
</g>
<!-- Node4 -->
<g id="node4" class="node"><title>Node4</title>
<g id="a_node4"><a xlink:href="consistency_8js.html#abfdeb6a1262a6647fa8d1add87d4acff" target="_top" xlink:title="cardinalConcept">
<polygon fill="white" stroke="black" points="333.5,-95.5 333.5,-114.5 420.5,-114.5 420.5,-95.5 333.5,-95.5"/>
<text text-anchor="middle" x="377" y="-102.5" font-family="Helvetica,sans-Serif" font-size="10.00">cardinalConcept</text>
</a>
</g>
</g>
<!-- Node3&#45;&gt;Node4 -->
<g id="edge3" class="edge"><title>Node3&#45;&gt;Node4</title>
<path fill="none" stroke="midnightblue" d="M270.954,-76.589C289.091,-81.4944 311.368,-87.5196 330.733,-92.7571"/>
<polygon fill="midnightblue" stroke="midnightblue" points="329.99,-96.1818 340.557,-95.4141 331.818,-89.4246 329.99,-96.1818"/>
</g>
<!-- Node5 -->
<g id="node5" class="node"><title>Node5</title>
<g id="a_node5"><a xlink:href="consistency_8js.html#a0cd14e63b9113fcee3fa0e999aa1ada9" target="_top" xlink:title="isValidCitation">
<polygon fill="white" stroke="black" points="337,-57.5 337,-76.5 417,-76.5 417,-57.5 337,-57.5"/>
<text text-anchor="middle" x="377" y="-64.5" font-family="Helvetica,sans-Serif" font-size="10.00">isValidCitation</text>
</a>
</g>
</g>
<!-- Node3&#45;&gt;Node5 -->
<g id="edge4" class="edge"><title>Node3&#45;&gt;Node5</title>
<path fill="none" stroke="midnightblue" d="M276.138,-67C291.978,-67 310.275,-67 326.846,-67"/>
<polygon fill="midnightblue" stroke="midnightblue" points="326.904,-70.5001 336.904,-67 326.904,-63.5001 326.904,-70.5001"/>
</g>
<!-- Node7 -->
<g id="node7" class="node"><title>Node7</title>
<g id="a_node7"><a xlink:href="consistency_8js.html#ab9d69a98be46ebaa9c992bb5bea19199" target="_top" xlink:title="getExampleValues">
<polygon fill="white" stroke="black" points="328,-19.5 328,-38.5 426,-38.5 426,-19.5 328,-19.5"/>
<text text-anchor="middle" x="377" y="-26.5" font-family="Helvetica,sans-Serif" font-size="10.00">getExampleValues</text>
</a>
</g>
</g>
<!-- Node6&#45;&gt;Node7 -->
<g id="edge6" class="edge"><title>Node6&#45;&gt;Node7</title>
<path fill="none" stroke="midnightblue" d="M292.242,-29C300.58,-29 309.182,-29 317.554,-29"/>
<polygon fill="midnightblue" stroke="midnightblue" points="317.619,-32.5001 327.619,-29 317.619,-25.5001 317.619,-32.5001"/>
</g>
<!-- Node8 -->
<g id="node8" class="node"><title>Node8</title>
<g id="a_node8"><a xlink:href="consistency_8js.html#ae9dd19ed0c7bfeca794906a98cf25658" target="_top" xlink:title="getUnique">
<polygon fill="white" stroke="black" points="462,-19.5 462,-38.5 523,-38.5 523,-19.5 462,-19.5"/>
<text text-anchor="middle" x="492.5" y="-26.5" font-family="Helvetica,sans-Serif" font-size="10.00">getUnique</text>
</a>
</g>
</g>
<!-- Node7&#45;&gt;Node8 -->
<g id="edge7" class="edge"><title>Node7&#45;&gt;Node8</title>
<path fill="none" stroke="midnightblue" d="M426.134,-29C434.631,-29 443.391,-29 451.629,-29"/>
<polygon fill="midnightblue" stroke="midnightblue" points="451.726,-32.5001 461.726,-29 451.726,-25.5001 451.726,-32.5001"/>
</g>
</g>
</svg>
