<?xml version="1.0" encoding="UTF-8" standalone="no"?>
<!DOCTYPE svg PUBLIC "-//W3C//DTD SVG 1.1//EN"
 "http://www.w3.org/Graphics/SVG/1.1/DTD/svg11.dtd">
<!-- Generated by graphviz version 2.38.0 (20140413.2041)
 -->
<!-- Title: cardinalConcept Pages: 1 -->
<svg width="384pt" height="28pt"
 viewBox="0.00 0.00 384.00 28.00" xmlns="http://www.w3.org/2000/svg" xmlns:xlink="http://www.w3.org/1999/xlink">
<g id="graph0" class="graph" transform="scale(1 1) rotate(0) translate(4 24)">
<title>cardinalConcept</title>
<polygon fill="white" stroke="none" points="-4,4 -4,-24 380,-24 380,4 -4,4"/>
<!-- Node1 -->
<g id="node1" class="node"><title>Node1</title>
<polygon fill="#bfbfbf" stroke="black" points="0,-0.5 0,-19.5 87,-19.5 87,-0.5 0,-0.5"/>
<text text-anchor="middle" x="43.5" y="-7.5" font-family="Helvetica,sans-Serif" font-size="10.00">cardinalConcept</text>
</g>
<!-- Node2 -->
<g id="node2" class="node"><title>Node2</title>
<g id="a_node2"><a xlink:href="consistency_8js.html#a52ab9a53e64b869e116476df0f75c72c" target="_top" xlink:title="checkForErrors">
<polygon fill="white" stroke="black" points="123,-0.5 123,-19.5 206,-19.5 206,-0.5 123,-0.5"/>
<text text-anchor="middle" x="164.5" y="-7.5" font-family="Helvetica,sans-Serif" font-size="10.00">checkForErrors</text>
</a>
</g>
</g>
<!-- Node1&#45;&gt;Node2 -->
<g id="edge1" class="edge"><title>Node1&#45;&gt;Node2</title>
<path fill="none" stroke="midnightblue" d="M97.375,-10C105.891,-10 114.591,-10 122.764,-10"/>
<polygon fill="midnightblue" stroke="midnightblue" points="97.1256,-6.5001 87.1256,-10 97.1256,-13.5001 97.1256,-6.5001"/>
</g>
<!-- Node3 -->
<g id="node3" class="node"><title>Node3</title>
<g id="a_node3"><a xlink:href="consistency_8js.html#a813c8c7bf883cb5ff071d2c59436ce1a" target="_top" xlink:title="checkRules">
<polygon fill="white" stroke="black" points="242,-0.5 242,-19.5 310,-19.5 310,-0.5 242,-0.5"/>
<text text-anchor="middle" x="276" y="-7.5" font-family="Helvetica,sans-Serif" font-size="10.00">checkRules</text>
</a>
</g>
</g>
<!-- Node2&#45;&gt;Node3 -->
<g id="edge2" class="edge"><title>Node2&#45;&gt;Node3</title>
<path fill="none" stroke="midnightblue" d="M216.288,-10C224.915,-10 233.673,-10 241.7,-10"/>
<polygon fill="midnightblue" stroke="midnightblue" points="216.274,-6.5001 206.274,-10 216.274,-13.5001 216.274,-6.5001"/>
</g>
<!-- Node4 -->
<g id="node4" class="node"><title>Node4</title>
<g id="a_node4"><a xlink:href="consistency_8js.html#a0e434d0abe4686a98fa7119ad3b98a23" target="_top" xlink:title="fire">
<polygon fill="white" stroke="black" points="346,-0.5 346,-19.5 376,-19.5 376,-0.5 346,-0.5"/>
<text text-anchor="middle" x="361" y="-7.5" font-family="Helvetica,sans-Serif" font-size="10.00">fire</text>
</a>
</g>
</g>
<!-- Node3&#45;&gt;Node4 -->
<g id="edge3" class="edge"><title>Node3&#45;&gt;Node4</title>
<path fill="none" stroke="midnightblue" d="M320.329,-10C329.627,-10 338.801,-10 345.982,-10"/>
<polygon fill="midnightblue" stroke="midnightblue" points="320.281,-6.5001 310.281,-10 320.281,-13.5001 320.281,-6.5001"/>
</g>
</g>
</svg>
