<?xml version="1.0" encoding="UTF-8" standalone="no"?>
<!DOCTYPE svg PUBLIC "-//W3C//DTD SVG 1.1//EN"
 "http://www.w3.org/Graphics/SVG/1.1/DTD/svg11.dtd">
<!-- Generated by graphviz version 2.38.0 (20140413.2041)
 -->
<!-- Title: checkRules Pages: 1 -->
<svg width="458pt" height="104pt"
 viewBox="0.00 0.00 458.00 104.00" xmlns="http://www.w3.org/2000/svg" xmlns:xlink="http://www.w3.org/1999/xlink">
<g id="graph0" class="graph" transform="scale(1 1) rotate(0) translate(4 100)">
<title>checkRules</title>
<polygon fill="white" stroke="none" points="-4,4 -4,-100 454,-100 454,4 -4,4"/>
<!-- Node1 -->
<g id="node1" class="node"><title>Node1</title>
<polygon fill="#bfbfbf" stroke="black" points="0,-19.5 0,-38.5 68,-38.5 68,-19.5 0,-19.5"/>
<text text-anchor="middle" x="34" y="-26.5" font-family="Helvetica,sans-Serif" font-size="10.00">checkRules</text>
</g>
<!-- Node2 -->
<g id="node2" class="node"><title>Node2</title>
<g id="a_node2"><a xlink:href="consistency_8js.html#a52ab9a53e64b869e116476df0f75c72c" target="_top" xlink:title="checkForErrors">
<polygon fill="white" stroke="black" points="120,-38.5 120,-57.5 203,-57.5 203,-38.5 120,-38.5"/>
<text text-anchor="middle" x="161.5" y="-45.5" font-family="Helvetica,sans-Serif" font-size="10.00">checkForErrors</text>
</a>
</g>
</g>
<!-- Node1&#45;&gt;Node2 -->
<g id="edge1" class="edge"><title>Node1&#45;&gt;Node2</title>
<path fill="none" stroke="midnightblue" d="M68.3022,-34.0418C81.0408,-35.9703 95.8735,-38.2159 109.87,-40.3349"/>
<polygon fill="midnightblue" stroke="midnightblue" points="109.46,-43.8127 119.872,-41.8491 110.508,-36.8915 109.46,-43.8127"/>
</g>
<!-- Node5 -->
<g id="node5" class="node"><title>Node5</title>
<g id="a_node5"><a xlink:href="consistency_8js.html#ac57f515c2a7b72cd20b9a9a6526352c1" target="_top" xlink:title="extractExampleValues">
<polygon fill="white" stroke="black" points="104,-0.5 104,-19.5 219,-19.5 219,-0.5 104,-0.5"/>
<text text-anchor="middle" x="161.5" y="-7.5" font-family="Helvetica,sans-Serif" font-size="10.00">extractExampleValues</text>
</a>
</g>
</g>
<!-- Node1&#45;&gt;Node5 -->
<g id="edge4" class="edge"><title>Node1&#45;&gt;Node5</title>
<path fill="none" stroke="midnightblue" d="M68.3022,-23.9582C76.2163,-22.7601 84.9387,-21.4396 93.7666,-20.1031"/>
<polygon fill="midnightblue" stroke="midnightblue" points="94.3776,-23.5505 103.741,-18.593 93.3298,-16.6294 94.3776,-23.5505"/>
</g>
<!-- Node3 -->
<g id="node3" class="node"><title>Node3</title>
<g id="a_node3"><a xlink:href="consistency_8js.html#abfdeb6a1262a6647fa8d1add87d4acff" target="_top" xlink:title="cardinalConcept">
<polygon fill="white" stroke="black" points="260.5,-76.5 260.5,-95.5 347.5,-95.5 347.5,-76.5 260.5,-76.5"/>
<text text-anchor="middle" x="304" y="-83.5" font-family="Helvetica,sans-Serif" font-size="10.00">cardinalConcept</text>
</a>
</g>
</g>
<!-- Node2&#45;&gt;Node3 -->
<g id="edge2" class="edge"><title>Node2&#45;&gt;Node3</title>
<path fill="none" stroke="midnightblue" d="M197.954,-57.589C216.091,-62.4944 238.368,-68.5196 257.733,-73.7571"/>
<polygon fill="midnightblue" stroke="midnightblue" points="256.99,-77.1818 267.557,-76.4141 258.818,-70.4246 256.99,-77.1818"/>
</g>
<!-- Node4 -->
<g id="node4" class="node"><title>Node4</title>
<g id="a_node4"><a xlink:href="consistency_8js.html#a0cd14e63b9113fcee3fa0e999aa1ada9" target="_top" xlink:title="isValidCitation">
<polygon fill="white" stroke="black" points="264,-38.5 264,-57.5 344,-57.5 344,-38.5 264,-38.5"/>
<text text-anchor="middle" x="304" y="-45.5" font-family="Helvetica,sans-Serif" font-size="10.00">isValidCitation</text>
</a>
</g>
</g>
<!-- Node2&#45;&gt;Node4 -->
<g id="edge3" class="edge"><title>Node2&#45;&gt;Node4</title>
<path fill="none" stroke="midnightblue" d="M203.138,-48C218.978,-48 237.275,-48 253.846,-48"/>
<polygon fill="midnightblue" stroke="midnightblue" points="253.904,-51.5001 263.904,-48 253.904,-44.5001 253.904,-51.5001"/>
</g>
<!-- Node6 -->
<g id="node6" class="node"><title>Node6</title>
<g id="a_node6"><a xlink:href="consistency_8js.html#ab9d69a98be46ebaa9c992bb5bea19199" target="_top" xlink:title="getExampleValues">
<polygon fill="white" stroke="black" points="255,-0.5 255,-19.5 353,-19.5 353,-0.5 255,-0.5"/>
<text text-anchor="middle" x="304" y="-7.5" font-family="Helvetica,sans-Serif" font-size="10.00">getExampleValues</text>
</a>
</g>
</g>
<!-- Node5&#45;&gt;Node6 -->
<g id="edge5" class="edge"><title>Node5&#45;&gt;Node6</title>
<path fill="none" stroke="midnightblue" d="M219.242,-10C227.58,-10 236.182,-10 244.554,-10"/>
<polygon fill="midnightblue" stroke="midnightblue" points="244.619,-13.5001 254.619,-10 244.619,-6.5001 244.619,-13.5001"/>
</g>
<!-- Node7 -->
<g id="node7" class="node"><title>Node7</title>
<g id="a_node7"><a xlink:href="consistency_8js.html#ae9dd19ed0c7bfeca794906a98cf25658" target="_top" xlink:title="getUnique">
<polygon fill="white" stroke="black" points="389,-0.5 389,-19.5 450,-19.5 450,-0.5 389,-0.5"/>
<text text-anchor="middle" x="419.5" y="-7.5" font-family="Helvetica,sans-Serif" font-size="10.00">getUnique</text>
</a>
</g>
</g>
<!-- Node6&#45;&gt;Node7 -->
<g id="edge6" class="edge"><title>Node6&#45;&gt;Node7</title>
<path fill="none" stroke="midnightblue" d="M353.134,-10C361.631,-10 370.391,-10 378.629,-10"/>
<polygon fill="midnightblue" stroke="midnightblue" points="378.726,-13.5001 388.726,-10 378.726,-6.5001 378.726,-13.5001"/>
</g>
</g>
</svg>
