<?xml version="1.0" encoding="UTF-8" standalone="no"?>
<!DOCTYPE svg PUBLIC "-//W3C//DTD SVG 1.1//EN"
 "http://www.w3.org/Graphics/SVG/1.1/DTD/svg11.dtd">
<!-- Generated by graphviz version 2.38.0 (20140413.2041)
 -->
<!-- Title: checkForErrors Pages: 1 -->
<svg width="214pt" height="66pt"
 viewBox="0.00 0.00 214.00 66.00" xmlns="http://www.w3.org/2000/svg" xmlns:xlink="http://www.w3.org/1999/xlink">
<g id="graph0" class="graph" transform="scale(1 1) rotate(0) translate(4 62)">
<title>checkForErrors</title>
<polygon fill="white" stroke="none" points="-4,4 -4,-62 210,-62 210,4 -4,4"/>
<!-- Node1 -->
<g id="node1" class="node"><title>Node1</title>
<polygon fill="#bfbfbf" stroke="black" points="0,-19.5 0,-38.5 83,-38.5 83,-19.5 0,-19.5"/>
<text text-anchor="middle" x="41.5" y="-26.5" font-family="Helvetica,sans-Serif" font-size="10.00">checkForErrors</text>
</g>
<!-- Node2 -->
<g id="node2" class="node"><title>Node2</title>
<g id="a_node2"><a xlink:href="consistency_8js.html#abfdeb6a1262a6647fa8d1add87d4acff" target="_top" xlink:title="cardinalConcept">
<polygon fill="white" stroke="black" points="119,-38.5 119,-57.5 206,-57.5 206,-38.5 119,-38.5"/>
<text text-anchor="middle" x="162.5" y="-45.5" font-family="Helvetica,sans-Serif" font-size="10.00">cardinalConcept</text>
</a>
</g>
</g>
<!-- Node1&#45;&gt;Node2 -->
<g id="edge1" class="edge"><title>Node1&#45;&gt;Node2</title>
<path fill="none" stroke="midnightblue" d="M83.1202,-35.4856C91.3472,-36.7991 100.111,-38.1985 108.688,-39.5678"/>
<polygon fill="midnightblue" stroke="midnightblue" points="108.199,-43.0341 118.626,-41.1546 109.303,-36.1216 108.199,-43.0341"/>
</g>
<!-- Node3 -->
<g id="node3" class="node"><title>Node3</title>
<g id="a_node3"><a xlink:href="consistency_8js.html#a0cd14e63b9113fcee3fa0e999aa1ada9" target="_top" xlink:title="isValidCitation">
<polygon fill="white" stroke="black" points="122.5,-0.5 122.5,-19.5 202.5,-19.5 202.5,-0.5 122.5,-0.5"/>
<text text-anchor="middle" x="162.5" y="-7.5" font-family="Helvetica,sans-Serif" font-size="10.00">isValidCitation</text>
</a>
</g>
</g>
<!-- Node1&#45;&gt;Node3 -->
<g id="edge2" class="edge"><title>Node1&#45;&gt;Node3</title>
<path fill="none" stroke="midnightblue" d="M83.1202,-22.5144C92.515,-21.0144 102.61,-19.4026 112.327,-17.8512"/>
<polygon fill="midnightblue" stroke="midnightblue" points="112.947,-21.2967 122.27,-16.2637 111.843,-14.3842 112.947,-21.2967"/>
</g>
</g>
</svg>
