<?xml version="1.0" encoding="UTF-8" standalone="no"?>
<!DOCTYPE svg PUBLIC "-//W3C//DTD SVG 1.1//EN"
 "http://www.w3.org/Graphics/SVG/1.1/DTD/svg11.dtd">
<!-- Generated by graphviz version 2.38.0 (20140413.2041)
 -->
<!-- Title: getUnique Pages: 1 -->
<svg width="524pt" height="28pt"
 viewBox="0.00 0.00 524.00 28.00" xmlns="http://www.w3.org/2000/svg" xmlns:xlink="http://www.w3.org/1999/xlink">
<g id="graph0" class="graph" transform="scale(1 1) rotate(0) translate(4 24)">
<title>getUnique</title>
<polygon fill="white" stroke="none" points="-4,4 -4,-24 520,-24 520,4 -4,4"/>
<!-- Node1 -->
<g id="node1" class="node"><title>Node1</title>
<polygon fill="#bfbfbf" stroke="black" points="0,-0.5 0,-19.5 61,-19.5 61,-0.5 0,-0.5"/>
<text text-anchor="middle" x="30.5" y="-7.5" font-family="Helvetica,sans-Serif" font-size="10.00">getUnique</text>
</g>
<!-- Node2 -->
<g id="node2" class="node"><title>Node2</title>
<g id="a_node2"><a xlink:href="consistency_8js.html#ab9d69a98be46ebaa9c992bb5bea19199" target="_top" xlink:title="getExampleValues">
<polygon fill="white" stroke="black" points="97,-0.5 97,-19.5 195,-19.5 195,-0.5 97,-0.5"/>
<text text-anchor="middle" x="146" y="-7.5" font-family="Helvetica,sans-Serif" font-size="10.00">getExampleValues</text>
</a>
</g>
</g>
<!-- Node1&#45;&gt;Node2 -->
<g id="edge1" class="edge"><title>Node1&#45;&gt;Node2</title>
<path fill="none" stroke="midnightblue" d="M71.1401,-10C79.3984,-10 88.1901,-10 96.7205,-10"/>
<polygon fill="midnightblue" stroke="midnightblue" points="71.0245,-6.5001 61.0245,-10 71.0245,-13.5001 71.0245,-6.5001"/>
</g>
<!-- Node3 -->
<g id="node3" class="node"><title>Node3</title>
<g id="a_node3"><a xlink:href="consistency_8js.html#ac57f515c2a7b72cd20b9a9a6526352c1" target="_top" xlink:title="extractExampleValues">
<polygon fill="white" stroke="black" points="231,-0.5 231,-19.5 346,-19.5 346,-0.5 231,-0.5"/>
<text text-anchor="middle" x="288.5" y="-7.5" font-family="Helvetica,sans-Serif" font-size="10.00">extractExampleValues</text>
</a>
</g>
</g>
<!-- Node2&#45;&gt;Node3 -->
<g id="edge2" class="edge"><title>Node2&#45;&gt;Node3</title>
<path fill="none" stroke="midnightblue" d="M205.446,-10C213.844,-10 222.472,-10 230.834,-10"/>
<polygon fill="midnightblue" stroke="midnightblue" points="205.352,-6.5001 195.352,-10 205.352,-13.5001 205.352,-6.5001"/>
</g>
<!-- Node4 -->
<g id="node4" class="node"><title>Node4</title>
<g id="a_node4"><a xlink:href="consistency_8js.html#a813c8c7bf883cb5ff071d2c59436ce1a" target="_top" xlink:title="checkRules">
<polygon fill="white" stroke="black" points="382,-0.5 382,-19.5 450,-19.5 450,-0.5 382,-0.5"/>
<text text-anchor="middle" x="416" y="-7.5" font-family="Helvetica,sans-Serif" font-size="10.00">checkRules</text>
</a>
</g>
</g>
<!-- Node3&#45;&gt;Node4 -->
<g id="edge3" class="edge"><title>Node3&#45;&gt;Node4</title>
<path fill="none" stroke="midnightblue" d="M356.075,-10C364.987,-10 373.795,-10 381.777,-10"/>
<polygon fill="midnightblue" stroke="midnightblue" points="356.009,-6.5001 346.009,-10 356.009,-13.5001 356.009,-6.5001"/>
</g>
<!-- Node5 -->
<g id="node5" class="node"><title>Node5</title>
<g id="a_node5"><a xlink:href="consistency_8js.html#a0e434d0abe4686a98fa7119ad3b98a23" target="_top" xlink:title="fire">
<polygon fill="white" stroke="black" points="486,-0.5 486,-19.5 516,-19.5 516,-0.5 486,-0.5"/>
<text text-anchor="middle" x="501" y="-7.5" font-family="Helvetica,sans-Serif" font-size="10.00">fire</text>
</a>
</g>
</g>
<!-- Node4&#45;&gt;Node5 -->
<g id="edge4" class="edge"><title>Node4&#45;&gt;Node5</title>
<path fill="none" stroke="midnightblue" d="M460.329,-10C469.627,-10 478.801,-10 485.982,-10"/>
<polygon fill="midnightblue" stroke="midnightblue" points="460.281,-6.5001 450.281,-10 460.281,-13.5001 460.281,-6.5001"/>
</g>
</g>
</svg>
