<?xml version="1.0" encoding="UTF-8" standalone="no"?>
<!DOCTYPE svg PUBLIC "-//W3C//DTD SVG 1.1//EN"
 "http://www.w3.org/Graphics/SVG/1.1/DTD/svg11.dtd">
<!-- Generated by graphviz version 2.38.0 (20140413.2041)
 -->
<!-- Title: showDate Pages: 1 -->
<svg width="709pt" height="123pt"
 viewBox="0.00 0.00 709.00 123.00" xmlns="http://www.w3.org/2000/svg" xmlns:xlink="http://www.w3.org/1999/xlink">
<g id="graph0" class="graph" transform="scale(1 1) rotate(0) translate(4 119)">
<title>showDate</title>
<polygon fill="white" stroke="none" points="-4,4 -4,-119 705,-119 705,4 -4,4"/>
<!-- Node1 -->
<g id="node1" class="node"><title>Node1</title>
<polygon fill="#bfbfbf" stroke="black" points="0,-95.5 0,-114.5 61,-114.5 61,-95.5 0,-95.5"/>
<text text-anchor="middle" x="30.5" y="-102.5" font-family="Helvetica,sans-Serif" font-size="10.00">showDate</text>
</g>
<!-- Node2 -->
<g id="node2" class="node"><title>Node2</title>
<g id="a_node2"><a xlink:href="frontend_8js.html#a816e9b3b3cd90b9b151a46331c601fbe" target="_top" xlink:title="getCurrentRecords">
<polygon fill="white" stroke="black" points="97,-38.5 97,-57.5 196,-57.5 196,-38.5 97,-38.5"/>
<text text-anchor="middle" x="146.5" y="-45.5" font-family="Helvetica,sans-Serif" font-size="10.00">getCurrentRecords</text>
</a>
</g>
</g>
<!-- Node1&#45;&gt;Node2 -->
<g id="edge1" class="edge"><title>Node1&#45;&gt;Node2</title>
<path fill="none" stroke="midnightblue" d="M59.5744,-90.9628C80.3444,-80.5778 108.086,-66.7069 126.357,-57.5716"/>
<polygon fill="midnightblue" stroke="midnightblue" points="57.9601,-87.8568 50.581,-95.4595 61.0906,-94.1178 57.9601,-87.8568"/>
</g>
<!-- Node6 -->
<g id="node6" class="node"><title>Node6</title>
<g id="a_node6"><a xlink:href="frontend_8js.html#a2e24b94e011170375215c3a8b745e9a4" target="_top" xlink:title="getCountConcept">
<polygon fill="white" stroke="black" points="447,-95.5 447,-114.5 540,-114.5 540,-95.5 447,-95.5"/>
<text text-anchor="middle" x="493.5" y="-102.5" font-family="Helvetica,sans-Serif" font-size="10.00">getCountConcept</text>
</a>
</g>
</g>
<!-- Node1&#45;&gt;Node6 -->
<g id="edge11" class="edge"><title>Node1&#45;&gt;Node6</title>
<path fill="none" stroke="midnightblue" d="M71.0768,-105C156.226,-105 356.401,-105 446.788,-105"/>
<polygon fill="midnightblue" stroke="midnightblue" points="71.0389,-101.5 61.0389,-105 71.0389,-108.5 71.0389,-101.5"/>
</g>
<!-- Node3 -->
<g id="node3" class="node"><title>Node3</title>
<g id="a_node3"><a xlink:href="class_bms_1_1_bms.html#aec5f7b55928d9eb969567ab87ea9e021" target="_top" xlink:title="Bms\\Bms\\frontController">
<polygon fill="white" stroke="black" points="576,-0.5 576,-19.5 701,-19.5 701,-0.5 576,-0.5"/>
<text text-anchor="middle" x="638.5" y="-7.5" font-family="Helvetica,sans-Serif" font-size="10.00">Bms\Bms\frontController</text>
</a>
</g>
</g>
<!-- Node2&#45;&gt;Node3 -->
<g id="edge2" class="edge"><title>Node2&#45;&gt;Node3</title>
<path fill="none" stroke="midnightblue" d="M192.88,-35.9663C229.984,-26.7801 283.971,-14.8947 332,-10 416.16,-1.42313 514.04,-3.53384 575.874,-6.34384"/>
<polygon fill="midnightblue" stroke="midnightblue" points="191.728,-32.647 182.882,-38.4777 193.433,-39.4361 191.728,-32.647"/>
</g>
<!-- Node4 -->
<g id="node4" class="node"><title>Node4</title>
<g id="a_node4"><a xlink:href="frontend_8js.html#a2f4ec7b87c92d886af91eccd0080c024" target="_top" xlink:title="populateUI">
<polygon fill="white" stroke="black" points="232,-57.5 232,-76.5 296,-76.5 296,-57.5 232,-57.5"/>
<text text-anchor="middle" x="264" y="-64.5" font-family="Helvetica,sans-Serif" font-size="10.00">populateUI</text>
</a>
</g>
</g>
<!-- Node2&#45;&gt;Node4 -->
<g id="edge3" class="edge"><title>Node2&#45;&gt;Node4</title>
<path fill="none" stroke="midnightblue" d="M206.138,-57.646C215.015,-59.1063 223.864,-60.5621 231.846,-61.8751"/>
<polygon fill="midnightblue" stroke="midnightblue" points="206.583,-54.1723 196.148,-56.0026 205.447,-61.0795 206.583,-54.1723"/>
</g>
<!-- Node5 -->
<g id="node5" class="node"><title>Node5</title>
<g id="a_node5"><a xlink:href="frontend_8js.html#a026aacb2020ed839706c99a8805c244b" target="_top" xlink:title="showProgress">
<polygon fill="white" stroke="black" points="332,-19.5 332,-38.5 411,-38.5 411,-19.5 332,-19.5"/>
<text text-anchor="middle" x="371.5" y="-26.5" font-family="Helvetica,sans-Serif" font-size="10.00">showProgress</text>
</a>
</g>
</g>
<!-- Node4&#45;&gt;Node5 -->
<g id="edge4" class="edge"><title>Node4&#45;&gt;Node5</title>
<path fill="none" stroke="midnightblue" d="M301.42,-53.882C315.373,-48.8561 331.018,-43.2209 343.886,-38.5859"/>
<polygon fill="midnightblue" stroke="midnightblue" points="299.844,-50.7292 291.622,-57.411 302.217,-57.3151 299.844,-50.7292"/>
</g>
<!-- Node5&#45;&gt;Node2 -->
<g id="edge5" class="edge"><title>Node5&#45;&gt;Node2</title>
<path fill="none" stroke="midnightblue" d="M321.815,-33.1481C284.558,-36.3224 233.414,-40.68 196.163,-43.8538"/>
<polygon fill="midnightblue" stroke="midnightblue" points="322.265,-36.6225 331.932,-32.2861 321.671,-29.6477 322.265,-36.6225"/>
</g>
<!-- Node5&#45;&gt;Node6 -->
<g id="edge6" class="edge"><title>Node5&#45;&gt;Node6</title>
<path fill="none" stroke="midnightblue" d="M396.274,-44.0568C420.402,-59.338 457.023,-82.5311 477.425,-95.4527"/>
<polygon fill="midnightblue" stroke="midnightblue" points="398.019,-41.0191 387.698,-38.6255 394.274,-46.9329 398.019,-41.0191"/>
</g>
<!-- Node7 -->
<g id="node7" class="node"><title>Node7</title>
<g id="a_node7"><a xlink:href="frontend_8js.html#aa6fd7ff8d2590761fcda0342978b0b22" target="_top" xlink:title="getCitation">
<polygon fill="white" stroke="black" points="461.5,-19.5 461.5,-38.5 525.5,-38.5 525.5,-19.5 461.5,-19.5"/>
<text text-anchor="middle" x="493.5" y="-26.5" font-family="Helvetica,sans-Serif" font-size="10.00">getCitation</text>
</a>
</g>
</g>
<!-- Node5&#45;&gt;Node7 -->
<g id="edge8" class="edge"><title>Node5&#45;&gt;Node7</title>
<path fill="none" stroke="midnightblue" d="M421.23,-29C434.701,-29 448.959,-29 461.153,-29"/>
<polygon fill="midnightblue" stroke="midnightblue" points="421.129,-25.5001 411.129,-29 421.129,-32.5001 421.129,-25.5001"/>
</g>
<!-- Node6&#45;&gt;Node4 -->
<g id="edge7" class="edge"><title>Node6&#45;&gt;Node4</title>
<path fill="none" stroke="midnightblue" d="M436.575,-97.443C405.672,-93.065 366.634,-87.2026 332,-81 320.303,-78.9052 307.521,-76.3107 296.286,-73.9266"/>
<polygon fill="midnightblue" stroke="midnightblue" points="436.336,-100.944 446.725,-98.8692 437.31,-94.0118 436.336,-100.944"/>
</g>
<!-- Node7&#45;&gt;Node3 -->
<g id="edge9" class="edge"><title>Node7&#45;&gt;Node3</title>
<path fill="none" stroke="midnightblue" d="M535.682,-23.5283C548.251,-21.8582 562.355,-19.9843 575.967,-18.1757"/>
<polygon fill="midnightblue" stroke="midnightblue" points="534.981,-20.0906 525.529,-24.8773 535.903,-27.0296 534.981,-20.0906"/>
</g>
<!-- Node7&#45;&gt;Node4 -->
<g id="edge10" class="edge"><title>Node7&#45;&gt;Node4</title>
<path fill="none" stroke="midnightblue" d="M451.339,-39.4369C438.476,-42.4714 424.198,-45.6089 411,-48 371.638,-55.1312 325.839,-60.6441 296.183,-63.8522"/>
<polygon fill="midnightblue" stroke="midnightblue" points="452.399,-42.7819 461.304,-37.0415 450.762,-35.9758 452.399,-42.7819"/>
</g>
</g>
</svg>
