<?xml version="1.0" encoding="UTF-8" standalone="no"?>
<!DOCTYPE svg PUBLIC "-//W3C//DTD SVG 1.1//EN"
 "http://www.w3.org/Graphics/SVG/1.1/DTD/svg11.dtd">
<!-- Generated by graphviz version 2.38.0 (20140413.2041)
 -->
<!-- Title: populateUI Pages: 1 -->
<svg width="484pt" height="346pt"
 viewBox="0.00 0.00 484.00 345.96" xmlns="http://www.w3.org/2000/svg" xmlns:xlink="http://www.w3.org/1999/xlink">
<g id="graph0" class="graph" transform="scale(1 1) rotate(0) translate(4 341.962)">
<title>populateUI</title>
<polygon fill="white" stroke="none" points="-4,4 -4,-341.962 480,-341.962 480,4 -4,4"/>
<!-- Node1 -->
<g id="node1" class="node"><title>Node1</title>
<polygon fill="#bfbfbf" stroke="black" points="0,-158.89 0,-177.89 64,-177.89 64,-158.89 0,-158.89"/>
<text text-anchor="middle" x="32" y="-165.89" font-family="Helvetica,sans-Serif" font-size="10.00">populateUI</text>
</g>
<!-- Node2 -->
<g id="node2" class="node"><title>Node2</title>
<g id="a_node2"><a xlink:href="general_8js.html#a3c52670d7ece95bdca65208692bc18f2" target="_top" xlink:title="displayErrorMessage">
<polygon fill="white" stroke="black" points="257,-253.89 257,-272.89 365,-272.89 365,-253.89 257,-253.89"/>
<text text-anchor="middle" x="311" y="-260.89" font-family="Helvetica,sans-Serif" font-size="10.00">displayErrorMessage</text>
</a>
</g>
</g>
<!-- Node1&#45;&gt;Node2 -->
<g id="edge1" class="edge"><title>Node1&#45;&gt;Node2</title>
<path fill="none" stroke="midnightblue" d="M33.7986,-178.145C36.6838,-206.219 49.2702,-287.311 100,-320.39 145.047,-349.763 169.389,-335.5 221,-320.39 247.992,-312.487 274.568,-293.613 291.549,-279.739"/>
<polygon fill="midnightblue" stroke="midnightblue" points="294.121,-282.148 299.506,-273.024 289.607,-276.799 294.121,-282.148"/>
</g>
<!-- Node3 -->
<g id="node3" class="node"><title>Node3</title>
<g id="a_node3"><a xlink:href="frontend_8js.html#ad1b6f7258037f83d33075afa5ed17c83" target="_top" xlink:title="buildUI">
<polygon fill="white" stroke="black" points="137,-291.89 137,-310.89 184,-310.89 184,-291.89 137,-291.89"/>
<text text-anchor="middle" x="160.5" y="-298.89" font-family="Helvetica,sans-Serif" font-size="10.00">buildUI</text>
</a>
</g>
</g>
<!-- Node1&#45;&gt;Node3 -->
<g id="edge2" class="edge"><title>Node1&#45;&gt;Node3</title>
<path fill="none" stroke="midnightblue" d="M35.9576,-177.925C43.2083,-199.733 63.9549,-253.581 100,-282.39 107.714,-288.555 117.468,-292.738 126.836,-295.569"/>
<polygon fill="midnightblue" stroke="midnightblue" points="126.175,-299.013 136.734,-298.14 127.935,-292.238 126.175,-299.013"/>
</g>
<!-- Node4 -->
<g id="node4" class="node"><title>Node4</title>
<g id="a_node4"><a xlink:href="frontend_8js.html#aa6fd7ff8d2590761fcda0342978b0b22" target="_top" xlink:title="getCitation">
<polygon fill="white" stroke="black" points="128.5,-25.8896 128.5,-44.8896 192.5,-44.8896 192.5,-25.8896 128.5,-25.8896"/>
<text text-anchor="middle" x="160.5" y="-32.8896" font-family="Helvetica,sans-Serif" font-size="10.00">getCitation</text>
</a>
</g>
</g>
<!-- Node1&#45;&gt;Node4 -->
<g id="edge3" class="edge"><title>Node1&#45;&gt;Node4</title>
<path fill="none" stroke="midnightblue" d="M35.9576,-158.854C43.2083,-137.046 63.9549,-83.1981 100,-54.3896 105.464,-50.0229 111.951,-46.6505 118.6,-44.0485"/>
<polygon fill="midnightblue" stroke="midnightblue" points="119.997,-47.2713 128.356,-40.7615 117.762,-40.6376 119.997,-47.2713"/>
</g>
<!-- Node8 -->
<g id="node8" class="node"><title>Node8</title>
<g id="a_node8"><a xlink:href="general_8js.html#ab624ce9aebffbb8bc3159502c4afc32b" target="_top" xlink:title="copyToClipboard">
<polygon fill="white" stroke="black" points="115.5,-215.89 115.5,-234.89 205.5,-234.89 205.5,-215.89 115.5,-215.89"/>
<text text-anchor="middle" x="160.5" y="-222.89" font-family="Helvetica,sans-Serif" font-size="10.00">copyToClipboard</text>
</a>
</g>
</g>
<!-- Node1&#45;&gt;Node8 -->
<g id="edge8" class="edge"><title>Node1&#45;&gt;Node8</title>
<path fill="none" stroke="midnightblue" d="M47.7076,-177.91C60.9852,-186.216 81.2562,-198.187 100,-206.39 105.029,-208.59 110.396,-210.664 115.771,-212.574"/>
<polygon fill="midnightblue" stroke="midnightblue" points="114.787,-215.936 125.381,-215.829 117.032,-209.306 114.787,-215.936"/>
</g>
<!-- Node9 -->
<g id="node9" class="node"><title>Node9</title>
<g id="a_node9"><a xlink:href="general_8js.html#aecfeb655371b751d36422b7a93a66279" target="_top" xlink:title="displaySystemMessage">
<polygon fill="white" stroke="black" points="100,-177.89 100,-196.89 221,-196.89 221,-177.89 100,-177.89"/>
<text text-anchor="middle" x="160.5" y="-184.89" font-family="Helvetica,sans-Serif" font-size="10.00">displaySystemMessage</text>
</a>
</g>
</g>
<!-- Node1&#45;&gt;Node9 -->
<g id="edge9" class="edge"><title>Node1&#45;&gt;Node9</title>
<path fill="none" stroke="midnightblue" d="M64.2697,-173.086C72.1372,-174.268 80.9005,-175.584 89.8363,-176.926"/>
<polygon fill="midnightblue" stroke="midnightblue" points="89.551,-180.423 99.96,-178.447 90.5908,-173.5 89.551,-180.423"/>
</g>
<!-- Node10 -->
<g id="node10" class="node"><title>Node10</title>
<g id="a_node10"><a xlink:href="frontend_8js.html#a2e24b94e011170375215c3a8b745e9a4" target="_top" xlink:title="getCountConcept">
<polygon fill="white" stroke="black" points="114,-139.89 114,-158.89 207,-158.89 207,-139.89 114,-139.89"/>
<text text-anchor="middle" x="160.5" y="-146.89" font-family="Helvetica,sans-Serif" font-size="10.00">getCountConcept</text>
</a>
</g>
</g>
<!-- Node1&#45;&gt;Node10 -->
<g id="edge10" class="edge"><title>Node1&#45;&gt;Node10</title>
<path fill="none" stroke="midnightblue" d="M64.2697,-163.693C76.1635,-161.907 90.1047,-159.813 103.594,-157.786"/>
<polygon fill="midnightblue" stroke="midnightblue" points="104.411,-161.203 113.78,-156.257 103.371,-154.281 104.411,-161.203"/>
</g>
<!-- Node12 -->
<g id="node12" class="node"><title>Node12</title>
<g id="a_node12"><a xlink:href="frontend_8js.html#add7d88a4ad05a1fb2478eff9a1857824" target="_top" xlink:title="getUsefulLinks">
<polygon fill="white" stroke="black" points="119.5,-253.89 119.5,-272.89 201.5,-272.89 201.5,-253.89 119.5,-253.89"/>
<text text-anchor="middle" x="160.5" y="-260.89" font-family="Helvetica,sans-Serif" font-size="10.00">getUsefulLinks</text>
</a>
</g>
</g>
<!-- Node1&#45;&gt;Node12 -->
<g id="edge15" class="edge"><title>Node1&#45;&gt;Node12</title>
<path fill="none" stroke="midnightblue" d="M38.9767,-178.056C49.4055,-194.14 72.4626,-226.4 100,-244.39 103.135,-246.437 106.507,-248.279 109.994,-249.931"/>
<polygon fill="midnightblue" stroke="midnightblue" points="108.838,-253.242 119.414,-253.88 111.544,-246.786 108.838,-253.242"/>
</g>
<!-- Node13 -->
<g id="node13" class="node"><title>Node13</title>
<g id="a_node13"><a xlink:href="frontend_8js.html#a5f8e953a90f434851f20518b1e3baeb6" target="_top" xlink:title="getArchives">
<polygon fill="white" stroke="black" points="126.5,-63.8896 126.5,-82.8896 194.5,-82.8896 194.5,-63.8896 126.5,-63.8896"/>
<text text-anchor="middle" x="160.5" y="-70.8896" font-family="Helvetica,sans-Serif" font-size="10.00">getArchives</text>
</a>
</g>
</g>
<!-- Node1&#45;&gt;Node13 -->
<g id="edge17" class="edge"><title>Node1&#45;&gt;Node13</title>
<path fill="none" stroke="midnightblue" d="M38.9767,-158.723C49.4055,-142.639 72.4626,-110.379 100,-92.3896 105.06,-89.0842 110.737,-86.3175 116.522,-84.0116"/>
<polygon fill="midnightblue" stroke="midnightblue" points="118.017,-87.1949 126.271,-80.5522 115.676,-80.5979 118.017,-87.1949"/>
</g>
<!-- Node14 -->
<g id="node14" class="node"><title>Node14</title>
<g id="a_node14"><a xlink:href="frontend_8js.html#a816e9b3b3cd90b9b151a46331c601fbe" target="_top" xlink:title="getCurrentRecords">
<polygon fill="white" stroke="black" points="111,-101.89 111,-120.89 210,-120.89 210,-101.89 111,-101.89"/>
<text text-anchor="middle" x="160.5" y="-108.89" font-family="Helvetica,sans-Serif" font-size="10.00">getCurrentRecords</text>
</a>
</g>
</g>
<!-- Node1&#45;&gt;Node14 -->
<g id="edge18" class="edge"><title>Node1&#45;&gt;Node14</title>
<path fill="none" stroke="midnightblue" d="M47.7076,-158.869C60.9852,-150.563 81.2562,-138.592 100,-130.39 105.029,-128.189 110.396,-126.115 115.771,-124.205"/>
<polygon fill="midnightblue" stroke="midnightblue" points="117.032,-127.473 125.381,-120.95 114.787,-120.843 117.032,-127.473"/>
</g>
<!-- Node5 -->
<g id="node5" class="node"><title>Node5</title>
<g id="a_node5"><a xlink:href="frontend_8js.html#a026aacb2020ed839706c99a8805c244b" target="_top" xlink:title="showProgress">
<polygon fill="white" stroke="black" points="271.5,-44.8896 271.5,-63.8896 350.5,-63.8896 350.5,-44.8896 271.5,-44.8896"/>
<text text-anchor="middle" x="311" y="-51.8896" font-family="Helvetica,sans-Serif" font-size="10.00">showProgress</text>
</a>
</g>
</g>
<!-- Node4&#45;&gt;Node5 -->
<g id="edge4" class="edge"><title>Node4&#45;&gt;Node5</title>
<path fill="none" stroke="midnightblue" d="M192.63,-39.3726C212.47,-41.911 238.595,-45.2536 261.16,-48.1407"/>
<polygon fill="midnightblue" stroke="midnightblue" points="260.878,-51.6331 271.242,-49.4306 261.767,-44.6897 260.878,-51.6331"/>
</g>
<!-- Node7 -->
<g id="node7" class="node"><title>Node7</title>
<g id="a_node7"><a xlink:href="general_8js.html#a33e21da30cef3db82208e64a6801aa44" target="_top" xlink:title="logbook">
<polygon fill="white" stroke="black" points="286,-101.89 286,-120.89 336,-120.89 336,-101.89 286,-101.89"/>
<text text-anchor="middle" x="311" y="-108.89" font-family="Helvetica,sans-Serif" font-size="10.00">logbook</text>
</a>
</g>
</g>
<!-- Node4&#45;&gt;Node7 -->
<g id="edge7" class="edge"><title>Node4&#45;&gt;Node7</title>
<path fill="none" stroke="midnightblue" d="M192.66,-43.6629C201.97,-46.5781 212.069,-50.1922 221,-54.3896 245.605,-65.9541 271.543,-83.227 289.028,-95.726"/>
<polygon fill="midnightblue" stroke="midnightblue" points="287.202,-98.7253 297.349,-101.772 291.316,-93.0621 287.202,-98.7253"/>
</g>
<!-- Node5&#45;&gt;Node1 -->
<g id="edge6" class="edge"><title>Node5&#45;&gt;Node1</title>
<path fill="none" stroke="midnightblue" d="M294.553,-44.7351C257.666,-23.0383 162.847,24.5898 100,-16.3896 54.4224,-46.1084 39.6339,-114.583 35.0077,-148.546"/>
<polygon fill="midnightblue" stroke="midnightblue" points="31.5135,-148.289 33.7986,-158.634 38.4637,-149.122 31.5135,-148.289"/>
</g>
<!-- Node6 -->
<g id="node6" class="node"><title>Node6</title>
<g id="a_node6"><a xlink:href="general_8js.html#ad9f2873ff9e09926e2f18c529721c6f8" target="_top" xlink:title="getMessages">
<polygon fill="white" stroke="black" points="401,-44.8896 401,-63.8896 476,-63.8896 476,-44.8896 401,-44.8896"/>
<text text-anchor="middle" x="438.5" y="-51.8896" font-family="Helvetica,sans-Serif" font-size="10.00">getMessages</text>
</a>
</g>
</g>
<!-- Node5&#45;&gt;Node6 -->
<g id="edge5" class="edge"><title>Node5&#45;&gt;Node6</title>
<path fill="none" stroke="midnightblue" d="M350.678,-54.3896C363.294,-54.3896 377.441,-54.3896 390.593,-54.3896"/>
<polygon fill="midnightblue" stroke="midnightblue" points="390.88,-57.8897 400.88,-54.3896 390.88,-50.8897 390.88,-57.8897"/>
</g>
<!-- Node10&#45;&gt;Node2 -->
<g id="edge12" class="edge"><title>Node10&#45;&gt;Node2</title>
<path fill="none" stroke="midnightblue" d="M201.177,-158.934C208.064,-161.452 214.95,-164.566 221,-168.39 253.599,-188.989 282.279,-224.331 297.783,-245.612"/>
<polygon fill="midnightblue" stroke="midnightblue" points="294.948,-247.665 303.594,-253.788 300.654,-243.61 294.948,-247.665"/>
</g>
<!-- Node10&#45;&gt;Node5 -->
<g id="edge11" class="edge"><title>Node10&#45;&gt;Node5</title>
<path fill="none" stroke="midnightblue" d="M201.159,-139.817C208.049,-137.302 214.939,-134.196 221,-130.39 240.702,-118.017 239.467,-107.681 257,-92.3896 266.182,-84.3814 277.009,-76.3913 286.477,-69.8191"/>
<polygon fill="midnightblue" stroke="midnightblue" points="288.737,-72.5149 295.038,-63.9981 284.801,-66.7261 288.737,-72.5149"/>
</g>
<!-- Node10&#45;&gt;Node7 -->
<g id="edge13" class="edge"><title>Node10&#45;&gt;Node7</title>
<path fill="none" stroke="midnightblue" d="M198.973,-139.801C222.518,-133.776 252.664,-126.061 275.601,-120.192"/>
<polygon fill="midnightblue" stroke="midnightblue" points="276.762,-123.508 285.582,-117.638 275.027,-116.726 276.762,-123.508"/>
</g>
<!-- Node11 -->
<g id="node11" class="node"><title>Node11</title>
<g id="a_node11"><a xlink:href="frontend_8js.html#a24a888339bf25830f0d3c73e18aca77b" target="_top" xlink:title="showDate">
<polygon fill="white" stroke="black" points="280.5,-139.89 280.5,-158.89 341.5,-158.89 341.5,-139.89 280.5,-139.89"/>
<text text-anchor="middle" x="311" y="-146.89" font-family="Helvetica,sans-Serif" font-size="10.00">showDate</text>
</a>
</g>
</g>
<!-- Node10&#45;&gt;Node11 -->
<g id="edge14" class="edge"><title>Node10&#45;&gt;Node11</title>
<path fill="none" stroke="midnightblue" d="M207.267,-149.39C227.349,-149.39 250.707,-149.39 270.072,-149.39"/>
<polygon fill="midnightblue" stroke="midnightblue" points="270.084,-152.89 280.084,-149.39 270.084,-145.89 270.084,-152.89"/>
</g>
<!-- Node12&#45;&gt;Node2 -->
<g id="edge16" class="edge"><title>Node12&#45;&gt;Node2</title>
<path fill="none" stroke="midnightblue" d="M201.686,-263.39C215.505,-263.39 231.333,-263.39 246.544,-263.39"/>
<polygon fill="midnightblue" stroke="midnightblue" points="246.943,-266.89 256.943,-263.39 246.943,-259.89 246.943,-266.89"/>
</g>
<!-- Node14&#45;&gt;Node5 -->
<g id="edge19" class="edge"><title>Node14&#45;&gt;Node5</title>
<path fill="none" stroke="midnightblue" d="M193.187,-101.882C202.231,-99.0035 212.057,-95.7182 221,-92.3896 240.743,-85.0411 262.498,-75.7746 279.557,-68.2321"/>
<polygon fill="midnightblue" stroke="midnightblue" points="281.3,-71.2871 289.008,-64.0179 278.449,-64.8939 281.3,-71.2871"/>
</g>
<!-- Node14&#45;&gt;Node7 -->
<g id="edge20" class="edge"><title>Node14&#45;&gt;Node7</title>
<path fill="none" stroke="midnightblue" d="M210.124,-111.39C231.536,-111.39 256.187,-111.39 275.642,-111.39"/>
<polygon fill="midnightblue" stroke="midnightblue" points="275.862,-114.89 285.862,-111.39 275.862,-107.89 275.862,-114.89"/>
</g>
<!-- Node14&#45;&gt;Node11 -->
<g id="edge21" class="edge"><title>Node14&#45;&gt;Node11</title>
<path fill="none" stroke="midnightblue" d="M198.973,-120.979C220.879,-126.584 248.499,-133.652 270.71,-139.336"/>
<polygon fill="midnightblue" stroke="midnightblue" points="269.939,-142.751 280.495,-141.839 271.675,-135.97 269.939,-142.751"/>
</g>
</g>
</svg>
