<?xml version="1.0" encoding="UTF-8" standalone="no"?>
<!DOCTYPE svg PUBLIC "-//W3C//DTD SVG 1.1//EN"
 "http://www.w3.org/Graphics/SVG/1.1/DTD/svg11.dtd">
<!-- Generated by graphviz version 2.38.0 (20140413.2041)
 -->
<!-- Title: getCountConcept Pages: 1 -->
<svg width="612pt" height="85pt"
 viewBox="0.00 0.00 612.00 85.00" xmlns="http://www.w3.org/2000/svg" xmlns:xlink="http://www.w3.org/1999/xlink">
<g id="graph0" class="graph" transform="scale(1 1) rotate(0) translate(4 81)">
<title>getCountConcept</title>
<polygon fill="white" stroke="none" points="-4,4 -4,-81 608,-81 608,4 -4,4"/>
<!-- Node1 -->
<g id="node1" class="node"><title>Node1</title>
<polygon fill="#bfbfbf" stroke="black" points="0,-19.5 0,-38.5 93,-38.5 93,-19.5 0,-19.5"/>
<text text-anchor="middle" x="46.5" y="-26.5" font-family="Helvetica,sans-Serif" font-size="10.00">getCountConcept</text>
</g>
<!-- Node2 -->
<g id="node2" class="node"><title>Node2</title>
<g id="a_node2"><a xlink:href="frontend_8js.html#a2f4ec7b87c92d886af91eccd0080c024" target="_top" xlink:title="populateUI">
<polygon fill="white" stroke="black" points="129,-38.5 129,-57.5 193,-57.5 193,-38.5 129,-38.5"/>
<text text-anchor="middle" x="161" y="-45.5" font-family="Helvetica,sans-Serif" font-size="10.00">populateUI</text>
</a>
</g>
</g>
<!-- Node1&#45;&gt;Node2 -->
<g id="edge1" class="edge"><title>Node1&#45;&gt;Node2</title>
<path fill="none" stroke="midnightblue" d="M103.139,-38.3968C111.939,-39.883 120.759,-41.3726 128.737,-42.7201"/>
<polygon fill="midnightblue" stroke="midnightblue" points="103.701,-34.9423 93.2581,-36.728 102.536,-41.8445 103.701,-34.9423"/>
</g>
<!-- Node3 -->
<g id="node3" class="node"><title>Node3</title>
<g id="a_node3"><a xlink:href="frontend_8js.html#a026aacb2020ed839706c99a8805c244b" target="_top" xlink:title="showProgress">
<polygon fill="white" stroke="black" points="229,-0.5 229,-19.5 308,-19.5 308,-0.5 229,-0.5"/>
<text text-anchor="middle" x="268.5" y="-7.5" font-family="Helvetica,sans-Serif" font-size="10.00">showProgress</text>
</a>
</g>
</g>
<!-- Node2&#45;&gt;Node3 -->
<g id="edge2" class="edge"><title>Node2&#45;&gt;Node3</title>
<path fill="none" stroke="midnightblue" d="M198.42,-34.882C212.373,-29.8561 228.018,-24.2209 240.886,-19.5859"/>
<polygon fill="midnightblue" stroke="midnightblue" points="196.844,-31.7292 188.622,-38.411 199.217,-38.3151 196.844,-31.7292"/>
</g>
<!-- Node3&#45;&gt;Node1 -->
<g id="edge6" class="edge"><title>Node3&#45;&gt;Node1</title>
<path fill="none" stroke="midnightblue" d="M218.762,-14.2092C181.25,-17.4488 129.783,-21.8938 93.0841,-25.0632"/>
<polygon fill="midnightblue" stroke="midnightblue" points="219.287,-17.677 228.949,-13.3294 218.685,-10.7029 219.287,-17.677"/>
</g>
<!-- Node4 -->
<g id="node4" class="node"><title>Node4</title>
<g id="a_node4"><a xlink:href="frontend_8js.html#a816e9b3b3cd90b9b151a46331c601fbe" target="_top" xlink:title="getCurrentRecords">
<polygon fill="white" stroke="black" points="344,-19.5 344,-38.5 443,-38.5 443,-19.5 344,-19.5"/>
<text text-anchor="middle" x="393.5" y="-26.5" font-family="Helvetica,sans-Serif" font-size="10.00">getCurrentRecords</text>
</a>
</g>
</g>
<!-- Node3&#45;&gt;Node4 -->
<g id="edge3" class="edge"><title>Node3&#45;&gt;Node4</title>
<path fill="none" stroke="midnightblue" d="M318.112,-17.5091C326.508,-18.8062 335.241,-20.1551 343.644,-21.4532"/>
<polygon fill="midnightblue" stroke="midnightblue" points="318.498,-14.0273 308.08,-15.9596 317.429,-20.9453 318.498,-14.0273"/>
</g>
<!-- Node6 -->
<g id="node6" class="node"><title>Node6</title>
<g id="a_node6"><a xlink:href="frontend_8js.html#aa6fd7ff8d2590761fcda0342978b0b22" target="_top" xlink:title="getCitation">
<polygon fill="white" stroke="black" points="361.5,-57.5 361.5,-76.5 425.5,-76.5 425.5,-57.5 361.5,-57.5"/>
<text text-anchor="middle" x="393.5" y="-64.5" font-family="Helvetica,sans-Serif" font-size="10.00">getCitation</text>
</a>
</g>
</g>
<!-- Node3&#45;&gt;Node6 -->
<g id="edge7" class="edge"><title>Node3&#45;&gt;Node6</title>
<path fill="none" stroke="midnightblue" d="M296.131,-24.3872C310.203,-31.7839 327.861,-40.7437 344,-48 351.258,-51.2633 359.257,-54.5282 366.63,-57.408"/>
<polygon fill="midnightblue" stroke="midnightblue" points="297.498,-21.1507 287.024,-19.5563 294.218,-27.3345 297.498,-21.1507"/>
</g>
<!-- Node4&#45;&gt;Node2 -->
<g id="edge5" class="edge"><title>Node4&#45;&gt;Node2</title>
<path fill="none" stroke="midnightblue" d="M333.67,-33.8493C288.88,-37.5414 228.997,-42.4774 193.086,-45.4376"/>
<polygon fill="midnightblue" stroke="midnightblue" points="334.165,-37.3205 343.844,-33.0107 333.59,-30.3442 334.165,-37.3205"/>
</g>
<!-- Node5 -->
<g id="node5" class="node"><title>Node5</title>
<g id="a_node5"><a xlink:href="class_bms_1_1_bms.html#aec5f7b55928d9eb969567ab87ea9e021" target="_top" xlink:title="Bms\\Bms\\frontController">
<polygon fill="white" stroke="black" points="479,-38.5 479,-57.5 604,-57.5 604,-38.5 479,-38.5"/>
<text text-anchor="middle" x="541.5" y="-45.5" font-family="Helvetica,sans-Serif" font-size="10.00">Bms\Bms\frontController</text>
</a>
</g>
</g>
<!-- Node4&#45;&gt;Node5 -->
<g id="edge4" class="edge"><title>Node4&#45;&gt;Node5</title>
<path fill="none" stroke="midnightblue" d="M453.238,-36.6439C461.669,-37.7412 470.365,-38.8728 478.851,-39.9771"/>
<polygon fill="midnightblue" stroke="midnightblue" points="453.484,-33.1466 443.116,-35.3267 452.581,-40.088 453.484,-33.1466"/>
</g>
<!-- Node6&#45;&gt;Node2 -->
<g id="edge9" class="edge"><title>Node6&#45;&gt;Node2</title>
<path fill="none" stroke="midnightblue" d="M351.07,-63.5849C305.675,-59.8431 233.9,-53.9266 193.086,-50.5624"/>
<polygon fill="midnightblue" stroke="midnightblue" points="350.916,-67.0841 361.17,-64.4175 351.491,-60.1077 350.916,-67.0841"/>
</g>
<!-- Node6&#45;&gt;Node5 -->
<g id="edge8" class="edge"><title>Node6&#45;&gt;Node5</title>
<path fill="none" stroke="midnightblue" d="M436.089,-61.5878C449.408,-59.8544 464.452,-57.8967 478.886,-56.0182"/>
<polygon fill="midnightblue" stroke="midnightblue" points="435.285,-58.1627 425.821,-62.924 436.189,-65.1042 435.285,-58.1627"/>
</g>
</g>
</svg>
