<?xml version="1.0" encoding="UTF-8" standalone="no"?>
<!DOCTYPE svg PUBLIC "-//W3C//DTD SVG 1.1//EN"
 "http://www.w3.org/Graphics/SVG/1.1/DTD/svg11.dtd">
<!-- Generated by graphviz version 2.38.0 (20140413.2041)
 -->
<!-- Title: showProgress Pages: 1 -->
<svg width="499pt" height="332pt"
 viewBox="0.00 0.00 499.00 332.00" xmlns="http://www.w3.org/2000/svg" xmlns:xlink="http://www.w3.org/1999/xlink">
<g id="graph0" class="graph" transform="scale(1 1) rotate(0) translate(4 328)">
<title>showProgress</title>
<polygon fill="white" stroke="none" points="-4,4 -4,-328 495,-328 495,4 -4,4"/>
<!-- Node1 -->
<g id="node1" class="node"><title>Node1</title>
<polygon fill="#bfbfbf" stroke="black" points="0,-76.5 0,-95.5 79,-95.5 79,-76.5 0,-76.5"/>
<text text-anchor="middle" x="39.5" y="-83.5" font-family="Helvetica,sans-Serif" font-size="10.00">showProgress</text>
</g>
<!-- Node2 -->
<g id="node2" class="node"><title>Node2</title>
<g id="a_node2"><a xlink:href="general_8js.html#ad9f2873ff9e09926e2f18c529721c6f8" target="_top" xlink:title="getMessages">
<polygon fill="white" stroke="black" points="115,-152.5 115,-171.5 190,-171.5 190,-152.5 115,-152.5"/>
<text text-anchor="middle" x="152.5" y="-159.5" font-family="Helvetica,sans-Serif" font-size="10.00">getMessages</text>
</a>
</g>
</g>
<!-- Node1&#45;&gt;Node2 -->
<g id="edge1" class="edge"><title>Node1&#45;&gt;Node2</title>
<path fill="none" stroke="midnightblue" d="M51.6655,-95.5277C65.8591,-107.404 91.3651,-127.966 115,-143 117.43,-144.546 120,-146.076 122.605,-147.557"/>
<polygon fill="midnightblue" stroke="midnightblue" points="120.989,-150.662 131.448,-152.354 124.327,-144.509 120.989,-150.662"/>
</g>
<!-- Node3 -->
<g id="node3" class="node"><title>Node3</title>
<g id="a_node3"><a xlink:href="frontend_8js.html#a2f4ec7b87c92d886af91eccd0080c024" target="_top" xlink:title="populateUI">
<polygon fill="white" stroke="black" points="120.5,-114.5 120.5,-133.5 184.5,-133.5 184.5,-114.5 120.5,-114.5"/>
<text text-anchor="middle" x="152.5" y="-121.5" font-family="Helvetica,sans-Serif" font-size="10.00">populateUI</text>
</a>
</g>
</g>
<!-- Node1&#45;&gt;Node3 -->
<g id="edge2" class="edge"><title>Node1&#45;&gt;Node3</title>
<path fill="none" stroke="midnightblue" d="M68.51,-95.589C82.1817,-100.269 98.831,-105.969 113.618,-111.032"/>
<polygon fill="midnightblue" stroke="midnightblue" points="112.904,-114.486 123.499,-114.414 115.172,-107.864 112.904,-114.486"/>
</g>
<!-- Node4 -->
<g id="node4" class="node"><title>Node4</title>
<g id="a_node4"><a xlink:href="general_8js.html#a3c52670d7ece95bdca65208692bc18f2" target="_top" xlink:title="displayErrorMessage">
<polygon fill="white" stroke="black" points="383,-190.5 383,-209.5 491,-209.5 491,-190.5 383,-190.5"/>
<text text-anchor="middle" x="437" y="-197.5" font-family="Helvetica,sans-Serif" font-size="10.00">displayErrorMessage</text>
</a>
</g>
</g>
<!-- Node3&#45;&gt;Node4 -->
<g id="edge3" class="edge"><title>Node3&#45;&gt;Node4</title>
<path fill="none" stroke="midnightblue" d="M174.682,-133.512C179.897,-136.256 185.323,-139.473 190,-143 208.574,-157.009 205.065,-170.853 226,-181 271.593,-203.098 329.269,-206.856 372.636,-205.645"/>
<polygon fill="midnightblue" stroke="midnightblue" points="372.914,-209.137 382.776,-205.265 372.652,-202.142 372.914,-209.137"/>
</g>
<!-- Node5 -->
<g id="node5" class="node"><title>Node5</title>
<g id="a_node5"><a xlink:href="frontend_8js.html#ad1b6f7258037f83d33075afa5ed17c83" target="_top" xlink:title="buildUI">
<polygon fill="white" stroke="black" points="263,-114.5 263,-133.5 310,-133.5 310,-114.5 263,-114.5"/>
<text text-anchor="middle" x="286.5" y="-121.5" font-family="Helvetica,sans-Serif" font-size="10.00">buildUI</text>
</a>
</g>
</g>
<!-- Node3&#45;&gt;Node5 -->
<g id="edge4" class="edge"><title>Node3&#45;&gt;Node5</title>
<path fill="none" stroke="midnightblue" d="M184.782,-124C205.168,-124 231.731,-124 252.459,-124"/>
<polygon fill="midnightblue" stroke="midnightblue" points="252.703,-127.5 262.703,-124 252.703,-120.5 252.703,-127.5"/>
</g>
<!-- Node6 -->
<g id="node6" class="node"><title>Node6</title>
<g id="a_node6"><a xlink:href="frontend_8js.html#aa6fd7ff8d2590761fcda0342978b0b22" target="_top" xlink:title="getCitation">
<polygon fill="white" stroke="black" points="254.5,-0.5 254.5,-19.5 318.5,-19.5 318.5,-0.5 254.5,-0.5"/>
<text text-anchor="middle" x="286.5" y="-7.5" font-family="Helvetica,sans-Serif" font-size="10.00">getCitation</text>
</a>
</g>
</g>
<!-- Node3&#45;&gt;Node6 -->
<g id="edge5" class="edge"><title>Node3&#45;&gt;Node6</title>
<path fill="none" stroke="midnightblue" d="M158.255,-114.359C168.176,-95.2288 192.933,-52.3094 226,-29 231.657,-25.0123 238.192,-21.8319 244.815,-19.3042"/>
<polygon fill="midnightblue" stroke="midnightblue" points="246.128,-22.5554 254.491,-16.0499 243.897,-15.9206 246.128,-22.5554"/>
</g>
<!-- Node8 -->
<g id="node8" class="node"><title>Node8</title>
<g id="a_node8"><a xlink:href="general_8js.html#ab624ce9aebffbb8bc3159502c4afc32b" target="_top" xlink:title="copyToClipboard">
<polygon fill="white" stroke="black" points="241.5,-266.5 241.5,-285.5 331.5,-285.5 331.5,-266.5 241.5,-266.5"/>
<text text-anchor="middle" x="286.5" y="-273.5" font-family="Helvetica,sans-Serif" font-size="10.00">copyToClipboard</text>
</a>
</g>
</g>
<!-- Node3&#45;&gt;Node8 -->
<g id="edge8" class="edge"><title>Node3&#45;&gt;Node8</title>
<path fill="none" stroke="midnightblue" d="M178.589,-133.671C182.837,-136.195 186.877,-139.279 190,-143 224.163,-183.694 188.49,-219.369 226,-257 227.909,-258.915 230.011,-260.638 232.25,-262.186"/>
<polygon fill="midnightblue" stroke="midnightblue" points="231.012,-265.505 241.446,-267.342 234.435,-259.399 231.012,-265.505"/>
</g>
<!-- Node9 -->
<g id="node9" class="node"><title>Node9</title>
<g id="a_node9"><a xlink:href="general_8js.html#aecfeb655371b751d36422b7a93a66279" target="_top" xlink:title="displaySystemMessage">
<polygon fill="white" stroke="black" points="226,-228.5 226,-247.5 347,-247.5 347,-228.5 226,-228.5"/>
<text text-anchor="middle" x="286.5" y="-235.5" font-family="Helvetica,sans-Serif" font-size="10.00">displaySystemMessage</text>
</a>
</g>
</g>
<!-- Node3&#45;&gt;Node9 -->
<g id="edge9" class="edge"><title>Node3&#45;&gt;Node9</title>
<path fill="none" stroke="midnightblue" d="M177.356,-133.67C181.912,-136.241 186.382,-139.344 190,-143 214.884,-168.151 199.932,-190.079 226,-214 230.364,-218.004 235.482,-221.381 240.852,-224.217"/>
<polygon fill="midnightblue" stroke="midnightblue" points="239.497,-227.447 250.04,-228.496 242.453,-221.101 239.497,-227.447"/>
</g>
<!-- Node10 -->
<g id="node10" class="node"><title>Node10</title>
<g id="a_node10"><a xlink:href="frontend_8js.html#a2e24b94e011170375215c3a8b745e9a4" target="_top" xlink:title="getCountConcept">
<polygon fill="white" stroke="black" points="240,-76.5 240,-95.5 333,-95.5 333,-76.5 240,-76.5"/>
<text text-anchor="middle" x="286.5" y="-83.5" font-family="Helvetica,sans-Serif" font-size="10.00">getCountConcept</text>
</a>
</g>
</g>
<!-- Node3&#45;&gt;Node10 -->
<g id="edge10" class="edge"><title>Node3&#45;&gt;Node10</title>
<path fill="none" stroke="midnightblue" d="M184.782,-114.995C201.972,-110.046 223.555,-103.833 242.327,-98.4285"/>
<polygon fill="midnightblue" stroke="midnightblue" points="243.493,-101.735 252.135,-95.6051 241.557,-95.0082 243.493,-101.735"/>
</g>
<!-- Node12 -->
<g id="node12" class="node"><title>Node12</title>
<g id="a_node12"><a xlink:href="frontend_8js.html#add7d88a4ad05a1fb2478eff9a1857824" target="_top" xlink:title="getUsefulLinks">
<polygon fill="white" stroke="black" points="245.5,-304.5 245.5,-323.5 327.5,-323.5 327.5,-304.5 245.5,-304.5"/>
<text text-anchor="middle" x="286.5" y="-311.5" font-family="Helvetica,sans-Serif" font-size="10.00">getUsefulLinks</text>
</a>
</g>
</g>
<!-- Node3&#45;&gt;Node12 -->
<g id="edge15" class="edge"><title>Node3&#45;&gt;Node12</title>
<path fill="none" stroke="midnightblue" d="M179.185,-133.715C183.273,-136.215 187.103,-139.28 190,-143 232.659,-197.772 178.824,-244.067 226,-295 228.943,-298.177 232.416,-300.825 236.181,-303.033"/>
<polygon fill="midnightblue" stroke="midnightblue" points="234.855,-306.278 245.388,-307.423 237.868,-299.959 234.855,-306.278"/>
</g>
<!-- Node13 -->
<g id="node13" class="node"><title>Node13</title>
<g id="a_node13"><a xlink:href="frontend_8js.html#a5f8e953a90f434851f20518b1e3baeb6" target="_top" xlink:title="getArchives">
<polygon fill="white" stroke="black" points="252.5,-152.5 252.5,-171.5 320.5,-171.5 320.5,-152.5 252.5,-152.5"/>
<text text-anchor="middle" x="286.5" y="-159.5" font-family="Helvetica,sans-Serif" font-size="10.00">getArchives</text>
</a>
</g>
</g>
<!-- Node3&#45;&gt;Node13 -->
<g id="edge17" class="edge"><title>Node3&#45;&gt;Node13</title>
<path fill="none" stroke="midnightblue" d="M184.782,-133.005C201.972,-137.954 223.555,-144.167 242.327,-149.572"/>
<polygon fill="midnightblue" stroke="midnightblue" points="241.557,-152.992 252.135,-152.395 243.493,-146.265 241.557,-152.992"/>
</g>
<!-- Node14 -->
<g id="node14" class="node"><title>Node14</title>
<g id="a_node14"><a xlink:href="frontend_8js.html#a816e9b3b3cd90b9b151a46331c601fbe" target="_top" xlink:title="getCurrentRecords">
<polygon fill="white" stroke="black" points="237,-38.5 237,-57.5 336,-57.5 336,-38.5 237,-38.5"/>
<text text-anchor="middle" x="286.5" y="-45.5" font-family="Helvetica,sans-Serif" font-size="10.00">getCurrentRecords</text>
</a>
</g>
</g>
<!-- Node3&#45;&gt;Node14 -->
<g id="edge18" class="edge"><title>Node3&#45;&gt;Node14</title>
<path fill="none" stroke="midnightblue" d="M163.475,-114.22C176.74,-101.696 201.389,-80.0543 226,-67 230.043,-64.8556 234.37,-62.9018 238.777,-61.1342"/>
<polygon fill="midnightblue" stroke="midnightblue" points="240.303,-64.3021 248.476,-57.5599 237.882,-57.7339 240.303,-64.3021"/>
</g>
<!-- Node6&#45;&gt;Node1 -->
<g id="edge6" class="edge"><title>Node6&#45;&gt;Node1</title>
<path fill="none" stroke="midnightblue" d="M254.244,-18.6542C219.94,-28.2711 163.317,-44.4952 115,-60 102.466,-64.0223 88.8442,-68.6883 76.7178,-72.948"/>
<polygon fill="midnightblue" stroke="midnightblue" points="75.1999,-69.7724 66.9401,-76.4076 77.5348,-76.3715 75.1999,-69.7724"/>
</g>
<!-- Node7 -->
<g id="node7" class="node"><title>Node7</title>
<g id="a_node7"><a xlink:href="general_8js.html#a33e21da30cef3db82208e64a6801aa44" target="_top" xlink:title="logbook">
<polygon fill="white" stroke="black" points="412,-38.5 412,-57.5 462,-57.5 462,-38.5 412,-38.5"/>
<text text-anchor="middle" x="437" y="-45.5" font-family="Helvetica,sans-Serif" font-size="10.00">logbook</text>
</a>
</g>
</g>
<!-- Node6&#45;&gt;Node7 -->
<g id="edge7" class="edge"><title>Node6&#45;&gt;Node7</title>
<path fill="none" stroke="midnightblue" d="M318.63,-17.966C342.999,-24.2017 376.85,-32.864 401.939,-39.2841"/>
<polygon fill="midnightblue" stroke="midnightblue" points="401.207,-42.7094 411.763,-41.7978 402.942,-35.9279 401.207,-42.7094"/>
</g>
<!-- Node10&#45;&gt;Node1 -->
<g id="edge11" class="edge"><title>Node10&#45;&gt;Node1</title>
<path fill="none" stroke="midnightblue" d="M239.667,-86C196.787,-86 132.948,-86 89.1713,-86"/>
<polygon fill="midnightblue" stroke="midnightblue" points="89.0508,-82.5001 79.0508,-86 89.0507,-89.5001 89.0508,-82.5001"/>
</g>
<!-- Node10&#45;&gt;Node4 -->
<g id="edge12" class="edge"><title>Node10&#45;&gt;Node4</title>
<path fill="none" stroke="midnightblue" d="M327.177,-95.5448C334.064,-98.0622 340.95,-101.177 347,-105 379.599,-125.599 408.279,-160.941 423.783,-182.223"/>
<polygon fill="midnightblue" stroke="midnightblue" points="420.948,-184.275 429.594,-190.399 426.654,-180.22 420.948,-184.275"/>
</g>
<!-- Node10&#45;&gt;Node7 -->
<g id="edge13" class="edge"><title>Node10&#45;&gt;Node7</title>
<path fill="none" stroke="midnightblue" d="M324.973,-76.411C348.518,-70.386 378.664,-62.6718 401.601,-56.8025"/>
<polygon fill="midnightblue" stroke="midnightblue" points="402.762,-60.1182 411.582,-54.2483 401.027,-53.3367 402.762,-60.1182"/>
</g>
<!-- Node11 -->
<g id="node11" class="node"><title>Node11</title>
<g id="a_node11"><a xlink:href="frontend_8js.html#a24a888339bf25830f0d3c73e18aca77b" target="_top" xlink:title="showDate">
<polygon fill="white" stroke="black" points="406.5,-76.5 406.5,-95.5 467.5,-95.5 467.5,-76.5 406.5,-76.5"/>
<text text-anchor="middle" x="437" y="-83.5" font-family="Helvetica,sans-Serif" font-size="10.00">showDate</text>
</a>
</g>
</g>
<!-- Node10&#45;&gt;Node11 -->
<g id="edge14" class="edge"><title>Node10&#45;&gt;Node11</title>
<path fill="none" stroke="midnightblue" d="M333.267,-86C353.349,-86 376.707,-86 396.072,-86"/>
<polygon fill="midnightblue" stroke="midnightblue" points="396.084,-89.5001 406.084,-86 396.084,-82.5001 396.084,-89.5001"/>
</g>
<!-- Node12&#45;&gt;Node4 -->
<g id="edge16" class="edge"><title>Node12&#45;&gt;Node4</title>
<path fill="none" stroke="midnightblue" d="M327.177,-304.455C334.064,-301.938 340.95,-298.823 347,-295 379.599,-274.401 408.279,-239.059 423.783,-217.777"/>
<polygon fill="midnightblue" stroke="midnightblue" points="426.654,-219.78 429.594,-209.601 420.948,-215.725 426.654,-219.78"/>
</g>
<!-- Node14&#45;&gt;Node1 -->
<g id="edge19" class="edge"><title>Node14&#45;&gt;Node1</title>
<path fill="none" stroke="midnightblue" d="M236.622,-55.5811C193.733,-62.2333 131.703,-71.8543 88.9433,-78.4863"/>
<polygon fill="midnightblue" stroke="midnightblue" points="88.3961,-75.0293 79.0508,-80.0207 89.4691,-81.9466 88.3961,-75.0293"/>
</g>
<!-- Node14&#45;&gt;Node7 -->
<g id="edge20" class="edge"><title>Node14&#45;&gt;Node7</title>
<path fill="none" stroke="midnightblue" d="M336.124,-48C357.536,-48 382.187,-48 401.642,-48"/>
<polygon fill="midnightblue" stroke="midnightblue" points="401.862,-51.5001 411.862,-48 401.862,-44.5001 401.862,-51.5001"/>
</g>
<!-- Node14&#45;&gt;Node11 -->
<g id="edge21" class="edge"><title>Node14&#45;&gt;Node11</title>
<path fill="none" stroke="midnightblue" d="M324.973,-57.589C346.879,-63.1946 374.499,-70.2623 396.71,-75.946"/>
<polygon fill="midnightblue" stroke="midnightblue" points="395.939,-79.3615 406.495,-78.4498 397.675,-72.58 395.939,-79.3615"/>
</g>
</g>
</svg>
