<?xml version="1.0" encoding="UTF-8" standalone="no"?>
<!DOCTYPE svg PUBLIC "-//W3C//DTD SVG 1.1//EN"
 "http://www.w3.org/Graphics/SVG/1.1/DTD/svg11.dtd">
<!-- Generated by graphviz version 2.38.0 (20140413.2041)
 -->
<!-- Title: getCountConcept Pages: 1 -->
<!--zoomable 370 -->
<svg id="main" version="1.1" xmlns="http://www.w3.org/2000/svg" xmlns:xlink="http://www.w3.org/1999/xlink" xml:space="preserve" onload="init(evt)">
<style type="text/css"><![CDATA[
.edge:hover path { stroke: red; }
.edge:hover polygon { stroke: red; fill: red; }
]]></style>
<script type="text/javascript"><![CDATA[
var edges = document.getElementsByTagName('g');
if (edges && edges.length) {
  for (var i=0;i<edges.length;i++) {
    if (edges[i].id.substr(0,4)=='edge') {
      edges[i].setAttribute('class','edge');
    }
  }
}
]]></script>
        <defs>
                <circle id="rim" cx="0" cy="0" r="7"/>
                <circle id="rim2" cx="0" cy="0" r="3.5"/>
                <g id="zoomPlus">
                        <use xlink:href="#rim" fill="#404040">
                                <set attributeName="fill" to="#808080" begin="zoomplus.mouseover" end="zoomplus.mouseout"/>
                        </use>
                        <path d="M-4,0h8M0,-4v8" fill="none" stroke="white" stroke-width="1.5" pointer-events="none"/>
                </g>
                <g id="zoomMin">
                        <use xlink:href="#rim" fill="#404040">
                                <set attributeName="fill" to="#808080" begin="zoomminus.mouseover" end="zoomminus.mouseout"/>
                        </use>
                        <path d="M-4,0h8" fill="none" stroke="white" stroke-width="1.5" pointer-events="none"/>
                </g>
                <g id="dirArrow">
                        <path fill="none" stroke="white" stroke-width="1.5" d="M0,-3.0v7 M-2.5,-0.5L0,-3.0L2.5,-0.5"/>
                </g>
               <g id="resetDef">
                       <use xlink:href="#rim2" fill="#404040">
                               <set attributeName="fill" to="#808080" begin="reset.mouseover" end="reset.mouseout"/>
                       </use>
               </g>
        </defs>

<script type="text/javascript">
var viewWidth = 628;
var viewHeight = 370;
var sectionId = 'dynsection-4';
</script>
<script xlink:href="svgpan.js"/>
<svg id="graph" class="graph">
<g id="viewport">
<title>getCountConcept</title>
<polygon fill="white" stroke="none" points="-4,4 -4,-366.303 624,-366.303 624,4 -4,4"/>
<!-- Node1 -->
<g id="node1" class="node"><title>Node1</title>
<polygon fill="#bfbfbf" stroke="black" points="0,-104.5 0,-123.5 93,-123.5 93,-104.5 0,-104.5"/>
<text text-anchor="middle" x="46.5" y="-111.5" font-family="Helvetica,sans-Serif" font-size="10.00">getCountConcept</text>
</g>
<!-- Node2 -->
<g id="node2" class="node"><title>Node2</title>
<g id="a_node2"><a xlink:href="frontend_8js.html#a026aacb2020ed839706c99a8805c244b" target="_top" xlink:title="showProgress">
<polygon fill="white" stroke="black" points="129,-104.5 129,-123.5 208,-123.5 208,-104.5 129,-104.5"/>
<text text-anchor="middle" x="168.5" y="-111.5" font-family="Helvetica,sans-Serif" font-size="10.00">showProgress</text>
</a>
</g>
</g>
<!-- Node1&#45;&gt;Node2 -->
<g id="edge1" class="edge"><title>Node1&#45;&gt;Node2</title>
<path fill="none" stroke="midnightblue" d="M93.2092,-114C101.591,-114 110.368,-114 118.832,-114"/>
<polygon fill="midnightblue" stroke="midnightblue" points="118.955,-117.5 128.955,-114 118.955,-110.5 118.955,-117.5"/>
</g>
<!-- Node5 -->
<g id="node5" class="node"><title>Node5</title>
<g id="a_node5"><a xlink:href="general_8js.html#a3c52670d7ece95bdca65208692bc18f2" target="_top" xlink:title="displayErrorMessage">
<polygon fill="white" stroke="black" points="512,-323.5 512,-342.5 620,-342.5 620,-323.5 512,-323.5"/>
<text text-anchor="middle" x="566" y="-330.5" font-family="Helvetica,sans-Serif" font-size="10.00">displayErrorMessage</text>
</a>
</g>
</g>
<!-- Node1&#45;&gt;Node5 -->
<g id="edge19" class="edge"><title>Node1&#45;&gt;Node5</title>
<path fill="none" stroke="midnightblue" d="M55.4737,-123.684C87.8048,-162.079 214.145,-303.858 355,-352 412.884,-371.784 484.678,-357.645 527.559,-345.439"/>
<polygon fill="midnightblue" stroke="midnightblue" points="528.696,-348.753 537.292,-342.559 526.71,-342.04 528.696,-348.753"/>
</g>
<!-- Node8 -->
<g id="node8" class="node"><title>Node8</title>
<g id="a_node8"><a xlink:href="general_8js.html#a33e21da30cef3db82208e64a6801aa44" target="_top" xlink:title="logbook">
<polygon fill="white" stroke="black" points="541,-57.5 541,-76.5 591,-76.5 591,-57.5 541,-57.5"/>
<text text-anchor="middle" x="566" y="-64.5" font-family="Helvetica,sans-Serif" font-size="10.00">logbook</text>
</a>
</g>
</g>
<!-- Node1&#45;&gt;Node8 -->
<g id="edge20" class="edge"><title>Node1&#45;&gt;Node8</title>
<path fill="none" stroke="midnightblue" d="M75.9611,-104.461C144.53,-82.6093 324.421,-32.0005 476,-48 494.347,-49.9365 514.472,-54.0593 530.938,-57.971"/>
<polygon fill="midnightblue" stroke="midnightblue" points="530.122,-61.3746 540.668,-60.358 531.79,-54.5762 530.122,-61.3746"/>
</g>
<!-- Node14 -->
<g id="node14" class="node"><title>Node14</title>
<g id="a_node14"><a xlink:href="frontend_8js.html#a24a888339bf25830f0d3c73e18aca77b" target="_top" xlink:title="showDate">
<polygon fill="white" stroke="black" points="535.5,-0.5 535.5,-19.5 596.5,-19.5 596.5,-0.5 535.5,-0.5"/>
<text text-anchor="middle" x="566" y="-7.5" font-family="Helvetica,sans-Serif" font-size="10.00">showDate</text>
</a>
</g>
</g>
<!-- Node1&#45;&gt;Node14 -->
<g id="edge21" class="edge"><title>Node1&#45;&gt;Node14</title>
<path fill="none" stroke="midnightblue" d="M59.9814,-104.369C75.3353,-93.0438 102.619,-74.5789 129,-65 268.039,-14.516 446.555,-8.95321 525.003,-9.22608"/>
<polygon fill="midnightblue" stroke="midnightblue" points="525.369,-12.7287 535.394,-9.29925 525.419,-5.72883 525.369,-12.7287"/>
</g>
<!-- Node3 -->
<g id="node3" class="node"><title>Node3</title>
<g id="a_node3"><a xlink:href="general_8js.html#ad9f2873ff9e09926e2f18c529721c6f8" target="_top" xlink:title="getMessages">
<polygon fill="white" stroke="black" points="244,-95.5 244,-114.5 319,-114.5 319,-95.5 244,-95.5"/>
<text text-anchor="middle" x="281.5" y="-102.5" font-family="Helvetica,sans-Serif" font-size="10.00">getMessages</text>
</a>
</g>
</g>
<!-- Node2&#45;&gt;Node3 -->
<g id="edge2" class="edge"><title>Node2&#45;&gt;Node3</title>
<path fill="none" stroke="midnightblue" d="M208.011,-110.877C216.291,-110.206 225.129,-109.49 233.685,-108.796"/>
<polygon fill="midnightblue" stroke="midnightblue" points="234.241,-112.262 243.925,-107.966 233.675,-105.285 234.241,-112.262"/>
</g>
<!-- Node4 -->
<g id="node4" class="node"><title>Node4</title>
<g id="a_node4"><a xlink:href="frontend_8js.html#a2f4ec7b87c92d886af91eccd0080c024" target="_top" xlink:title="populateUI">
<polygon fill="white" stroke="black" points="249.5,-171.5 249.5,-190.5 313.5,-190.5 313.5,-171.5 249.5,-171.5"/>
<text text-anchor="middle" x="281.5" y="-178.5" font-family="Helvetica,sans-Serif" font-size="10.00">populateUI</text>
</a>
</g>
</g>
<!-- Node2&#45;&gt;Node4 -->
<g id="edge3" class="edge"><title>Node2&#45;&gt;Node4</title>
<path fill="none" stroke="midnightblue" d="M185.404,-123.599C203.867,-134.744 234.53,-153.252 256.033,-166.232"/>
<polygon fill="midnightblue" stroke="midnightblue" points="254.256,-169.247 264.626,-171.418 257.873,-163.254 254.256,-169.247"/>
</g>
<!-- Node4&#45;&gt;Node1 -->
<g id="edge11" class="edge"><title>Node4&#45;&gt;Node1</title>
<path fill="none" stroke="midnightblue" d="M249.413,-172.061C208.573,-160.317 136.653,-139.636 90.5842,-126.389"/>
<polygon fill="midnightblue" stroke="midnightblue" points="91.461,-122.999 80.8832,-123.599 89.5265,-129.727 91.461,-122.999"/>
</g>
<!-- Node4&#45;&gt;Node5 -->
<g id="edge4" class="edge"><title>Node4&#45;&gt;Node5</title>
<path fill="none" stroke="midnightblue" d="M302.929,-171.478C340.298,-155.591 420.883,-128.551 476,-162 531.229,-195.517 553.771,-275.712 561.519,-313.135"/>
<polygon fill="midnightblue" stroke="midnightblue" points="558.144,-314.118 563.469,-323.278 565.018,-312.797 558.144,-314.118"/>
</g>
<!-- Node6 -->
<g id="node6" class="node"><title>Node6</title>
<g id="a_node6"><a xlink:href="frontend_8js.html#ad1b6f7258037f83d33075afa5ed17c83" target="_top" xlink:title="buildUI">
<polygon fill="white" stroke="black" points="392,-285.5 392,-304.5 439,-304.5 439,-285.5 392,-285.5"/>
<text text-anchor="middle" x="415.5" y="-292.5" font-family="Helvetica,sans-Serif" font-size="10.00">buildUI</text>
</a>
</g>
</g>
<!-- Node4&#45;&gt;Node6 -->
<g id="edge5" class="edge"><title>Node4&#45;&gt;Node6</title>
<path fill="none" stroke="midnightblue" d="M287.255,-190.641C297.176,-209.771 321.933,-252.691 355,-276 363.006,-281.643 372.77,-285.67 382.054,-288.518"/>
<polygon fill="midnightblue" stroke="midnightblue" points="381.268,-291.931 391.835,-291.166 383.098,-285.174 381.268,-291.931"/>
</g>
<!-- Node7 -->
<g id="node7" class="node"><title>Node7</title>
<g id="a_node7"><a xlink:href="frontend_8js.html#aa6fd7ff8d2590761fcda0342978b0b22" target="_top" xlink:title="getCitation">
<polygon fill="white" stroke="black" points="383.5,-95.5 383.5,-114.5 447.5,-114.5 447.5,-95.5 383.5,-95.5"/>
<text text-anchor="middle" x="415.5" y="-102.5" font-family="Helvetica,sans-Serif" font-size="10.00">getCitation</text>
</a>
</g>
</g>
<!-- Node4&#45;&gt;Node7 -->
<g id="edge6" class="edge"><title>Node4&#45;&gt;Node7</title>
<path fill="none" stroke="midnightblue" d="M297.598,-171.455C304.244,-167.156 312.094,-161.945 319,-157 335.481,-145.2 337.432,-139.111 355,-129 361.703,-125.142 369.148,-121.611 376.438,-118.514"/>
<polygon fill="midnightblue" stroke="midnightblue" points="378.24,-121.561 386.2,-114.569 375.617,-115.071 378.24,-121.561"/>
</g>
<!-- Node9 -->
<g id="node9" class="node"><title>Node9</title>
<g id="a_node9"><a xlink:href="general_8js.html#ab624ce9aebffbb8bc3159502c4afc32b" target="_top" xlink:title="copyToClipboard">
<polygon fill="white" stroke="black" points="370.5,-247.5 370.5,-266.5 460.5,-266.5 460.5,-247.5 370.5,-247.5"/>
<text text-anchor="middle" x="415.5" y="-254.5" font-family="Helvetica,sans-Serif" font-size="10.00">copyToClipboard</text>
</a>
</g>
</g>
<!-- Node4&#45;&gt;Node9 -->
<g id="edge9" class="edge"><title>Node4&#45;&gt;Node9</title>
<path fill="none" stroke="midnightblue" d="M292.475,-190.78C305.74,-203.304 330.389,-224.946 355,-238 359.043,-240.144 363.37,-242.098 367.777,-243.866"/>
<polygon fill="midnightblue" stroke="midnightblue" points="366.882,-247.266 377.476,-247.44 369.303,-240.698 366.882,-247.266"/>
</g>
<!-- Node10 -->
<g id="node10" class="node"><title>Node10</title>
<g id="a_node10"><a xlink:href="general_8js.html#aecfeb655371b751d36422b7a93a66279" target="_top" xlink:title="displaySystemMessage">
<polygon fill="white" stroke="black" points="355,-209.5 355,-228.5 476,-228.5 476,-209.5 355,-209.5"/>
<text text-anchor="middle" x="415.5" y="-216.5" font-family="Helvetica,sans-Serif" font-size="10.00">displaySystemMessage</text>
</a>
</g>
</g>
<!-- Node4&#45;&gt;Node10 -->
<g id="edge10" class="edge"><title>Node4&#45;&gt;Node10</title>
<path fill="none" stroke="midnightblue" d="M313.782,-190.005C330.972,-194.954 352.555,-201.167 371.327,-206.572"/>
<polygon fill="midnightblue" stroke="midnightblue" points="370.557,-209.992 381.135,-209.395 372.493,-203.265 370.557,-209.992"/>
</g>
<!-- Node11 -->
<g id="node11" class="node"><title>Node11</title>
<g id="a_node11"><a xlink:href="frontend_8js.html#add7d88a4ad05a1fb2478eff9a1857824" target="_top" xlink:title="getUsefulLinks">
<polygon fill="white" stroke="black" points="374.5,-323.5 374.5,-342.5 456.5,-342.5 456.5,-323.5 374.5,-323.5"/>
<text text-anchor="middle" x="415.5" y="-330.5" font-family="Helvetica,sans-Serif" font-size="10.00">getUsefulLinks</text>
</a>
</g>
</g>
<!-- Node4&#45;&gt;Node11 -->
<g id="edge12" class="edge"><title>Node4&#45;&gt;Node11</title>
<path fill="none" stroke="midnightblue" d="M285.037,-190.645C291.948,-215.034 313.435,-279.667 355,-314 358.063,-316.53 361.469,-318.726 365.055,-320.63"/>
<polygon fill="midnightblue" stroke="midnightblue" points="363.699,-323.858 374.253,-324.789 366.583,-317.479 363.699,-323.858"/>
</g>
<!-- Node12 -->
<g id="node12" class="node"><title>Node12</title>
<g id="a_node12"><a xlink:href="frontend_8js.html#a5f8e953a90f434851f20518b1e3baeb6" target="_top" xlink:title="getArchives">
<polygon fill="white" stroke="black" points="381.5,-171.5 381.5,-190.5 449.5,-190.5 449.5,-171.5 381.5,-171.5"/>
<text text-anchor="middle" x="415.5" y="-178.5" font-family="Helvetica,sans-Serif" font-size="10.00">getArchives</text>
</a>
</g>
</g>
<!-- Node4&#45;&gt;Node12 -->
<g id="edge14" class="edge"><title>Node4&#45;&gt;Node12</title>
<path fill="none" stroke="midnightblue" d="M313.782,-181C330.893,-181 352.356,-181 371.068,-181"/>
<polygon fill="midnightblue" stroke="midnightblue" points="371.135,-184.5 381.135,-181 371.135,-177.5 371.135,-184.5"/>
</g>
<!-- Node13 -->
<g id="node13" class="node"><title>Node13</title>
<g id="a_node13"><a xlink:href="frontend_8js.html#a816e9b3b3cd90b9b151a46331c601fbe" target="_top" xlink:title="getCurrentRecords">
<polygon fill="white" stroke="black" points="366,-57.5 366,-76.5 465,-76.5 465,-57.5 366,-57.5"/>
<text text-anchor="middle" x="415.5" y="-64.5" font-family="Helvetica,sans-Serif" font-size="10.00">getCurrentRecords</text>
</a>
</g>
</g>
<!-- Node4&#45;&gt;Node13 -->
<g id="edge15" class="edge"><title>Node4&#45;&gt;Node13</title>
<path fill="none" stroke="midnightblue" d="M288.741,-171.393C302.983,-149.727 337.958,-98.0133 355,-86 357.833,-84.0027 360.887,-82.208 364.062,-80.5963"/>
<polygon fill="midnightblue" stroke="midnightblue" points="365.524,-83.7766 373.247,-76.523 362.686,-77.3776 365.524,-83.7766"/>
</g>
<!-- Node7&#45;&gt;Node2 -->
<g id="edge7" class="edge"><title>Node7&#45;&gt;Node2</title>
<path fill="none" stroke="midnightblue" d="M383.333,-112.81C364.782,-117.054 340.702,-121.862 319,-124 285.827,-127.268 277.259,-126.222 244,-124 235.577,-123.437 226.654,-122.52 218.021,-121.464"/>
<polygon fill="midnightblue" stroke="midnightblue" points="218.435,-117.989 208.068,-120.173 217.535,-124.931 218.435,-117.989"/>
</g>
<!-- Node7&#45;&gt;Node8 -->
<g id="edge8" class="edge"><title>Node7&#45;&gt;Node8</title>
<path fill="none" stroke="midnightblue" d="M447.63,-97.034C471.999,-90.7983 505.85,-82.136 530.939,-75.7159"/>
<polygon fill="midnightblue" stroke="midnightblue" points="531.942,-79.0721 540.763,-73.2022 530.207,-72.2906 531.942,-79.0721"/>
</g>
<!-- Node11&#45;&gt;Node5 -->
<g id="edge13" class="edge"><title>Node11&#45;&gt;Node5</title>
<path fill="none" stroke="midnightblue" d="M456.686,-333C470.505,-333 486.333,-333 501.544,-333"/>
<polygon fill="midnightblue" stroke="midnightblue" points="501.943,-336.5 511.943,-333 501.943,-329.5 501.943,-336.5"/>
</g>
<!-- Node13&#45;&gt;Node2 -->
<g id="edge16" class="edge"><title>Node13&#45;&gt;Node2</title>
<path fill="none" stroke="midnightblue" d="M365.811,-69.2066C331.402,-71.5441 284.404,-76.3159 244,-86 229.224,-89.5416 213.395,-95.2072 200.145,-100.519"/>
<polygon fill="midnightblue" stroke="midnightblue" points="198.482,-97.4184 190.575,-104.47 201.154,-103.889 198.482,-97.4184"/>
</g>
<!-- Node13&#45;&gt;Node8 -->
<g id="edge17" class="edge"><title>Node13&#45;&gt;Node8</title>
<path fill="none" stroke="midnightblue" d="M465.124,-67C486.536,-67 511.187,-67 530.642,-67"/>
<polygon fill="midnightblue" stroke="midnightblue" points="530.862,-70.5001 540.862,-67 530.862,-63.5001 530.862,-70.5001"/>
</g>
<!-- Node13&#45;&gt;Node14 -->
<g id="edge18" class="edge"><title>Node13&#45;&gt;Node14</title>
<path fill="none" stroke="midnightblue" d="M441.356,-57.4595C465.77,-48.0884 503.223,-33.7124 530.512,-23.2377"/>
<polygon fill="midnightblue" stroke="midnightblue" points="531.982,-26.4227 540.063,-19.5716 529.473,-19.8876 531.982,-26.4227"/>
</g>
</g>
</svg>
        <g id="navigator" transform="translate(0 0)" fill="#404254">
                <rect fill="#f2f5e9" fill-opacity="0.5" stroke="#606060" stroke-width=".5" x="0" y="0" width="60" height="60"/>
                <use id="zoomplus" xlink:href="#zoomPlus" x="17" y="9" onmousedown="handleZoom(evt,'in')"/>
                <use id="zoomminus" xlink:href="#zoomMin" x="42" y="9" onmousedown="handleZoom(evt,'out')"/>
                <use id="reset" xlink:href="#resetDef" x="30" y="36" onmousedown="handleReset()"/>
                <g id="arrowUp" xlink:href="#dirArrow" transform="translate(30 24)" onmousedown="handlePan(0,-1)">
                  <use xlink:href="#rim" fill="#404040">
                        <set attributeName="fill" to="#808080" begin="arrowUp.mouseover" end="arrowUp.mouseout"/>
                  </use>
                  <path fill="none" stroke="white" stroke-width="1.5" d="M0,-3.0v7 M-2.5,-0.5L0,-3.0L2.5,-0.5"/>
                </g>
                <g id="arrowRight" xlink:href="#dirArrow" transform="rotate(90) translate(36 -43)" onmousedown="handlePan(1,0)">
                  <use xlink:href="#rim" fill="#404040">
                        <set attributeName="fill" to="#808080" begin="arrowRight.mouseover" end="arrowRight.mouseout"/>
                  </use>
                  <path fill="none" stroke="white" stroke-width="1.5" d="M0,-3.0v7 M-2.5,-0.5L0,-3.0L2.5,-0.5"/>
                </g>
                <g id="arrowDown" xlink:href="#dirArrow" transform="rotate(180) translate(-30 -48)" onmousedown="handlePan(0,1)">
                  <use xlink:href="#rim" fill="#404040">
                        <set attributeName="fill" to="#808080" begin="arrowDown.mouseover" end="arrowDown.mouseout"/>
                  </use>
                  <path fill="none" stroke="white" stroke-width="1.5" d="M0,-3.0v7 M-2.5,-0.5L0,-3.0L2.5,-0.5"/>
                </g>
                <g id="arrowLeft" xlink:href="#dirArrow" transform="rotate(270) translate(-36 17)" onmousedown="handlePan(-1,0)">
                  <use xlink:href="#rim" fill="#404040">
                        <set attributeName="fill" to="#808080" begin="arrowLeft.mouseover" end="arrowLeft.mouseout"/>
                  </use>
                  <path fill="none" stroke="white" stroke-width="1.5" d="M0,-3.0v7 M-2.5,-0.5L0,-3.0L2.5,-0.5"/>
                </g>
        </g>
        <svg viewBox="0 0 15 15" width="100%" height="30px" preserveAspectRatio="xMaxYMin meet">
         <g id="arrow_out" transform="scale(0.3 0.3)">
          <a xlink:href="frontend_8js_a2e24b94e011170375215c3a8b745e9a4_cgraph_org.svg" target="_base">
           <rect id="button" ry="5" rx="5" y="6" x="6" height="38" width="38"
                fill="#f2f5e9" fill-opacity="0.5" stroke="#606060" stroke-width="1.0"/>
           <path id="arrow"
             d="M 11.500037,31.436501 C 11.940474,20.09759 22.043105,11.32322 32.158766,21.979434 L 37.068811,17.246167 C 37.068811,17.246167 37.088388,32 37.088388,32 L 22.160133,31.978069 C 22.160133,31.978069 26.997745,27.140456 26.997745,27.140456 C 18.528582,18.264221 13.291696,25.230495 11.500037,31.436501 z"
             style="fill:#404040;"/>
          </a>
         </g>
        </svg>
</svg>
