<?xml version="1.0" encoding="UTF-8" standalone="no"?>
<!DOCTYPE svg PUBLIC "-//W3C//DTD SVG 1.1//EN"
 "http://www.w3.org/Graphics/SVG/1.1/DTD/svg11.dtd">
<!-- Generated by graphviz version 2.38.0 (20140413.2041)
 -->
<!-- Title: getArchives Pages: 1 -->
<svg width="587pt" height="104pt"
 viewBox="0.00 0.00 587.00 104.00" xmlns="http://www.w3.org/2000/svg" xmlns:xlink="http://www.w3.org/1999/xlink">
<g id="graph0" class="graph" transform="scale(1 1) rotate(0) translate(4 100)">
<title>getArchives</title>
<polygon fill="white" stroke="none" points="-4,4 -4,-100 583,-100 583,4 -4,4"/>
<!-- Node1 -->
<g id="node1" class="node"><title>Node1</title>
<polygon fill="#bfbfbf" stroke="black" points="0,-38.5 0,-57.5 68,-57.5 68,-38.5 0,-38.5"/>
<text text-anchor="middle" x="34" y="-45.5" font-family="Helvetica,sans-Serif" font-size="10.00">getArchives</text>
</g>
<!-- Node2 -->
<g id="node2" class="node"><title>Node2</title>
<g id="a_node2"><a xlink:href="frontend_8js.html#a2f4ec7b87c92d886af91eccd0080c024" target="_top" xlink:title="populateUI">
<polygon fill="white" stroke="black" points="104,-38.5 104,-57.5 168,-57.5 168,-38.5 104,-38.5"/>
<text text-anchor="middle" x="136" y="-45.5" font-family="Helvetica,sans-Serif" font-size="10.00">populateUI</text>
</a>
</g>
</g>
<!-- Node1&#45;&gt;Node2 -->
<g id="edge1" class="edge"><title>Node1&#45;&gt;Node2</title>
<path fill="none" stroke="midnightblue" d="M78.2577,-48C86.8159,-48 95.6425,-48 103.71,-48"/>
<polygon fill="midnightblue" stroke="midnightblue" points="78.0209,-44.5001 68.0209,-48 78.0208,-51.5001 78.0209,-44.5001"/>
</g>
<!-- Node3 -->
<g id="node3" class="node"><title>Node3</title>
<g id="a_node3"><a xlink:href="frontend_8js.html#a026aacb2020ed839706c99a8805c244b" target="_top" xlink:title="showProgress">
<polygon fill="white" stroke="black" points="204,-57.5 204,-76.5 283,-76.5 283,-57.5 204,-57.5"/>
<text text-anchor="middle" x="243.5" y="-64.5" font-family="Helvetica,sans-Serif" font-size="10.00">showProgress</text>
</a>
</g>
</g>
<!-- Node2&#45;&gt;Node3 -->
<g id="edge2" class="edge"><title>Node2&#45;&gt;Node3</title>
<path fill="none" stroke="midnightblue" d="M178.113,-55.4043C186.558,-56.9251 195.421,-58.5213 203.777,-60.0263"/>
<polygon fill="midnightblue" stroke="midnightblue" points="178.545,-51.9258 168.083,-53.5979 177.304,-58.815 178.545,-51.9258"/>
</g>
<!-- Node4 -->
<g id="node4" class="node"><title>Node4</title>
<g id="a_node4"><a xlink:href="frontend_8js.html#a816e9b3b3cd90b9b151a46331c601fbe" target="_top" xlink:title="getCurrentRecords">
<polygon fill="white" stroke="black" points="319,-38.5 319,-57.5 418,-57.5 418,-38.5 319,-38.5"/>
<text text-anchor="middle" x="368.5" y="-45.5" font-family="Helvetica,sans-Serif" font-size="10.00">getCurrentRecords</text>
</a>
</g>
</g>
<!-- Node3&#45;&gt;Node4 -->
<g id="edge3" class="edge"><title>Node3&#45;&gt;Node4</title>
<path fill="none" stroke="midnightblue" d="M293.112,-59.4909C301.508,-58.1938 310.241,-56.8449 318.644,-55.5468"/>
<polygon fill="midnightblue" stroke="midnightblue" points="292.429,-56.0547 283.08,-61.0404 293.498,-62.9727 292.429,-56.0547"/>
</g>
<!-- Node6 -->
<g id="node6" class="node"><title>Node6</title>
<g id="a_node6"><a xlink:href="frontend_8js.html#a2e24b94e011170375215c3a8b745e9a4" target="_top" xlink:title="getCountConcept">
<polygon fill="white" stroke="black" points="322,-0.5 322,-19.5 415,-19.5 415,-0.5 322,-0.5"/>
<text text-anchor="middle" x="368.5" y="-7.5" font-family="Helvetica,sans-Serif" font-size="10.00">getCountConcept</text>
</a>
</g>
</g>
<!-- Node3&#45;&gt;Node6 -->
<g id="edge6" class="edge"><title>Node3&#45;&gt;Node6</title>
<path fill="none" stroke="midnightblue" d="M271.131,-52.6128C285.203,-45.2161 302.861,-36.2563 319,-29 326.258,-25.7367 334.257,-22.4718 341.63,-19.592"/>
<polygon fill="midnightblue" stroke="midnightblue" points="269.218,-49.6655 262.024,-57.4437 272.498,-55.8493 269.218,-49.6655"/>
</g>
<!-- Node7 -->
<g id="node7" class="node"><title>Node7</title>
<g id="a_node7"><a xlink:href="frontend_8js.html#aa6fd7ff8d2590761fcda0342978b0b22" target="_top" xlink:title="getCitation">
<polygon fill="white" stroke="black" points="336.5,-76.5 336.5,-95.5 400.5,-95.5 400.5,-76.5 336.5,-76.5"/>
<text text-anchor="middle" x="368.5" y="-83.5" font-family="Helvetica,sans-Serif" font-size="10.00">getCitation</text>
</a>
</g>
</g>
<!-- Node3&#45;&gt;Node7 -->
<g id="edge8" class="edge"><title>Node3&#45;&gt;Node7</title>
<path fill="none" stroke="midnightblue" d="M293.001,-74.492C307.63,-76.7518 323.288,-79.1705 336.454,-81.2043"/>
<polygon fill="midnightblue" stroke="midnightblue" points="293.498,-71.0273 283.08,-72.9596 292.429,-77.9453 293.498,-71.0273"/>
</g>
<!-- Node4&#45;&gt;Node2 -->
<g id="edge5" class="edge"><title>Node4&#45;&gt;Node2</title>
<path fill="none" stroke="midnightblue" d="M308.67,-48C263.88,-48 203.997,-48 168.086,-48"/>
<polygon fill="midnightblue" stroke="midnightblue" points="308.844,-51.5001 318.844,-48 308.844,-44.5001 308.844,-51.5001"/>
</g>
<!-- Node5 -->
<g id="node5" class="node"><title>Node5</title>
<g id="a_node5"><a xlink:href="class_bms_1_1_bms.html#aec5f7b55928d9eb969567ab87ea9e021" target="_top" xlink:title="Bms\\Bms\\frontController">
<polygon fill="white" stroke="black" points="454,-57.5 454,-76.5 579,-76.5 579,-57.5 454,-57.5"/>
<text text-anchor="middle" x="516.5" y="-64.5" font-family="Helvetica,sans-Serif" font-size="10.00">Bms\Bms\frontController</text>
</a>
</g>
</g>
<!-- Node4&#45;&gt;Node5 -->
<g id="edge4" class="edge"><title>Node4&#45;&gt;Node5</title>
<path fill="none" stroke="midnightblue" d="M428.238,-55.6439C436.669,-56.7412 445.365,-57.8728 453.851,-58.9771"/>
<polygon fill="midnightblue" stroke="midnightblue" points="428.484,-52.1466 418.116,-54.3267 427.581,-59.088 428.484,-52.1466"/>
</g>
<!-- Node6&#45;&gt;Node2 -->
<g id="edge7" class="edge"><title>Node6&#45;&gt;Node2</title>
<path fill="none" stroke="midnightblue" d="M311.918,-19.1632C266.813,-26.5991 204.873,-36.8106 168.086,-42.8752"/>
<polygon fill="midnightblue" stroke="midnightblue" points="312.547,-22.6068 321.844,-17.5267 311.408,-15.7001 312.547,-22.6068"/>
</g>
<!-- Node7&#45;&gt;Node2 -->
<g id="edge10" class="edge"><title>Node7&#45;&gt;Node2</title>
<path fill="none" stroke="midnightblue" d="M326.125,-91.7537C292.615,-95.0532 244.492,-96.6835 204,-86 183.312,-80.5416 162.312,-67.0625 149.471,-57.7207"/>
<polygon fill="midnightblue" stroke="midnightblue" points="326.897,-95.1908 336.463,-90.6373 326.145,-88.2313 326.897,-95.1908"/>
</g>
<!-- Node7&#45;&gt;Node5 -->
<g id="edge9" class="edge"><title>Node7&#45;&gt;Node5</title>
<path fill="none" stroke="midnightblue" d="M411.089,-80.5878C424.408,-78.8544 439.452,-76.8967 453.886,-75.0182"/>
<polygon fill="midnightblue" stroke="midnightblue" points="410.285,-77.1627 400.821,-81.924 411.189,-84.1042 410.285,-77.1627"/>
</g>
</g>
</svg>
