<?xml version="1.0" encoding="UTF-8" standalone="no"?>
<!DOCTYPE svg PUBLIC "-//W3C//DTD SVG 1.1//EN"
 "http://www.w3.org/Graphics/SVG/1.1/DTD/svg11.dtd">
<!-- Generated by graphviz version 2.38.0 (20140413.2041)
 -->
<!-- Title: showProgress Pages: 1 -->
<svg width="383pt" height="142pt"
 viewBox="0.00 0.00 383.00 142.00" xmlns="http://www.w3.org/2000/svg" xmlns:xlink="http://www.w3.org/1999/xlink">
<g id="graph0" class="graph" transform="scale(1 1) rotate(0) translate(4 138)">
<title>showProgress</title>
<polygon fill="white" stroke="none" points="-4,4 -4,-138 379,-138 379,4 -4,4"/>
<!-- Node1 -->
<g id="node1" class="node"><title>Node1</title>
<polygon fill="#bfbfbf" stroke="black" points="0,-57.5 0,-76.5 79,-76.5 79,-57.5 0,-57.5"/>
<text text-anchor="middle" x="39.5" y="-64.5" font-family="Helvetica,sans-Serif" font-size="10.00">showProgress</text>
</g>
<!-- Node2 -->
<g id="node2" class="node"><title>Node2</title>
<g id="a_node2"><a xlink:href="frontend_8js.html#a816e9b3b3cd90b9b151a46331c601fbe" target="_top" xlink:title="getCurrentRecords">
<polygon fill="white" stroke="black" points="115,-114.5 115,-133.5 214,-133.5 214,-114.5 115,-114.5"/>
<text text-anchor="middle" x="164.5" y="-121.5" font-family="Helvetica,sans-Serif" font-size="10.00">getCurrentRecords</text>
</a>
</g>
</g>
<!-- Node1&#45;&gt;Node2 -->
<g id="edge1" class="edge"><title>Node1&#45;&gt;Node2</title>
<path fill="none" stroke="midnightblue" d="M67.131,-81.3872C81.2032,-88.7839 98.8607,-97.7437 115,-105 122.258,-108.263 130.257,-111.528 137.63,-114.408"/>
<polygon fill="midnightblue" stroke="midnightblue" points="68.4985,-78.1507 58.0243,-76.5563 65.2181,-84.3345 68.4985,-78.1507"/>
</g>
<!-- Node5 -->
<g id="node5" class="node"><title>Node5</title>
<g id="a_node5"><a xlink:href="frontend_8js.html#a2e24b94e011170375215c3a8b745e9a4" target="_top" xlink:title="getCountConcept">
<polygon fill="white" stroke="black" points="118,-0.5 118,-19.5 211,-19.5 211,-0.5 118,-0.5"/>
<text text-anchor="middle" x="164.5" y="-7.5" font-family="Helvetica,sans-Serif" font-size="10.00">getCountConcept</text>
</a>
</g>
</g>
<!-- Node1&#45;&gt;Node5 -->
<g id="edge5" class="edge"><title>Node1&#45;&gt;Node5</title>
<path fill="none" stroke="midnightblue" d="M70.187,-53.2426C92.6604,-42.8281 122.955,-28.7892 142.845,-19.5716"/>
<polygon fill="midnightblue" stroke="midnightblue" points="68.6889,-50.0792 61.0874,-57.4595 71.6322,-56.4304 68.6889,-50.0792"/>
</g>
<!-- Node6 -->
<g id="node6" class="node"><title>Node6</title>
<g id="a_node6"><a xlink:href="frontend_8js.html#aa6fd7ff8d2590761fcda0342978b0b22" target="_top" xlink:title="getCitation">
<polygon fill="white" stroke="black" points="132.5,-76.5 132.5,-95.5 196.5,-95.5 196.5,-76.5 132.5,-76.5"/>
<text text-anchor="middle" x="164.5" y="-83.5" font-family="Helvetica,sans-Serif" font-size="10.00">getCitation</text>
</a>
</g>
</g>
<!-- Node1&#45;&gt;Node6 -->
<g id="edge7" class="edge"><title>Node1&#45;&gt;Node6</title>
<path fill="none" stroke="midnightblue" d="M89.0009,-74.492C103.63,-76.7518 119.288,-79.1705 132.454,-81.2043"/>
<polygon fill="midnightblue" stroke="midnightblue" points="89.4976,-71.0273 79.0805,-72.9596 88.4289,-77.9453 89.4976,-71.0273"/>
</g>
<!-- Node3 -->
<g id="node3" class="node"><title>Node3</title>
<g id="a_node3"><a xlink:href="class_bms_1_1_bms.html#aec5f7b55928d9eb969567ab87ea9e021" target="_top" xlink:title="Bms\\Bms\\frontController">
<polygon fill="white" stroke="black" points="250,-104.5 250,-123.5 375,-123.5 375,-104.5 250,-104.5"/>
<text text-anchor="middle" x="312.5" y="-111.5" font-family="Helvetica,sans-Serif" font-size="10.00">Bms\Bms\frontController</text>
</a>
</g>
</g>
<!-- Node2&#45;&gt;Node3 -->
<g id="edge2" class="edge"><title>Node2&#45;&gt;Node3</title>
<path fill="none" stroke="midnightblue" d="M224.238,-119.977C232.669,-119.399 241.365,-118.804 249.851,-118.223"/>
<polygon fill="midnightblue" stroke="midnightblue" points="223.853,-116.495 214.116,-120.67 224.332,-123.479 223.853,-116.495"/>
</g>
<!-- Node4 -->
<g id="node4" class="node"><title>Node4</title>
<g id="a_node4"><a xlink:href="frontend_8js.html#a2f4ec7b87c92d886af91eccd0080c024" target="_top" xlink:title="populateUI">
<polygon fill="white" stroke="black" points="280.5,-47.5 280.5,-66.5 344.5,-66.5 344.5,-47.5 280.5,-47.5"/>
<text text-anchor="middle" x="312.5" y="-54.5" font-family="Helvetica,sans-Serif" font-size="10.00">populateUI</text>
</a>
</g>
</g>
<!-- Node2&#45;&gt;Node4 -->
<g id="edge3" class="edge"><title>Node2&#45;&gt;Node4</title>
<path fill="none" stroke="midnightblue" d="M200.907,-110.529C205.339,-108.726 209.791,-106.857 214,-105 241.965,-92.6647 273.581,-76.7196 293.028,-66.673"/>
<polygon fill="midnightblue" stroke="midnightblue" points="199.334,-107.388 191.34,-114.341 201.925,-113.891 199.334,-107.388"/>
</g>
<!-- Node4&#45;&gt;Node1 -->
<g id="edge4" class="edge"><title>Node4&#45;&gt;Node1</title>
<path fill="none" stroke="midnightblue" d="M270.051,-58.5295C218.063,-60.4479 129.623,-63.7113 79.0399,-65.5779"/>
<polygon fill="midnightblue" stroke="midnightblue" points="270.389,-62.0195 280.253,-58.153 270.13,-55.0243 270.389,-62.0195"/>
</g>
<!-- Node5&#45;&gt;Node4 -->
<g id="edge6" class="edge"><title>Node5&#45;&gt;Node4</title>
<path fill="none" stroke="midnightblue" d="M204.658,-22.6057C228.888,-30.4058 259.507,-40.2624 281.748,-47.4224"/>
<polygon fill="midnightblue" stroke="midnightblue" points="205.637,-19.2439 195.045,-19.5112 203.492,-25.9072 205.637,-19.2439"/>
</g>
<!-- Node6&#45;&gt;Node3 -->
<g id="edge8" class="edge"><title>Node6&#45;&gt;Node3</title>
<path fill="none" stroke="midnightblue" d="M207.039,-93.9664C224.111,-97.2404 244.021,-101.059 261.853,-104.479"/>
<polygon fill="midnightblue" stroke="midnightblue" points="207.301,-90.4529 196.821,-92.0067 205.982,-97.3276 207.301,-90.4529"/>
</g>
<!-- Node6&#45;&gt;Node4 -->
<g id="edge9" class="edge"><title>Node6&#45;&gt;Node4</title>
<path fill="none" stroke="midnightblue" d="M206.816,-77.7934C230.222,-73.1443 259.019,-67.4242 280.482,-63.1611"/>
<polygon fill="midnightblue" stroke="midnightblue" points="205.947,-74.3975 196.821,-79.7788 207.311,-81.2634 205.947,-74.3975"/>
</g>
</g>
</svg>
