<?xml version="1.0" encoding="UTF-8" standalone="no"?>
<!DOCTYPE svg PUBLIC "-//W3C//DTD SVG 1.1//EN"
 "http://www.w3.org/Graphics/SVG/1.1/DTD/svg11.dtd">
<!-- Generated by graphviz version 2.38.0 (20140413.2041)
 -->
<!-- Title: getCitation Pages: 1 -->
<svg width="599pt" height="308pt"
 viewBox="0.00 0.00 599.00 307.51" xmlns="http://www.w3.org/2000/svg" xmlns:xlink="http://www.w3.org/1999/xlink">
<g id="graph0" class="graph" transform="scale(1 1) rotate(0) translate(4 303.509)">
<title>getCitation</title>
<polygon fill="white" stroke="none" points="-4,4 -4,-303.509 595,-303.509 595,4 -4,4"/>
<!-- Node1 -->
<g id="node1" class="node"><title>Node1</title>
<polygon fill="#bfbfbf" stroke="black" points="0,-209.5 0,-228.5 64,-228.5 64,-209.5 0,-209.5"/>
<text text-anchor="middle" x="32" y="-216.5" font-family="Helvetica,sans-Serif" font-size="10.00">getCitation</text>
</g>
<!-- Node2 -->
<g id="node2" class="node"><title>Node2</title>
<g id="a_node2"><a xlink:href="frontend_8js.html#a026aacb2020ed839706c99a8805c244b" target="_top" xlink:title="showProgress">
<polygon fill="white" stroke="black" points="100,-209.5 100,-228.5 179,-228.5 179,-209.5 100,-209.5"/>
<text text-anchor="middle" x="139.5" y="-216.5" font-family="Helvetica,sans-Serif" font-size="10.00">showProgress</text>
</a>
</g>
</g>
<!-- Node1&#45;&gt;Node2 -->
<g id="edge1" class="edge"><title>Node1&#45;&gt;Node2</title>
<path fill="none" stroke="midnightblue" d="M64.0829,-219C72.1212,-219 80.9719,-219 89.6791,-219"/>
<polygon fill="midnightblue" stroke="midnightblue" points="89.7774,-222.5 99.7774,-219 89.7773,-215.5 89.7774,-222.5"/>
</g>
<!-- Node10 -->
<g id="node10" class="node"><title>Node10</title>
<g id="a_node10"><a xlink:href="general_8js.html#a33e21da30cef3db82208e64a6801aa44" target="_top" xlink:title="logbook">
<polygon fill="white" stroke="black" points="512,-266.5 512,-285.5 562,-285.5 562,-266.5 512,-266.5"/>
<text text-anchor="middle" x="537" y="-273.5" font-family="Helvetica,sans-Serif" font-size="10.00">logbook</text>
</a>
</g>
</g>
<!-- Node1&#45;&gt;Node10 -->
<g id="edge21" class="edge"><title>Node1&#45;&gt;Node10</title>
<path fill="none" stroke="midnightblue" d="M64.3063,-228.083C75.5429,-231.289 88.321,-234.872 100,-238 250.968,-278.435 291.574,-311.406 447,-295 465.347,-293.063 485.472,-288.941 501.938,-285.029"/>
<polygon fill="midnightblue" stroke="midnightblue" points="502.79,-288.424 511.668,-282.642 501.122,-281.625 502.79,-288.424"/>
</g>
<!-- Node3 -->
<g id="node3" class="node"><title>Node3</title>
<g id="a_node3"><a xlink:href="general_8js.html#ad9f2873ff9e09926e2f18c529721c6f8" target="_top" xlink:title="getMessages">
<polygon fill="white" stroke="black" points="215,-190.5 215,-209.5 290,-209.5 290,-190.5 215,-190.5"/>
<text text-anchor="middle" x="252.5" y="-197.5" font-family="Helvetica,sans-Serif" font-size="10.00">getMessages</text>
</a>
</g>
</g>
<!-- Node2&#45;&gt;Node3 -->
<g id="edge2" class="edge"><title>Node2&#45;&gt;Node3</title>
<path fill="none" stroke="midnightblue" d="M179.011,-212.408C187.382,-210.975 196.324,-209.445 204.967,-207.965"/>
<polygon fill="midnightblue" stroke="midnightblue" points="205.659,-211.398 214.925,-206.261 204.478,-204.498 205.659,-211.398"/>
</g>
<!-- Node4 -->
<g id="node4" class="node"><title>Node4</title>
<g id="a_node4"><a xlink:href="frontend_8js.html#a2f4ec7b87c92d886af91eccd0080c024" target="_top" xlink:title="populateUI">
<polygon fill="white" stroke="black" points="220.5,-152.5 220.5,-171.5 284.5,-171.5 284.5,-152.5 220.5,-152.5"/>
<text text-anchor="middle" x="252.5" y="-159.5" font-family="Helvetica,sans-Serif" font-size="10.00">populateUI</text>
</a>
</g>
</g>
<!-- Node2&#45;&gt;Node4 -->
<g id="edge3" class="edge"><title>Node2&#45;&gt;Node4</title>
<path fill="none" stroke="midnightblue" d="M159.079,-209.459C176.768,-200.376 203.613,-186.59 223.822,-176.213"/>
<polygon fill="midnightblue" stroke="midnightblue" points="225.564,-179.253 232.86,-171.572 222.366,-173.026 225.564,-179.253"/>
</g>
<!-- Node4&#45;&gt;Node1 -->
<g id="edge6" class="edge"><title>Node4&#45;&gt;Node1</title>
<path fill="none" stroke="midnightblue" d="M220.382,-169.51C189.705,-176.984 141.524,-188.907 100,-200 91.6043,-202.243 82.6415,-204.724 74.092,-207.133"/>
<polygon fill="midnightblue" stroke="midnightblue" points="72.9696,-203.813 64.3041,-209.909 74.8796,-210.547 72.9696,-203.813"/>
</g>
<!-- Node5 -->
<g id="node5" class="node"><title>Node5</title>
<g id="a_node5"><a xlink:href="general_8js.html#a3c52670d7ece95bdca65208692bc18f2" target="_top" xlink:title="displayErrorMessage">
<polygon fill="white" stroke="black" points="483,-152.5 483,-171.5 591,-171.5 591,-152.5 483,-152.5"/>
<text text-anchor="middle" x="537" y="-159.5" font-family="Helvetica,sans-Serif" font-size="10.00">displayErrorMessage</text>
</a>
</g>
</g>
<!-- Node4&#45;&gt;Node5 -->
<g id="edge4" class="edge"><title>Node4&#45;&gt;Node5</title>
<path fill="none" stroke="midnightblue" d="M284.541,-162C329.567,-162 414.002,-162 472.537,-162"/>
<polygon fill="midnightblue" stroke="midnightblue" points="472.787,-165.5 482.787,-162 472.787,-158.5 472.787,-165.5"/>
</g>
<!-- Node6 -->
<g id="node6" class="node"><title>Node6</title>
<g id="a_node6"><a xlink:href="frontend_8js.html#ad1b6f7258037f83d33075afa5ed17c83" target="_top" xlink:title="buildUI">
<polygon fill="white" stroke="black" points="363,-76.5 363,-95.5 410,-95.5 410,-76.5 363,-76.5"/>
<text text-anchor="middle" x="386.5" y="-83.5" font-family="Helvetica,sans-Serif" font-size="10.00">buildUI</text>
</a>
</g>
</g>
<!-- Node4&#45;&gt;Node6 -->
<g id="edge5" class="edge"><title>Node4&#45;&gt;Node6</title>
<path fill="none" stroke="midnightblue" d="M263.475,-152.22C276.74,-139.696 301.389,-118.054 326,-105 334.422,-100.533 344.076,-96.8932 353.124,-94.0395"/>
<polygon fill="midnightblue" stroke="midnightblue" points="354.371,-97.3212 362.982,-91.1492 352.402,-90.6039 354.371,-97.3212"/>
</g>
<!-- Node7 -->
<g id="node7" class="node"><title>Node7</title>
<g id="a_node7"><a xlink:href="general_8js.html#ab624ce9aebffbb8bc3159502c4afc32b" target="_top" xlink:title="copyToClipboard">
<polygon fill="white" stroke="black" points="341.5,-38.5 341.5,-57.5 431.5,-57.5 431.5,-38.5 341.5,-38.5"/>
<text text-anchor="middle" x="386.5" y="-45.5" font-family="Helvetica,sans-Serif" font-size="10.00">copyToClipboard</text>
</a>
</g>
</g>
<!-- Node4&#45;&gt;Node7 -->
<g id="edge7" class="edge"><title>Node4&#45;&gt;Node7</title>
<path fill="none" stroke="midnightblue" d="M258.255,-152.359C268.176,-133.229 292.933,-90.3094 326,-67 328.833,-65.0027 331.887,-63.208 335.062,-61.5963"/>
<polygon fill="midnightblue" stroke="midnightblue" points="336.524,-64.7766 344.247,-57.523 333.686,-58.3776 336.524,-64.7766"/>
</g>
<!-- Node8 -->
<g id="node8" class="node"><title>Node8</title>
<g id="a_node8"><a xlink:href="general_8js.html#aecfeb655371b751d36422b7a93a66279" target="_top" xlink:title="displaySystemMessage">
<polygon fill="white" stroke="black" points="326,-190.5 326,-209.5 447,-209.5 447,-190.5 326,-190.5"/>
<text text-anchor="middle" x="386.5" y="-197.5" font-family="Helvetica,sans-Serif" font-size="10.00">displaySystemMessage</text>
</a>
</g>
</g>
<!-- Node4&#45;&gt;Node8 -->
<g id="edge8" class="edge"><title>Node4&#45;&gt;Node8</title>
<path fill="none" stroke="midnightblue" d="M284.782,-171.005C301.972,-175.954 323.555,-182.167 342.327,-187.572"/>
<polygon fill="midnightblue" stroke="midnightblue" points="341.557,-190.992 352.135,-190.395 343.493,-184.265 341.557,-190.992"/>
</g>
<!-- Node9 -->
<g id="node9" class="node"><title>Node9</title>
<g id="a_node9"><a xlink:href="frontend_8js.html#a2e24b94e011170375215c3a8b745e9a4" target="_top" xlink:title="getCountConcept">
<polygon fill="white" stroke="black" points="340,-228.5 340,-247.5 433,-247.5 433,-228.5 340,-228.5"/>
<text text-anchor="middle" x="386.5" y="-235.5" font-family="Helvetica,sans-Serif" font-size="10.00">getCountConcept</text>
</a>
</g>
</g>
<!-- Node4&#45;&gt;Node9 -->
<g id="edge9" class="edge"><title>Node4&#45;&gt;Node9</title>
<path fill="none" stroke="midnightblue" d="M274.682,-171.512C279.897,-174.256 285.323,-177.473 290,-181 308.574,-195.009 306.298,-206.627 326,-219 329.315,-221.082 332.877,-222.954 336.552,-224.634"/>
<polygon fill="midnightblue" stroke="midnightblue" points="335.26,-227.887 345.841,-228.427 337.906,-221.407 335.26,-227.887"/>
</g>
<!-- Node12 -->
<g id="node12" class="node"><title>Node12</title>
<g id="a_node12"><a xlink:href="frontend_8js.html#add7d88a4ad05a1fb2478eff9a1857824" target="_top" xlink:title="getUsefulLinks">
<polygon fill="white" stroke="black" points="345.5,-0.5 345.5,-19.5 427.5,-19.5 427.5,-0.5 345.5,-0.5"/>
<text text-anchor="middle" x="386.5" y="-7.5" font-family="Helvetica,sans-Serif" font-size="10.00">getUsefulLinks</text>
</a>
</g>
</g>
<!-- Node4&#45;&gt;Node12 -->
<g id="edge14" class="edge"><title>Node4&#45;&gt;Node12</title>
<path fill="none" stroke="midnightblue" d="M256.037,-152.355C262.948,-127.966 284.435,-63.3331 326,-29 329.063,-26.4697 332.469,-24.2744 336.055,-22.3702"/>
<polygon fill="midnightblue" stroke="midnightblue" points="337.583,-25.5206 345.253,-18.2111 334.699,-19.1424 337.583,-25.5206"/>
</g>
<!-- Node13 -->
<g id="node13" class="node"><title>Node13</title>
<g id="a_node13"><a xlink:href="frontend_8js.html#a5f8e953a90f434851f20518b1e3baeb6" target="_top" xlink:title="getArchives">
<polygon fill="white" stroke="black" points="352.5,-114.5 352.5,-133.5 420.5,-133.5 420.5,-114.5 352.5,-114.5"/>
<text text-anchor="middle" x="386.5" y="-121.5" font-family="Helvetica,sans-Serif" font-size="10.00">getArchives</text>
</a>
</g>
</g>
<!-- Node4&#45;&gt;Node13 -->
<g id="edge16" class="edge"><title>Node4&#45;&gt;Node13</title>
<path fill="none" stroke="midnightblue" d="M284.782,-152.995C301.972,-148.046 323.555,-141.833 342.327,-136.428"/>
<polygon fill="midnightblue" stroke="midnightblue" points="343.493,-139.735 352.135,-133.605 341.557,-133.008 343.493,-139.735"/>
</g>
<!-- Node14 -->
<g id="node14" class="node"><title>Node14</title>
<g id="a_node14"><a xlink:href="frontend_8js.html#a816e9b3b3cd90b9b151a46331c601fbe" target="_top" xlink:title="getCurrentRecords">
<polygon fill="white" stroke="black" points="337,-266.5 337,-285.5 436,-285.5 436,-266.5 337,-266.5"/>
<text text-anchor="middle" x="386.5" y="-273.5" font-family="Helvetica,sans-Serif" font-size="10.00">getCurrentRecords</text>
</a>
</g>
</g>
<!-- Node4&#45;&gt;Node14 -->
<g id="edge17" class="edge"><title>Node4&#45;&gt;Node14</title>
<path fill="none" stroke="midnightblue" d="M277.433,-171.595C281.984,-174.171 286.432,-177.295 290,-181 315.927,-207.92 297.87,-232.39 326,-257 327.928,-258.687 330.007,-260.224 332.193,-261.625"/>
<polygon fill="midnightblue" stroke="midnightblue" points="330.591,-264.738 341.057,-266.381 333.9,-258.569 330.591,-264.738"/>
</g>
<!-- Node9&#45;&gt;Node2 -->
<g id="edge10" class="edge"><title>Node9&#45;&gt;Node2</title>
<path fill="none" stroke="midnightblue" d="M339.667,-234.446C296.787,-231.12 232.948,-226.169 189.171,-222.775"/>
<polygon fill="midnightblue" stroke="midnightblue" points="189.291,-219.273 179.051,-221.99 188.75,-226.252 189.291,-219.273"/>
</g>
<!-- Node9&#45;&gt;Node5 -->
<g id="edge11" class="edge"><title>Node9&#45;&gt;Node5</title>
<path fill="none" stroke="midnightblue" d="M422.693,-228.435C430.831,-225.767 439.345,-222.598 447,-219 471.605,-207.435 497.543,-190.163 515.028,-177.664"/>
<polygon fill="midnightblue" stroke="midnightblue" points="517.316,-180.327 523.349,-171.618 513.202,-174.664 517.316,-180.327"/>
</g>
<!-- Node9&#45;&gt;Node10 -->
<g id="edge12" class="edge"><title>Node9&#45;&gt;Node10</title>
<path fill="none" stroke="midnightblue" d="M424.973,-247.589C448.518,-253.614 478.664,-261.328 501.601,-267.197"/>
<polygon fill="midnightblue" stroke="midnightblue" points="501.027,-270.663 511.582,-269.752 502.762,-263.882 501.027,-270.663"/>
</g>
<!-- Node11 -->
<g id="node11" class="node"><title>Node11</title>
<g id="a_node11"><a xlink:href="frontend_8js.html#a24a888339bf25830f0d3c73e18aca77b" target="_top" xlink:title="showDate">
<polygon fill="white" stroke="black" points="506.5,-228.5 506.5,-247.5 567.5,-247.5 567.5,-228.5 506.5,-228.5"/>
<text text-anchor="middle" x="537" y="-235.5" font-family="Helvetica,sans-Serif" font-size="10.00">showDate</text>
</a>
</g>
</g>
<!-- Node9&#45;&gt;Node11 -->
<g id="edge13" class="edge"><title>Node9&#45;&gt;Node11</title>
<path fill="none" stroke="midnightblue" d="M433.267,-238C453.349,-238 476.707,-238 496.072,-238"/>
<polygon fill="midnightblue" stroke="midnightblue" points="496.084,-241.5 506.084,-238 496.084,-234.5 496.084,-241.5"/>
</g>
<!-- Node12&#45;&gt;Node5 -->
<g id="edge15" class="edge"><title>Node12&#45;&gt;Node5</title>
<path fill="none" stroke="midnightblue" d="M427.724,-18.7515C434.556,-21.3496 441.281,-24.6969 447,-29 487.533,-59.4995 515.52,-114.145 528.239,-142.981"/>
<polygon fill="midnightblue" stroke="midnightblue" points="525.089,-144.518 532.229,-152.345 531.529,-141.773 525.089,-144.518"/>
</g>
<!-- Node14&#45;&gt;Node2 -->
<g id="edge18" class="edge"><title>Node14&#45;&gt;Node2</title>
<path fill="none" stroke="midnightblue" d="M336.748,-267.129C302.515,-260.624 255.751,-251.18 215,-241 203.78,-238.197 191.718,-234.804 180.637,-231.53"/>
<polygon fill="midnightblue" stroke="midnightblue" points="181.372,-228.096 170.788,-228.577 179.362,-234.801 181.372,-228.096"/>
</g>
<!-- Node14&#45;&gt;Node10 -->
<g id="edge19" class="edge"><title>Node14&#45;&gt;Node10</title>
<path fill="none" stroke="midnightblue" d="M436.124,-276C457.536,-276 482.187,-276 501.642,-276"/>
<polygon fill="midnightblue" stroke="midnightblue" points="501.862,-279.5 511.862,-276 501.862,-272.5 501.862,-279.5"/>
</g>
<!-- Node14&#45;&gt;Node11 -->
<g id="edge20" class="edge"><title>Node14&#45;&gt;Node11</title>
<path fill="none" stroke="midnightblue" d="M424.973,-266.411C446.879,-260.805 474.499,-253.738 496.71,-248.054"/>
<polygon fill="midnightblue" stroke="midnightblue" points="497.675,-251.42 506.495,-245.55 495.939,-244.639 497.675,-251.42"/>
</g>
</g>
</svg>
