<?xml version="1.0" encoding="UTF-8" standalone="no"?>
<!DOCTYPE svg PUBLIC "-//W3C//DTD SVG 1.1//EN"
 "http://www.w3.org/Graphics/SVG/1.1/DTD/svg11.dtd">
<!-- Generated by graphviz version 2.38.0 (20140413.2041)
 -->
<!-- Title: buildUI Pages: 1 -->
<svg width="566pt" height="104pt"
 viewBox="0.00 0.00 566.00 104.00" xmlns="http://www.w3.org/2000/svg" xmlns:xlink="http://www.w3.org/1999/xlink">
<g id="graph0" class="graph" transform="scale(1 1) rotate(0) translate(4 100)">
<title>buildUI</title>
<polygon fill="white" stroke="none" points="-4,4 -4,-100 562,-100 562,4 -4,4"/>
<!-- Node1 -->
<g id="node1" class="node"><title>Node1</title>
<polygon fill="#bfbfbf" stroke="black" points="0,-38.5 0,-57.5 47,-57.5 47,-38.5 0,-38.5"/>
<text text-anchor="middle" x="23.5" y="-45.5" font-family="Helvetica,sans-Serif" font-size="10.00">buildUI</text>
</g>
<!-- Node2 -->
<g id="node2" class="node"><title>Node2</title>
<g id="a_node2"><a xlink:href="frontend_8js.html#a2f4ec7b87c92d886af91eccd0080c024" target="_top" xlink:title="populateUI">
<polygon fill="white" stroke="black" points="83,-38.5 83,-57.5 147,-57.5 147,-38.5 83,-38.5"/>
<text text-anchor="middle" x="115" y="-45.5" font-family="Helvetica,sans-Serif" font-size="10.00">populateUI</text>
</a>
</g>
</g>
<!-- Node1&#45;&gt;Node2 -->
<g id="edge1" class="edge"><title>Node1&#45;&gt;Node2</title>
<path fill="none" stroke="midnightblue" d="M57.2897,-48C65.6792,-48 74.674,-48 82.9719,-48"/>
<polygon fill="midnightblue" stroke="midnightblue" points="57.0847,-44.5001 47.0846,-48 57.0846,-51.5001 57.0847,-44.5001"/>
</g>
<!-- Node3 -->
<g id="node3" class="node"><title>Node3</title>
<g id="a_node3"><a xlink:href="frontend_8js.html#a026aacb2020ed839706c99a8805c244b" target="_top" xlink:title="showProgress">
<polygon fill="white" stroke="black" points="183,-57.5 183,-76.5 262,-76.5 262,-57.5 183,-57.5"/>
<text text-anchor="middle" x="222.5" y="-64.5" font-family="Helvetica,sans-Serif" font-size="10.00">showProgress</text>
</a>
</g>
</g>
<!-- Node2&#45;&gt;Node3 -->
<g id="edge2" class="edge"><title>Node2&#45;&gt;Node3</title>
<path fill="none" stroke="midnightblue" d="M157.113,-55.4043C165.558,-56.9251 174.421,-58.5213 182.777,-60.0263"/>
<polygon fill="midnightblue" stroke="midnightblue" points="157.545,-51.9258 147.083,-53.5979 156.304,-58.815 157.545,-51.9258"/>
</g>
<!-- Node4 -->
<g id="node4" class="node"><title>Node4</title>
<g id="a_node4"><a xlink:href="frontend_8js.html#a816e9b3b3cd90b9b151a46331c601fbe" target="_top" xlink:title="getCurrentRecords">
<polygon fill="white" stroke="black" points="298,-38.5 298,-57.5 397,-57.5 397,-38.5 298,-38.5"/>
<text text-anchor="middle" x="347.5" y="-45.5" font-family="Helvetica,sans-Serif" font-size="10.00">getCurrentRecords</text>
</a>
</g>
</g>
<!-- Node3&#45;&gt;Node4 -->
<g id="edge3" class="edge"><title>Node3&#45;&gt;Node4</title>
<path fill="none" stroke="midnightblue" d="M272.112,-59.4909C280.508,-58.1938 289.241,-56.8449 297.644,-55.5468"/>
<polygon fill="midnightblue" stroke="midnightblue" points="271.429,-56.0547 262.08,-61.0404 272.498,-62.9727 271.429,-56.0547"/>
</g>
<!-- Node6 -->
<g id="node6" class="node"><title>Node6</title>
<g id="a_node6"><a xlink:href="frontend_8js.html#a2e24b94e011170375215c3a8b745e9a4" target="_top" xlink:title="getCountConcept">
<polygon fill="white" stroke="black" points="301,-0.5 301,-19.5 394,-19.5 394,-0.5 301,-0.5"/>
<text text-anchor="middle" x="347.5" y="-7.5" font-family="Helvetica,sans-Serif" font-size="10.00">getCountConcept</text>
</a>
</g>
</g>
<!-- Node3&#45;&gt;Node6 -->
<g id="edge6" class="edge"><title>Node3&#45;&gt;Node6</title>
<path fill="none" stroke="midnightblue" d="M250.131,-52.6128C264.203,-45.2161 281.861,-36.2563 298,-29 305.258,-25.7367 313.257,-22.4718 320.63,-19.592"/>
<polygon fill="midnightblue" stroke="midnightblue" points="248.218,-49.6655 241.024,-57.4437 251.498,-55.8493 248.218,-49.6655"/>
</g>
<!-- Node7 -->
<g id="node7" class="node"><title>Node7</title>
<g id="a_node7"><a xlink:href="frontend_8js.html#aa6fd7ff8d2590761fcda0342978b0b22" target="_top" xlink:title="getCitation">
<polygon fill="white" stroke="black" points="315.5,-76.5 315.5,-95.5 379.5,-95.5 379.5,-76.5 315.5,-76.5"/>
<text text-anchor="middle" x="347.5" y="-83.5" font-family="Helvetica,sans-Serif" font-size="10.00">getCitation</text>
</a>
</g>
</g>
<!-- Node3&#45;&gt;Node7 -->
<g id="edge8" class="edge"><title>Node3&#45;&gt;Node7</title>
<path fill="none" stroke="midnightblue" d="M272.001,-74.492C286.63,-76.7518 302.288,-79.1705 315.454,-81.2043"/>
<polygon fill="midnightblue" stroke="midnightblue" points="272.498,-71.0273 262.08,-72.9596 271.429,-77.9453 272.498,-71.0273"/>
</g>
<!-- Node4&#45;&gt;Node2 -->
<g id="edge5" class="edge"><title>Node4&#45;&gt;Node2</title>
<path fill="none" stroke="midnightblue" d="M287.67,-48C242.88,-48 182.997,-48 147.086,-48"/>
<polygon fill="midnightblue" stroke="midnightblue" points="287.844,-51.5001 297.844,-48 287.844,-44.5001 287.844,-51.5001"/>
</g>
<!-- Node5 -->
<g id="node5" class="node"><title>Node5</title>
<g id="a_node5"><a xlink:href="class_bms_1_1_bms.html#aec5f7b55928d9eb969567ab87ea9e021" target="_top" xlink:title="Bms\\Bms\\frontController">
<polygon fill="white" stroke="black" points="433,-57.5 433,-76.5 558,-76.5 558,-57.5 433,-57.5"/>
<text text-anchor="middle" x="495.5" y="-64.5" font-family="Helvetica,sans-Serif" font-size="10.00">Bms\Bms\frontController</text>
</a>
</g>
</g>
<!-- Node4&#45;&gt;Node5 -->
<g id="edge4" class="edge"><title>Node4&#45;&gt;Node5</title>
<path fill="none" stroke="midnightblue" d="M407.238,-55.6439C415.669,-56.7412 424.365,-57.8728 432.851,-58.9771"/>
<polygon fill="midnightblue" stroke="midnightblue" points="407.484,-52.1466 397.116,-54.3267 406.581,-59.088 407.484,-52.1466"/>
</g>
<!-- Node6&#45;&gt;Node2 -->
<g id="edge7" class="edge"><title>Node6&#45;&gt;Node2</title>
<path fill="none" stroke="midnightblue" d="M290.918,-19.1632C245.813,-26.5991 183.873,-36.8106 147.086,-42.8752"/>
<polygon fill="midnightblue" stroke="midnightblue" points="291.547,-22.6068 300.844,-17.5267 290.408,-15.7001 291.547,-22.6068"/>
</g>
<!-- Node7&#45;&gt;Node2 -->
<g id="edge10" class="edge"><title>Node7&#45;&gt;Node2</title>
<path fill="none" stroke="midnightblue" d="M305.125,-91.7537C271.615,-95.0532 223.492,-96.6835 183,-86 162.312,-80.5416 141.312,-67.0625 128.471,-57.7207"/>
<polygon fill="midnightblue" stroke="midnightblue" points="305.897,-95.1908 315.463,-90.6373 305.145,-88.2313 305.897,-95.1908"/>
</g>
<!-- Node7&#45;&gt;Node5 -->
<g id="edge9" class="edge"><title>Node7&#45;&gt;Node5</title>
<path fill="none" stroke="midnightblue" d="M390.089,-80.5878C403.408,-78.8544 418.452,-76.8967 432.886,-75.0182"/>
<polygon fill="midnightblue" stroke="midnightblue" points="389.285,-77.1627 379.821,-81.924 390.189,-84.1042 389.285,-77.1627"/>
</g>
</g>
</svg>
