<?xml version="1.0" encoding="UTF-8" standalone="no"?>
<!DOCTYPE svg PUBLIC "-//W3C//DTD SVG 1.1//EN"
 "http://www.w3.org/Graphics/SVG/1.1/DTD/svg11.dtd">
<!-- Generated by graphviz version 2.38.0 (20140413.2041)
 -->
<!-- Title: getCitation Pages: 1 -->
<svg width="583pt" height="87pt"
 viewBox="0.00 0.00 583.00 87.21" xmlns="http://www.w3.org/2000/svg" xmlns:xlink="http://www.w3.org/1999/xlink">
<g id="graph0" class="graph" transform="scale(1 1) rotate(0) translate(4 83.2055)">
<title>getCitation</title>
<polygon fill="white" stroke="none" points="-4,4 -4,-83.2055 579,-83.2055 579,4 -4,4"/>
<!-- Node1 -->
<g id="node1" class="node"><title>Node1</title>
<polygon fill="#bfbfbf" stroke="black" points="0,-15.1807 0,-34.1807 64,-34.1807 64,-15.1807 0,-15.1807"/>
<text text-anchor="middle" x="32" y="-22.1807" font-family="Helvetica,sans-Serif" font-size="10.00">getCitation</text>
</g>
<!-- Node2 -->
<g id="node2" class="node"><title>Node2</title>
<g id="a_node2"><a xlink:href="class_bms_1_1_bms.html#aec5f7b55928d9eb969567ab87ea9e021" target="_top" xlink:title="Bms\\Bms\\frontController">
<polygon fill="white" stroke="black" points="450,-15.1807 450,-34.1807 575,-34.1807 575,-15.1807 450,-15.1807"/>
<text text-anchor="middle" x="512.5" y="-22.1807" font-family="Helvetica,sans-Serif" font-size="10.00">Bms\Bms\frontController</text>
</a>
</g>
</g>
<!-- Node1&#45;&gt;Node2 -->
<g id="edge1" class="edge"><title>Node1&#45;&gt;Node2</title>
<path fill="none" stroke="midnightblue" d="M74.2596,-18.6683C107.99,-14.0713 156.965,-8.12095 200,-5.6807 294.959,-0.296234 319.329,3.45771 414,-5.6807 433.226,-7.53651 454.291,-11.4052 471.906,-15.1703"/>
<polygon fill="midnightblue" stroke="midnightblue" points="73.7301,-15.2082 64.3044,-20.0462 74.6898,-22.1421 73.7301,-15.2082"/>
</g>
<!-- Node3 -->
<g id="node3" class="node"><title>Node3</title>
<g id="a_node3"><a xlink:href="frontend_8js.html#a2f4ec7b87c92d886af91eccd0080c024" target="_top" xlink:title="populateUI">
<polygon fill="white" stroke="black" points="100,-53.1807 100,-72.1807 164,-72.1807 164,-53.1807 100,-53.1807"/>
<text text-anchor="middle" x="132" y="-60.1807" font-family="Helvetica,sans-Serif" font-size="10.00">populateUI</text>
</a>
</g>
</g>
<!-- Node1&#45;&gt;Node3 -->
<g id="edge2" class="edge"><title>Node1&#45;&gt;Node3</title>
<path fill="none" stroke="midnightblue" d="M67.2086,-37.9453C80.0742,-42.934 94.4411,-48.5048 106.278,-53.0948"/>
<polygon fill="midnightblue" stroke="midnightblue" points="68.3185,-34.6218 57.7295,-34.2697 65.7878,-41.1483 68.3185,-34.6218"/>
</g>
<!-- Node4 -->
<g id="node4" class="node"><title>Node4</title>
<g id="a_node4"><a xlink:href="frontend_8js.html#a026aacb2020ed839706c99a8805c244b" target="_top" xlink:title="showProgress">
<polygon fill="white" stroke="black" points="200,-15.1807 200,-34.1807 279,-34.1807 279,-15.1807 200,-15.1807"/>
<text text-anchor="middle" x="239.5" y="-22.1807" font-family="Helvetica,sans-Serif" font-size="10.00">showProgress</text>
</a>
</g>
</g>
<!-- Node3&#45;&gt;Node4 -->
<g id="edge3" class="edge"><title>Node3&#45;&gt;Node4</title>
<path fill="none" stroke="midnightblue" d="M169.42,-49.5627C183.373,-44.5368 199.018,-38.9016 211.886,-34.2666"/>
<polygon fill="midnightblue" stroke="midnightblue" points="167.844,-46.41 159.622,-53.0917 170.217,-52.9958 167.844,-46.41"/>
</g>
<!-- Node4&#45;&gt;Node1 -->
<g id="edge9" class="edge"><title>Node4&#45;&gt;Node1</title>
<path fill="none" stroke="midnightblue" d="M189.918,-24.6807C151.016,-24.6807 97.6059,-24.6807 64.211,-24.6807"/>
<polygon fill="midnightblue" stroke="midnightblue" points="189.975,-28.1808 199.975,-24.6807 189.975,-21.1808 189.975,-28.1808"/>
</g>
<!-- Node5 -->
<g id="node5" class="node"><title>Node5</title>
<g id="a_node5"><a xlink:href="frontend_8js.html#a816e9b3b3cd90b9b151a46331c601fbe" target="_top" xlink:title="getCurrentRecords">
<polygon fill="white" stroke="black" points="315,-53.1807 315,-72.1807 414,-72.1807 414,-53.1807 315,-53.1807"/>
<text text-anchor="middle" x="364.5" y="-60.1807" font-family="Helvetica,sans-Serif" font-size="10.00">getCurrentRecords</text>
</a>
</g>
</g>
<!-- Node4&#45;&gt;Node5 -->
<g id="edge4" class="edge"><title>Node4&#45;&gt;Node5</title>
<path fill="none" stroke="midnightblue" d="M281.545,-37.3611C298.164,-42.4955 317.032,-48.3248 332.472,-53.0948"/>
<polygon fill="midnightblue" stroke="midnightblue" points="282.126,-33.8775 271.538,-34.2697 280.059,-40.5656 282.126,-33.8775"/>
</g>
<!-- Node6 -->
<g id="node6" class="node"><title>Node6</title>
<g id="a_node6"><a xlink:href="frontend_8js.html#a2e24b94e011170375215c3a8b745e9a4" target="_top" xlink:title="getCountConcept">
<polygon fill="white" stroke="black" points="318,-15.1807 318,-34.1807 411,-34.1807 411,-15.1807 318,-15.1807"/>
<text text-anchor="middle" x="364.5" y="-22.1807" font-family="Helvetica,sans-Serif" font-size="10.00">getCountConcept</text>
</a>
</g>
</g>
<!-- Node4&#45;&gt;Node6 -->
<g id="edge7" class="edge"><title>Node4&#45;&gt;Node6</title>
<path fill="none" stroke="midnightblue" d="M289.105,-24.6807C298.537,-24.6807 308.393,-24.6807 317.731,-24.6807"/>
<polygon fill="midnightblue" stroke="midnightblue" points="289.081,-21.1808 279.08,-24.6807 289.08,-28.1808 289.081,-21.1808"/>
</g>
<!-- Node5&#45;&gt;Node2 -->
<g id="edge5" class="edge"><title>Node5&#45;&gt;Node2</title>
<path fill="none" stroke="midnightblue" d="M412.036,-50.5686C432.37,-45.2763 455.871,-39.1594 474.923,-34.2008"/>
<polygon fill="midnightblue" stroke="midnightblue" points="411.138,-47.1856 402.342,-53.0917 412.901,-53.96 411.138,-47.1856"/>
</g>
<!-- Node5&#45;&gt;Node3 -->
<g id="edge6" class="edge"><title>Node5&#45;&gt;Node3</title>
<path fill="none" stroke="midnightblue" d="M304.915,-73.6621C296.254,-74.9143 287.415,-75.9883 279,-76.6807 244.007,-79.5599 234.925,-80.2906 200,-76.6807 188.18,-75.4589 175.371,-73.0555 164.149,-70.5799"/>
<polygon fill="midnightblue" stroke="midnightblue" points="305.61,-77.0965 314.965,-72.1224 304.55,-70.1773 305.61,-77.0965"/>
</g>
<!-- Node6&#45;&gt;Node3 -->
<g id="edge8" class="edge"><title>Node6&#45;&gt;Node3</title>
<path fill="none" stroke="midnightblue" d="M314.556,-36.4858C302.942,-39.0648 290.566,-41.6322 279,-43.6807 239.61,-50.657 193.817,-56.2044 164.171,-59.4628"/>
<polygon fill="midnightblue" stroke="midnightblue" points="315.546,-39.8503 324.526,-34.2292 314,-33.023 315.546,-39.8503"/>
</g>
</g>
</svg>
