<?xml version="1.0" encoding="UTF-8" standalone="no"?>
<!DOCTYPE svg PUBLIC "-//W3C//DTD SVG 1.1//EN"
 "http://www.w3.org/Graphics/SVG/1.1/DTD/svg11.dtd">
<!-- Generated by graphviz version 2.38.0 (20140413.2041)
 -->
<!-- Title: getCurrentRecords Pages: 1 -->
<!--zoomable 338 -->
<svg id="main" version="1.1" xmlns="http://www.w3.org/2000/svg" xmlns:xlink="http://www.w3.org/1999/xlink" xml:space="preserve" onload="init(evt)">
<style type="text/css"><![CDATA[
.edge:hover path { stroke: red; }
.edge:hover polygon { stroke: red; fill: red; }
]]></style>
<script type="text/javascript"><![CDATA[
var edges = document.getElementsByTagName('g');
if (edges && edges.length) {
  for (var i=0;i<edges.length;i++) {
    if (edges[i].id.substr(0,4)=='edge') {
      edges[i].setAttribute('class','edge');
    }
  }
}
]]></script>
        <defs>
                <circle id="rim" cx="0" cy="0" r="7"/>
                <circle id="rim2" cx="0" cy="0" r="3.5"/>
                <g id="zoomPlus">
                        <use xlink:href="#rim" fill="#404040">
                                <set attributeName="fill" to="#808080" begin="zoomplus.mouseover" end="zoomplus.mouseout"/>
                        </use>
                        <path d="M-4,0h8M0,-4v8" fill="none" stroke="white" stroke-width="1.5" pointer-events="none"/>
                </g>
                <g id="zoomMin">
                        <use xlink:href="#rim" fill="#404040">
                                <set attributeName="fill" to="#808080" begin="zoomminus.mouseover" end="zoomminus.mouseout"/>
                        </use>
                        <path d="M-4,0h8" fill="none" stroke="white" stroke-width="1.5" pointer-events="none"/>
                </g>
                <g id="dirArrow">
                        <path fill="none" stroke="white" stroke-width="1.5" d="M0,-3.0v7 M-2.5,-0.5L0,-3.0L2.5,-0.5"/>
                </g>
               <g id="resetDef">
                       <use xlink:href="#rim2" fill="#404040">
                               <set attributeName="fill" to="#808080" begin="reset.mouseover" end="reset.mouseout"/>
                       </use>
               </g>
        </defs>

<script type="text/javascript">
var viewWidth = 634;
var viewHeight = 338;
var sectionId = 'dynsection-6';
</script>
<script xlink:href="svgpan.js"/>
<svg id="graph" class="graph">
<g id="viewport">
<title>getCurrentRecords</title>
<polygon fill="white" stroke="none" points="-4,4 -4,-333.905 630,-333.905 630,4 -4,4"/>
<!-- Node1 -->
<g id="node1" class="node"><title>Node1</title>
<polygon fill="#bfbfbf" stroke="black" points="0,-193.199 0,-212.199 99,-212.199 99,-193.199 0,-193.199"/>
<text text-anchor="middle" x="49.5" y="-200.199" font-family="Helvetica,sans-Serif" font-size="10.00">getCurrentRecords</text>
</g>
<!-- Node2 -->
<g id="node2" class="node"><title>Node2</title>
<g id="a_node2"><a xlink:href="frontend_8js.html#a026aacb2020ed839706c99a8805c244b" target="_top" xlink:title="showProgress">
<polygon fill="white" stroke="black" points="135,-212.199 135,-231.199 214,-231.199 214,-212.199 135,-212.199"/>
<text text-anchor="middle" x="174.5" y="-219.199" font-family="Helvetica,sans-Serif" font-size="10.00">showProgress</text>
</a>
</g>
</g>
<!-- Node1&#45;&gt;Node2 -->
<g id="edge1" class="edge"><title>Node1&#45;&gt;Node2</title>
<path fill="none" stroke="midnightblue" d="M99.1129,-210.208C107.515,-211.506 116.253,-212.856 124.661,-214.155"/>
<polygon fill="midnightblue" stroke="midnightblue" points="124.292,-217.639 134.709,-215.707 125.36,-210.721 124.292,-217.639"/>
</g>
<!-- Node8 -->
<g id="node8" class="node"><title>Node8</title>
<g id="a_node8"><a xlink:href="general_8js.html#a33e21da30cef3db82208e64a6801aa44" target="_top" xlink:title="logbook">
<polygon fill="white" stroke="black" points="547,-288.199 547,-307.199 597,-307.199 597,-288.199 547,-288.199"/>
<text text-anchor="middle" x="572" y="-295.199" font-family="Helvetica,sans-Serif" font-size="10.00">logbook</text>
</a>
</g>
</g>
<!-- Node1&#45;&gt;Node8 -->
<g id="edge20" class="edge"><title>Node1&#45;&gt;Node8</title>
<path fill="none" stroke="midnightblue" d="M62.1145,-212.314C91.3631,-235.822 171.348,-295.812 250,-316.699 351.546,-343.666 477.274,-320.714 536.748,-306.666"/>
<polygon fill="midnightblue" stroke="midnightblue" points="537.832,-310.004 546.724,-304.244 536.181,-303.202 537.832,-310.004"/>
</g>
<!-- Node12 -->
<g id="node12" class="node"><title>Node12</title>
<g id="a_node12"><a xlink:href="frontend_8js.html#a24a888339bf25830f0d3c73e18aca77b" target="_top" xlink:title="showDate">
<polygon fill="white" stroke="black" points="541.5,-79.1989 541.5,-98.1989 602.5,-98.1989 602.5,-79.1989 541.5,-79.1989"/>
<text text-anchor="middle" x="572" y="-86.1989" font-family="Helvetica,sans-Serif" font-size="10.00">showDate</text>
</a>
</g>
</g>
<!-- Node1&#45;&gt;Node12 -->
<g id="edge21" class="edge"><title>Node1&#45;&gt;Node12</title>
<path fill="none" stroke="midnightblue" d="M60.9893,-193.174C98.2849,-160.037 229.302,-49.796 361,-12.6989 412.763,1.88189 431.545,5.91232 482,-12.6989 513.574,-24.3458 541.548,-52.7361 557.363,-71.3283"/>
<polygon fill="midnightblue" stroke="midnightblue" points="554.687,-73.5854 563.743,-79.0858 560.094,-69.139 554.687,-73.5854"/>
</g>
<!-- Node3 -->
<g id="node3" class="node"><title>Node3</title>
<g id="a_node3"><a xlink:href="general_8js.html#ad9f2873ff9e09926e2f18c529721c6f8" target="_top" xlink:title="getMessages">
<polygon fill="white" stroke="black" points="250,-288.199 250,-307.199 325,-307.199 325,-288.199 250,-288.199"/>
<text text-anchor="middle" x="287.5" y="-295.199" font-family="Helvetica,sans-Serif" font-size="10.00">getMessages</text>
</a>
</g>
</g>
<!-- Node2&#45;&gt;Node3 -->
<g id="edge2" class="edge"><title>Node2&#45;&gt;Node3</title>
<path fill="none" stroke="midnightblue" d="M188.881,-231.206C203.734,-241.718 228.454,-259.1 250,-273.699 254.175,-276.528 258.644,-279.507 262.973,-282.366"/>
<polygon fill="midnightblue" stroke="midnightblue" points="261.241,-285.417 271.521,-287.983 265.085,-279.567 261.241,-285.417"/>
</g>
<!-- Node4 -->
<g id="node4" class="node"><title>Node4</title>
<g id="a_node4"><a xlink:href="frontend_8js.html#a2f4ec7b87c92d886af91eccd0080c024" target="_top" xlink:title="populateUI">
<polygon fill="white" stroke="black" points="255.5,-174.199 255.5,-193.199 319.5,-193.199 319.5,-174.199 255.5,-174.199"/>
<text text-anchor="middle" x="287.5" y="-181.199" font-family="Helvetica,sans-Serif" font-size="10.00">populateUI</text>
</a>
</g>
</g>
<!-- Node2&#45;&gt;Node4 -->
<g id="edge3" class="edge"><title>Node2&#45;&gt;Node4</title>
<path fill="none" stroke="midnightblue" d="M203.51,-212.11C217.182,-207.43 233.831,-201.73 248.618,-196.667"/>
<polygon fill="midnightblue" stroke="midnightblue" points="250.172,-199.835 258.499,-193.285 247.904,-193.212 250.172,-199.835"/>
</g>
<!-- Node4&#45;&gt;Node1 -->
<g id="edge19" class="edge"><title>Node4&#45;&gt;Node1</title>
<path fill="none" stroke="midnightblue" d="M255.248,-186.215C218.167,-189.2 155.552,-194.241 109.307,-197.964"/>
<polygon fill="midnightblue" stroke="midnightblue" points="108.8,-194.494 99.1132,-198.785 109.362,-201.471 108.8,-194.494"/>
</g>
<!-- Node5 -->
<g id="node5" class="node"><title>Node5</title>
<g id="a_node5"><a xlink:href="general_8js.html#a3c52670d7ece95bdca65208692bc18f2" target="_top" xlink:title="displayErrorMessage">
<polygon fill="white" stroke="black" points="518,-212.199 518,-231.199 626,-231.199 626,-212.199 518,-212.199"/>
<text text-anchor="middle" x="572" y="-219.199" font-family="Helvetica,sans-Serif" font-size="10.00">displayErrorMessage</text>
</a>
</g>
</g>
<!-- Node4&#45;&gt;Node5 -->
<g id="edge4" class="edge"><title>Node4&#45;&gt;Node5</title>
<path fill="none" stroke="midnightblue" d="M292.308,-174.085C300.946,-153.783 324.181,-106.916 361,-88.6989 409.201,-64.8502 434.564,-63.3646 482,-88.6989 527.379,-112.935 553.675,-171.693 564.752,-202.354"/>
<polygon fill="midnightblue" stroke="midnightblue" points="561.481,-203.605 568.042,-211.924 568.101,-201.329 561.481,-203.605"/>
</g>
<!-- Node6 -->
<g id="node6" class="node"><title>Node6</title>
<g id="a_node6"><a xlink:href="frontend_8js.html#ad1b6f7258037f83d33075afa5ed17c83" target="_top" xlink:title="buildUI">
<polygon fill="white" stroke="black" points="398,-174.199 398,-193.199 445,-193.199 445,-174.199 398,-174.199"/>
<text text-anchor="middle" x="421.5" y="-181.199" font-family="Helvetica,sans-Serif" font-size="10.00">buildUI</text>
</a>
</g>
</g>
<!-- Node4&#45;&gt;Node6 -->
<g id="edge5" class="edge"><title>Node4&#45;&gt;Node6</title>
<path fill="none" stroke="midnightblue" d="M319.782,-183.699C340.168,-183.699 366.731,-183.699 387.459,-183.699"/>
<polygon fill="midnightblue" stroke="midnightblue" points="387.703,-187.199 397.703,-183.699 387.703,-180.199 387.703,-187.199"/>
</g>
<!-- Node7 -->
<g id="node7" class="node"><title>Node7</title>
<g id="a_node7"><a xlink:href="frontend_8js.html#aa6fd7ff8d2590761fcda0342978b0b22" target="_top" xlink:title="getCitation">
<polygon fill="white" stroke="black" points="389.5,-288.199 389.5,-307.199 453.5,-307.199 453.5,-288.199 389.5,-288.199"/>
<text text-anchor="middle" x="421.5" y="-295.199" font-family="Helvetica,sans-Serif" font-size="10.00">getCitation</text>
</a>
</g>
</g>
<!-- Node4&#45;&gt;Node7 -->
<g id="edge6" class="edge"><title>Node4&#45;&gt;Node7</title>
<path fill="none" stroke="midnightblue" d="M293.255,-193.34C303.176,-212.47 327.933,-255.39 361,-278.699 366.657,-282.687 373.192,-285.867 379.815,-288.395"/>
<polygon fill="midnightblue" stroke="midnightblue" points="378.897,-291.778 389.491,-291.649 381.128,-285.144 378.897,-291.778"/>
</g>
<!-- Node9 -->
<g id="node9" class="node"><title>Node9</title>
<g id="a_node9"><a xlink:href="general_8js.html#ab624ce9aebffbb8bc3159502c4afc32b" target="_top" xlink:title="copyToClipboard">
<polygon fill="white" stroke="black" points="376.5,-136.199 376.5,-155.199 466.5,-155.199 466.5,-136.199 376.5,-136.199"/>
<text text-anchor="middle" x="421.5" y="-143.199" font-family="Helvetica,sans-Serif" font-size="10.00">copyToClipboard</text>
</a>
</g>
</g>
<!-- Node4&#45;&gt;Node9 -->
<g id="edge9" class="edge"><title>Node4&#45;&gt;Node9</title>
<path fill="none" stroke="midnightblue" d="M319.782,-174.693C336.972,-169.745 358.555,-163.532 377.327,-158.127"/>
<polygon fill="midnightblue" stroke="midnightblue" points="378.493,-161.434 387.135,-155.304 376.557,-154.707 378.493,-161.434"/>
</g>
<!-- Node10 -->
<g id="node10" class="node"><title>Node10</title>
<g id="a_node10"><a xlink:href="general_8js.html#aecfeb655371b751d36422b7a93a66279" target="_top" xlink:title="displaySystemMessage">
<polygon fill="white" stroke="black" points="361,-98.1989 361,-117.199 482,-117.199 482,-98.1989 361,-98.1989"/>
<text text-anchor="middle" x="421.5" y="-105.199" font-family="Helvetica,sans-Serif" font-size="10.00">displaySystemMessage</text>
</a>
</g>
</g>
<!-- Node4&#45;&gt;Node10 -->
<g id="edge10" class="edge"><title>Node4&#45;&gt;Node10</title>
<path fill="none" stroke="midnightblue" d="M298.475,-173.919C311.74,-161.394 336.389,-139.753 361,-126.699 365.043,-124.555 369.37,-122.601 373.777,-120.833"/>
<polygon fill="midnightblue" stroke="midnightblue" points="375.303,-124.001 383.476,-117.259 372.882,-117.433 375.303,-124.001"/>
</g>
<!-- Node11 -->
<g id="node11" class="node"><title>Node11</title>
<g id="a_node11"><a xlink:href="frontend_8js.html#a2e24b94e011170375215c3a8b745e9a4" target="_top" xlink:title="getCountConcept">
<polygon fill="white" stroke="black" points="375,-250.199 375,-269.199 468,-269.199 468,-250.199 375,-250.199"/>
<text text-anchor="middle" x="421.5" y="-257.199" font-family="Helvetica,sans-Serif" font-size="10.00">getCountConcept</text>
</a>
</g>
</g>
<!-- Node4&#45;&gt;Node11 -->
<g id="edge11" class="edge"><title>Node4&#45;&gt;Node11</title>
<path fill="none" stroke="midnightblue" d="M304.153,-193.211C310.754,-197.42 318.419,-202.572 325,-207.699 342.123,-221.038 342.224,-229.81 361,-240.699 364.641,-242.81 368.545,-244.718 372.55,-246.436"/>
<polygon fill="midnightblue" stroke="midnightblue" points="371.41,-249.748 381.998,-250.104 373.943,-243.222 371.41,-249.748"/>
</g>
<!-- Node13 -->
<g id="node13" class="node"><title>Node13</title>
<g id="a_node13"><a xlink:href="frontend_8js.html#add7d88a4ad05a1fb2478eff9a1857824" target="_top" xlink:title="getUsefulLinks">
<polygon fill="white" stroke="black" points="380.5,-212.199 380.5,-231.199 462.5,-231.199 462.5,-212.199 380.5,-212.199"/>
<text text-anchor="middle" x="421.5" y="-219.199" font-family="Helvetica,sans-Serif" font-size="10.00">getUsefulLinks</text>
</a>
</g>
</g>
<!-- Node4&#45;&gt;Node13 -->
<g id="edge16" class="edge"><title>Node4&#45;&gt;Node13</title>
<path fill="none" stroke="midnightblue" d="M319.782,-192.704C336.972,-197.653 358.555,-203.866 377.327,-209.27"/>
<polygon fill="midnightblue" stroke="midnightblue" points="376.557,-212.691 387.135,-212.094 378.493,-205.964 376.557,-212.691"/>
</g>
<!-- Node14 -->
<g id="node14" class="node"><title>Node14</title>
<g id="a_node14"><a xlink:href="frontend_8js.html#a5f8e953a90f434851f20518b1e3baeb6" target="_top" xlink:title="getArchives">
<polygon fill="white" stroke="black" points="387.5,-22.1989 387.5,-41.1989 455.5,-41.1989 455.5,-22.1989 387.5,-22.1989"/>
<text text-anchor="middle" x="421.5" y="-29.1989" font-family="Helvetica,sans-Serif" font-size="10.00">getArchives</text>
</a>
</g>
</g>
<!-- Node4&#45;&gt;Node14 -->
<g id="edge18" class="edge"><title>Node4&#45;&gt;Node14</title>
<path fill="none" stroke="midnightblue" d="M291.521,-173.905C299.265,-150.331 322.003,-89.862 361,-55.6989 365.948,-51.3639 371.781,-47.7517 377.825,-44.7595"/>
<polygon fill="midnightblue" stroke="midnightblue" points="379.654,-47.7789 387.403,-40.5531 376.839,-41.3698 379.654,-47.7789"/>
</g>
<!-- Node7&#45;&gt;Node2 -->
<g id="edge7" class="edge"><title>Node7&#45;&gt;Node2</title>
<path fill="none" stroke="midnightblue" d="M389.343,-288.356C355.125,-278.058 298.576,-260.93 250,-245.699 238.467,-242.083 225.955,-238.082 214.536,-234.401"/>
<polygon fill="midnightblue" stroke="midnightblue" points="215.427,-231.011 204.835,-231.266 213.274,-237.672 215.427,-231.011"/>
</g>
<!-- Node7&#45;&gt;Node8 -->
<g id="edge8" class="edge"><title>Node7&#45;&gt;Node8</title>
<path fill="none" stroke="midnightblue" d="M453.63,-297.699C477.891,-297.699 511.549,-297.699 536.604,-297.699"/>
<polygon fill="midnightblue" stroke="midnightblue" points="536.763,-301.199 546.763,-297.699 536.762,-294.199 536.763,-301.199"/>
</g>
<!-- Node11&#45;&gt;Node2 -->
<g id="edge12" class="edge"><title>Node11&#45;&gt;Node2</title>
<path fill="none" stroke="midnightblue" d="M374.667,-252.59C331.787,-245.939 267.948,-236.038 224.171,-229.248"/>
<polygon fill="midnightblue" stroke="midnightblue" points="224.469,-225.752 214.051,-227.678 223.396,-232.67 224.469,-225.752"/>
</g>
<!-- Node11&#45;&gt;Node5 -->
<g id="edge13" class="edge"><title>Node11&#45;&gt;Node5</title>
<path fill="none" stroke="midnightblue" d="M459.973,-250.11C479.392,-245.141 503.302,-239.022 523.954,-233.738"/>
<polygon fill="midnightblue" stroke="midnightblue" points="524.976,-237.089 533.797,-231.219 523.241,-230.307 524.976,-237.089"/>
</g>
<!-- Node11&#45;&gt;Node8 -->
<g id="edge14" class="edge"><title>Node11&#45;&gt;Node8</title>
<path fill="none" stroke="midnightblue" d="M459.973,-269.288C483.518,-275.313 513.664,-283.027 536.601,-288.896"/>
<polygon fill="midnightblue" stroke="midnightblue" points="536.027,-292.362 546.582,-291.451 537.762,-285.581 536.027,-292.362"/>
</g>
<!-- Node11&#45;&gt;Node12 -->
<g id="edge15" class="edge"><title>Node11&#45;&gt;Node12</title>
<path fill="none" stroke="midnightblue" d="M465.717,-250.108C471.549,-247.646 477.175,-244.562 482,-240.699 526.611,-204.985 553.517,-140.415 564.795,-108.149"/>
<polygon fill="midnightblue" stroke="midnightblue" points="568.159,-109.128 568.024,-98.5337 561.523,-106.9 568.159,-109.128"/>
</g>
<!-- Node13&#45;&gt;Node5 -->
<g id="edge17" class="edge"><title>Node13&#45;&gt;Node5</title>
<path fill="none" stroke="midnightblue" d="M462.686,-221.699C476.505,-221.699 492.333,-221.699 507.544,-221.699"/>
<polygon fill="midnightblue" stroke="midnightblue" points="507.943,-225.199 517.943,-221.699 507.943,-218.199 507.943,-225.199"/>
</g>
</g>
</svg>
        <g id="navigator" transform="translate(0 0)" fill="#404254">
                <rect fill="#f2f5e9" fill-opacity="0.5" stroke="#606060" stroke-width=".5" x="0" y="0" width="60" height="60"/>
                <use id="zoomplus" xlink:href="#zoomPlus" x="17" y="9" onmousedown="handleZoom(evt,'in')"/>
                <use id="zoomminus" xlink:href="#zoomMin" x="42" y="9" onmousedown="handleZoom(evt,'out')"/>
                <use id="reset" xlink:href="#resetDef" x="30" y="36" onmousedown="handleReset()"/>
                <g id="arrowUp" xlink:href="#dirArrow" transform="translate(30 24)" onmousedown="handlePan(0,-1)">
                  <use xlink:href="#rim" fill="#404040">
                        <set attributeName="fill" to="#808080" begin="arrowUp.mouseover" end="arrowUp.mouseout"/>
                  </use>
                  <path fill="none" stroke="white" stroke-width="1.5" d="M0,-3.0v7 M-2.5,-0.5L0,-3.0L2.5,-0.5"/>
                </g>
                <g id="arrowRight" xlink:href="#dirArrow" transform="rotate(90) translate(36 -43)" onmousedown="handlePan(1,0)">
                  <use xlink:href="#rim" fill="#404040">
                        <set attributeName="fill" to="#808080" begin="arrowRight.mouseover" end="arrowRight.mouseout"/>
                  </use>
                  <path fill="none" stroke="white" stroke-width="1.5" d="M0,-3.0v7 M-2.5,-0.5L0,-3.0L2.5,-0.5"/>
                </g>
                <g id="arrowDown" xlink:href="#dirArrow" transform="rotate(180) translate(-30 -48)" onmousedown="handlePan(0,1)">
                  <use xlink:href="#rim" fill="#404040">
                        <set attributeName="fill" to="#808080" begin="arrowDown.mouseover" end="arrowDown.mouseout"/>
                  </use>
                  <path fill="none" stroke="white" stroke-width="1.5" d="M0,-3.0v7 M-2.5,-0.5L0,-3.0L2.5,-0.5"/>
                </g>
                <g id="arrowLeft" xlink:href="#dirArrow" transform="rotate(270) translate(-36 17)" onmousedown="handlePan(-1,0)">
                  <use xlink:href="#rim" fill="#404040">
                        <set attributeName="fill" to="#808080" begin="arrowLeft.mouseover" end="arrowLeft.mouseout"/>
                  </use>
                  <path fill="none" stroke="white" stroke-width="1.5" d="M0,-3.0v7 M-2.5,-0.5L0,-3.0L2.5,-0.5"/>
                </g>
        </g>
        <svg viewBox="0 0 15 15" width="100%" height="30px" preserveAspectRatio="xMaxYMin meet">
         <g id="arrow_out" transform="scale(0.3 0.3)">
          <a xlink:href="frontend_8js_a816e9b3b3cd90b9b151a46331c601fbe_cgraph_org.svg" target="_base">
           <rect id="button" ry="5" rx="5" y="6" x="6" height="38" width="38"
                fill="#f2f5e9" fill-opacity="0.5" stroke="#606060" stroke-width="1.0"/>
           <path id="arrow"
             d="M 11.500037,31.436501 C 11.940474,20.09759 22.043105,11.32322 32.158766,21.979434 L 37.068811,17.246167 C 37.068811,17.246167 37.088388,32 37.088388,32 L 22.160133,31.978069 C 22.160133,31.978069 26.997745,27.140456 26.997745,27.140456 C 18.528582,18.264221 13.291696,25.230495 11.500037,31.436501 z"
             style="fill:#404040;"/>
          </a>
         </g>
        </svg>
</svg>
