<?xml version="1.0" encoding="UTF-8" standalone="no"?>
<!DOCTYPE svg PUBLIC "-//W3C//DTD SVG 1.1//EN"
 "http://www.w3.org/Graphics/SVG/1.1/DTD/svg11.dtd">
<!-- Generated by graphviz version 2.38.0 (20140413.2041)
 -->
<!-- Title: getUsefulLinks Pages: 1 -->
<svg width="601pt" height="104pt"
 viewBox="0.00 0.00 601.00 104.00" xmlns="http://www.w3.org/2000/svg" xmlns:xlink="http://www.w3.org/1999/xlink">
<g id="graph0" class="graph" transform="scale(1 1) rotate(0) translate(4 100)">
<title>getUsefulLinks</title>
<polygon fill="white" stroke="none" points="-4,4 -4,-100 597,-100 597,4 -4,4"/>
<!-- Node1 -->
<g id="node1" class="node"><title>Node1</title>
<polygon fill="#bfbfbf" stroke="black" points="0,-38.5 0,-57.5 82,-57.5 82,-38.5 0,-38.5"/>
<text text-anchor="middle" x="41" y="-45.5" font-family="Helvetica,sans-Serif" font-size="10.00">getUsefulLinks</text>
</g>
<!-- Node2 -->
<g id="node2" class="node"><title>Node2</title>
<g id="a_node2"><a xlink:href="frontend_8js.html#a2f4ec7b87c92d886af91eccd0080c024" target="_top" xlink:title="populateUI">
<polygon fill="white" stroke="black" points="118,-38.5 118,-57.5 182,-57.5 182,-38.5 118,-38.5"/>
<text text-anchor="middle" x="150" y="-45.5" font-family="Helvetica,sans-Serif" font-size="10.00">populateUI</text>
</a>
</g>
</g>
<!-- Node1&#45;&gt;Node2 -->
<g id="edge1" class="edge"><title>Node1&#45;&gt;Node2</title>
<path fill="none" stroke="midnightblue" d="M92.3196,-48C101.078,-48 109.95,-48 117.993,-48"/>
<polygon fill="midnightblue" stroke="midnightblue" points="92.1473,-44.5001 82.1473,-48 92.1472,-51.5001 92.1473,-44.5001"/>
</g>
<!-- Node3 -->
<g id="node3" class="node"><title>Node3</title>
<g id="a_node3"><a xlink:href="frontend_8js.html#a026aacb2020ed839706c99a8805c244b" target="_top" xlink:title="showProgress">
<polygon fill="white" stroke="black" points="218,-57.5 218,-76.5 297,-76.5 297,-57.5 218,-57.5"/>
<text text-anchor="middle" x="257.5" y="-64.5" font-family="Helvetica,sans-Serif" font-size="10.00">showProgress</text>
</a>
</g>
</g>
<!-- Node2&#45;&gt;Node3 -->
<g id="edge2" class="edge"><title>Node2&#45;&gt;Node3</title>
<path fill="none" stroke="midnightblue" d="M192.113,-55.4043C200.558,-56.9251 209.421,-58.5213 217.777,-60.0263"/>
<polygon fill="midnightblue" stroke="midnightblue" points="192.545,-51.9258 182.083,-53.5979 191.304,-58.815 192.545,-51.9258"/>
</g>
<!-- Node4 -->
<g id="node4" class="node"><title>Node4</title>
<g id="a_node4"><a xlink:href="frontend_8js.html#a816e9b3b3cd90b9b151a46331c601fbe" target="_top" xlink:title="getCurrentRecords">
<polygon fill="white" stroke="black" points="333,-38.5 333,-57.5 432,-57.5 432,-38.5 333,-38.5"/>
<text text-anchor="middle" x="382.5" y="-45.5" font-family="Helvetica,sans-Serif" font-size="10.00">getCurrentRecords</text>
</a>
</g>
</g>
<!-- Node3&#45;&gt;Node4 -->
<g id="edge3" class="edge"><title>Node3&#45;&gt;Node4</title>
<path fill="none" stroke="midnightblue" d="M307.112,-59.4909C315.508,-58.1938 324.241,-56.8449 332.644,-55.5468"/>
<polygon fill="midnightblue" stroke="midnightblue" points="306.429,-56.0547 297.08,-61.0404 307.498,-62.9727 306.429,-56.0547"/>
</g>
<!-- Node6 -->
<g id="node6" class="node"><title>Node6</title>
<g id="a_node6"><a xlink:href="frontend_8js.html#a2e24b94e011170375215c3a8b745e9a4" target="_top" xlink:title="getCountConcept">
<polygon fill="white" stroke="black" points="336,-0.5 336,-19.5 429,-19.5 429,-0.5 336,-0.5"/>
<text text-anchor="middle" x="382.5" y="-7.5" font-family="Helvetica,sans-Serif" font-size="10.00">getCountConcept</text>
</a>
</g>
</g>
<!-- Node3&#45;&gt;Node6 -->
<g id="edge6" class="edge"><title>Node3&#45;&gt;Node6</title>
<path fill="none" stroke="midnightblue" d="M285.131,-52.6128C299.203,-45.2161 316.861,-36.2563 333,-29 340.258,-25.7367 348.257,-22.4718 355.63,-19.592"/>
<polygon fill="midnightblue" stroke="midnightblue" points="283.218,-49.6655 276.024,-57.4437 286.498,-55.8493 283.218,-49.6655"/>
</g>
<!-- Node7 -->
<g id="node7" class="node"><title>Node7</title>
<g id="a_node7"><a xlink:href="frontend_8js.html#aa6fd7ff8d2590761fcda0342978b0b22" target="_top" xlink:title="getCitation">
<polygon fill="white" stroke="black" points="350.5,-76.5 350.5,-95.5 414.5,-95.5 414.5,-76.5 350.5,-76.5"/>
<text text-anchor="middle" x="382.5" y="-83.5" font-family="Helvetica,sans-Serif" font-size="10.00">getCitation</text>
</a>
</g>
</g>
<!-- Node3&#45;&gt;Node7 -->
<g id="edge8" class="edge"><title>Node3&#45;&gt;Node7</title>
<path fill="none" stroke="midnightblue" d="M307.001,-74.492C321.63,-76.7518 337.288,-79.1705 350.454,-81.2043"/>
<polygon fill="midnightblue" stroke="midnightblue" points="307.498,-71.0273 297.08,-72.9596 306.429,-77.9453 307.498,-71.0273"/>
</g>
<!-- Node4&#45;&gt;Node2 -->
<g id="edge5" class="edge"><title>Node4&#45;&gt;Node2</title>
<path fill="none" stroke="midnightblue" d="M322.67,-48C277.88,-48 217.997,-48 182.086,-48"/>
<polygon fill="midnightblue" stroke="midnightblue" points="322.844,-51.5001 332.844,-48 322.844,-44.5001 322.844,-51.5001"/>
</g>
<!-- Node5 -->
<g id="node5" class="node"><title>Node5</title>
<g id="a_node5"><a xlink:href="class_bms_1_1_bms.html#aec5f7b55928d9eb969567ab87ea9e021" target="_top" xlink:title="Bms\\Bms\\frontController">
<polygon fill="white" stroke="black" points="468,-57.5 468,-76.5 593,-76.5 593,-57.5 468,-57.5"/>
<text text-anchor="middle" x="530.5" y="-64.5" font-family="Helvetica,sans-Serif" font-size="10.00">Bms\Bms\frontController</text>
</a>
</g>
</g>
<!-- Node4&#45;&gt;Node5 -->
<g id="edge4" class="edge"><title>Node4&#45;&gt;Node5</title>
<path fill="none" stroke="midnightblue" d="M442.238,-55.6439C450.669,-56.7412 459.365,-57.8728 467.851,-58.9771"/>
<polygon fill="midnightblue" stroke="midnightblue" points="442.484,-52.1466 432.116,-54.3267 441.581,-59.088 442.484,-52.1466"/>
</g>
<!-- Node6&#45;&gt;Node2 -->
<g id="edge7" class="edge"><title>Node6&#45;&gt;Node2</title>
<path fill="none" stroke="midnightblue" d="M325.918,-19.1632C280.813,-26.5991 218.873,-36.8106 182.086,-42.8752"/>
<polygon fill="midnightblue" stroke="midnightblue" points="326.547,-22.6068 335.844,-17.5267 325.408,-15.7001 326.547,-22.6068"/>
</g>
<!-- Node7&#45;&gt;Node2 -->
<g id="edge10" class="edge"><title>Node7&#45;&gt;Node2</title>
<path fill="none" stroke="midnightblue" d="M340.125,-91.7537C306.615,-95.0532 258.492,-96.6835 218,-86 197.312,-80.5416 176.312,-67.0625 163.471,-57.7207"/>
<polygon fill="midnightblue" stroke="midnightblue" points="340.897,-95.1908 350.463,-90.6373 340.145,-88.2313 340.897,-95.1908"/>
</g>
<!-- Node7&#45;&gt;Node5 -->
<g id="edge9" class="edge"><title>Node7&#45;&gt;Node5</title>
<path fill="none" stroke="midnightblue" d="M425.089,-80.5878C438.408,-78.8544 453.452,-76.8967 467.886,-75.0182"/>
<polygon fill="midnightblue" stroke="midnightblue" points="424.285,-77.1627 414.821,-81.924 425.189,-84.1042 424.285,-77.1627"/>
</g>
</g>
</svg>
