<?xml version="1.0" encoding="UTF-8" standalone="no"?>
<!DOCTYPE svg PUBLIC "-//W3C//DTD SVG 1.1//EN"
 "http://www.w3.org/Graphics/SVG/1.1/DTD/svg11.dtd">
<!-- Generated by graphviz version 2.38.0 (20140413.2041)
 -->
<!-- Title: getMessages Pages: 1 -->
<svg width="503pt" height="256pt"
 viewBox="0.00 0.00 503.00 256.00" xmlns="http://www.w3.org/2000/svg" xmlns:xlink="http://www.w3.org/1999/xlink">
<g id="graph0" class="graph" transform="scale(1 1) rotate(0) translate(4 252)">
<title>getMessages</title>
<polygon fill="white" stroke="none" points="-4,4 -4,-252 499,-252 499,4 -4,4"/>
<!-- Node1 -->
<g id="node1" class="node"><title>Node1</title>
<polygon fill="#bfbfbf" stroke="black" points="0,-57.5 0,-76.5 75,-76.5 75,-57.5 0,-57.5"/>
<text text-anchor="middle" x="37.5" y="-64.5" font-family="Helvetica,sans-Serif" font-size="10.00">getMessages</text>
</g>
<!-- Node2 -->
<g id="node2" class="node"><title>Node2</title>
<g id="a_node2"><a xlink:href="class_bms_1_1_bms.html#aec5f7b55928d9eb969567ab87ea9e021" target="_top" xlink:title="Bms\\Bms\\frontController">
<polygon fill="white" stroke="black" points="367,-114.5 367,-133.5 492,-133.5 492,-114.5 367,-114.5"/>
<text text-anchor="middle" x="429.5" y="-121.5" font-family="Helvetica,sans-Serif" font-size="10.00">Bms\Bms\frontController</text>
</a>
</g>
</g>
<!-- Node1&#45;&gt;Node2 -->
<g id="edge1" class="edge"><title>Node1&#45;&gt;Node2</title>
<path fill="none" stroke="midnightblue" d="M85.3544,-72.3271C142.702,-79.0367 242.71,-91.3512 328,-105 345.359,-107.778 364.321,-111.249 381.051,-114.461"/>
<polygon fill="midnightblue" stroke="midnightblue" points="85.4936,-68.8197 75.1561,-71.1404 84.6845,-75.7728 85.4936,-68.8197"/>
</g>
<!-- Node3 -->
<g id="node3" class="node"><title>Node3</title>
<g id="a_node3"><a xlink:href="backend_8js.html#a40b1dad19404febd0ef4c2b8be5e1033" target="_top" xlink:title="getAllMetadata">
<polygon fill="white" stroke="black" points="111,-38.5 111,-57.5 193,-57.5 193,-38.5 111,-38.5"/>
<text text-anchor="middle" x="152" y="-45.5" font-family="Helvetica,sans-Serif" font-size="10.00">getAllMetadata</text>
</a>
</g>
</g>
<!-- Node1&#45;&gt;Node3 -->
<g id="edge2" class="edge"><title>Node1&#45;&gt;Node3</title>
<path fill="none" stroke="midnightblue" d="M84.9062,-59.1625C93.489,-57.713 102.388,-56.2101 110.768,-54.7947"/>
<polygon fill="midnightblue" stroke="midnightblue" points="84.303,-55.7147 75.0255,-60.8312 85.4688,-62.617 84.303,-55.7147"/>
</g>
<!-- Node6 -->
<g id="node6" class="node"><title>Node6</title>
<g id="a_node6"><a xlink:href="consistency_8js.html#a0e434d0abe4686a98fa7119ad3b98a23" target="_top" xlink:title="fire">
<polygon fill="white" stroke="black" points="137,-0.5 137,-19.5 167,-19.5 167,-0.5 137,-0.5"/>
<text text-anchor="middle" x="152" y="-7.5" font-family="Helvetica,sans-Serif" font-size="10.00">fire</text>
</a>
</g>
</g>
<!-- Node1&#45;&gt;Node6 -->
<g id="edge6" class="edge"><title>Node1&#45;&gt;Node6</title>
<path fill="none" stroke="midnightblue" d="M65.1411,-52.7164C78.789,-45.4807 95.7113,-36.6341 111,-29 119.529,-24.7412 129.18,-20.1504 136.866,-16.5483"/>
<polygon fill="midnightblue" stroke="midnightblue" points="63.4599,-49.6463 56.2761,-57.4336 66.7482,-55.8259 63.4599,-49.6463"/>
</g>
<!-- Node7 -->
<g id="node7" class="node"><title>Node7</title>
<g id="a_node7"><a xlink:href="frontend_8js.html#a026aacb2020ed839706c99a8805c244b" target="_top" xlink:title="showProgress">
<polygon fill="white" stroke="black" points="112.5,-152.5 112.5,-171.5 191.5,-171.5 191.5,-152.5 112.5,-152.5"/>
<text text-anchor="middle" x="152" y="-159.5" font-family="Helvetica,sans-Serif" font-size="10.00">showProgress</text>
</a>
</g>
</g>
<!-- Node1&#45;&gt;Node7 -->
<g id="edge7" class="edge"><title>Node1&#45;&gt;Node7</title>
<path fill="none" stroke="midnightblue" d="M58.0466,-83.5061C81.6245,-103.416 120.472,-136.221 139.615,-152.386"/>
<polygon fill="midnightblue" stroke="midnightblue" points="60.0142,-80.5866 50.1157,-76.8089 55.4979,-85.9348 60.0142,-80.5866"/>
</g>
<!-- Node4 -->
<g id="node4" class="node"><title>Node4</title>
<g id="a_node4"><a xlink:href="backend_8js.html#a6879c4dc7db6793991cd72ab19ca85ea" target="_top" xlink:title="getProviders">
<polygon fill="white" stroke="black" points="243,-38.5 243,-57.5 314,-57.5 314,-38.5 243,-38.5"/>
<text text-anchor="middle" x="278.5" y="-45.5" font-family="Helvetica,sans-Serif" font-size="10.00">getProviders</text>
</a>
</g>
</g>
<!-- Node3&#45;&gt;Node4 -->
<g id="edge3" class="edge"><title>Node3&#45;&gt;Node4</title>
<path fill="none" stroke="midnightblue" d="M203.105,-41.3655C216.472,-41.1083 230.616,-41.2806 242.941,-41.8825"/>
<polygon fill="midnightblue" stroke="midnightblue" points="202.976,-37.8676 193.078,-41.6459 203.172,-44.8649 202.976,-37.8676"/>
</g>
<!-- Node4&#45;&gt;Node3 -->
<g id="edge5" class="edge"><title>Node4&#45;&gt;Node3</title>
<path fill="none" stroke="midnightblue" d="M232.819,-54.5051C219.842,-54.876 205.754,-54.8256 193.078,-54.3541"/>
<polygon fill="midnightblue" stroke="midnightblue" points="233.083,-57.9977 242.941,-54.1175 232.815,-51.0028 233.083,-57.9977"/>
</g>
<!-- Node5 -->
<g id="node5" class="node"><title>Node5</title>
<g id="a_node5"><a xlink:href="namespace_webservices.html#a982728deb9ddc1d58b4496ef46159b73" target="_top" xlink:title="Webservices\\getProviders">
<polygon fill="white" stroke="black" points="364,-38.5 364,-57.5 495,-57.5 495,-38.5 364,-38.5"/>
<text text-anchor="middle" x="429.5" y="-45.5" font-family="Helvetica,sans-Serif" font-size="10.00">Webservices\getProviders</text>
</a>
</g>
</g>
<!-- Node4&#45;&gt;Node5 -->
<g id="edge4" class="edge"><title>Node4&#45;&gt;Node5</title>
<path fill="none" stroke="midnightblue" d="M324.212,-48C336.722,-48 350.574,-48 363.986,-48"/>
<polygon fill="midnightblue" stroke="midnightblue" points="324.058,-44.5001 314.058,-48 324.058,-51.5001 324.058,-44.5001"/>
</g>
<!-- Node8 -->
<g id="node8" class="node"><title>Node8</title>
<g id="a_node8"><a xlink:href="frontend_8js.html#a816e9b3b3cd90b9b151a46331c601fbe" target="_top" xlink:title="getCurrentRecords">
<polygon fill="white" stroke="black" points="229,-114.5 229,-133.5 328,-133.5 328,-114.5 229,-114.5"/>
<text text-anchor="middle" x="278.5" y="-121.5" font-family="Helvetica,sans-Serif" font-size="10.00">getCurrentRecords</text>
</a>
</g>
</g>
<!-- Node7&#45;&gt;Node8 -->
<g id="edge8" class="edge"><title>Node7&#45;&gt;Node8</title>
<path fill="none" stroke="midnightblue" d="M194.07,-149.465C211.006,-144.295 230.318,-138.401 246.093,-133.586"/>
<polygon fill="midnightblue" stroke="midnightblue" points="192.959,-146.144 184.417,-152.411 195.003,-152.839 192.959,-146.144"/>
</g>
<!-- Node10 -->
<g id="node10" class="node"><title>Node10</title>
<g id="a_node10"><a xlink:href="frontend_8js.html#a2e24b94e011170375215c3a8b745e9a4" target="_top" xlink:title="getCountConcept">
<polygon fill="white" stroke="black" points="232,-228.5 232,-247.5 325,-247.5 325,-228.5 232,-228.5"/>
<text text-anchor="middle" x="278.5" y="-235.5" font-family="Helvetica,sans-Serif" font-size="10.00">getCountConcept</text>
</a>
</g>
</g>
<!-- Node7&#45;&gt;Node10 -->
<g id="edge12" class="edge"><title>Node7&#45;&gt;Node10</title>
<path fill="none" stroke="midnightblue" d="M173.903,-177.48C188.886,-188.28 209.741,-202.721 229,-214 237.755,-219.127 247.755,-224.2 256.392,-228.352"/>
<polygon fill="midnightblue" stroke="midnightblue" points="175.961,-174.649 165.816,-171.593 171.841,-180.308 175.961,-174.649"/>
</g>
<!-- Node11 -->
<g id="node11" class="node"><title>Node11</title>
<g id="a_node11"><a xlink:href="frontend_8js.html#aa6fd7ff8d2590761fcda0342978b0b22" target="_top" xlink:title="getCitation">
<polygon fill="white" stroke="black" points="246.5,-152.5 246.5,-171.5 310.5,-171.5 310.5,-152.5 246.5,-152.5"/>
<text text-anchor="middle" x="278.5" y="-159.5" font-family="Helvetica,sans-Serif" font-size="10.00">getCitation</text>
</a>
</g>
</g>
<!-- Node7&#45;&gt;Node11 -->
<g id="edge14" class="edge"><title>Node7&#45;&gt;Node11</title>
<path fill="none" stroke="midnightblue" d="M201.851,-162C216.815,-162 232.864,-162 246.312,-162"/>
<polygon fill="midnightblue" stroke="midnightblue" points="201.71,-158.5 191.71,-162 201.71,-165.5 201.71,-158.5"/>
</g>
<!-- Node8&#45;&gt;Node2 -->
<g id="edge9" class="edge"><title>Node8&#45;&gt;Node2</title>
<path fill="none" stroke="midnightblue" d="M338.291,-124C347.662,-124 357.381,-124 366.817,-124"/>
<polygon fill="midnightblue" stroke="midnightblue" points="338.288,-120.5 328.288,-124 338.288,-127.5 338.288,-120.5"/>
</g>
<!-- Node9 -->
<g id="node9" class="node"><title>Node9</title>
<g id="a_node9"><a xlink:href="frontend_8js.html#a2f4ec7b87c92d886af91eccd0080c024" target="_top" xlink:title="populateUI">
<polygon fill="white" stroke="black" points="397.5,-171.5 397.5,-190.5 461.5,-190.5 461.5,-171.5 397.5,-171.5"/>
<text text-anchor="middle" x="429.5" y="-178.5" font-family="Helvetica,sans-Serif" font-size="10.00">populateUI</text>
</a>
</g>
</g>
<!-- Node8&#45;&gt;Node9 -->
<g id="edge10" class="edge"><title>Node8&#45;&gt;Node9</title>
<path fill="none" stroke="midnightblue" d="M314.013,-137.203C341.372,-147.669 378.954,-162.046 403.479,-171.428"/>
<polygon fill="midnightblue" stroke="midnightblue" points="315.03,-133.845 304.439,-133.541 312.529,-140.383 315.03,-133.845"/>
</g>
<!-- Node9&#45;&gt;Node7 -->
<g id="edge11" class="edge"><title>Node9&#45;&gt;Node7</title>
<path fill="none" stroke="midnightblue" d="M387.229,-183.93C346.759,-186.115 283.392,-187.696 229,-181 213.882,-179.139 197.445,-175.269 183.737,-171.505"/>
<polygon fill="midnightblue" stroke="midnightblue" points="387.474,-187.422 397.255,-183.351 387.07,-180.434 387.474,-187.422"/>
</g>
<!-- Node10&#45;&gt;Node9 -->
<g id="edge13" class="edge"><title>Node10&#45;&gt;Node9</title>
<path fill="none" stroke="midnightblue" d="M314.013,-224.797C341.372,-214.331 378.954,-199.954 403.479,-190.572"/>
<polygon fill="midnightblue" stroke="midnightblue" points="312.529,-221.617 304.439,-228.459 315.03,-228.155 312.529,-221.617"/>
</g>
<!-- Node11&#45;&gt;Node2 -->
<g id="edge15" class="edge"><title>Node11&#45;&gt;Node2</title>
<path fill="none" stroke="midnightblue" d="M320.511,-151.541C342.633,-145.899 369.73,-138.988 391.246,-133.501"/>
<polygon fill="midnightblue" stroke="midnightblue" points="319.56,-148.171 310.735,-154.034 321.29,-154.954 319.56,-148.171"/>
</g>
<!-- Node11&#45;&gt;Node9 -->
<g id="edge16" class="edge"><title>Node11&#45;&gt;Node9</title>
<path fill="none" stroke="midnightblue" d="M320.714,-167.255C344.935,-170.344 375.064,-174.186 397.306,-177.022"/>
<polygon fill="midnightblue" stroke="midnightblue" points="321.098,-163.776 310.735,-165.983 320.212,-170.72 321.098,-163.776"/>
</g>
</g>
</svg>
