<?xml version="1.0" encoding="UTF-8" standalone="no"?>
<!DOCTYPE svg PUBLIC "-//W3C//DTD SVG 1.1//EN"
 "http://www.w3.org/Graphics/SVG/1.1/DTD/svg11.dtd">
<!-- Generated by graphviz version 2.38.0 (20140413.2041)
 -->
<!-- Title: logbook Pages: 1 -->
<svg width="698pt" height="127pt"
 viewBox="0.00 0.00 698.00 127.31" xmlns="http://www.w3.org/2000/svg" xmlns:xlink="http://www.w3.org/1999/xlink">
<g id="graph0" class="graph" transform="scale(1 1) rotate(0) translate(4 123.309)">
<title>logbook</title>
<polygon fill="white" stroke="none" points="-4,4 -4,-123.309 694,-123.309 694,4 -4,4"/>
<!-- Node1 -->
<g id="node1" class="node"><title>Node1</title>
<polygon fill="#bfbfbf" stroke="black" points="0,-23.8089 0,-42.8089 50,-42.8089 50,-23.8089 0,-23.8089"/>
<text text-anchor="middle" x="25" y="-30.8089" font-family="Helvetica,sans-Serif" font-size="10.00">logbook</text>
</g>
<!-- Node2 -->
<g id="node2" class="node"><title>Node2</title>
<g id="a_node2"><a xlink:href="frontend_8js.html#a816e9b3b3cd90b9b151a46331c601fbe" target="_top" xlink:title="getCurrentRecords">
<polygon fill="white" stroke="black" points="86,-23.8089 86,-42.8089 185,-42.8089 185,-23.8089 86,-23.8089"/>
<text text-anchor="middle" x="135.5" y="-30.8089" font-family="Helvetica,sans-Serif" font-size="10.00">getCurrentRecords</text>
</a>
</g>
</g>
<!-- Node1&#45;&gt;Node2 -->
<g id="edge1" class="edge"><title>Node1&#45;&gt;Node2</title>
<path fill="none" stroke="midnightblue" d="M60.2083,-33.3089C68.2695,-33.3089 77.0177,-33.3089 85.5865,-33.3089"/>
<polygon fill="midnightblue" stroke="midnightblue" points="60.0797,-29.809 50.0797,-33.3089 60.0796,-36.809 60.0797,-29.809"/>
</g>
<!-- Node6 -->
<g id="node6" class="node"><title>Node6</title>
<g id="a_node6"><a xlink:href="frontend_8js.html#a2e24b94e011170375215c3a8b745e9a4" target="_top" xlink:title="getCountConcept">
<polygon fill="white" stroke="black" points="436,-99.8089 436,-118.809 529,-118.809 529,-99.8089 436,-99.8089"/>
<text text-anchor="middle" x="482.5" y="-106.809" font-family="Helvetica,sans-Serif" font-size="10.00">getCountConcept</text>
</a>
</g>
</g>
<!-- Node1&#45;&gt;Node6 -->
<g id="edge11" class="edge"><title>Node1&#45;&gt;Node6</title>
<path fill="none" stroke="midnightblue" d="M59.8245,-44.2302C68.3508,-46.9252 77.4976,-49.7668 86,-52.3089 188.581,-82.9794 214.336,-96.016 321,-105.309 359.598,-108.672 403.598,-109.562 435.756,-109.673"/>
<polygon fill="midnightblue" stroke="midnightblue" points="60.7664,-40.857 50.1759,-41.1604 58.6441,-47.5276 60.7664,-40.857"/>
</g>
<!-- Node7 -->
<g id="node7" class="node"><title>Node7</title>
<g id="a_node7"><a xlink:href="frontend_8js.html#aa6fd7ff8d2590761fcda0342978b0b22" target="_top" xlink:title="getCitation">
<polygon fill="white" stroke="black" points="450.5,-23.8089 450.5,-42.8089 514.5,-42.8089 514.5,-23.8089 450.5,-23.8089"/>
<text text-anchor="middle" x="482.5" y="-30.8089" font-family="Helvetica,sans-Serif" font-size="10.00">getCitation</text>
</a>
</g>
</g>
<!-- Node1&#45;&gt;Node7 -->
<g id="edge12" class="edge"><title>Node1&#45;&gt;Node7</title>
<path fill="none" stroke="midnightblue" d="M59.6768,-20.6577C68.1488,-18.0296 77.3074,-15.6523 86,-14.3089 223.918,7.00654 261.359,1.63796 400,-14.3089 416.887,-16.2513 435.362,-20.3869 450.446,-24.3053"/>
<polygon fill="midnightblue" stroke="midnightblue" points="58.5163,-17.3549 50.1158,-23.8112 60.7089,-24.0027 58.5163,-17.3549"/>
</g>
<!-- Node3 -->
<g id="node3" class="node"><title>Node3</title>
<g id="a_node3"><a xlink:href="class_bms_1_1_bms.html#aec5f7b55928d9eb969567ab87ea9e021" target="_top" xlink:title="Bms\\Bms\\frontController">
<polygon fill="white" stroke="black" points="565,-4.80889 565,-23.8089 690,-23.8089 690,-4.80889 565,-4.80889"/>
<text text-anchor="middle" x="627.5" y="-11.8089" font-family="Helvetica,sans-Serif" font-size="10.00">Bms\Bms\frontController</text>
</a>
</g>
</g>
<!-- Node2&#45;&gt;Node3 -->
<g id="edge2" class="edge"><title>Node2&#45;&gt;Node3</title>
<path fill="none" stroke="midnightblue" d="M195.701,-25.6516C231.831,-21.3674 278.999,-16.4658 321,-14.3089 405.352,-9.97701 502.978,-11.0346 564.722,-12.4527"/>
<polygon fill="midnightblue" stroke="midnightblue" points="194.85,-22.2287 185.34,-26.899 195.687,-29.1786 194.85,-22.2287"/>
</g>
<!-- Node4 -->
<g id="node4" class="node"><title>Node4</title>
<g id="a_node4"><a xlink:href="frontend_8js.html#a2f4ec7b87c92d886af91eccd0080c024" target="_top" xlink:title="populateUI">
<polygon fill="white" stroke="black" points="221,-61.8089 221,-80.8089 285,-80.8089 285,-61.8089 221,-61.8089"/>
<text text-anchor="middle" x="253" y="-68.8089" font-family="Helvetica,sans-Serif" font-size="10.00">populateUI</text>
</a>
</g>
</g>
<!-- Node2&#45;&gt;Node4 -->
<g id="edge3" class="edge"><title>Node2&#45;&gt;Node4</title>
<path fill="none" stroke="midnightblue" d="M175.484,-46.1348C190.982,-51.2336 208.502,-56.998 222.864,-61.723"/>
<polygon fill="midnightblue" stroke="midnightblue" points="176.238,-42.6985 165.646,-42.8979 174.051,-49.3479 176.238,-42.6985"/>
</g>
<!-- Node5 -->
<g id="node5" class="node"><title>Node5</title>
<g id="a_node5"><a xlink:href="frontend_8js.html#a026aacb2020ed839706c99a8805c244b" target="_top" xlink:title="showProgress">
<polygon fill="white" stroke="black" points="321,-23.8089 321,-42.8089 400,-42.8089 400,-23.8089 321,-23.8089"/>
<text text-anchor="middle" x="360.5" y="-30.8089" font-family="Helvetica,sans-Serif" font-size="10.00">showProgress</text>
</a>
</g>
</g>
<!-- Node4&#45;&gt;Node5 -->
<g id="edge4" class="edge"><title>Node4&#45;&gt;Node5</title>
<path fill="none" stroke="midnightblue" d="M290.42,-58.1909C304.373,-53.1649 320.018,-47.5298 332.886,-42.8948"/>
<polygon fill="midnightblue" stroke="midnightblue" points="288.844,-55.0381 280.622,-61.7199 291.217,-61.624 288.844,-55.0381"/>
</g>
<!-- Node5&#45;&gt;Node2 -->
<g id="edge5" class="edge"><title>Node5&#45;&gt;Node2</title>
<path fill="none" stroke="midnightblue" d="M310.815,-33.3089C273.558,-33.3089 222.414,-33.3089 185.163,-33.3089"/>
<polygon fill="midnightblue" stroke="midnightblue" points="310.932,-36.809 320.932,-33.3089 310.932,-29.809 310.932,-36.809"/>
</g>
<!-- Node5&#45;&gt;Node6 -->
<g id="edge6" class="edge"><title>Node5&#45;&gt;Node6</title>
<path fill="none" stroke="midnightblue" d="M385.274,-48.3657C409.402,-63.6469 446.023,-86.84 466.425,-99.7616"/>
<polygon fill="midnightblue" stroke="midnightblue" points="387.019,-45.328 376.698,-42.9343 383.274,-51.2418 387.019,-45.328"/>
</g>
<!-- Node5&#45;&gt;Node7 -->
<g id="edge8" class="edge"><title>Node5&#45;&gt;Node7</title>
<path fill="none" stroke="midnightblue" d="M410.23,-33.3089C423.701,-33.3089 437.959,-33.3089 450.153,-33.3089"/>
<polygon fill="midnightblue" stroke="midnightblue" points="410.129,-29.809 400.129,-33.3089 410.129,-36.809 410.129,-29.809"/>
</g>
<!-- Node6&#45;&gt;Node4 -->
<g id="edge7" class="edge"><title>Node6&#45;&gt;Node4</title>
<path fill="none" stroke="midnightblue" d="M425.575,-101.752C394.672,-97.3739 355.634,-91.5115 321,-85.3089 309.303,-83.2141 296.521,-80.6196 285.286,-78.2355"/>
<polygon fill="midnightblue" stroke="midnightblue" points="425.336,-105.253 435.725,-103.178 426.31,-98.3207 425.336,-105.253"/>
</g>
<!-- Node7&#45;&gt;Node3 -->
<g id="edge9" class="edge"><title>Node7&#45;&gt;Node3</title>
<path fill="none" stroke="midnightblue" d="M524.682,-27.8372C537.251,-26.1671 551.355,-24.2932 564.967,-22.4846"/>
<polygon fill="midnightblue" stroke="midnightblue" points="523.981,-24.3995 514.529,-29.1862 524.903,-31.3385 523.981,-24.3995"/>
</g>
<!-- Node7&#45;&gt;Node4 -->
<g id="edge10" class="edge"><title>Node7&#45;&gt;Node4</title>
<path fill="none" stroke="midnightblue" d="M440.339,-43.7458C427.476,-46.7803 413.198,-49.9178 400,-52.3089 360.638,-59.44 314.839,-64.953 285.183,-68.1611"/>
<polygon fill="midnightblue" stroke="midnightblue" points="441.399,-47.0908 450.304,-41.3504 439.762,-40.2847 441.399,-47.0908"/>
</g>
</g>
</svg>
