<?xml version="1.0" encoding="UTF-8" standalone="no"?>
<!DOCTYPE svg PUBLIC "-//W3C//DTD SVG 1.1//EN"
 "http://www.w3.org/Graphics/SVG/1.1/DTD/svg11.dtd">
<!-- Generated by graphviz version 2.38.0 (20140413.2041)
 -->
<!-- Title: copyToClipboard Pages: 1 -->
<svg width="609pt" height="104pt"
 viewBox="0.00 0.00 609.00 104.00" xmlns="http://www.w3.org/2000/svg" xmlns:xlink="http://www.w3.org/1999/xlink">
<g id="graph0" class="graph" transform="scale(1 1) rotate(0) translate(4 100)">
<title>copyToClipboard</title>
<polygon fill="white" stroke="none" points="-4,4 -4,-100 605,-100 605,4 -4,4"/>
<!-- Node1 -->
<g id="node1" class="node"><title>Node1</title>
<polygon fill="#bfbfbf" stroke="black" points="0,-38.5 0,-57.5 90,-57.5 90,-38.5 0,-38.5"/>
<text text-anchor="middle" x="45" y="-45.5" font-family="Helvetica,sans-Serif" font-size="10.00">copyToClipboard</text>
</g>
<!-- Node2 -->
<g id="node2" class="node"><title>Node2</title>
<g id="a_node2"><a xlink:href="frontend_8js.html#a2f4ec7b87c92d886af91eccd0080c024" target="_top" xlink:title="populateUI">
<polygon fill="white" stroke="black" points="126,-38.5 126,-57.5 190,-57.5 190,-38.5 126,-38.5"/>
<text text-anchor="middle" x="158" y="-45.5" font-family="Helvetica,sans-Serif" font-size="10.00">populateUI</text>
</a>
</g>
</g>
<!-- Node1&#45;&gt;Node2 -->
<g id="edge1" class="edge"><title>Node1&#45;&gt;Node2</title>
<path fill="none" stroke="midnightblue" d="M100.411,-48C109.177,-48 117.98,-48 125.943,-48"/>
<polygon fill="midnightblue" stroke="midnightblue" points="100.189,-44.5001 90.1891,-48 100.189,-51.5001 100.189,-44.5001"/>
</g>
<!-- Node3 -->
<g id="node3" class="node"><title>Node3</title>
<g id="a_node3"><a xlink:href="frontend_8js.html#a026aacb2020ed839706c99a8805c244b" target="_top" xlink:title="showProgress">
<polygon fill="white" stroke="black" points="226,-57.5 226,-76.5 305,-76.5 305,-57.5 226,-57.5"/>
<text text-anchor="middle" x="265.5" y="-64.5" font-family="Helvetica,sans-Serif" font-size="10.00">showProgress</text>
</a>
</g>
</g>
<!-- Node2&#45;&gt;Node3 -->
<g id="edge2" class="edge"><title>Node2&#45;&gt;Node3</title>
<path fill="none" stroke="midnightblue" d="M200.113,-55.4043C208.558,-56.9251 217.421,-58.5213 225.777,-60.0263"/>
<polygon fill="midnightblue" stroke="midnightblue" points="200.545,-51.9258 190.083,-53.5979 199.304,-58.815 200.545,-51.9258"/>
</g>
<!-- Node4 -->
<g id="node4" class="node"><title>Node4</title>
<g id="a_node4"><a xlink:href="frontend_8js.html#a816e9b3b3cd90b9b151a46331c601fbe" target="_top" xlink:title="getCurrentRecords">
<polygon fill="white" stroke="black" points="341,-38.5 341,-57.5 440,-57.5 440,-38.5 341,-38.5"/>
<text text-anchor="middle" x="390.5" y="-45.5" font-family="Helvetica,sans-Serif" font-size="10.00">getCurrentRecords</text>
</a>
</g>
</g>
<!-- Node3&#45;&gt;Node4 -->
<g id="edge3" class="edge"><title>Node3&#45;&gt;Node4</title>
<path fill="none" stroke="midnightblue" d="M315.112,-59.4909C323.508,-58.1938 332.241,-56.8449 340.644,-55.5468"/>
<polygon fill="midnightblue" stroke="midnightblue" points="314.429,-56.0547 305.08,-61.0404 315.498,-62.9727 314.429,-56.0547"/>
</g>
<!-- Node6 -->
<g id="node6" class="node"><title>Node6</title>
<g id="a_node6"><a xlink:href="frontend_8js.html#a2e24b94e011170375215c3a8b745e9a4" target="_top" xlink:title="getCountConcept">
<polygon fill="white" stroke="black" points="344,-0.5 344,-19.5 437,-19.5 437,-0.5 344,-0.5"/>
<text text-anchor="middle" x="390.5" y="-7.5" font-family="Helvetica,sans-Serif" font-size="10.00">getCountConcept</text>
</a>
</g>
</g>
<!-- Node3&#45;&gt;Node6 -->
<g id="edge6" class="edge"><title>Node3&#45;&gt;Node6</title>
<path fill="none" stroke="midnightblue" d="M293.131,-52.6128C307.203,-45.2161 324.861,-36.2563 341,-29 348.258,-25.7367 356.257,-22.4718 363.63,-19.592"/>
<polygon fill="midnightblue" stroke="midnightblue" points="291.218,-49.6655 284.024,-57.4437 294.498,-55.8493 291.218,-49.6655"/>
</g>
<!-- Node7 -->
<g id="node7" class="node"><title>Node7</title>
<g id="a_node7"><a xlink:href="frontend_8js.html#aa6fd7ff8d2590761fcda0342978b0b22" target="_top" xlink:title="getCitation">
<polygon fill="white" stroke="black" points="358.5,-76.5 358.5,-95.5 422.5,-95.5 422.5,-76.5 358.5,-76.5"/>
<text text-anchor="middle" x="390.5" y="-83.5" font-family="Helvetica,sans-Serif" font-size="10.00">getCitation</text>
</a>
</g>
</g>
<!-- Node3&#45;&gt;Node7 -->
<g id="edge8" class="edge"><title>Node3&#45;&gt;Node7</title>
<path fill="none" stroke="midnightblue" d="M315.001,-74.492C329.63,-76.7518 345.288,-79.1705 358.454,-81.2043"/>
<polygon fill="midnightblue" stroke="midnightblue" points="315.498,-71.0273 305.08,-72.9596 314.429,-77.9453 315.498,-71.0273"/>
</g>
<!-- Node4&#45;&gt;Node2 -->
<g id="edge5" class="edge"><title>Node4&#45;&gt;Node2</title>
<path fill="none" stroke="midnightblue" d="M330.67,-48C285.88,-48 225.997,-48 190.086,-48"/>
<polygon fill="midnightblue" stroke="midnightblue" points="330.844,-51.5001 340.844,-48 330.844,-44.5001 330.844,-51.5001"/>
</g>
<!-- Node5 -->
<g id="node5" class="node"><title>Node5</title>
<g id="a_node5"><a xlink:href="class_bms_1_1_bms.html#aec5f7b55928d9eb969567ab87ea9e021" target="_top" xlink:title="Bms\\Bms\\frontController">
<polygon fill="white" stroke="black" points="476,-57.5 476,-76.5 601,-76.5 601,-57.5 476,-57.5"/>
<text text-anchor="middle" x="538.5" y="-64.5" font-family="Helvetica,sans-Serif" font-size="10.00">Bms\Bms\frontController</text>
</a>
</g>
</g>
<!-- Node4&#45;&gt;Node5 -->
<g id="edge4" class="edge"><title>Node4&#45;&gt;Node5</title>
<path fill="none" stroke="midnightblue" d="M450.238,-55.6439C458.669,-56.7412 467.365,-57.8728 475.851,-58.9771"/>
<polygon fill="midnightblue" stroke="midnightblue" points="450.484,-52.1466 440.116,-54.3267 449.581,-59.088 450.484,-52.1466"/>
</g>
<!-- Node6&#45;&gt;Node2 -->
<g id="edge7" class="edge"><title>Node6&#45;&gt;Node2</title>
<path fill="none" stroke="midnightblue" d="M333.918,-19.1632C288.813,-26.5991 226.873,-36.8106 190.086,-42.8752"/>
<polygon fill="midnightblue" stroke="midnightblue" points="334.547,-22.6068 343.844,-17.5267 333.408,-15.7001 334.547,-22.6068"/>
</g>
<!-- Node7&#45;&gt;Node2 -->
<g id="edge10" class="edge"><title>Node7&#45;&gt;Node2</title>
<path fill="none" stroke="midnightblue" d="M348.125,-91.7537C314.615,-95.0532 266.492,-96.6835 226,-86 205.312,-80.5416 184.312,-67.0625 171.471,-57.7207"/>
<polygon fill="midnightblue" stroke="midnightblue" points="348.897,-95.1908 358.463,-90.6373 348.145,-88.2313 348.897,-95.1908"/>
</g>
<!-- Node7&#45;&gt;Node5 -->
<g id="edge9" class="edge"><title>Node7&#45;&gt;Node5</title>
<path fill="none" stroke="midnightblue" d="M433.089,-80.5878C446.408,-78.8544 461.452,-76.8967 475.886,-75.0182"/>
<polygon fill="midnightblue" stroke="midnightblue" points="432.285,-77.1627 422.821,-81.924 433.189,-84.1042 432.285,-77.1627"/>
</g>
</g>
</svg>
