<?xml version="1.0" encoding="UTF-8" standalone="no"?>
<!DOCTYPE svg PUBLIC "-//W3C//DTD SVG 1.1//EN"
 "http://www.w3.org/Graphics/SVG/1.1/DTD/svg11.dtd">
<!-- Generated by graphviz version 2.38.0 (20140413.2041)
 -->
<!-- Title: displaySystemMessage Pages: 1 -->
<svg width="684pt" height="484pt"
 viewBox="0.00 0.00 684.00 484.00" xmlns="http://www.w3.org/2000/svg" xmlns:xlink="http://www.w3.org/1999/xlink">
<g id="graph0" class="graph" transform="scale(1 1) rotate(0) translate(4 480)">
<title>displaySystemMessage</title>
<polygon fill="white" stroke="none" points="-4,4 -4,-480 680,-480 680,4 -4,4"/>
<!-- Node1 -->
<g id="node1" class="node"><title>Node1</title>
<polygon fill="#bfbfbf" stroke="black" points="0,-247.5 0,-266.5 121,-266.5 121,-247.5 0,-247.5"/>
<text text-anchor="middle" x="60.5" y="-254.5" font-family="Helvetica,sans-Serif" font-size="10.00">displaySystemMessage</text>
</g>
<!-- Node2 -->
<g id="node2" class="node"><title>Node2</title>
<g id="a_node2"><a xlink:href="manage_user_8php.html#ac4a74e72e3c7731da127516dd1265aae" target="_top" xlink:title="bin2crud">
<polygon fill="white" stroke="black" points="180,-456.5 180,-475.5 233,-475.5 233,-456.5 180,-456.5"/>
<text text-anchor="middle" x="206.5" y="-463.5" font-family="Helvetica,sans-Serif" font-size="10.00">bin2crud</text>
</a>
</g>
</g>
<!-- Node1&#45;&gt;Node2 -->
<g id="edge1" class="edge"><title>Node1&#45;&gt;Node2</title>
<path fill="none" stroke="midnightblue" d="M66.2995,-276.625C76.5578,-314.633 104.109,-398.782 157,-447 163.416,-452.849 171.84,-456.983 179.864,-459.866"/>
<polygon fill="midnightblue" stroke="midnightblue" points="69.6504,-275.603 63.7594,-266.797 62.8731,-277.355 69.6504,-275.603"/>
</g>
<!-- Node3 -->
<g id="node3" class="node"><title>Node3</title>
<g id="a_node3"><a xlink:href="backend_8js.html#ad8bb15255910bba8451a623c74323537" target="_top" xlink:title="saveMainMetadata">
<polygon fill="white" stroke="black" points="157,-418.5 157,-437.5 256,-437.5 256,-418.5 157,-418.5"/>
<text text-anchor="middle" x="206.5" y="-425.5" font-family="Helvetica,sans-Serif" font-size="10.00">saveMainMetadata</text>
</a>
</g>
</g>
<!-- Node1&#45;&gt;Node3 -->
<g id="edge2" class="edge"><title>Node1&#45;&gt;Node3</title>
<path fill="none" stroke="midnightblue" d="M69.9224,-276.374C84.0392,-306.945 115.101,-366.723 157,-404 163.598,-409.87 171.889,-414.665 179.741,-418.383"/>
<polygon fill="midnightblue" stroke="midnightblue" points="72.9391,-274.548 65.6458,-266.863 66.5548,-277.419 72.9391,-274.548"/>
</g>
<!-- Node4 -->
<g id="node4" class="node"><title>Node4</title>
<g id="a_node4"><a xlink:href="backend_8js.html#ab2defb5f9c70cf24da0dca77cadcdd4c" target="_top" xlink:title="addDSA">
<polygon fill="white" stroke="black" points="306.5,-380.5 306.5,-399.5 359.5,-399.5 359.5,-380.5 306.5,-380.5"/>
<text text-anchor="middle" x="333" y="-387.5" font-family="Helvetica,sans-Serif" font-size="10.00">addDSA</text>
</a>
</g>
</g>
<!-- Node1&#45;&gt;Node4 -->
<g id="edge3" class="edge"><title>Node1&#45;&gt;Node4</title>
<path fill="none" stroke="midnightblue" d="M71.1309,-275.772C85.75,-302.099 116.214,-349.203 157,-371 204.841,-396.568 270.471,-395.814 306.222,-392.948"/>
<polygon fill="midnightblue" stroke="midnightblue" points="74.1269,-273.953 66.3152,-266.796 67.9584,-277.263 74.1269,-273.953"/>
</g>
<!-- Node5 -->
<g id="node5" class="node"><title>Node5</title>
<g id="a_node5"><a xlink:href="backend_8js.html#ab8857c782e0fd01946658e1a47bd295c" target="_top" xlink:title="saveDSAPoint">
<polygon fill="white" stroke="black" points="166,-342.5 166,-361.5 247,-361.5 247,-342.5 166,-342.5"/>
<text text-anchor="middle" x="206.5" y="-349.5" font-family="Helvetica,sans-Serif" font-size="10.00">saveDSAPoint</text>
</a>
</g>
</g>
<!-- Node1&#45;&gt;Node5 -->
<g id="edge4" class="edge"><title>Node1&#45;&gt;Node5</title>
<path fill="none" stroke="midnightblue" d="M78.8807,-273.501C97.1786,-290.204 127.387,-315.935 157,-333 163.19,-336.567 170.178,-339.742 176.883,-342.427"/>
<polygon fill="midnightblue" stroke="midnightblue" points="81.0696,-270.758 71.3566,-266.526 76.3106,-275.891 81.0696,-270.758"/>
</g>
<!-- Node9 -->
<g id="node9" class="node"><title>Node9</title>
<g id="a_node9"><a xlink:href="backend_8js.html#a36b49b10ca5bff2748b29988f1582f34" target="_top" xlink:title="removeDSA">
<polygon fill="white" stroke="black" points="171.5,-304.5 171.5,-323.5 241.5,-323.5 241.5,-304.5 171.5,-304.5"/>
<text text-anchor="middle" x="206.5" y="-311.5" font-family="Helvetica,sans-Serif" font-size="10.00">removeDSA</text>
</a>
</g>
</g>
<!-- Node1&#45;&gt;Node9 -->
<g id="edge10" class="edge"><title>Node1&#45;&gt;Node9</title>
<path fill="none" stroke="midnightblue" d="M94.8045,-270.302C113.145,-277.615 136.319,-286.835 157,-295 164.738,-298.055 173.179,-301.368 180.817,-304.36"/>
<polygon fill="midnightblue" stroke="midnightblue" points="96.012,-267.016 85.4269,-266.562 93.4183,-273.518 96.012,-267.016"/>
</g>
<!-- Node10 -->
<g id="node10" class="node"><title>Node10</title>
<g id="a_node10"><a xlink:href="backend_8js.html#aa19813ae51cc1b506e8543a7cd6a0e42" target="_top" xlink:title="removeCount">
<polygon fill="white" stroke="black" points="169,-266.5 169,-285.5 244,-285.5 244,-266.5 169,-266.5"/>
<text text-anchor="middle" x="206.5" y="-273.5" font-family="Helvetica,sans-Serif" font-size="10.00">removeCount</text>
</a>
</g>
</g>
<!-- Node1&#45;&gt;Node10 -->
<g id="edge11" class="edge"><title>Node1&#45;&gt;Node10</title>
<path fill="none" stroke="midnightblue" d="M131.569,-266.245C144.412,-267.94 157.338,-269.645 168.708,-271.146"/>
<polygon fill="midnightblue" stroke="midnightblue" points="131.69,-262.731 121.318,-264.893 130.774,-269.671 131.69,-262.731"/>
</g>
<!-- Node11 -->
<g id="node11" class="node"><title>Node11</title>
<g id="a_node11"><a xlink:href="backend_8js.html#af64a4f08a169e74e835e8779804d2982" target="_top" xlink:title="saveCount">
<polygon fill="white" stroke="black" points="174.5,-228.5 174.5,-247.5 238.5,-247.5 238.5,-228.5 174.5,-228.5"/>
<text text-anchor="middle" x="206.5" y="-235.5" font-family="Helvetica,sans-Serif" font-size="10.00">saveCount</text>
</a>
</g>
</g>
<!-- Node1&#45;&gt;Node11 -->
<g id="edge12" class="edge"><title>Node1&#45;&gt;Node11</title>
<path fill="none" stroke="midnightblue" d="M131.657,-247.743C146.663,-245.763 161.775,-243.769 174.384,-242.106"/>
<polygon fill="midnightblue" stroke="midnightblue" points="130.774,-244.329 121.318,-249.107 131.69,-251.269 130.774,-244.329"/>
</g>
<!-- Node12 -->
<g id="node12" class="node"><title>Node12</title>
<g id="a_node12"><a xlink:href="backend_8js.html#a855d7bfb70d494b3a5937f118e0b4e60" target="_top" xlink:title="saveArchive">
<polygon fill="white" stroke="black" points="171,-190.5 171,-209.5 242,-209.5 242,-190.5 171,-190.5"/>
<text text-anchor="middle" x="206.5" y="-197.5" font-family="Helvetica,sans-Serif" font-size="10.00">saveArchive</text>
</a>
</g>
</g>
<!-- Node1&#45;&gt;Node12 -->
<g id="edge13" class="edge"><title>Node1&#45;&gt;Node12</title>
<path fill="none" stroke="midnightblue" d="M94.8045,-243.698C113.145,-236.385 136.319,-227.165 157,-219 164.738,-215.945 173.179,-212.632 180.817,-209.64"/>
<polygon fill="midnightblue" stroke="midnightblue" points="93.4183,-240.482 85.4269,-247.438 96.012,-246.984 93.4183,-240.482"/>
</g>
<!-- Node13 -->
<g id="node13" class="node"><title>Node13</title>
<g id="a_node13"><a xlink:href="backend_8js.html#a67ccb2b34eb0513b50335e24a6b20d40" target="_top" xlink:title="removeArchive">
<polygon fill="white" stroke="black" points="165.5,-152.5 165.5,-171.5 247.5,-171.5 247.5,-152.5 165.5,-152.5"/>
<text text-anchor="middle" x="206.5" y="-159.5" font-family="Helvetica,sans-Serif" font-size="10.00">removeArchive</text>
</a>
</g>
</g>
<!-- Node1&#45;&gt;Node13 -->
<g id="edge14" class="edge"><title>Node1&#45;&gt;Node13</title>
<path fill="none" stroke="midnightblue" d="M78.8807,-240.499C97.1786,-223.796 127.387,-198.065 157,-181 163.19,-177.433 170.178,-174.258 176.883,-171.573"/>
<polygon fill="midnightblue" stroke="midnightblue" points="76.3106,-238.109 71.3566,-247.474 81.0696,-243.242 76.3106,-238.109"/>
</g>
<!-- Node14 -->
<g id="node14" class="node"><title>Node14</title>
<g id="a_node14"><a xlink:href="backend_8js.html#a2b6e8bcc79cbc217976969a2c3830205" target="_top" xlink:title="removeUsefulLink">
<polygon fill="white" stroke="black" points="159,-114.5 159,-133.5 254,-133.5 254,-114.5 159,-114.5"/>
<text text-anchor="middle" x="206.5" y="-121.5" font-family="Helvetica,sans-Serif" font-size="10.00">removeUsefulLink</text>
</a>
</g>
</g>
<!-- Node1&#45;&gt;Node14 -->
<g id="edge15" class="edge"><title>Node1&#45;&gt;Node14</title>
<path fill="none" stroke="midnightblue" d="M72.6887,-238.57C88.6034,-213.745 119.989,-169.614 157,-143 162.213,-139.251 168.265,-136.121 174.289,-133.553"/>
<polygon fill="midnightblue" stroke="midnightblue" points="69.5321,-237.016 67.1919,-247.349 75.4652,-240.731 69.5321,-237.016"/>
</g>
<!-- Node15 -->
<g id="node15" class="node"><title>Node15</title>
<g id="a_node15"><a xlink:href="backend_8js.html#a9980fb97f36014ac0cf30b90df12498b" target="_top" xlink:title="saveUsefulLink">
<polygon fill="white" stroke="black" points="164.5,-76.5 164.5,-95.5 248.5,-95.5 248.5,-76.5 164.5,-76.5"/>
<text text-anchor="middle" x="206.5" y="-83.5" font-family="Helvetica,sans-Serif" font-size="10.00">saveUsefulLink</text>
</a>
</g>
</g>
<!-- Node1&#45;&gt;Node15 -->
<g id="edge16" class="edge"><title>Node1&#45;&gt;Node15</title>
<path fill="none" stroke="midnightblue" d="M68.8168,-237.862C81.8859,-206.056 112.142,-142.144 157,-105 161.597,-101.193 167.047,-98.0867 172.606,-95.5721"/>
<polygon fill="midnightblue" stroke="midnightblue" points="65.4935,-236.748 65.0473,-247.333 71.9973,-239.336 65.4935,-236.748"/>
</g>
<!-- Node16 -->
<g id="node16" class="node"><title>Node16</title>
<g id="a_node16"><a xlink:href="frontend_8js.html#a2f4ec7b87c92d886af91eccd0080c024" target="_top" xlink:title="populateUI">
<polygon fill="white" stroke="black" points="174.5,-38.5 174.5,-57.5 238.5,-57.5 238.5,-38.5 174.5,-38.5"/>
<text text-anchor="middle" x="206.5" y="-45.5" font-family="Helvetica,sans-Serif" font-size="10.00">populateUI</text>
</a>
</g>
</g>
<!-- Node1&#45;&gt;Node16 -->
<g id="edge17" class="edge"><title>Node1&#45;&gt;Node16</title>
<path fill="none" stroke="midnightblue" d="M66.2995,-237.375C76.5578,-199.367 104.109,-115.218 157,-67 161.945,-62.4916 168.084,-59.002 174.313,-56.319"/>
<polygon fill="midnightblue" stroke="midnightblue" points="62.8731,-236.645 63.7594,-247.203 69.6504,-238.397 62.8731,-236.645"/>
</g>
<!-- Node5&#45;&gt;Node4 -->
<g id="edge5" class="edge"><title>Node5&#45;&gt;Node4</title>
<path fill="none" stroke="midnightblue" d="M248.584,-364.54C267.683,-370.369 289.799,-377.119 306.458,-382.204"/>
<polygon fill="midnightblue" stroke="midnightblue" points="249.503,-361.161 238.917,-361.589 247.459,-367.856 249.503,-361.161"/>
</g>
<!-- Node6 -->
<g id="node6" class="node"><title>Node6</title>
<g id="a_node6"><a xlink:href="backend_8js.html#a40b1dad19404febd0ef4c2b8be5e1033" target="_top" xlink:title="getAllMetadata">
<polygon fill="white" stroke="black" points="292,-342.5 292,-361.5 374,-361.5 374,-342.5 292,-342.5"/>
<text text-anchor="middle" x="333" y="-349.5" font-family="Helvetica,sans-Serif" font-size="10.00">getAllMetadata</text>
</a>
</g>
</g>
<!-- Node5&#45;&gt;Node6 -->
<g id="edge6" class="edge"><title>Node5&#45;&gt;Node6</title>
<path fill="none" stroke="midnightblue" d="M257.495,-352C268.892,-352 280.86,-352 291.788,-352"/>
<polygon fill="midnightblue" stroke="midnightblue" points="257.235,-348.5 247.235,-352 257.235,-355.5 257.235,-348.5"/>
</g>
<!-- Node7 -->
<g id="node7" class="node"><title>Node7</title>
<g id="a_node7"><a xlink:href="backend_8js.html#a6879c4dc7db6793991cd72ab19ca85ea" target="_top" xlink:title="getProviders">
<polygon fill="white" stroke="black" points="424,-342.5 424,-361.5 495,-361.5 495,-342.5 424,-342.5"/>
<text text-anchor="middle" x="459.5" y="-349.5" font-family="Helvetica,sans-Serif" font-size="10.00">getProviders</text>
</a>
</g>
</g>
<!-- Node6&#45;&gt;Node7 -->
<g id="edge7" class="edge"><title>Node6&#45;&gt;Node7</title>
<path fill="none" stroke="midnightblue" d="M384.105,-345.366C397.472,-345.108 411.616,-345.281 423.941,-345.883"/>
<polygon fill="midnightblue" stroke="midnightblue" points="383.976,-341.868 374.078,-345.646 384.172,-348.865 383.976,-341.868"/>
</g>
<!-- Node7&#45;&gt;Node6 -->
<g id="edge9" class="edge"><title>Node7&#45;&gt;Node6</title>
<path fill="none" stroke="midnightblue" d="M413.819,-358.505C400.842,-358.876 386.754,-358.826 374.078,-358.354"/>
<polygon fill="midnightblue" stroke="midnightblue" points="414.083,-361.998 423.941,-358.117 413.815,-355.003 414.083,-361.998"/>
</g>
<!-- Node8 -->
<g id="node8" class="node"><title>Node8</title>
<g id="a_node8"><a xlink:href="namespace_webservices.html#a982728deb9ddc1d58b4496ef46159b73" target="_top" xlink:title="Webservices\\getProviders">
<polygon fill="white" stroke="black" points="545,-342.5 545,-361.5 676,-361.5 676,-342.5 545,-342.5"/>
<text text-anchor="middle" x="610.5" y="-349.5" font-family="Helvetica,sans-Serif" font-size="10.00">Webservices\getProviders</text>
</a>
</g>
</g>
<!-- Node7&#45;&gt;Node8 -->
<g id="edge8" class="edge"><title>Node7&#45;&gt;Node8</title>
<path fill="none" stroke="midnightblue" d="M505.212,-352C517.722,-352 531.574,-352 544.986,-352"/>
<polygon fill="midnightblue" stroke="midnightblue" points="505.058,-348.5 495.058,-352 505.058,-355.5 505.058,-348.5"/>
</g>
<!-- Node17 -->
<g id="node17" class="node"><title>Node17</title>
<g id="a_node17"><a xlink:href="frontend_8js.html#a026aacb2020ed839706c99a8805c244b" target="_top" xlink:title="showProgress">
<polygon fill="white" stroke="black" points="293.5,-19.5 293.5,-38.5 372.5,-38.5 372.5,-19.5 293.5,-19.5"/>
<text text-anchor="middle" x="333" y="-26.5" font-family="Helvetica,sans-Serif" font-size="10.00">showProgress</text>
</a>
</g>
</g>
<!-- Node16&#45;&gt;Node17 -->
<g id="edge18" class="edge"><title>Node16&#45;&gt;Node17</title>
<path fill="none" stroke="midnightblue" d="M248.704,-41.7118C263.069,-39.5196 279.128,-37.0688 293.283,-34.9086"/>
<polygon fill="midnightblue" stroke="midnightblue" points="247.953,-38.2858 238.595,-43.2545 249.009,-45.2057 247.953,-38.2858"/>
</g>
<!-- Node18 -->
<g id="node18" class="node"><title>Node18</title>
<g id="a_node18"><a xlink:href="frontend_8js.html#a816e9b3b3cd90b9b151a46331c601fbe" target="_top" xlink:title="getCurrentRecords">
<polygon fill="white" stroke="black" points="410,-0.5 410,-19.5 509,-19.5 509,-0.5 410,-0.5"/>
<text text-anchor="middle" x="459.5" y="-7.5" font-family="Helvetica,sans-Serif" font-size="10.00">getCurrentRecords</text>
</a>
</g>
</g>
<!-- Node17&#45;&gt;Node18 -->
<g id="edge19" class="edge"><title>Node17&#45;&gt;Node18</title>
<path fill="none" stroke="midnightblue" d="M382.851,-21.5448C391.676,-20.198 400.878,-18.7937 409.702,-17.4471"/>
<polygon fill="midnightblue" stroke="midnightblue" points="382.068,-18.1238 372.71,-23.0924 383.124,-25.0437 382.068,-18.1238"/>
</g>
<!-- Node20 -->
<g id="node20" class="node"><title>Node20</title>
<g id="a_node20"><a xlink:href="frontend_8js.html#a2e24b94e011170375215c3a8b745e9a4" target="_top" xlink:title="getCountConcept">
<polygon fill="white" stroke="black" points="413,-38.5 413,-57.5 506,-57.5 506,-38.5 413,-38.5"/>
<text text-anchor="middle" x="459.5" y="-45.5" font-family="Helvetica,sans-Serif" font-size="10.00">getCountConcept</text>
</a>
</g>
</g>
<!-- Node17&#45;&gt;Node20 -->
<g id="edge22" class="edge"><title>Node17&#45;&gt;Node20</title>
<path fill="none" stroke="midnightblue" d="M382.799,-36.4472C392.688,-37.9563 403.052,-39.5381 412.828,-41.03"/>
<polygon fill="midnightblue" stroke="midnightblue" points="383.124,-32.9563 372.71,-34.9076 382.068,-39.8762 383.124,-32.9563"/>
</g>
<!-- Node21 -->
<g id="node21" class="node"><title>Node21</title>
<g id="a_node21"><a xlink:href="frontend_8js.html#aa6fd7ff8d2590761fcda0342978b0b22" target="_top" xlink:title="getCitation">
<polygon fill="white" stroke="black" points="427.5,-76.5 427.5,-95.5 491.5,-95.5 491.5,-76.5 427.5,-76.5"/>
<text text-anchor="middle" x="459.5" y="-83.5" font-family="Helvetica,sans-Serif" font-size="10.00">getCitation</text>
</a>
</g>
</g>
<!-- Node17&#45;&gt;Node21 -->
<g id="edge24" class="edge"><title>Node17&#45;&gt;Node21</title>
<path fill="none" stroke="midnightblue" d="M360.784,-43.1332C375.215,-50.5587 393.415,-59.6231 410,-67 417.271,-70.2342 425.274,-73.4899 432.647,-76.3703"/>
<polygon fill="midnightblue" stroke="midnightblue" points="362.389,-40.0226 351.901,-38.5244 359.165,-46.2363 362.389,-40.0226"/>
</g>
<!-- Node18&#45;&gt;Node16 -->
<g id="edge21" class="edge"><title>Node18&#45;&gt;Node16</title>
<path fill="none" stroke="midnightblue" d="M399.708,-4.02618C367.545,-2.24553 327.194,-2.45058 292,-10 266.679,-15.4316 239.785,-29.0611 223.312,-38.4288"/>
<polygon fill="midnightblue" stroke="midnightblue" points="399.645,-7.52911 409.846,-4.6673 400.087,-0.543061 399.645,-7.52911"/>
</g>
<!-- Node19 -->
<g id="node19" class="node"><title>Node19</title>
<g id="a_node19"><a xlink:href="class_bms_1_1_bms.html#aec5f7b55928d9eb969567ab87ea9e021" target="_top" xlink:title="Bms\\Bms\\frontController">
<polygon fill="white" stroke="black" points="548,-38.5 548,-57.5 673,-57.5 673,-38.5 548,-38.5"/>
<text text-anchor="middle" x="610.5" y="-45.5" font-family="Helvetica,sans-Serif" font-size="10.00">Bms\Bms\frontController</text>
</a>
</g>
</g>
<!-- Node18&#45;&gt;Node19 -->
<g id="edge20" class="edge"><title>Node18&#45;&gt;Node19</title>
<path fill="none" stroke="midnightblue" d="M507.992,-22.1121C528.744,-27.4044 552.728,-33.5213 572.171,-38.4799"/>
<polygon fill="midnightblue" stroke="midnightblue" points="508.654,-18.6689 498.099,-19.589 506.924,-25.4518 508.654,-18.6689"/>
</g>
<!-- Node20&#45;&gt;Node16 -->
<g id="edge23" class="edge"><title>Node20&#45;&gt;Node16</title>
<path fill="none" stroke="midnightblue" d="M402.536,-48C351.968,-48 279.391,-48 238.529,-48"/>
<polygon fill="midnightblue" stroke="midnightblue" points="402.656,-51.5001 412.656,-48 402.656,-44.5001 402.656,-51.5001"/>
</g>
<!-- Node21&#45;&gt;Node16 -->
<g id="edge26" class="edge"><title>Node21&#45;&gt;Node16</title>
<path fill="none" stroke="midnightblue" d="M417.527,-80.3387C383.803,-75.6201 334.764,-68.6239 292,-62 274.366,-59.2686 254.697,-56.0217 238.776,-53.3428"/>
<polygon fill="midnightblue" stroke="midnightblue" points="417.09,-83.8115 427.477,-81.727 418.057,-76.8786 417.09,-83.8115"/>
</g>
<!-- Node21&#45;&gt;Node19 -->
<g id="edge25" class="edge"><title>Node21&#45;&gt;Node19</title>
<path fill="none" stroke="midnightblue" d="M501.511,-75.5407C523.633,-69.8989 550.73,-62.9884 572.246,-57.5011"/>
<polygon fill="midnightblue" stroke="midnightblue" points="500.56,-72.1712 491.735,-78.034 502.29,-78.9541 500.56,-72.1712"/>
</g>
</g>
</svg>
