<?xml version="1.0" encoding="UTF-8" standalone="no"?>
<!DOCTYPE svg PUBLIC "-//W3C//DTD SVG 1.1//EN"
 "http://www.w3.org/Graphics/SVG/1.1/DTD/svg11.dtd">
<!-- Generated by graphviz version 2.38.0 (20140413.2041)
 -->
<!-- Title: displayErrorMessage Pages: 1 -->
<svg width="756pt" height="104pt"
 viewBox="0.00 0.00 756.00 104.00" xmlns="http://www.w3.org/2000/svg" xmlns:xlink="http://www.w3.org/1999/xlink">
<g id="graph0" class="graph" transform="scale(1 1) rotate(0) translate(4 100)">
<title>displayErrorMessage</title>
<polygon fill="white" stroke="none" points="-4,4 -4,-100 752,-100 752,4 -4,4"/>
<!-- Node1 -->
<g id="node1" class="node"><title>Node1</title>
<polygon fill="#bfbfbf" stroke="black" points="0,-38.5 0,-57.5 108,-57.5 108,-38.5 0,-38.5"/>
<text text-anchor="middle" x="54" y="-45.5" font-family="Helvetica,sans-Serif" font-size="10.00">displayErrorMessage</text>
</g>
<!-- Node2 -->
<g id="node2" class="node"><title>Node2</title>
<g id="a_node2"><a xlink:href="frontend_8js.html#a2e24b94e011170375215c3a8b745e9a4" target="_top" xlink:title="getCountConcept">
<polygon fill="white" stroke="black" points="144,-0.5 144,-19.5 237,-19.5 237,-0.5 144,-0.5"/>
<text text-anchor="middle" x="190.5" y="-7.5" font-family="Helvetica,sans-Serif" font-size="10.00">getCountConcept</text>
</a>
</g>
</g>
<!-- Node1&#45;&gt;Node2 -->
<g id="edge1" class="edge"><title>Node1&#45;&gt;Node2</title>
<path fill="none" stroke="midnightblue" d="M98.6004,-35.6817C117.08,-30.4607 138.289,-24.4684 155.571,-19.5859"/>
<polygon fill="midnightblue" stroke="midnightblue" points="97.6117,-32.3239 88.94,-38.411 99.515,-39.0602 97.6117,-32.3239"/>
</g>
<!-- Node3 -->
<g id="node3" class="node"><title>Node3</title>
<g id="a_node3"><a xlink:href="frontend_8js.html#a2f4ec7b87c92d886af91eccd0080c024" target="_top" xlink:title="populateUI">
<polygon fill="white" stroke="black" points="273,-38.5 273,-57.5 337,-57.5 337,-38.5 273,-38.5"/>
<text text-anchor="middle" x="305" y="-45.5" font-family="Helvetica,sans-Serif" font-size="10.00">populateUI</text>
</a>
</g>
</g>
<!-- Node1&#45;&gt;Node3 -->
<g id="edge13" class="edge"><title>Node1&#45;&gt;Node3</title>
<path fill="none" stroke="midnightblue" d="M118.391,-48C167.859,-48 234.442,-48 272.944,-48"/>
<polygon fill="midnightblue" stroke="midnightblue" points="118.111,-44.5001 108.111,-48 118.111,-51.5001 118.111,-44.5001"/>
</g>
<!-- Node8 -->
<g id="node8" class="node"><title>Node8</title>
<g id="a_node8"><a xlink:href="frontend_8js.html#add7d88a4ad05a1fb2478eff9a1857824" target="_top" xlink:title="getUsefulLinks">
<polygon fill="white" stroke="black" points="149.5,-76.5 149.5,-95.5 231.5,-95.5 231.5,-76.5 149.5,-76.5"/>
<text text-anchor="middle" x="190.5" y="-83.5" font-family="Helvetica,sans-Serif" font-size="10.00">getUsefulLinks</text>
</a>
</g>
</g>
<!-- Node1&#45;&gt;Node8 -->
<g id="edge11" class="edge"><title>Node1&#45;&gt;Node8</title>
<path fill="none" stroke="midnightblue" d="M98.6004,-60.3183C117.08,-65.5393 138.289,-71.5316 155.571,-76.4141"/>
<polygon fill="midnightblue" stroke="midnightblue" points="99.515,-56.9398 88.94,-57.589 97.6117,-63.6761 99.515,-56.9398"/>
</g>
<!-- Node2&#45;&gt;Node3 -->
<g id="edge2" class="edge"><title>Node2&#45;&gt;Node3</title>
<path fill="none" stroke="midnightblue" d="M229.471,-22.8259C244.567,-27.9247 261.632,-33.6891 275.621,-38.4141"/>
<polygon fill="midnightblue" stroke="midnightblue" points="230.483,-19.4733 219.889,-19.589 228.243,-26.1052 230.483,-19.4733"/>
</g>
<!-- Node4 -->
<g id="node4" class="node"><title>Node4</title>
<g id="a_node4"><a xlink:href="frontend_8js.html#a026aacb2020ed839706c99a8805c244b" target="_top" xlink:title="showProgress">
<polygon fill="white" stroke="black" points="373,-0.5 373,-19.5 452,-19.5 452,-0.5 373,-0.5"/>
<text text-anchor="middle" x="412.5" y="-7.5" font-family="Helvetica,sans-Serif" font-size="10.00">showProgress</text>
</a>
</g>
</g>
<!-- Node3&#45;&gt;Node4 -->
<g id="edge3" class="edge"><title>Node3&#45;&gt;Node4</title>
<path fill="none" stroke="midnightblue" d="M342.42,-34.882C356.373,-29.8561 372.018,-24.2209 384.886,-19.5859"/>
<polygon fill="midnightblue" stroke="midnightblue" points="340.844,-31.7292 332.622,-38.411 343.217,-38.3151 340.844,-31.7292"/>
</g>
<!-- Node4&#45;&gt;Node2 -->
<g id="edge7" class="edge"><title>Node4&#45;&gt;Node2</title>
<path fill="none" stroke="midnightblue" d="M362.762,-10C325.25,-10 273.783,-10 237.084,-10"/>
<polygon fill="midnightblue" stroke="midnightblue" points="362.949,-13.5001 372.949,-10 362.949,-6.5001 362.949,-13.5001"/>
</g>
<!-- Node5 -->
<g id="node5" class="node"><title>Node5</title>
<g id="a_node5"><a xlink:href="frontend_8js.html#a816e9b3b3cd90b9b151a46331c601fbe" target="_top" xlink:title="getCurrentRecords">
<polygon fill="white" stroke="black" points="488,-19.5 488,-38.5 587,-38.5 587,-19.5 488,-19.5"/>
<text text-anchor="middle" x="537.5" y="-26.5" font-family="Helvetica,sans-Serif" font-size="10.00">getCurrentRecords</text>
</a>
</g>
</g>
<!-- Node4&#45;&gt;Node5 -->
<g id="edge4" class="edge"><title>Node4&#45;&gt;Node5</title>
<path fill="none" stroke="midnightblue" d="M462.112,-17.5091C470.508,-18.8062 479.241,-20.1551 487.644,-21.4532"/>
<polygon fill="midnightblue" stroke="midnightblue" points="462.498,-14.0273 452.08,-15.9596 461.429,-20.9453 462.498,-14.0273"/>
</g>
<!-- Node7 -->
<g id="node7" class="node"><title>Node7</title>
<g id="a_node7"><a xlink:href="frontend_8js.html#aa6fd7ff8d2590761fcda0342978b0b22" target="_top" xlink:title="getCitation">
<polygon fill="white" stroke="black" points="505.5,-57.5 505.5,-76.5 569.5,-76.5 569.5,-57.5 505.5,-57.5"/>
<text text-anchor="middle" x="537.5" y="-64.5" font-family="Helvetica,sans-Serif" font-size="10.00">getCitation</text>
</a>
</g>
</g>
<!-- Node4&#45;&gt;Node7 -->
<g id="edge8" class="edge"><title>Node4&#45;&gt;Node7</title>
<path fill="none" stroke="midnightblue" d="M440.131,-24.3872C454.203,-31.7839 471.861,-40.7437 488,-48 495.258,-51.2633 503.257,-54.5282 510.63,-57.408"/>
<polygon fill="midnightblue" stroke="midnightblue" points="441.498,-21.1507 431.024,-19.5563 438.218,-27.3345 441.498,-21.1507"/>
</g>
<!-- Node5&#45;&gt;Node3 -->
<g id="edge6" class="edge"><title>Node5&#45;&gt;Node3</title>
<path fill="none" stroke="midnightblue" d="M477.67,-33.8493C432.88,-37.5414 372.997,-42.4774 337.086,-45.4376"/>
<polygon fill="midnightblue" stroke="midnightblue" points="478.165,-37.3205 487.844,-33.0107 477.59,-30.3442 478.165,-37.3205"/>
</g>
<!-- Node6 -->
<g id="node6" class="node"><title>Node6</title>
<g id="a_node6"><a xlink:href="class_bms_1_1_bms.html#aec5f7b55928d9eb969567ab87ea9e021" target="_top" xlink:title="Bms\\Bms\\frontController">
<polygon fill="white" stroke="black" points="623,-38.5 623,-57.5 748,-57.5 748,-38.5 623,-38.5"/>
<text text-anchor="middle" x="685.5" y="-45.5" font-family="Helvetica,sans-Serif" font-size="10.00">Bms\Bms\frontController</text>
</a>
</g>
</g>
<!-- Node5&#45;&gt;Node6 -->
<g id="edge5" class="edge"><title>Node5&#45;&gt;Node6</title>
<path fill="none" stroke="midnightblue" d="M597.238,-36.6439C605.669,-37.7412 614.365,-38.8728 622.851,-39.9771"/>
<polygon fill="midnightblue" stroke="midnightblue" points="597.484,-33.1466 587.116,-35.3267 596.581,-40.088 597.484,-33.1466"/>
</g>
<!-- Node7&#45;&gt;Node3 -->
<g id="edge10" class="edge"><title>Node7&#45;&gt;Node3</title>
<path fill="none" stroke="midnightblue" d="M495.07,-63.5849C449.675,-59.8431 377.9,-53.9266 337.086,-50.5624"/>
<polygon fill="midnightblue" stroke="midnightblue" points="494.916,-67.0841 505.17,-64.4175 495.491,-60.1077 494.916,-67.0841"/>
</g>
<!-- Node7&#45;&gt;Node6 -->
<g id="edge9" class="edge"><title>Node7&#45;&gt;Node6</title>
<path fill="none" stroke="midnightblue" d="M580.089,-61.5878C593.408,-59.8544 608.452,-57.8967 622.886,-56.0182"/>
<polygon fill="midnightblue" stroke="midnightblue" points="579.285,-58.1627 569.821,-62.924 580.189,-65.1042 579.285,-58.1627"/>
</g>
<!-- Node8&#45;&gt;Node3 -->
<g id="edge12" class="edge"><title>Node8&#45;&gt;Node3</title>
<path fill="none" stroke="midnightblue" d="M229.471,-73.1741C244.567,-68.0753 261.632,-62.3109 275.621,-57.5859"/>
<polygon fill="midnightblue" stroke="midnightblue" points="228.243,-69.8948 219.889,-76.411 230.483,-76.5267 228.243,-69.8948"/>
</g>
</g>
</svg>
