<?xml version="1.0" encoding="UTF-8" standalone="no"?>
<!DOCTYPE svg PUBLIC "-//W3C//DTD SVG 1.1//EN"
 "http://www.w3.org/Graphics/SVG/1.1/DTD/svg11.dtd">
<!-- Generated by graphviz version 2.38.0 (20140413.2041)
 -->
<!-- Title: ready Pages: 1 -->
<svg width="469pt" height="180pt"
 viewBox="0.00 0.00 469.00 180.00" xmlns="http://www.w3.org/2000/svg" xmlns:xlink="http://www.w3.org/1999/xlink">
<g id="graph0" class="graph" transform="scale(1 1) rotate(0) translate(4 176)">
<title>ready</title>
<polygon fill="white" stroke="none" points="-4,4 -4,-176 465,-176 465,4 -4,4"/>
<!-- Node1 -->
<g id="node1" class="node"><title>Node1</title>
<polygon fill="#bfbfbf" stroke="black" points="0,-114.5 0,-133.5 41,-133.5 41,-114.5 0,-114.5"/>
<text text-anchor="middle" x="20.5" y="-121.5" font-family="Helvetica,sans-Serif" font-size="10.00">ready</text>
</g>
<!-- Node2 -->
<g id="node2" class="node"><title>Node2</title>
<g id="a_node2"><a xlink:href="backend_8js.html#a40b1dad19404febd0ef4c2b8be5e1033" target="_top" xlink:title="getAllMetadata">
<polygon fill="white" stroke="black" points="77,-152.5 77,-171.5 159,-171.5 159,-152.5 77,-152.5"/>
<text text-anchor="middle" x="118" y="-159.5" font-family="Helvetica,sans-Serif" font-size="10.00">getAllMetadata</text>
</a>
</g>
</g>
<!-- Node1&#45;&gt;Node2 -->
<g id="edge1" class="edge"><title>Node1&#45;&gt;Node2</title>
<path fill="none" stroke="midnightblue" d="M50.6297,-135.591C64.1375,-140.966 80.0026,-147.279 92.8338,-152.384"/>
<polygon fill="midnightblue" stroke="midnightblue" points="51.8731,-132.319 41.2877,-131.874 49.2851,-138.823 51.8731,-132.319"/>
</g>
<!-- Node5 -->
<g id="node5" class="node"><title>Node5</title>
<g id="a_node5"><a xlink:href="consistency_8js.html#a0e434d0abe4686a98fa7119ad3b98a23" target="_top" xlink:title="fire">
<polygon fill="white" stroke="black" points="103,-114.5 103,-133.5 133,-133.5 133,-114.5 103,-114.5"/>
<text text-anchor="middle" x="118" y="-121.5" font-family="Helvetica,sans-Serif" font-size="10.00">fire</text>
</a>
</g>
</g>
<!-- Node1&#45;&gt;Node5 -->
<g id="edge5" class="edge"><title>Node1&#45;&gt;Node5</title>
<path fill="none" stroke="midnightblue" d="M51.4106,-124C68.5691,-124 89.3169,-124 102.819,-124"/>
<polygon fill="midnightblue" stroke="midnightblue" points="51.2877,-120.5 41.2877,-124 51.2876,-127.5 51.2877,-120.5"/>
</g>
<!-- Node6 -->
<g id="node6" class="node"><title>Node6</title>
<g id="a_node6"><a xlink:href="frontend_8js.html#a026aacb2020ed839706c99a8805c244b" target="_top" xlink:title="showProgress">
<polygon fill="white" stroke="black" points="78.5,-76.5 78.5,-95.5 157.5,-95.5 157.5,-76.5 78.5,-76.5"/>
<text text-anchor="middle" x="118" y="-83.5" font-family="Helvetica,sans-Serif" font-size="10.00">showProgress</text>
</a>
</g>
</g>
<!-- Node1&#45;&gt;Node6 -->
<g id="edge6" class="edge"><title>Node1&#45;&gt;Node6</title>
<path fill="none" stroke="midnightblue" d="M50.6297,-112.409C64.1375,-107.034 80.0026,-100.721 92.8338,-95.6159"/>
<polygon fill="midnightblue" stroke="midnightblue" points="49.2851,-109.177 41.2877,-116.126 51.8731,-115.681 49.2851,-109.177"/>
</g>
<!-- Node3 -->
<g id="node3" class="node"><title>Node3</title>
<g id="a_node3"><a xlink:href="backend_8js.html#a6879c4dc7db6793991cd72ab19ca85ea" target="_top" xlink:title="getProviders">
<polygon fill="white" stroke="black" points="209,-152.5 209,-171.5 280,-171.5 280,-152.5 209,-152.5"/>
<text text-anchor="middle" x="244.5" y="-159.5" font-family="Helvetica,sans-Serif" font-size="10.00">getProviders</text>
</a>
</g>
</g>
<!-- Node2&#45;&gt;Node3 -->
<g id="edge2" class="edge"><title>Node2&#45;&gt;Node3</title>
<path fill="none" stroke="midnightblue" d="M169.105,-155.366C182.472,-155.108 196.616,-155.281 208.941,-155.883"/>
<polygon fill="midnightblue" stroke="midnightblue" points="168.976,-151.868 159.078,-155.646 169.172,-158.865 168.976,-151.868"/>
</g>
<!-- Node3&#45;&gt;Node2 -->
<g id="edge4" class="edge"><title>Node3&#45;&gt;Node2</title>
<path fill="none" stroke="midnightblue" d="M198.819,-168.505C185.842,-168.876 171.754,-168.826 159.078,-168.354"/>
<polygon fill="midnightblue" stroke="midnightblue" points="199.083,-171.998 208.941,-168.117 198.815,-165.003 199.083,-171.998"/>
</g>
<!-- Node4 -->
<g id="node4" class="node"><title>Node4</title>
<g id="a_node4"><a xlink:href="namespace_webservices.html#a982728deb9ddc1d58b4496ef46159b73" target="_top" xlink:title="Webservices\\getProviders">
<polygon fill="white" stroke="black" points="330,-152.5 330,-171.5 461,-171.5 461,-152.5 330,-152.5"/>
<text text-anchor="middle" x="395.5" y="-159.5" font-family="Helvetica,sans-Serif" font-size="10.00">Webservices\getProviders</text>
</a>
</g>
</g>
<!-- Node3&#45;&gt;Node4 -->
<g id="edge3" class="edge"><title>Node3&#45;&gt;Node4</title>
<path fill="none" stroke="midnightblue" d="M290.212,-162C302.722,-162 316.574,-162 329.986,-162"/>
<polygon fill="midnightblue" stroke="midnightblue" points="290.058,-158.5 280.058,-162 290.058,-165.5 290.058,-158.5"/>
</g>
<!-- Node7 -->
<g id="node7" class="node"><title>Node7</title>
<g id="a_node7"><a xlink:href="frontend_8js.html#a816e9b3b3cd90b9b151a46331c601fbe" target="_top" xlink:title="getCurrentRecords">
<polygon fill="white" stroke="black" points="195,-38.5 195,-57.5 294,-57.5 294,-38.5 195,-38.5"/>
<text text-anchor="middle" x="244.5" y="-45.5" font-family="Helvetica,sans-Serif" font-size="10.00">getCurrentRecords</text>
</a>
</g>
</g>
<!-- Node6&#45;&gt;Node7 -->
<g id="edge7" class="edge"><title>Node6&#45;&gt;Node7</title>
<path fill="none" stroke="midnightblue" d="M160.07,-73.4647C177.006,-68.2952 196.318,-62.4009 212.093,-57.5859"/>
<polygon fill="midnightblue" stroke="midnightblue" points="158.959,-70.1441 150.417,-76.411 161.003,-76.8392 158.959,-70.1441"/>
</g>
<!-- Node10 -->
<g id="node10" class="node"><title>Node10</title>
<g id="a_node10"><a xlink:href="frontend_8js.html#a2e24b94e011170375215c3a8b745e9a4" target="_top" xlink:title="getCountConcept">
<polygon fill="white" stroke="black" points="198,-114.5 198,-133.5 291,-133.5 291,-114.5 198,-114.5"/>
<text text-anchor="middle" x="244.5" y="-121.5" font-family="Helvetica,sans-Serif" font-size="10.00">getCountConcept</text>
</a>
</g>
</g>
<!-- Node6&#45;&gt;Node10 -->
<g id="edge11" class="edge"><title>Node6&#45;&gt;Node10</title>
<path fill="none" stroke="midnightblue" d="M160.07,-98.5353C177.006,-103.705 196.318,-109.599 212.093,-114.414"/>
<polygon fill="midnightblue" stroke="midnightblue" points="161.003,-95.1608 150.417,-95.589 158.959,-101.856 161.003,-95.1608"/>
</g>
<!-- Node11 -->
<g id="node11" class="node"><title>Node11</title>
<g id="a_node11"><a xlink:href="frontend_8js.html#aa6fd7ff8d2590761fcda0342978b0b22" target="_top" xlink:title="getCitation">
<polygon fill="white" stroke="black" points="212.5,-0.5 212.5,-19.5 276.5,-19.5 276.5,-0.5 212.5,-0.5"/>
<text text-anchor="middle" x="244.5" y="-7.5" font-family="Helvetica,sans-Serif" font-size="10.00">getCitation</text>
</a>
</g>
</g>
<!-- Node6&#45;&gt;Node11 -->
<g id="edge13" class="edge"><title>Node6&#45;&gt;Node11</title>
<path fill="none" stroke="midnightblue" d="M138.067,-69.3988C152.866,-57.1014 174.286,-40.5443 195,-29 201.319,-25.4781 208.426,-22.3019 215.21,-19.5993"/>
<polygon fill="midnightblue" stroke="midnightblue" points="135.547,-66.9459 130.174,-76.0771 140.069,-72.2897 135.547,-66.9459"/>
</g>
<!-- Node8 -->
<g id="node8" class="node"><title>Node8</title>
<g id="a_node8"><a xlink:href="class_bms_1_1_bms.html#aec5f7b55928d9eb969567ab87ea9e021" target="_top" xlink:title="Bms\\Bms\\frontController">
<polygon fill="white" stroke="black" points="333,-9.5 333,-28.5 458,-28.5 458,-9.5 333,-9.5"/>
<text text-anchor="middle" x="395.5" y="-16.5" font-family="Helvetica,sans-Serif" font-size="10.00">Bms\Bms\frontController</text>
</a>
</g>
</g>
<!-- Node7&#45;&gt;Node8 -->
<g id="edge8" class="edge"><title>Node7&#45;&gt;Node8</title>
<path fill="none" stroke="midnightblue" d="M304.126,-36.5896C317.859,-33.9168 332.346,-31.0971 345.602,-28.517"/>
<polygon fill="midnightblue" stroke="midnightblue" points="303.435,-33.1582 294.288,-38.5043 304.773,-40.0293 303.435,-33.1582"/>
</g>
<!-- Node9 -->
<g id="node9" class="node"><title>Node9</title>
<g id="a_node9"><a xlink:href="frontend_8js.html#a2f4ec7b87c92d886af91eccd0080c024" target="_top" xlink:title="populateUI">
<polygon fill="white" stroke="black" points="363.5,-66.5 363.5,-85.5 427.5,-85.5 427.5,-66.5 363.5,-66.5"/>
<text text-anchor="middle" x="395.5" y="-73.5" font-family="Helvetica,sans-Serif" font-size="10.00">populateUI</text>
</a>
</g>
</g>
<!-- Node7&#45;&gt;Node9 -->
<g id="edge9" class="edge"><title>Node7&#45;&gt;Node9</title>
<path fill="none" stroke="midnightblue" d="M304.349,-59.0588C324.529,-62.851 346.313,-66.9448 363.412,-70.158"/>
<polygon fill="midnightblue" stroke="midnightblue" points="304.763,-55.5754 294.288,-57.1682 303.47,-62.455 304.763,-55.5754"/>
</g>
<!-- Node9&#45;&gt;Node6 -->
<g id="edge10" class="edge"><title>Node9&#45;&gt;Node6</title>
<path fill="none" stroke="midnightblue" d="M353.357,-77.4934C300.447,-79.4139 209.243,-82.7244 157.597,-84.599"/>
<polygon fill="midnightblue" stroke="midnightblue" points="353.539,-80.9892 363.405,-77.1287 353.285,-73.9938 353.539,-80.9892"/>
</g>
<!-- Node10&#45;&gt;Node9 -->
<g id="edge12" class="edge"><title>Node10&#45;&gt;Node9</title>
<path fill="none" stroke="midnightblue" d="M284.868,-111.318C309.913,-103.249 341.829,-92.9679 364.757,-85.5815"/>
<polygon fill="midnightblue" stroke="midnightblue" points="283.739,-108.004 275.294,-114.402 285.886,-114.667 283.739,-108.004"/>
</g>
<!-- Node11&#45;&gt;Node8 -->
<g id="edge14" class="edge"><title>Node11&#45;&gt;Node8</title>
<path fill="none" stroke="midnightblue" d="M286.729,-12.4903C301.007,-13.3528 317.337,-14.3392 332.894,-15.2788"/>
<polygon fill="midnightblue" stroke="midnightblue" points="286.928,-8.99608 276.735,-11.8867 286.506,-15.9833 286.928,-8.99608"/>
</g>
<!-- Node11&#45;&gt;Node9 -->
<g id="edge15" class="edge"><title>Node11&#45;&gt;Node9</title>
<path fill="none" stroke="midnightblue" d="M280.202,-23.2822C284.859,-25.156 289.559,-27.0941 294,-29 322.497,-41.2307 354.901,-56.6671 375.025,-66.4394"/>
<polygon fill="midnightblue" stroke="midnightblue" points="281.383,-19.9858 270.797,-19.5571 278.806,-26.4939 281.383,-19.9858"/>
</g>
</g>
</svg>
