<?xml version="1.0" encoding="UTF-8" standalone="no"?>
<!DOCTYPE svg PUBLIC "-//W3C//DTD SVG 1.1//EN"
 "http://www.w3.org/Graphics/SVG/1.1/DTD/svg11.dtd">
<!-- Generated by graphviz version 2.38.0 (20140413.2041)
 -->
<!-- Title: getMappedElements Pages: 1 -->
<svg width="290pt" height="116pt"
 viewBox="0.00 0.00 290.00 116.00" xmlns="http://www.w3.org/2000/svg" xmlns:xlink="http://www.w3.org/1999/xlink">
<g id="graph0" class="graph" transform="scale(1 1) rotate(0) translate(4 112)">
<title>getMappedElements</title>
<polygon fill="white" stroke="none" points="-4,4 -4,-112 286,-112 286,4 -4,4"/>
<!-- Node1 -->
<g id="node1" class="node"><title>Node1</title>
<polygon fill="#bfbfbf" stroke="black" points="0,-44.5 0,-63.5 106,-63.5 106,-44.5 0,-44.5"/>
<text text-anchor="middle" x="53" y="-51.5" font-family="Helvetica,sans-Serif" font-size="10.00">getMappedElements</text>
</g>
<!-- Node2 -->
<g id="node2" class="node"><title>Node2</title>
<g id="a_node2"><a xlink:href="namespace_consistency.html#a9bf0ee2da6d3a74ee9dbfcf73ae9842e" target="_top" xlink:title="getSchemaMappingInfo">
<polygon fill="white" stroke="black" points="152.5,-88.5 152.5,-107.5 271.5,-107.5 271.5,-88.5 152.5,-88.5"/>
<text text-anchor="middle" x="212" y="-95.5" font-family="Helvetica,sans-Serif" font-size="10.00">getSchemaMappingInfo</text>
</a>
</g>
</g>
<!-- Node1&#45;&gt;Node2 -->
<g id="edge1" class="edge"><title>Node1&#45;&gt;Node2</title>
<path fill="none" stroke="midnightblue" d="M87.4118,-63.5607C103.845,-68.2455 123.952,-73.9515 142,-79 149.911,-81.213 158.339,-83.5502 166.488,-85.8"/>
<polygon fill="midnightblue" stroke="midnightblue" points="165.666,-89.2039 176.237,-88.4865 167.526,-82.4555 165.666,-89.2039"/>
</g>
<!-- Node3 -->
<g id="node3" class="node"><title>Node3</title>
<g id="a_node3"><a xlink:href="namespace_consistency.html#a2be2339d3806b3febbdb87bd1c27e603" target="_top" xlink:title="getMappedElementsWithout\lRules">
<polygon fill="white" stroke="black" points="142,-39 142,-69 282,-69 282,-39 142,-39"/>
<text text-anchor="start" x="150" y="-57" font-family="Helvetica,sans-Serif" font-size="10.00">getMappedElementsWithout</text>
<text text-anchor="middle" x="212" y="-46" font-family="Helvetica,sans-Serif" font-size="10.00">Rules</text>
</a>
</g>
</g>
<!-- Node1&#45;&gt;Node3 -->
<g id="edge2" class="edge"><title>Node1&#45;&gt;Node3</title>
<path fill="none" stroke="midnightblue" d="M106.279,-54C114.485,-54 123.124,-54 131.774,-54"/>
<polygon fill="midnightblue" stroke="midnightblue" points="131.909,-57.5001 141.909,-54 131.909,-50.5001 131.909,-57.5001"/>
</g>
<!-- Node4 -->
<g id="node4" class="node"><title>Node4</title>
<g id="a_node4"><a xlink:href="backend_8js.html#a51fe50f57ea6df6fb0bcbd22099962ab" target="_top" xlink:title="getSchemas">
<polygon fill="white" stroke="black" points="176.5,-0.5 176.5,-19.5 247.5,-19.5 247.5,-0.5 176.5,-0.5"/>
<text text-anchor="middle" x="212" y="-7.5" font-family="Helvetica,sans-Serif" font-size="10.00">getSchemas</text>
</a>
</g>
</g>
<!-- Node1&#45;&gt;Node4 -->
<g id="edge3" class="edge"><title>Node1&#45;&gt;Node4</title>
<path fill="none" stroke="midnightblue" d="M88.0667,-44.4527C111.315,-37.9373 142.316,-29.2492 167.369,-22.2278"/>
<polygon fill="midnightblue" stroke="midnightblue" points="168.315,-25.5975 177,-19.5287 166.426,-18.8572 168.315,-25.5975"/>
</g>
</g>
</svg>
