<?xml version="1.0" encoding="UTF-8" standalone="no"?>
<!DOCTYPE svg PUBLIC "-//W3C//DTD SVG 1.1//EN"
 "http://www.w3.org/Graphics/SVG/1.1/DTD/svg11.dtd">
<!-- Generated by graphviz version 2.38.0 (20140413.2041)
 -->
<!-- Title: getProviders Pages: 1 -->
<svg width="640pt" height="408pt"
 viewBox="0.00 0.00 640.00 408.00" xmlns="http://www.w3.org/2000/svg" xmlns:xlink="http://www.w3.org/1999/xlink">
<g id="graph0" class="graph" transform="scale(1 1) rotate(0) translate(4 404)">
<title>getProviders</title>
<polygon fill="white" stroke="none" points="-4,4 -4,-404 636,-404 636,4 -4,4"/>
<!-- Node1 -->
<g id="node1" class="node"><title>Node1</title>
<polygon fill="#bfbfbf" stroke="black" points="0,-190.5 0,-209.5 71,-209.5 71,-190.5 0,-190.5"/>
<text text-anchor="middle" x="35.5" y="-197.5" font-family="Helvetica,sans-Serif" font-size="10.00">getProviders</text>
</g>
<!-- Node2 -->
<g id="node2" class="node"><title>Node2</title>
<g id="a_node2"><a xlink:href="backend_8js.html#a6879c4dc7db6793991cd72ab19ca85ea" target="_top" xlink:title="getProviders">
<polygon fill="white" stroke="black" points="107,-190.5 107,-209.5 178,-209.5 178,-190.5 107,-190.5"/>
<text text-anchor="middle" x="142.5" y="-197.5" font-family="Helvetica,sans-Serif" font-size="10.00">getProviders</text>
</a>
</g>
</g>
<!-- Node1&#45;&gt;Node2 -->
<g id="edge1" class="edge"><title>Node1&#45;&gt;Node2</title>
<path fill="none" stroke="midnightblue" d="M71.1719,-200C79.3257,-200 88.1305,-200 96.6597,-200"/>
<polygon fill="midnightblue" stroke="midnightblue" points="96.8645,-203.5 106.864,-200 96.8644,-196.5 96.8645,-203.5"/>
</g>
<!-- Node3 -->
<g id="node3" class="node"><title>Node3</title>
<g id="a_node3"><a xlink:href="backend_8js.html#a97b71eb0b809c2808e6b79e2503278ba" target="_top" xlink:title="deleteOldValues">
<polygon fill="white" stroke="black" points="359.5,-380.5 359.5,-399.5 447.5,-399.5 447.5,-380.5 359.5,-380.5"/>
<text text-anchor="middle" x="403.5" y="-387.5" font-family="Helvetica,sans-Serif" font-size="10.00">deleteOldValues</text>
</a>
</g>
</g>
<!-- Node2&#45;&gt;Node3 -->
<g id="edge2" class="edge"><title>Node2&#45;&gt;Node3</title>
<path fill="none" stroke="midnightblue" d="M152.883,-209.819C179.07,-236.787 256.026,-313.099 332,-360 342.33,-366.377 354.255,-372.02 365.325,-376.642"/>
<polygon fill="midnightblue" stroke="midnightblue" points="364.187,-379.957 374.771,-380.433 366.794,-373.46 364.187,-379.957"/>
</g>
<!-- Node4 -->
<g id="node4" class="node"><title>Node4</title>
<g id="a_node4"><a xlink:href="backend_8js.html#a40b1dad19404febd0ef4c2b8be5e1033" target="_top" xlink:title="getAllMetadata">
<polygon fill="white" stroke="black" points="214,-190.5 214,-209.5 296,-209.5 296,-190.5 214,-190.5"/>
<text text-anchor="middle" x="255" y="-197.5" font-family="Helvetica,sans-Serif" font-size="10.00">getAllMetadata</text>
</a>
</g>
</g>
<!-- Node2&#45;&gt;Node4 -->
<g id="edge3" class="edge"><title>Node2&#45;&gt;Node4</title>
<path fill="none" stroke="midnightblue" d="M178.16,-193.685C186.257,-193.327 195.043,-193.19 203.668,-193.274"/>
<polygon fill="midnightblue" stroke="midnightblue" points="203.601,-196.773 213.668,-193.474 203.74,-189.774 203.601,-196.773"/>
</g>
<!-- Node15 -->
<g id="node15" class="node"><title>Node15</title>
<g id="a_node15"><a xlink:href="backend_8js.html#a46a518d9683fe224cd47219f3da32d07" target="_top" xlink:title="getCountConcepts">
<polygon fill="white" stroke="black" points="354.5,-0.5 354.5,-19.5 452.5,-19.5 452.5,-0.5 354.5,-0.5"/>
<text text-anchor="middle" x="403.5" y="-7.5" font-family="Helvetica,sans-Serif" font-size="10.00">getCountConcepts</text>
</a>
</g>
</g>
<!-- Node2&#45;&gt;Node15 -->
<g id="edge19" class="edge"><title>Node2&#45;&gt;Node15</title>
<path fill="none" stroke="midnightblue" d="M151.342,-190.15C175.181,-160.88 250.183,-73.6973 332,-29 336.161,-26.7267 340.612,-24.7121 345.178,-22.929"/>
<polygon fill="midnightblue" stroke="midnightblue" points="346.391,-26.2125 354.658,-19.5858 344.063,-19.611 346.391,-26.2125"/>
</g>
<!-- Node4&#45;&gt;Node2 -->
<g id="edge15" class="edge"><title>Node4&#45;&gt;Node2</title>
<path fill="none" stroke="midnightblue" d="M213.668,-206.526C205.391,-206.78 196.63,-206.818 188.208,-206.64"/>
<polygon fill="midnightblue" stroke="midnightblue" points="188.268,-203.14 178.16,-206.315 188.041,-210.136 188.268,-203.14"/>
</g>
<!-- Node4&#45;&gt;Node3 -->
<g id="edge17" class="edge"><title>Node4&#45;&gt;Node3</title>
<path fill="none" stroke="midnightblue" d="M259.866,-209.581C273.505,-243.213 319.242,-354.472 332,-366 337.156,-370.659 343.255,-374.42 349.674,-377.454"/>
<polygon fill="midnightblue" stroke="midnightblue" points="348.655,-380.82 359.234,-381.399 351.325,-374.349 348.655,-380.82"/>
</g>
<!-- Node5 -->
<g id="node5" class="node"><title>Node5</title>
<g id="a_node5"><a xlink:href="backend_8js.html#a06ed191b32ca45ffc8c3ad30bf6f6cf4" target="_top" xlink:title="getDataSourceAccessPoints">
<polygon fill="white" stroke="black" points="332,-304.5 332,-323.5 475,-323.5 475,-304.5 332,-304.5"/>
<text text-anchor="middle" x="403.5" y="-311.5" font-family="Helvetica,sans-Serif" font-size="10.00">getDataSourceAccessPoints</text>
</a>
</g>
</g>
<!-- Node4&#45;&gt;Node5 -->
<g id="edge4" class="edge"><title>Node4&#45;&gt;Node5</title>
<path fill="none" stroke="midnightblue" d="M261.619,-209.627C272.757,-227.896 299.398,-267.752 332,-290 338.241,-294.259 345.306,-297.824 352.494,-300.79"/>
<polygon fill="midnightblue" stroke="midnightblue" points="351.714,-304.236 362.306,-304.473 354.174,-297.682 351.714,-304.236"/>
</g>
<!-- Node6 -->
<g id="node6" class="node"><title>Node6</title>
<g id="a_node6"><a xlink:href="backend_8js.html#a82c76ce90ab8a91de559f9b35d0088d7" target="_top" xlink:title="getDataSetTitles">
<polygon fill="white" stroke="black" points="526.5,-332.5 526.5,-351.5 616.5,-351.5 616.5,-332.5 526.5,-332.5"/>
<text text-anchor="middle" x="571.5" y="-339.5" font-family="Helvetica,sans-Serif" font-size="10.00">getDataSetTitles</text>
</a>
</g>
</g>
<!-- Node4&#45;&gt;Node6 -->
<g id="edge7" class="edge"><title>Node4&#45;&gt;Node6</title>
<path fill="none" stroke="midnightblue" d="M258.112,-209.618C264.285,-235.122 284.916,-304.476 332,-333 389.312,-367.721 469.391,-362.166 520.601,-353.365"/>
<polygon fill="midnightblue" stroke="midnightblue" points="521.232,-356.808 530.443,-351.573 519.978,-349.921 521.232,-356.808"/>
</g>
<!-- Node7 -->
<g id="node7" class="node"><title>Node7</title>
<g id="a_node7"><a xlink:href="backend_8js.html#a51fe50f57ea6df6fb0bcbd22099962ab" target="_top" xlink:title="getSchemas">
<polygon fill="white" stroke="black" points="536,-275.5 536,-294.5 607,-294.5 607,-275.5 536,-275.5"/>
<text text-anchor="middle" x="571.5" y="-282.5" font-family="Helvetica,sans-Serif" font-size="10.00">getSchemas</text>
</a>
</g>
</g>
<!-- Node4&#45;&gt;Node7 -->
<g id="edge8" class="edge"><title>Node4&#45;&gt;Node7</title>
<path fill="none" stroke="midnightblue" d="M265.274,-209.616C278.645,-222.804 304.739,-246.106 332,-257 395.973,-282.565 476.731,-286.793 525.95,-286.577"/>
<polygon fill="midnightblue" stroke="midnightblue" points="525.995,-290.077 535.957,-286.47 525.92,-283.077 525.995,-290.077"/>
</g>
<!-- Node8 -->
<g id="node8" class="node"><title>Node8</title>
<g id="a_node8"><a xlink:href="backend_8js.html#ab8857c782e0fd01946658e1a47bd295c" target="_top" xlink:title="saveDSAPoint">
<polygon fill="white" stroke="black" points="363,-228.5 363,-247.5 444,-247.5 444,-228.5 363,-228.5"/>
<text text-anchor="middle" x="403.5" y="-235.5" font-family="Helvetica,sans-Serif" font-size="10.00">saveDSAPoint</text>
</a>
</g>
</g>
<!-- Node4&#45;&gt;Node8 -->
<g id="edge9" class="edge"><title>Node4&#45;&gt;Node8</title>
<path fill="none" stroke="midnightblue" d="M292.968,-209.589C312.126,-214.558 335.714,-220.677 356.088,-225.961"/>
<polygon fill="midnightblue" stroke="midnightblue" points="355.239,-229.357 365.798,-228.48 356.997,-222.581 355.239,-229.357"/>
</g>
<!-- Node10 -->
<g id="node10" class="node"><title>Node10</title>
<g id="a_node10"><a xlink:href="backend_8js.html#abcad65499b560fbefbaa2b51424bf9ff" target="_top" xlink:title="getCapabilities">
<polygon fill="white" stroke="black" points="363,-190.5 363,-209.5 444,-209.5 444,-190.5 363,-190.5"/>
<text text-anchor="middle" x="403.5" y="-197.5" font-family="Helvetica,sans-Serif" font-size="10.00">getCapabilities</text>
</a>
</g>
</g>
<!-- Node4&#45;&gt;Node10 -->
<g id="edge11" class="edge"><title>Node4&#45;&gt;Node10</title>
<path fill="none" stroke="midnightblue" d="M296.032,-200C313.545,-200 334.272,-200 352.762,-200"/>
<polygon fill="midnightblue" stroke="midnightblue" points="352.771,-203.5 362.77,-200 352.77,-196.5 352.771,-203.5"/>
</g>
<!-- Node11 -->
<g id="node11" class="node"><title>Node11</title>
<g id="a_node11"><a xlink:href="backend_8js.html#a5f8e953a90f434851f20518b1e3baeb6" target="_top" xlink:title="getArchives">
<polygon fill="white" stroke="black" points="369.5,-152.5 369.5,-171.5 437.5,-171.5 437.5,-152.5 369.5,-152.5"/>
<text text-anchor="middle" x="403.5" y="-159.5" font-family="Helvetica,sans-Serif" font-size="10.00">getArchives</text>
</a>
</g>
</g>
<!-- Node4&#45;&gt;Node11 -->
<g id="edge12" class="edge"><title>Node4&#45;&gt;Node11</title>
<path fill="none" stroke="midnightblue" d="M292.968,-190.411C313.073,-185.196 338.057,-178.716 359.085,-173.261"/>
<polygon fill="midnightblue" stroke="midnightblue" points="360.25,-176.575 369.051,-170.676 358.492,-169.799 360.25,-176.575"/>
</g>
<!-- Node12 -->
<g id="node12" class="node"><title>Node12</title>
<g id="a_node12"><a xlink:href="backend_8js.html#add7d88a4ad05a1fb2478eff9a1857824" target="_top" xlink:title="getUsefulLinks">
<polygon fill="white" stroke="black" points="362.5,-114.5 362.5,-133.5 444.5,-133.5 444.5,-114.5 362.5,-114.5"/>
<text text-anchor="middle" x="403.5" y="-121.5" font-family="Helvetica,sans-Serif" font-size="10.00">getUsefulLinks</text>
</a>
</g>
</g>
<!-- Node4&#45;&gt;Node12 -->
<g id="edge13" class="edge"><title>Node4&#45;&gt;Node12</title>
<path fill="none" stroke="midnightblue" d="M266.457,-190.071C280.363,-177.385 306.201,-155.57 332,-143 338.503,-139.832 345.609,-137.132 352.727,-134.849"/>
<polygon fill="midnightblue" stroke="midnightblue" points="353.79,-138.185 362.385,-131.99 351.803,-131.473 353.79,-138.185"/>
</g>
<!-- Node13 -->
<g id="node13" class="node"><title>Node13</title>
<g id="a_node13"><a xlink:href="general_8js.html#ad9f2873ff9e09926e2f18c529721c6f8" target="_top" xlink:title="getMessages">
<polygon fill="white" stroke="black" points="366,-76.5 366,-95.5 441,-95.5 441,-76.5 366,-76.5"/>
<text text-anchor="middle" x="403.5" y="-83.5" font-family="Helvetica,sans-Serif" font-size="10.00">getMessages</text>
</a>
</g>
</g>
<!-- Node4&#45;&gt;Node13 -->
<g id="edge14" class="edge"><title>Node4&#45;&gt;Node13</title>
<path fill="none" stroke="midnightblue" d="M261.019,-190.231C271.482,-170.871 297.541,-127.559 332,-105 339.242,-100.259 347.636,-96.6955 356.052,-94.0185"/>
<polygon fill="midnightblue" stroke="midnightblue" points="357.191,-97.3344 365.875,-91.2658 355.302,-90.5941 357.191,-97.3344"/>
</g>
<!-- Node14 -->
<g id="node14" class="node"><title>Node14</title>
<g id="a_node14"><a xlink:href="backend_8js.html#af5cbf7c37f28fddd8b8a5149a7ed5900" target="_top" xlink:title="getLinkCategories">
<polygon fill="white" stroke="black" points="356,-38.5 356,-57.5 451,-57.5 451,-38.5 356,-38.5"/>
<text text-anchor="middle" x="403.5" y="-45.5" font-family="Helvetica,sans-Serif" font-size="10.00">getLinkCategories</text>
</a>
</g>
</g>
<!-- Node4&#45;&gt;Node14 -->
<g id="edge16" class="edge"><title>Node4&#45;&gt;Node14</title>
<path fill="none" stroke="midnightblue" d="M258.709,-190.234C266.071,-165.561 288.846,-100.316 332,-67 336.327,-63.6593 341.197,-60.905 346.304,-58.6343"/>
<polygon fill="midnightblue" stroke="midnightblue" points="347.596,-61.8875 355.687,-55.047 345.096,-55.349 347.596,-61.8875"/>
</g>
<!-- Node4&#45;&gt;Node15 -->
<g id="edge18" class="edge"><title>Node4&#45;&gt;Node15</title>
<path fill="none" stroke="midnightblue" d="M259.822,-190.101C273.313,-155.359 318.61,-40.4603 332,-29 335.774,-25.7699 340.044,-23.0835 344.571,-20.85"/>
<polygon fill="midnightblue" stroke="midnightblue" points="346.253,-23.9412 354.145,-16.8725 343.568,-17.4768 346.253,-23.9412"/>
</g>
<!-- Node5&#45;&gt;Node6 -->
<g id="edge5" class="edge"><title>Node5&#45;&gt;Node6</title>
<path fill="none" stroke="midnightblue" d="M461.163,-323.558C478.986,-326.564 498.616,-329.875 516.266,-332.852"/>
<polygon fill="midnightblue" stroke="midnightblue" points="515.958,-336.349 526.401,-334.562 517.122,-329.447 515.958,-336.349"/>
</g>
<!-- Node5&#45;&gt;Node7 -->
<g id="edge6" class="edge"><title>Node5&#45;&gt;Node7</title>
<path fill="none" stroke="midnightblue" d="M459.315,-304.424C480.804,-300.67 505.155,-296.416 525.578,-292.848"/>
<polygon fill="midnightblue" stroke="midnightblue" points="526.312,-296.273 535.56,-291.104 525.107,-289.377 526.312,-296.273"/>
</g>
<!-- Node9 -->
<g id="node9" class="node"><title>Node9</title>
<g id="a_node9"><a xlink:href="general_8js.html#aecfeb655371b751d36422b7a93a66279" target="_top" xlink:title="displaySystemMessage">
<polygon fill="white" stroke="black" points="511,-228.5 511,-247.5 632,-247.5 632,-228.5 511,-228.5"/>
<text text-anchor="middle" x="571.5" y="-235.5" font-family="Helvetica,sans-Serif" font-size="10.00">displaySystemMessage</text>
</a>
</g>
</g>
<!-- Node8&#45;&gt;Node9 -->
<g id="edge10" class="edge"><title>Node8&#45;&gt;Node9</title>
<path fill="none" stroke="midnightblue" d="M444.261,-238C461.25,-238 481.593,-238 500.936,-238"/>
<polygon fill="midnightblue" stroke="midnightblue" points="500.937,-241.5 510.937,-238 500.937,-234.5 500.937,-241.5"/>
</g>
</g>
</svg>
