<svg xmlns="http://www.w3.org/2000/svg" xmlns:xlink="http://www.w3.org/1999/xlink" xmlns:sketch="http://www.bohemiancoding.com/sketch/ns" viewBox="0 0 100 100" version="1.1" x="0px" y="0px"><title>kden-light-document-zip</title><desc>Created with Sketch.</desc><g stroke="none" stroke-width="1" fill="none" fill-rule="evenodd" sketch:type="MSPage"><g sketch:type="MSArtboardGroup" fill="#000000"><path d="M57.3918961,4 L19.9998408,4 C17.7838823,4 16,5.78993837 16,7.99793926 L16,90.0020607 C16,92.2022159 17.7907897,94 19.9998408,94 L80.0001592,94 C82.2161177,94 84,92.2100616 84,90.0020607 L84,30.6081039 L84,30.0275454 C84,28.9256801 83.3695434,27.4019851 82.5863832,26.6188249 L61.3811751,5.41361678 C60.6004561,4.63289779 59.0726263,4 57.9724546,4 L57.3918961,4 L57.3918961,4 L57.3918961,4 Z M62.1943376,28.0065858 C60.9824384,28.0065858 60,27.0191037 60,25.8122482 L60,7.89017689 C60,7.34331735 60.3147451,7.21474516 60.7022539,7.60225397 L80.4043318,27.3043319 C80.792176,27.692176 80.6577429,28.0065858 80.1164089,28.0065858 L62.1943376,28.0065858 L62.1943376,28.0065858 Z M51,66 L51,67.5 L51,68 L53,68 L53,70 L51,70 L51,72 L53,72 L53,74 L51,74 L51,76 L53,76 L53,78 L51,78 L51,80 L53,80 L53,82 L51,82 L51,84 L53,84 L53,86 L51,86 L51,88 L53,88 L53,90 L51,90 L51,92 L47,92 L47,90 L49,89.9996709 L49,88 L47,88 L47,86 L49,86 L49,84 L47,84 L47,82 L49,82 L49,80 L47,80 L47,78 L49,78 L49,76 L47,76 L47,74 L49,74 L49,72 L47,72 L47,70 L49,70 L49,68 L47,68 L47,66 L46.0085302,66 C44.8992496,66 44,65.1054862 44,64.0059397 L44,51.9940603 C44,50.8927712 44.9019504,50 46.0085302,50 L53.9914698,50 C55.1007504,50 56,50.8945138 56,51.9940603 L56,64.0059397 C56,65.1072288 55.0980496,66 53.9914698,66 L51,66 L51,66 Z M54,53.0024733 C54,52.455761 53.5536144,52 53.0029699,52 L46.9970301,52 C46.4530363,52 46,52.4488226 46,53.0024733 L46,55.001867 C46,55.5531206 46.4530363,56 46.9970301,56 L53.0029699,56 C53.5536144,56 54,55.5577046 54,55.001867 L54,53.0024733 L54,53.0024733 Z M54,62.9975267 C54,63.5511774 53.5469637,64 53.0029699,64 L46.9970301,64 C46.4463856,64 46,63.544239 46,62.9975267 L46,58.9993129 C46,58.4474076 46.4530363,58 46.9970301,58 L53.0029699,58 C53.5536144,58 54,58.4434972 54,58.9993129 L54,62.9975267 L54,62.9975267 Z M20.2030249,6 C18.9796768,6 18,6.98073023 18,8.19052228 L18,89.8094777 C18,91.019363 18.9863278,92 20.2030249,92 L79.7969751,92 C81.0203232,92 82,91.0192698 82,89.8094777 L82,30.9685703 C82,30.4156693 81.5446779,29.9674546 81.0081609,29.9674546 L61.9992748,29.9674546 C59.7905363,29.9674546 58,28.1806599 58,25.9681798 L58,6.99022514 C58,6.4433389 57.5491912,6 57.0084507,6 L20.2030249,6 L20.2030249,6 Z" sketch:type="MSShapeGroup"/></g></g></svg>