<?xml version="1.0" encoding="UTF-8" standalone="no"?>
<!DOCTYPE svg PUBLIC "-//W3C//DTD SVG 1.1//EN"
 "http://www.w3.org/Graphics/SVG/1.1/DTD/svg11.dtd">
<!-- Generated by graphviz version 2.38.0 (20140413.2041)
 -->
<!-- Title: getCapabilities Pages: 1 -->
<svg width="338pt" height="28pt"
 viewBox="0.00 0.00 338.00 28.00" xmlns="http://www.w3.org/2000/svg" xmlns:xlink="http://www.w3.org/1999/xlink">
<g id="graph0" class="graph" transform="scale(1 1) rotate(0) translate(4 24)">
<title>getCapabilities</title>
<polygon fill="white" stroke="none" points="-4,4 -4,-24 334,-24 334,4 -4,4"/>
<!-- Node1 -->
<g id="node1" class="node"><title>Node1</title>
<polygon fill="#bfbfbf" stroke="black" points="0,-0.5 0,-19.5 81,-19.5 81,-0.5 0,-0.5"/>
<text text-anchor="middle" x="40.5" y="-7.5" font-family="Helvetica,sans-Serif" font-size="10.00">getCapabilities</text>
</g>
<!-- Node2 -->
<g id="node2" class="node"><title>Node2</title>
<g id="a_node2"><a xlink:href="backend_8js.html#a40b1dad19404febd0ef4c2b8be5e1033" target="_top" xlink:title="getAllMetadata">
<polygon fill="white" stroke="black" points="117,-0.5 117,-19.5 199,-19.5 199,-0.5 117,-0.5"/>
<text text-anchor="middle" x="158" y="-7.5" font-family="Helvetica,sans-Serif" font-size="10.00">getAllMetadata</text>
</a>
</g>
</g>
<!-- Node1&#45;&gt;Node2 -->
<g id="edge1" class="edge"><title>Node1&#45;&gt;Node2</title>
<path fill="none" stroke="midnightblue" d="M91.4222,-10C99.8971,-10 108.601,-10 116.786,-10"/>
<polygon fill="midnightblue" stroke="midnightblue" points="91.2486,-6.5001 81.2485,-10 91.2485,-13.5001 91.2486,-6.5001"/>
</g>
<!-- Node3 -->
<g id="node3" class="node"><title>Node3</title>
<g id="a_node3"><a xlink:href="backend_8js.html#ad55b6eadd077d9b3c51a8c4941540d82" target="_top" xlink:title="getLinkCategories">
<polygon fill="white" stroke="black" points="235,-0.5 235,-19.5 330,-19.5 330,-0.5 235,-0.5"/>
<text text-anchor="middle" x="282.5" y="-7.5" font-family="Helvetica,sans-Serif" font-size="10.00">getLinkCategories</text>
</a>
</g>
</g>
<!-- Node2&#45;&gt;Node3 -->
<g id="edge2" class="edge"><title>Node2&#45;&gt;Node3</title>
<path fill="none" stroke="midnightblue" d="M209.27,-10C217.755,-10 226.53,-10 234.915,-10"/>
<polygon fill="midnightblue" stroke="midnightblue" points="209.111,-6.5001 199.111,-10 209.111,-13.5001 209.111,-6.5001"/>
</g>
</g>
</svg>
