<?xml version="1.0" encoding="UTF-8" standalone="no"?>
<!DOCTYPE svg PUBLIC "-//W3C//DTD SVG 1.1//EN"
 "http://www.w3.org/Graphics/SVG/1.1/DTD/svg11.dtd">
<!-- Generated by graphviz version 2.38.0 (20140413.2041)
 -->
<!-- Title: getAllMetadata Pages: 1 -->
<svg width="426pt" height="104pt"
 viewBox="0.00 0.00 426.00 104.00" xmlns="http://www.w3.org/2000/svg" xmlns:xlink="http://www.w3.org/1999/xlink">
<g id="graph0" class="graph" transform="scale(1 1) rotate(0) translate(4 100)">
<title>getAllMetadata</title>
<polygon fill="white" stroke="none" points="-4,4 -4,-100 422,-100 422,4 -4,4"/>
<!-- Node1 -->
<g id="node1" class="node"><title>Node1</title>
<polygon fill="#bfbfbf" stroke="black" points="0,-38.5 0,-57.5 82,-57.5 82,-38.5 0,-38.5"/>
<text text-anchor="middle" x="41" y="-45.5" font-family="Helvetica,sans-Serif" font-size="10.00">getAllMetadata</text>
</g>
<!-- Node2 -->
<g id="node2" class="node"><title>Node2</title>
<g id="a_node2"><a xlink:href="backend_8js.html#a7702fac8dffb55e0ad31437f4a91ca20" target="_top" xlink:title="getDataSourceAccessPoints">
<polygon fill="white" stroke="black" points="118,-76.5 118,-95.5 261,-95.5 261,-76.5 118,-76.5"/>
<text text-anchor="middle" x="189.5" y="-83.5" font-family="Helvetica,sans-Serif" font-size="10.00">getDataSourceAccessPoints</text>
</a>
</g>
</g>
<!-- Node1&#45;&gt;Node2 -->
<g id="edge1" class="edge"><title>Node1&#45;&gt;Node2</title>
<path fill="none" stroke="midnightblue" d="M78.9681,-57.589C98.1262,-62.5583 121.714,-68.6767 142.088,-73.9613"/>
<polygon fill="midnightblue" stroke="midnightblue" points="141.239,-77.357 151.798,-76.4799 142.997,-70.5812 141.239,-77.357"/>
</g>
<!-- Node4 -->
<g id="node4" class="node"><title>Node4</title>
<g id="a_node4"><a xlink:href="backend_8js.html#abcad65499b560fbefbaa2b51424bf9ff" target="_top" xlink:title="getCapabilities">
<polygon fill="white" stroke="black" points="149,-38.5 149,-57.5 230,-57.5 230,-38.5 149,-38.5"/>
<text text-anchor="middle" x="189.5" y="-45.5" font-family="Helvetica,sans-Serif" font-size="10.00">getCapabilities</text>
</a>
</g>
</g>
<!-- Node1&#45;&gt;Node4 -->
<g id="edge3" class="edge"><title>Node1&#45;&gt;Node4</title>
<path fill="none" stroke="midnightblue" d="M82.0318,-48C99.5447,-48 120.272,-48 138.762,-48"/>
<polygon fill="midnightblue" stroke="midnightblue" points="138.771,-51.5001 148.77,-48 138.77,-44.5001 138.771,-51.5001"/>
</g>
<!-- Node5 -->
<g id="node5" class="node"><title>Node5</title>
<g id="a_node5"><a xlink:href="backend_8js.html#add7d88a4ad05a1fb2478eff9a1857824" target="_top" xlink:title="getUsefulLinks">
<polygon fill="white" stroke="black" points="148.5,-0.5 148.5,-19.5 230.5,-19.5 230.5,-0.5 148.5,-0.5"/>
<text text-anchor="middle" x="189.5" y="-7.5" font-family="Helvetica,sans-Serif" font-size="10.00">getUsefulLinks</text>
</a>
</g>
</g>
<!-- Node1&#45;&gt;Node5 -->
<g id="edge4" class="edge"><title>Node1&#45;&gt;Node5</title>
<path fill="none" stroke="midnightblue" d="M78.9681,-38.411C98.1262,-33.4417 121.714,-27.3233 142.088,-22.0387"/>
<polygon fill="midnightblue" stroke="midnightblue" points="142.997,-25.4188 151.798,-19.5201 141.239,-18.643 142.997,-25.4188"/>
</g>
<!-- Node3 -->
<g id="node3" class="node"><title>Node3</title>
<g id="a_node3"><a xlink:href="general_8js.html#ab591f84505f74590e87095cce52c8354" target="_top" xlink:title="displaySystemMessage">
<polygon fill="white" stroke="black" points="297,-76.5 297,-95.5 418,-95.5 418,-76.5 297,-76.5"/>
<text text-anchor="middle" x="357.5" y="-83.5" font-family="Helvetica,sans-Serif" font-size="10.00">displaySystemMessage</text>
</a>
</g>
</g>
<!-- Node2&#45;&gt;Node3 -->
<g id="edge2" class="edge"><title>Node2&#45;&gt;Node3</title>
<path fill="none" stroke="midnightblue" d="M261.38,-86C269.775,-86 278.339,-86 286.719,-86"/>
<polygon fill="midnightblue" stroke="midnightblue" points="286.825,-89.5001 296.825,-86 286.825,-82.5001 286.825,-89.5001"/>
</g>
</g>
</svg>
