<?xml version="1.0" encoding="UTF-8" standalone="no"?>
<!DOCTYPE svg PUBLIC "-//W3C//DTD SVG 1.1//EN"
 "http://www.w3.org/Graphics/SVG/1.1/DTD/svg11.dtd">
<!-- Generated by graphviz version 2.38.0 (20140413.2041)
 -->
<!-- Title: getLinkCategories Pages: 1 -->
<svg width="439pt" height="104pt"
 viewBox="0.00 0.00 439.00 104.00" xmlns="http://www.w3.org/2000/svg" xmlns:xlink="http://www.w3.org/1999/xlink">
<g id="graph0" class="graph" transform="scale(1 1) rotate(0) translate(4 100)">
<title>getLinkCategories</title>
<polygon fill="white" stroke="none" points="-4,4 -4,-100 435,-100 435,4 -4,4"/>
<!-- Node1 -->
<g id="node1" class="node"><title>Node1</title>
<polygon fill="#bfbfbf" stroke="black" points="0,-38.5 0,-57.5 95,-57.5 95,-38.5 0,-38.5"/>
<text text-anchor="middle" x="47.5" y="-45.5" font-family="Helvetica,sans-Serif" font-size="10.00">getLinkCategories</text>
</g>
<!-- Node2 -->
<g id="node2" class="node"><title>Node2</title>
<g id="a_node2"><a xlink:href="backend_8js.html#ad5bc95171abb9d3d21277faf2af87be1" target="_top" xlink:title="ready">
<polygon fill="white" stroke="black" points="182,-76.5 182,-95.5 223,-95.5 223,-76.5 182,-76.5"/>
<text text-anchor="middle" x="202.5" y="-83.5" font-family="Helvetica,sans-Serif" font-size="10.00">ready</text>
</a>
</g>
</g>
<!-- Node1&#45;&gt;Node2 -->
<g id="edge1" class="edge"><title>Node1&#45;&gt;Node2</title>
<path fill="none" stroke="midnightblue" d="M87.1084,-57.589C113.327,-64.1008 147.49,-72.5858 171.633,-78.5821"/>
<polygon fill="midnightblue" stroke="midnightblue" points="171.086,-82.0526 181.635,-81.0663 172.774,-75.259 171.086,-82.0526"/>
</g>
<!-- Node3 -->
<g id="node3" class="node"><title>Node3</title>
<g id="a_node3"><a xlink:href="namespace_webservices.html#ae993bcd484dd56a7995b75671c97c0ba" target="_top" xlink:title="Webservices\\getUsefulLinks">
<polygon fill="white" stroke="black" points="131.5,-38.5 131.5,-57.5 273.5,-57.5 273.5,-38.5 131.5,-38.5"/>
<text text-anchor="middle" x="202.5" y="-45.5" font-family="Helvetica,sans-Serif" font-size="10.00">Webservices\getUsefulLinks</text>
</a>
</g>
</g>
<!-- Node1&#45;&gt;Node3 -->
<g id="edge2" class="edge"><title>Node1&#45;&gt;Node3</title>
<path fill="none" stroke="midnightblue" d="M95.2364,-48C103.537,-48 112.391,-48 121.313,-48"/>
<polygon fill="midnightblue" stroke="midnightblue" points="121.388,-51.5001 131.388,-48 121.388,-44.5001 121.388,-51.5001"/>
</g>
<!-- Node4 -->
<g id="node4" class="node"><title>Node4</title>
<g id="a_node4"><a xlink:href="backend_8js.html#a7702fac8dffb55e0ad31437f4a91ca20" target="_top" xlink:title="getDataSourceAccessPoints">
<polygon fill="white" stroke="black" points="131,-0.5 131,-19.5 274,-19.5 274,-0.5 131,-0.5"/>
<text text-anchor="middle" x="202.5" y="-7.5" font-family="Helvetica,sans-Serif" font-size="10.00">getDataSourceAccessPoints</text>
</a>
</g>
</g>
<!-- Node1&#45;&gt;Node4 -->
<g id="edge3" class="edge"><title>Node1&#45;&gt;Node4</title>
<path fill="none" stroke="midnightblue" d="M87.1084,-38.411C107.207,-33.4191 131.975,-27.2676 153.319,-21.9666"/>
<polygon fill="midnightblue" stroke="midnightblue" points="154.308,-25.3274 163.169,-19.5201 152.62,-18.5338 154.308,-25.3274"/>
</g>
<!-- Node5 -->
<g id="node5" class="node"><title>Node5</title>
<g id="a_node5"><a xlink:href="general_8js.html#ab591f84505f74590e87095cce52c8354" target="_top" xlink:title="displaySystemMessage">
<polygon fill="white" stroke="black" points="310,-0.5 310,-19.5 431,-19.5 431,-0.5 310,-0.5"/>
<text text-anchor="middle" x="370.5" y="-7.5" font-family="Helvetica,sans-Serif" font-size="10.00">displaySystemMessage</text>
</a>
</g>
</g>
<!-- Node4&#45;&gt;Node5 -->
<g id="edge4" class="edge"><title>Node4&#45;&gt;Node5</title>
<path fill="none" stroke="midnightblue" d="M274.38,-10C282.775,-10 291.339,-10 299.719,-10"/>
<polygon fill="midnightblue" stroke="midnightblue" points="299.825,-13.5001 309.825,-10 299.825,-6.5001 299.825,-13.5001"/>
</g>
</g>
</svg>
