<?xml version="1.0" encoding="UTF-8" standalone="no"?>
<!DOCTYPE svg PUBLIC "-//W3C//DTD SVG 1.1//EN"
 "http://www.w3.org/Graphics/SVG/1.1/DTD/svg11.dtd">
<!-- Generated by graphviz version 2.38.0 (20140413.2041)
 -->
<!-- Title: ready Pages: 1 -->
<svg width="180pt" height="66pt"
 viewBox="0.00 0.00 180.00 66.00" xmlns="http://www.w3.org/2000/svg" xmlns:xlink="http://www.w3.org/1999/xlink">
<g id="graph0" class="graph" transform="scale(1 1) rotate(0) translate(4 62)">
<title>ready</title>
<polygon fill="white" stroke="none" points="-4,4 -4,-62 176,-62 176,4 -4,4"/>
<!-- Node1 -->
<g id="node1" class="node"><title>Node1</title>
<polygon fill="#bfbfbf" stroke="black" points="0,-19.5 0,-38.5 41,-38.5 41,-19.5 0,-19.5"/>
<text text-anchor="middle" x="20.5" y="-26.5" font-family="Helvetica,sans-Serif" font-size="10.00">ready</text>
</g>
<!-- Node2 -->
<g id="node2" class="node"><title>Node2</title>
<g id="a_node2"><a xlink:href="manage_user_8php.html#ac4a74e72e3c7731da127516dd1265aae" target="_top" xlink:title="bin2crud">
<polygon fill="white" stroke="black" points="98,-38.5 98,-57.5 151,-57.5 151,-38.5 98,-38.5"/>
<text text-anchor="middle" x="124.5" y="-45.5" font-family="Helvetica,sans-Serif" font-size="10.00">bin2crud</text>
</a>
</g>
</g>
<!-- Node1&#45;&gt;Node2 -->
<g id="edge1" class="edge"><title>Node1&#45;&gt;Node2</title>
<path fill="none" stroke="midnightblue" d="M51.2839,-34.548C65.9984,-37.2889 83.5803,-40.564 97.7117,-43.1963"/>
<polygon fill="midnightblue" stroke="midnightblue" points="51.6385,-31.0539 41.1666,-32.6634 50.3566,-37.9355 51.6385,-31.0539"/>
</g>
<!-- Node3 -->
<g id="node3" class="node"><title>Node3</title>
<g id="a_node3"><a xlink:href="backend_8js.html#af5cbf7c37f28fddd8b8a5149a7ed5900" target="_top" xlink:title="getLinkCategories">
<polygon fill="white" stroke="black" points="77,-0.5 77,-19.5 172,-19.5 172,-0.5 77,-0.5"/>
<text text-anchor="middle" x="124.5" y="-7.5" font-family="Helvetica,sans-Serif" font-size="10.00">getLinkCategories</text>
</a>
</g>
</g>
<!-- Node1&#45;&gt;Node3 -->
<g id="edge2" class="edge"><title>Node1&#45;&gt;Node3</title>
<path fill="none" stroke="midnightblue" d="M51.1514,-23.4767C59.1914,-21.9791 68.0951,-20.3205 76.8284,-18.6937"/>
<polygon fill="midnightblue" stroke="midnightblue" points="50.3566,-20.0645 41.1666,-25.3366 51.6385,-26.9461 50.3566,-20.0645"/>
</g>
</g>
</svg>
