<?xml version="1.0" encoding="UTF-8" standalone="no"?>
<!DOCTYPE svg PUBLIC "-//W3C//DTD SVG 1.1//EN"
 "http://www.w3.org/Graphics/SVG/1.1/DTD/svg11.dtd">
<!-- Generated by graphviz version 2.38.0 (20140413.2041)
 -->
<!-- Title: getUsefulLinks Pages: 1 -->
<svg width="399pt" height="66pt"
 viewBox="0.00 0.00 399.00 66.00" xmlns="http://www.w3.org/2000/svg" xmlns:xlink="http://www.w3.org/1999/xlink">
<g id="graph0" class="graph" transform="scale(1 1) rotate(0) translate(4 62)">
<title>getUsefulLinks</title>
<polygon fill="white" stroke="none" points="-4,4 -4,-62 395,-62 395,4 -4,4"/>
<!-- Node1 -->
<g id="node1" class="node"><title>Node1</title>
<polygon fill="#bfbfbf" stroke="black" points="0,-19.5 0,-38.5 82,-38.5 82,-19.5 0,-19.5"/>
<text text-anchor="middle" x="41" y="-26.5" font-family="Helvetica,sans-Serif" font-size="10.00">getUsefulLinks</text>
</g>
<!-- Node2 -->
<g id="node2" class="node"><title>Node2</title>
<g id="a_node2"><a xlink:href="namespace_webservices.html#ae993bcd484dd56a7995b75671c97c0ba" target="_top" xlink:title="Webservices\\getUsefulLinks">
<polygon fill="white" stroke="black" points="118,-38.5 118,-57.5 260,-57.5 260,-38.5 118,-38.5"/>
<text text-anchor="middle" x="189" y="-45.5" font-family="Helvetica,sans-Serif" font-size="10.00">Webservices\getUsefulLinks</text>
</a>
</g>
</g>
<!-- Node1&#45;&gt;Node2 -->
<g id="edge1" class="edge"><title>Node1&#45;&gt;Node2</title>
<path fill="none" stroke="midnightblue" d="M92.4273,-35.5625C100.644,-36.6317 109.284,-37.7561 117.871,-38.8736"/>
<polygon fill="midnightblue" stroke="midnightblue" points="92.6497,-32.062 82.2816,-34.2421 91.7463,-39.0034 92.6497,-32.062"/>
</g>
<!-- Node3 -->
<g id="node3" class="node"><title>Node3</title>
<g id="a_node3"><a xlink:href="backend_8js.html#a40b1dad19404febd0ef4c2b8be5e1033" target="_top" xlink:title="getAllMetadata">
<polygon fill="white" stroke="black" points="148,-0.5 148,-19.5 230,-19.5 230,-0.5 148,-0.5"/>
<text text-anchor="middle" x="189" y="-7.5" font-family="Helvetica,sans-Serif" font-size="10.00">getAllMetadata</text>
</a>
</g>
</g>
<!-- Node1&#45;&gt;Node3 -->
<g id="edge2" class="edge"><title>Node1&#45;&gt;Node3</title>
<path fill="none" stroke="midnightblue" d="M92.3917,-22.4422C110.519,-20.0831 130.711,-17.4554 147.85,-15.225"/>
<polygon fill="midnightblue" stroke="midnightblue" points="91.7463,-18.9966 82.2816,-23.7579 92.6497,-25.938 91.7463,-18.9966"/>
</g>
<!-- Node4 -->
<g id="node4" class="node"><title>Node4</title>
<g id="a_node4"><a xlink:href="backend_8js.html#ad55b6eadd077d9b3c51a8c4941540d82" target="_top" xlink:title="getLinkCategories">
<polygon fill="white" stroke="black" points="296,-0.5 296,-19.5 391,-19.5 391,-0.5 296,-0.5"/>
<text text-anchor="middle" x="343.5" y="-7.5" font-family="Helvetica,sans-Serif" font-size="10.00">getLinkCategories</text>
</a>
</g>
</g>
<!-- Node3&#45;&gt;Node4 -->
<g id="edge3" class="edge"><title>Node3&#45;&gt;Node4</title>
<path fill="none" stroke="midnightblue" d="M240.084,-10C258.072,-10 278.27,-10 295.946,-10"/>
<polygon fill="midnightblue" stroke="midnightblue" points="240.068,-6.5001 230.068,-10 240.068,-13.5001 240.068,-6.5001"/>
</g>
</g>
</svg>
