<?xml version="1.0" encoding="UTF-8" standalone="no"?>
<!DOCTYPE svg PUBLIC "-//W3C//DTD SVG 1.1//EN"
 "http://www.w3.org/Graphics/SVG/1.1/DTD/svg11.dtd">
<!-- Generated by graphviz version 2.38.0 (20140413.2041)
 -->
<!-- Title: getCountConcepts Pages: 1 -->
<svg width="278pt" height="66pt"
 viewBox="0.00 0.00 278.00 66.00" xmlns="http://www.w3.org/2000/svg" xmlns:xlink="http://www.w3.org/1999/xlink">
<g id="graph0" class="graph" transform="scale(1 1) rotate(0) translate(4 62)">
<title>getCountConcepts</title>
<polygon fill="white" stroke="none" points="-4,4 -4,-62 274,-62 274,4 -4,4"/>
<!-- Node1 -->
<g id="node1" class="node"><title>Node1</title>
<polygon fill="#bfbfbf" stroke="black" points="0,-19.5 0,-38.5 98,-38.5 98,-19.5 0,-19.5"/>
<text text-anchor="middle" x="49" y="-26.5" font-family="Helvetica,sans-Serif" font-size="10.00">getCountConcepts</text>
</g>
<!-- Node2 -->
<g id="node2" class="node"><title>Node2</title>
<g id="a_node2"><a xlink:href="namespace_bms.html#a0aa05237e3a5b58db4209829afbdff3c" target="_top" xlink:title="Bms\\getProviderBasicInfos">
<polygon fill="white" stroke="black" points="134,-38.5 134,-57.5 270,-57.5 270,-38.5 134,-38.5"/>
<text text-anchor="middle" x="202" y="-45.5" font-family="Helvetica,sans-Serif" font-size="10.00">Bms\getProviderBasicInfos</text>
</a>
</g>
</g>
<!-- Node1&#45;&gt;Node2 -->
<g id="edge1" class="edge"><title>Node1&#45;&gt;Node2</title>
<path fill="none" stroke="midnightblue" d="M98.1925,-35.064C106.47,-36.1055 115.254,-37.2108 124.064,-38.3193"/>
<polygon fill="midnightblue" stroke="midnightblue" points="123.638,-41.7932 133.996,-39.5691 124.512,-34.8479 123.638,-41.7932"/>
</g>
<!-- Node3 -->
<g id="node3" class="node"><title>Node3</title>
<g id="a_node3"><a xlink:href="namespace_bms.html#a1ac9d33c4292eb4b99fb4e2b98b04ddd" target="_top" xlink:title="Bms\\sluggify">
<polygon fill="white" stroke="black" points="165,-0.5 165,-19.5 239,-19.5 239,-0.5 165,-0.5"/>
<text text-anchor="middle" x="202" y="-7.5" font-family="Helvetica,sans-Serif" font-size="10.00">Bms\sluggify</text>
</a>
</g>
</g>
<!-- Node1&#45;&gt;Node3 -->
<g id="edge2" class="edge"><title>Node1&#45;&gt;Node3</title>
<path fill="none" stroke="midnightblue" d="M98.1925,-22.936C116.314,-20.6558 136.862,-18.0703 154.799,-15.8134"/>
<polygon fill="midnightblue" stroke="midnightblue" points="155.255,-19.2836 164.74,-14.5625 154.381,-12.3384 155.255,-19.2836"/>
</g>
</g>
</svg>
