<?xml version="1.0" encoding="UTF-8" standalone="no"?>
<!DOCTYPE svg PUBLIC "-//W3C//DTD SVG 1.1//EN"
 "http://www.w3.org/Graphics/SVG/1.1/DTD/svg11.dtd">
<!-- Generated by graphviz version 2.38.0 (20140413.2041)
 -->
<!-- Title: getCitation Pages: 1 -->
<svg width="244pt" height="66pt"
 viewBox="0.00 0.00 244.00 66.00" xmlns="http://www.w3.org/2000/svg" xmlns:xlink="http://www.w3.org/1999/xlink">
<g id="graph0" class="graph" transform="scale(1 1) rotate(0) translate(4 62)">
<title>getCitation</title>
<polygon fill="white" stroke="none" points="-4,4 -4,-62 240,-62 240,4 -4,4"/>
<!-- Node1 -->
<g id="node1" class="node"><title>Node1</title>
<polygon fill="#bfbfbf" stroke="black" points="0,-19.5 0,-38.5 64,-38.5 64,-19.5 0,-19.5"/>
<text text-anchor="middle" x="32" y="-26.5" font-family="Helvetica,sans-Serif" font-size="10.00">getCitation</text>
</g>
<!-- Node2 -->
<g id="node2" class="node"><title>Node2</title>
<g id="a_node2"><a xlink:href="namespace_bms.html#a0aa05237e3a5b58db4209829afbdff3c" target="_top" xlink:title="Bms\\getProviderBasicInfos">
<polygon fill="white" stroke="black" points="100,-38.5 100,-57.5 236,-57.5 236,-38.5 100,-38.5"/>
<text text-anchor="middle" x="168" y="-45.5" font-family="Helvetica,sans-Serif" font-size="10.00">Bms\getProviderBasicInfos</text>
</a>
</g>
</g>
<!-- Node1&#45;&gt;Node2 -->
<g id="edge1" class="edge"><title>Node1&#45;&gt;Node2</title>
<path fill="none" stroke="midnightblue" d="M64.0791,-33.4067C71.9712,-34.5258 80.8074,-35.7787 89.8975,-37.0676"/>
<polygon fill="midnightblue" stroke="midnightblue" points="89.4359,-40.537 99.8282,-38.4756 90.4187,-33.6064 89.4359,-40.537"/>
</g>
<!-- Node3 -->
<g id="node3" class="node"><title>Node3</title>
<g id="a_node3"><a xlink:href="namespace_bms.html#a1ac9d33c4292eb4b99fb4e2b98b04ddd" target="_top" xlink:title="Bms\\sluggify">
<polygon fill="white" stroke="black" points="131,-0.5 131,-19.5 205,-19.5 205,-0.5 131,-0.5"/>
<text text-anchor="middle" x="168" y="-7.5" font-family="Helvetica,sans-Serif" font-size="10.00">Bms\sluggify</text>
</a>
</g>
</g>
<!-- Node1&#45;&gt;Node3 -->
<g id="edge2" class="edge"><title>Node1&#45;&gt;Node3</title>
<path fill="none" stroke="midnightblue" d="M64.0791,-24.5933C80.9095,-22.2069 102.033,-19.2117 120.757,-16.5568"/>
<polygon fill="midnightblue" stroke="midnightblue" points="121.46,-19.9922 130.87,-15.1229 120.478,-13.0615 121.46,-19.9922"/>
</g>
</g>
</svg>
