<?xml version="1.0" encoding="UTF-8" standalone="no"?>
<!DOCTYPE svg PUBLIC "-//W3C//DTD SVG 1.1//EN"
 "http://www.w3.org/Graphics/SVG/1.1/DTD/svg11.dtd">
<!-- Generated by graphviz version 2.38.0 (20140413.2041)
 -->
<!-- Title: frontController Pages: 1 -->
<svg width="666pt" height="294pt"
 viewBox="0.00 0.00 666.00 294.00" xmlns="http://www.w3.org/2000/svg" xmlns:xlink="http://www.w3.org/1999/xlink">
<g id="graph0" class="graph" transform="scale(1 1) rotate(0) translate(4 290)">
<title>frontController</title>
<polygon fill="white" stroke="none" points="-4,4 -4,-290 662,-290 662,4 -4,4"/>
<!-- Node1 -->
<g id="node1" class="node"><title>Node1</title>
<polygon fill="#bfbfbf" stroke="black" points="0,-133.5 0,-152.5 78,-152.5 78,-133.5 0,-133.5"/>
<text text-anchor="middle" x="39" y="-140.5" font-family="Helvetica,sans-Serif" font-size="10.00">frontController</text>
</g>
<!-- Node2 -->
<g id="node2" class="node"><title>Node2</title>
<g id="a_node2"><a xlink:href="core_2get_messages_8php.html#a21d31b810cacf6b86add70626ad90759" target="_top" xlink:title="loadMessages">
<polygon fill="white" stroke="black" points="142,-247.5 142,-266.5 222,-266.5 222,-247.5 142,-247.5"/>
<text text-anchor="middle" x="182" y="-254.5" font-family="Helvetica,sans-Serif" font-size="10.00">loadMessages</text>
</a>
</g>
</g>
<!-- Node1&#45;&gt;Node2 -->
<g id="edge1" class="edge"><title>Node1&#45;&gt;Node2</title>
<path fill="none" stroke="midnightblue" d="M45.4385,-152.586C56.2269,-170.786 82.0743,-210.529 114,-233 119.974,-237.205 126.762,-240.747 133.67,-243.71"/>
<polygon fill="midnightblue" stroke="midnightblue" points="132.511,-247.014 143.099,-247.397 135.06,-240.495 132.511,-247.014"/>
</g>
<!-- Node3 -->
<g id="node3" class="node"><title>Node3</title>
<g id="a_node3"><a xlink:href="frontend_8js.html#a4f74f201d6c3031faf50ce88c9041be2" target="_top" xlink:title="getCurrentRecords">
<polygon fill="white" stroke="black" points="404,-0.5 404,-19.5 503,-19.5 503,-0.5 404,-0.5"/>
<text text-anchor="middle" x="453.5" y="-7.5" font-family="Helvetica,sans-Serif" font-size="10.00">getCurrentRecords</text>
</a>
</g>
</g>
<!-- Node1&#45;&gt;Node3 -->
<g id="edge2" class="edge"><title>Node1&#45;&gt;Node3</title>
<path fill="none" stroke="midnightblue" d="M77.2922,-133.426C128.538,-120.176 218.018,-96.6755 250,-86 314.898,-64.3369 328.594,-52.0872 393,-29 398.962,-26.8628 405.301,-24.7119 411.534,-22.6647"/>
<polygon fill="midnightblue" stroke="midnightblue" points="412.733,-25.9553 421.172,-19.5499 410.581,-19.2945 412.733,-25.9553"/>
</g>
<!-- Node5 -->
<g id="node5" class="node"><title>Node5</title>
<g id="a_node5"><a xlink:href="backend_8js.html#a46a518d9683fe224cd47219f3da32d07" target="_top" xlink:title="getCountConcepts">
<polygon fill="white" stroke="black" points="133,-171.5 133,-190.5 231,-190.5 231,-171.5 133,-171.5"/>
<text text-anchor="middle" x="182" y="-178.5" font-family="Helvetica,sans-Serif" font-size="10.00">getCountConcepts</text>
</a>
</g>
</g>
<!-- Node1&#45;&gt;Node5 -->
<g id="edge4" class="edge"><title>Node1&#45;&gt;Node5</title>
<path fill="none" stroke="midnightblue" d="M75.5803,-152.589C93.782,-157.494 116.138,-163.52 135.572,-168.757"/>
<polygon fill="midnightblue" stroke="midnightblue" points="134.865,-172.191 145.431,-171.414 136.686,-165.432 134.865,-172.191"/>
</g>
<!-- Node6 -->
<g id="node6" class="node"><title>Node6</title>
<g id="a_node6"><a xlink:href="frontend_8js.html#a27438af3e2a1563428ff28b90c847cfd" target="_top" xlink:title="getCitation">
<polygon fill="white" stroke="black" points="421.5,-266.5 421.5,-285.5 485.5,-285.5 485.5,-266.5 421.5,-266.5"/>
<text text-anchor="middle" x="453.5" y="-273.5" font-family="Helvetica,sans-Serif" font-size="10.00">getCitation</text>
</a>
</g>
</g>
<!-- Node1&#45;&gt;Node6 -->
<g id="edge5" class="edge"><title>Node1&#45;&gt;Node6</title>
<path fill="none" stroke="midnightblue" d="M49.5929,-152.669C62.8736,-165.483 88.1603,-187.879 114,-200 140.893,-212.615 327.345,-250.918 411.476,-267.828"/>
<polygon fill="midnightblue" stroke="midnightblue" points="410.957,-271.293 421.45,-269.829 412.334,-264.43 410.957,-271.293"/>
</g>
<!-- Node7 -->
<g id="node7" class="node"><title>Node7</title>
<g id="a_node7"><a xlink:href="frontend_8js.html#a8df3b053e7e7b29e3e7a408d1bd4b9b1" target="_top" xlink:title="getTotalMaxCalls">
<polygon fill="white" stroke="black" points="135.5,-133.5 135.5,-152.5 228.5,-152.5 228.5,-133.5 135.5,-133.5"/>
<text text-anchor="middle" x="182" y="-140.5" font-family="Helvetica,sans-Serif" font-size="10.00">getTotalMaxCalls</text>
</a>
</g>
</g>
<!-- Node1&#45;&gt;Node7 -->
<g id="edge6" class="edge"><title>Node1&#45;&gt;Node7</title>
<path fill="none" stroke="midnightblue" d="M78.1566,-143C92.6077,-143 109.374,-143 125.121,-143"/>
<polygon fill="midnightblue" stroke="midnightblue" points="125.288,-146.5 135.288,-143 125.288,-139.5 125.288,-146.5"/>
</g>
<!-- Node14 -->
<g id="node14" class="node"><title>Node14</title>
<g id="a_node14"><a xlink:href="namespace_bms.html#a1ac9d33c4292eb4b99fb4e2b98b04ddd" target="_top" xlink:title="Bms\\sluggify">
<polygon fill="white" stroke="black" points="145,-57.5 145,-76.5 219,-76.5 219,-57.5 145,-57.5"/>
<text text-anchor="middle" x="182" y="-64.5" font-family="Helvetica,sans-Serif" font-size="10.00">Bms\sluggify</text>
</a>
</g>
</g>
<!-- Node1&#45;&gt;Node14 -->
<g id="edge17" class="edge"><title>Node1&#45;&gt;Node14</title>
<path fill="none" stroke="midnightblue" d="M51.4193,-133.497C65.4452,-122.185 90.3016,-103.285 114,-91 121.97,-86.8684 130.813,-83.1489 139.391,-79.9402"/>
<polygon fill="midnightblue" stroke="midnightblue" points="140.665,-83.2018 148.903,-76.5399 138.309,-76.6103 140.665,-83.2018"/>
</g>
<!-- Node15 -->
<g id="node15" class="node"><title>Node15</title>
<g id="a_node15"><a xlink:href="namespace_bms.html#a0aa05237e3a5b58db4209829afbdff3c" target="_top" xlink:title="Bms\\getProviderBasicInfos">
<polygon fill="white" stroke="black" points="114,-19.5 114,-38.5 250,-38.5 250,-19.5 114,-19.5"/>
<text text-anchor="middle" x="182" y="-26.5" font-family="Helvetica,sans-Serif" font-size="10.00">Bms\getProviderBasicInfos</text>
</a>
</g>
</g>
<!-- Node1&#45;&gt;Node15 -->
<g id="edge18" class="edge"><title>Node1&#45;&gt;Node15</title>
<path fill="none" stroke="midnightblue" d="M44.8427,-133.268C54.9494,-113.973 80.1857,-70.7719 114,-48 116.947,-46.0151 120.101,-44.2355 123.375,-42.6402"/>
<polygon fill="midnightblue" stroke="midnightblue" points="125.013,-45.7472 132.848,-38.6152 122.276,-39.3046 125.013,-45.7472"/>
</g>
<!-- Node4 -->
<g id="node4" class="node"><title>Node4</title>
<g id="a_node4"><a xlink:href="general_8js.html#a3c52670d7ece95bdca65208692bc18f2" target="_top" xlink:title="displayErrorMessage">
<polygon fill="white" stroke="black" points="550,-190.5 550,-209.5 658,-209.5 658,-190.5 550,-190.5"/>
<text text-anchor="middle" x="604" y="-197.5" font-family="Helvetica,sans-Serif" font-size="10.00">displayErrorMessage</text>
</a>
</g>
</g>
<!-- Node3&#45;&gt;Node4 -->
<g id="edge3" class="edge"><title>Node3&#45;&gt;Node4</title>
<path fill="none" stroke="midnightblue" d="M498.2,-19.5071C503.896,-21.9783 509.356,-25.088 514,-29 562.736,-70.0501 588.208,-144.626 598.063,-180.153"/>
<polygon fill="midnightblue" stroke="midnightblue" points="594.785,-181.449 600.723,-190.223 601.553,-179.661 594.785,-181.449"/>
</g>
<!-- Node8 -->
<g id="node8" class="node"><title>Node8</title>
<g id="a_node8"><a xlink:href="frontend_8js.html#a6879c4dc7db6793991cd72ab19ca85ea" target="_top" xlink:title="getProviders">
<polygon fill="white" stroke="black" points="286,-133.5 286,-152.5 357,-152.5 357,-133.5 286,-133.5"/>
<text text-anchor="middle" x="321.5" y="-140.5" font-family="Helvetica,sans-Serif" font-size="10.00">getProviders</text>
</a>
</g>
</g>
<!-- Node7&#45;&gt;Node8 -->
<g id="edge7" class="edge"><title>Node7&#45;&gt;Node8</title>
<path fill="none" stroke="midnightblue" d="M228.786,-143C243.892,-143 260.671,-143 275.703,-143"/>
<polygon fill="midnightblue" stroke="midnightblue" points="275.789,-146.5 285.789,-143 275.789,-139.5 275.789,-146.5"/>
</g>
<!-- Node8&#45;&gt;Node3 -->
<g id="edge13" class="edge"><title>Node8&#45;&gt;Node3</title>
<path fill="none" stroke="midnightblue" d="M340.261,-133.488C346.201,-129.622 352.459,-124.711 357,-119 383.812,-85.2788 361.469,-58.3562 393,-29 394.709,-27.409 396.551,-25.9513 398.492,-24.6156"/>
<polygon fill="midnightblue" stroke="midnightblue" points="400.547,-27.4747 407.53,-19.5065 397.102,-21.381 400.547,-27.4747"/>
</g>
<!-- Node8&#45;&gt;Node4 -->
<g id="edge8" class="edge"><title>Node8&#45;&gt;Node4</title>
<path fill="none" stroke="midnightblue" d="M336.336,-152.66C350.039,-161.678 371.963,-174.67 393,-181 440.767,-195.374 497.181,-199.829 539.504,-200.852"/>
<polygon fill="midnightblue" stroke="midnightblue" points="539.61,-204.354 549.672,-201.039 539.738,-197.356 539.61,-204.354"/>
</g>
<!-- Node8&#45;&gt;Node6 -->
<g id="edge10" class="edge"><title>Node8&#45;&gt;Node6</title>
<path fill="none" stroke="midnightblue" d="M328,-152.735C342.883,-178.949 383.463,-249.552 393,-257 398.512,-261.305 405.024,-264.647 411.682,-267.237"/>
<polygon fill="midnightblue" stroke="midnightblue" points="410.847,-270.649 421.441,-270.52 413.079,-264.015 410.847,-270.649"/>
</g>
<!-- Node9 -->
<g id="node9" class="node"><title>Node9</title>
<g id="a_node9"><a xlink:href="frontend_8js.html#ad1b6f7258037f83d33075afa5ed17c83" target="_top" xlink:title="buildUI">
<polygon fill="white" stroke="black" points="430,-114.5 430,-133.5 477,-133.5 477,-114.5 430,-114.5"/>
<text text-anchor="middle" x="453.5" y="-121.5" font-family="Helvetica,sans-Serif" font-size="10.00">buildUI</text>
</a>
</g>
</g>
<!-- Node8&#45;&gt;Node9 -->
<g id="edge9" class="edge"><title>Node8&#45;&gt;Node9</title>
<path fill="none" stroke="midnightblue" d="M357.338,-137.908C376.756,-135.07 400.789,-131.558 419.845,-128.773"/>
<polygon fill="midnightblue" stroke="midnightblue" points="420.469,-132.219 429.858,-127.309 419.457,-125.292 420.469,-132.219"/>
</g>
<!-- Node10 -->
<g id="node10" class="node"><title>Node10</title>
<g id="a_node10"><a xlink:href="general_8js.html#ab624ce9aebffbb8bc3159502c4afc32b" target="_top" xlink:title="copyToClipboard">
<polygon fill="white" stroke="black" points="408.5,-76.5 408.5,-95.5 498.5,-95.5 498.5,-76.5 408.5,-76.5"/>
<text text-anchor="middle" x="453.5" y="-83.5" font-family="Helvetica,sans-Serif" font-size="10.00">copyToClipboard</text>
</a>
</g>
</g>
<!-- Node8&#45;&gt;Node10 -->
<g id="edge11" class="edge"><title>Node8&#45;&gt;Node10</title>
<path fill="none" stroke="midnightblue" d="M338.321,-133.373C352.341,-125.111 373.548,-113.264 393,-105 398.115,-102.827 403.567,-100.763 409.015,-98.8503"/>
<polygon fill="midnightblue" stroke="midnightblue" points="410.38,-102.084 418.746,-95.582 408.152,-95.4482 410.38,-102.084"/>
</g>
<!-- Node11 -->
<g id="node11" class="node"><title>Node11</title>
<g id="a_node11"><a xlink:href="general_8js.html#ab591f84505f74590e87095cce52c8354" target="_top" xlink:title="displaySystemMessage">
<polygon fill="white" stroke="black" points="393,-38.5 393,-57.5 514,-57.5 514,-38.5 393,-38.5"/>
<text text-anchor="middle" x="453.5" y="-45.5" font-family="Helvetica,sans-Serif" font-size="10.00">displaySystemMessage</text>
</a>
</g>
</g>
<!-- Node8&#45;&gt;Node11 -->
<g id="edge12" class="edge"><title>Node8&#45;&gt;Node11</title>
<path fill="none" stroke="midnightblue" d="M338.876,-133.346C344.942,-129.34 351.64,-124.372 357,-119 376.854,-99.1014 370.406,-83.7228 393,-67 395.615,-65.0646 398.434,-63.3219 401.373,-61.7534"/>
<polygon fill="midnightblue" stroke="midnightblue" points="402.859,-64.9224 410.47,-57.5513 399.924,-58.5677 402.859,-64.9224"/>
</g>
<!-- Node12 -->
<g id="node12" class="node"><title>Node12</title>
<g id="a_node12"><a xlink:href="frontend_8js.html#ab0858f7d9b6a5cdace9d1838e33cf1c2" target="_top" xlink:title="getCountConcept">
<polygon fill="white" stroke="black" points="407,-228.5 407,-247.5 500,-247.5 500,-228.5 407,-228.5"/>
<text text-anchor="middle" x="453.5" y="-235.5" font-family="Helvetica,sans-Serif" font-size="10.00">getCountConcept</text>
</a>
</g>
</g>
<!-- Node8&#45;&gt;Node12 -->
<g id="edge14" class="edge"><title>Node8&#45;&gt;Node12</title>
<path fill="none" stroke="midnightblue" d="M329.968,-152.738C341.871,-167.69 366.518,-196.415 393,-214 398.923,-217.933 405.591,-221.396 412.264,-224.38"/>
<polygon fill="midnightblue" stroke="midnightblue" points="411.382,-227.804 421.96,-228.408 414.068,-221.339 411.382,-227.804"/>
</g>
<!-- Node13 -->
<g id="node13" class="node"><title>Node13</title>
<g id="a_node13"><a xlink:href="frontend_8js.html#a8d70fa25300ca2d61b7f6dcb509ab894" target="_top" xlink:title="allowMultipleOpen">
<polygon fill="white" stroke="black" points="405.5,-152.5 405.5,-171.5 501.5,-171.5 501.5,-152.5 405.5,-152.5"/>
<text text-anchor="middle" x="453.5" y="-159.5" font-family="Helvetica,sans-Serif" font-size="10.00">allowMultipleOpen</text>
</a>
</g>
</g>
<!-- Node8&#45;&gt;Node13 -->
<g id="edge16" class="edge"><title>Node8&#45;&gt;Node13</title>
<path fill="none" stroke="midnightblue" d="M357.338,-148.092C368.969,-149.792 382.257,-151.734 395.139,-153.616"/>
<polygon fill="midnightblue" stroke="midnightblue" points="394.942,-157.125 405.343,-155.108 395.954,-150.198 394.942,-157.125"/>
</g>
<!-- Node12&#45;&gt;Node4 -->
<g id="edge15" class="edge"><title>Node12&#45;&gt;Node4</title>
<path fill="none" stroke="midnightblue" d="M491.973,-228.411C511.392,-223.442 535.302,-217.323 555.954,-212.039"/>
<polygon fill="midnightblue" stroke="midnightblue" points="556.976,-215.39 565.797,-209.52 555.241,-208.608 556.976,-215.39"/>
</g>
</g>
</svg>
