<?xml version="1.0" encoding="UTF-8" standalone="no"?>
<!DOCTYPE svg PUBLIC "-//W3C//DTD SVG 1.1//EN"
 "http://www.w3.org/Graphics/SVG/1.1/DTD/svg11.dtd">
<!-- Generated by graphviz version 2.38.0 (20140413.2041)
 -->
<!-- Title: ready Pages: 1 -->
<svg width="146pt" height="66pt"
 viewBox="0.00 0.00 146.00 66.00" xmlns="http://www.w3.org/2000/svg" xmlns:xlink="http://www.w3.org/1999/xlink">
<g id="graph0" class="graph" transform="scale(1 1) rotate(0) translate(4 62)">
<title>ready</title>
<polygon fill="white" stroke="none" points="-4,4 -4,-62 142,-62 142,4 -4,4"/>
<!-- Node1 -->
<g id="node1" class="node"><title>Node1</title>
<polygon fill="#bfbfbf" stroke="black" points="0,-19.5 0,-38.5 41,-38.5 41,-19.5 0,-19.5"/>
<text text-anchor="middle" x="20.5" y="-26.5" font-family="Helvetica,sans-Serif" font-size="10.00">ready</text>
</g>
<!-- Node2 -->
<g id="node2" class="node"><title>Node2</title>
<g id="a_node2"><a xlink:href="manage_user_8php.html#ac4a74e72e3c7731da127516dd1265aae" target="_top" xlink:title="bin2crud">
<polygon fill="white" stroke="black" points="81,-38.5 81,-57.5 134,-57.5 134,-38.5 81,-38.5"/>
<text text-anchor="middle" x="107.5" y="-45.5" font-family="Helvetica,sans-Serif" font-size="10.00">bin2crud</text>
</a>
</g>
</g>
<!-- Node1&#45;&gt;Node2 -->
<g id="edge1" class="edge"><title>Node1&#45;&gt;Node2</title>
<path fill="none" stroke="midnightblue" d="M51.1878,-35.6361C60.8283,-37.791 71.439,-40.1628 80.7665,-42.2478"/>
<polygon fill="midnightblue" stroke="midnightblue" points="51.7371,-32.1726 41.2144,-33.4067 50.21,-39.004 51.7371,-32.1726"/>
</g>
<!-- Node3 -->
<g id="node3" class="node"><title>Node3</title>
<g id="a_node3"><a xlink:href="consistency_8js.html#ae9dd19ed0c7bfeca794906a98cf25658" target="_top" xlink:title="getUnique">
<polygon fill="white" stroke="black" points="77,-0.5 77,-19.5 138,-19.5 138,-0.5 77,-0.5"/>
<text text-anchor="middle" x="107.5" y="-7.5" font-family="Helvetica,sans-Serif" font-size="10.00">getUnique</text>
</a>
</g>
</g>
<!-- Node1&#45;&gt;Node3 -->
<g id="edge2" class="edge"><title>Node1&#45;&gt;Node3</title>
<path fill="none" stroke="midnightblue" d="M51.2494,-22.3501C59.5602,-20.4924 68.5878,-18.4745 76.8904,-16.6186"/>
<polygon fill="midnightblue" stroke="midnightblue" points="50.21,-18.996 41.2144,-24.5933 51.7371,-25.8274 50.21,-18.996"/>
</g>
</g>
</svg>
