<?xml version="1.0" encoding="UTF-8" standalone="no"?>
<!DOCTYPE svg PUBLIC "-//W3C//DTD SVG 1.1//EN"
 "http://www.w3.org/Graphics/SVG/1.1/DTD/svg11.dtd">
<!-- Generated by graphviz version 2.38.0 (20140413.2041)
 -->
<!-- Title: getUnique Pages: 1 -->
<svg width="341pt" height="28pt"
 viewBox="0.00 0.00 341.00 28.00" xmlns="http://www.w3.org/2000/svg" xmlns:xlink="http://www.w3.org/1999/xlink">
<g id="graph0" class="graph" transform="scale(1 1) rotate(0) translate(4 24)">
<title>getUnique</title>
<polygon fill="white" stroke="none" points="-4,4 -4,-24 337,-24 337,4 -4,4"/>
<!-- Node1 -->
<g id="node1" class="node"><title>Node1</title>
<polygon fill="#bfbfbf" stroke="black" points="0,-0.5 0,-19.5 61,-19.5 61,-0.5 0,-0.5"/>
<text text-anchor="middle" x="30.5" y="-7.5" font-family="Helvetica,sans-Serif" font-size="10.00">getUnique</text>
</g>
<!-- Node2 -->
<g id="node2" class="node"><title>Node2</title>
<g id="a_node2"><a xlink:href="consistency_8js.html#a1e60b6d66b2394a2eff6d3992fefcc4e" target="_top" xlink:title="getExampleValues">
<polygon fill="white" stroke="black" points="97,-0.5 97,-19.5 195,-19.5 195,-0.5 97,-0.5"/>
<text text-anchor="middle" x="146" y="-7.5" font-family="Helvetica,sans-Serif" font-size="10.00">getExampleValues</text>
</a>
</g>
</g>
<!-- Node1&#45;&gt;Node2 -->
<g id="edge1" class="edge"><title>Node1&#45;&gt;Node2</title>
<path fill="none" stroke="midnightblue" d="M71.1401,-10C79.3984,-10 88.1901,-10 96.7205,-10"/>
<polygon fill="midnightblue" stroke="midnightblue" points="71.0245,-6.5001 61.0245,-10 71.0245,-13.5001 71.0245,-6.5001"/>
</g>
<!-- Node3 -->
<g id="node3" class="node"><title>Node3</title>
<g id="a_node3"><a xlink:href="consistency_8js.html#ab2bc9df2b9396792aff9dc3530669abf" target="_top" xlink:title="processCapabilities">
<polygon fill="white" stroke="black" points="231,-0.5 231,-19.5 333,-19.5 333,-0.5 231,-0.5"/>
<text text-anchor="middle" x="282" y="-7.5" font-family="Helvetica,sans-Serif" font-size="10.00">processCapabilities</text>
</a>
</g>
</g>
<!-- Node2&#45;&gt;Node3 -->
<g id="edge2" class="edge"><title>Node2&#45;&gt;Node3</title>
<path fill="none" stroke="midnightblue" d="M205.553,-10C213.999,-10 222.627,-10 230.889,-10"/>
<polygon fill="midnightblue" stroke="midnightblue" points="205.377,-6.5001 195.377,-10 205.377,-13.5001 205.377,-6.5001"/>
</g>
</g>
</svg>
