<?xml version="1.0" encoding="UTF-8" standalone="no"?>
<!DOCTYPE svg PUBLIC "-//W3C//DTD SVG 1.1//EN"
 "http://www.w3.org/Graphics/SVG/1.1/DTD/svg11.dtd">
<!-- Generated by graphviz version 2.38.0 (20140413.2041)
 -->
<!-- Title: getUnique Pages: 1 -->
<svg width="342pt" height="142pt"
 viewBox="0.00 0.00 342.00 142.00" xmlns="http://www.w3.org/2000/svg" xmlns:xlink="http://www.w3.org/1999/xlink">
<g id="graph0" class="graph" transform="scale(1 1) rotate(0) translate(4 138)">
<title>getUnique</title>
<polygon fill="white" stroke="none" points="-4,4 -4,-138 338,-138 338,4 -4,4"/>
<!-- Node1 -->
<g id="node1" class="node"><title>Node1</title>
<polygon fill="#bfbfbf" stroke="black" points="0,-57.5 0,-76.5 61,-76.5 61,-57.5 0,-57.5"/>
<text text-anchor="middle" x="30.5" y="-64.5" font-family="Helvetica,sans-Serif" font-size="10.00">getUnique</text>
</g>
<!-- Node2 -->
<g id="node2" class="node"><title>Node2</title>
<g id="a_node2"><a xlink:href="consistency_8js.html#a7bb5a19e236ee2de1ca00ee803dc92ab" target="_top" xlink:title="ready">
<polygon fill="white" stroke="black" points="123,-114.5 123,-133.5 164,-133.5 164,-114.5 123,-114.5"/>
<text text-anchor="middle" x="143.5" y="-121.5" font-family="Helvetica,sans-Serif" font-size="10.00">ready</text>
</a>
</g>
</g>
<!-- Node1&#45;&gt;Node2 -->
<g id="edge1" class="edge"><title>Node1&#45;&gt;Node2</title>
<path fill="none" stroke="midnightblue" d="M46.8041,-76.6411C59.8839,-84.6945 79.3354,-96.2341 97,-105 102.176,-107.569 107.786,-110.103 113.241,-112.444"/>
<polygon fill="midnightblue" stroke="midnightblue" points="112.188,-115.797 122.765,-116.412 114.88,-109.335 112.188,-115.797"/>
</g>
<!-- Node3 -->
<g id="node3" class="node"><title>Node3</title>
<g id="a_node3"><a xlink:href="frontend_8js.html#ab0858f7d9b6a5cdace9d1838e33cf1c2" target="_top" xlink:title="getCountConcept">
<polygon fill="white" stroke="black" points="97,-76.5 97,-95.5 190,-95.5 190,-76.5 97,-76.5"/>
<text text-anchor="middle" x="143.5" y="-83.5" font-family="Helvetica,sans-Serif" font-size="10.00">getCountConcept</text>
</a>
</g>
</g>
<!-- Node1&#45;&gt;Node3 -->
<g id="edge2" class="edge"><title>Node1&#45;&gt;Node3</title>
<path fill="none" stroke="midnightblue" d="M61.246,-72.0917C69.1779,-73.4494 78.0115,-74.9614 86.8503,-76.4744"/>
<polygon fill="midnightblue" stroke="midnightblue" points="86.3367,-79.9373 96.7839,-78.1747 87.5178,-73.0376 86.3367,-79.9373"/>
</g>
<!-- Node5 -->
<g id="node5" class="node"><title>Node5</title>
<g id="a_node5"><a xlink:href="general_8js.html#a0edb409ffb3ee2517792cf9068954410" target="_top" xlink:title="formatXml">
<polygon fill="white" stroke="black" points="112.5,-38.5 112.5,-57.5 174.5,-57.5 174.5,-38.5 112.5,-38.5"/>
<text text-anchor="middle" x="143.5" y="-45.5" font-family="Helvetica,sans-Serif" font-size="10.00">formatXml</text>
</a>
</g>
</g>
<!-- Node1&#45;&gt;Node5 -->
<g id="edge4" class="edge"><title>Node1&#45;&gt;Node5</title>
<path fill="none" stroke="midnightblue" d="M61.246,-61.9083C73.8347,-59.7535 88.6948,-57.2099 102.242,-54.8911"/>
<polygon fill="midnightblue" stroke="midnightblue" points="103.02,-58.3089 112.286,-53.1718 101.838,-51.4093 103.02,-58.3089"/>
</g>
<!-- Node6 -->
<g id="node6" class="node"><title>Node6</title>
<g id="a_node6"><a xlink:href="general_8js.html#ab624ce9aebffbb8bc3159502c4afc32b" target="_top" xlink:title="copyToClipboard">
<polygon fill="white" stroke="black" points="98.5,-0.5 98.5,-19.5 188.5,-19.5 188.5,-0.5 98.5,-0.5"/>
<text text-anchor="middle" x="143.5" y="-7.5" font-family="Helvetica,sans-Serif" font-size="10.00">copyToClipboard</text>
</a>
</g>
</g>
<!-- Node1&#45;&gt;Node6 -->
<g id="edge5" class="edge"><title>Node1&#45;&gt;Node6</title>
<path fill="none" stroke="midnightblue" d="M46.8041,-57.3589C59.8839,-49.3055 79.3354,-37.7659 97,-29 100.606,-27.2104 104.423,-25.437 108.252,-23.7344"/>
<polygon fill="midnightblue" stroke="midnightblue" points="109.876,-26.8458 117.679,-19.6787 107.11,-20.4157 109.876,-26.8458"/>
</g>
<!-- Node4 -->
<g id="node4" class="node"><title>Node4</title>
<g id="a_node4"><a xlink:href="general_8js.html#a3c52670d7ece95bdca65208692bc18f2" target="_top" xlink:title="displayErrorMessage">
<polygon fill="white" stroke="black" points="226,-76.5 226,-95.5 334,-95.5 334,-76.5 226,-76.5"/>
<text text-anchor="middle" x="280" y="-83.5" font-family="Helvetica,sans-Serif" font-size="10.00">displayErrorMessage</text>
</a>
</g>
</g>
<!-- Node3&#45;&gt;Node4 -->
<g id="edge3" class="edge"><title>Node3&#45;&gt;Node4</title>
<path fill="none" stroke="midnightblue" d="M190.036,-86C198.252,-86 206.953,-86 215.57,-86"/>
<polygon fill="midnightblue" stroke="midnightblue" points="215.613,-89.5001 225.613,-86 215.613,-82.5001 215.613,-89.5001"/>
</g>
</g>
</svg>
