<?xml version="1.0" encoding="UTF-8" standalone="no"?>
<!DOCTYPE svg PUBLIC "-//W3C//DTD SVG 1.1//EN"
 "http://www.w3.org/Graphics/SVG/1.1/DTD/svg11.dtd">
<!-- Generated by graphviz version 2.38.0 (20140413.2041)
 -->
<!-- Title: processCapabilities Pages: 1 -->
<svg width="373pt" height="142pt"
 viewBox="0.00 0.00 373.00 142.00" xmlns="http://www.w3.org/2000/svg" xmlns:xlink="http://www.w3.org/1999/xlink">
<g id="graph0" class="graph" transform="scale(1 1) rotate(0) translate(4 138)">
<title>processCapabilities</title>
<polygon fill="white" stroke="none" points="-4,4 -4,-138 369,-138 369,4 -4,4"/>
<!-- Node1 -->
<g id="node1" class="node"><title>Node1</title>
<polygon fill="#bfbfbf" stroke="black" points="0,-57.5 0,-76.5 102,-76.5 102,-57.5 0,-57.5"/>
<text text-anchor="middle" x="51" y="-64.5" font-family="Helvetica,sans-Serif" font-size="10.00">processCapabilities</text>
</g>
<!-- Node2 -->
<g id="node2" class="node"><title>Node2</title>
<g id="a_node2"><a xlink:href="consistency_8js.html#a1e60b6d66b2394a2eff6d3992fefcc4e" target="_top" xlink:title="getExampleValues">
<polygon fill="white" stroke="black" points="138,-57.5 138,-76.5 236,-76.5 236,-57.5 138,-57.5"/>
<text text-anchor="middle" x="187" y="-64.5" font-family="Helvetica,sans-Serif" font-size="10.00">getExampleValues</text>
</a>
</g>
</g>
<!-- Node1&#45;&gt;Node2 -->
<g id="edge1" class="edge"><title>Node1&#45;&gt;Node2</title>
<path fill="none" stroke="midnightblue" d="M102.278,-67C110.514,-67 119.111,-67 127.525,-67"/>
<polygon fill="midnightblue" stroke="midnightblue" points="127.661,-70.5001 137.661,-67 127.661,-63.5001 127.661,-70.5001"/>
</g>
<!-- Node3 -->
<g id="node3" class="node"><title>Node3</title>
<g id="a_node3"><a xlink:href="general_8js.html#a0edb409ffb3ee2517792cf9068954410" target="_top" xlink:title="formatXml">
<polygon fill="white" stroke="black" points="287.5,-114.5 287.5,-133.5 349.5,-133.5 349.5,-114.5 287.5,-114.5"/>
<text text-anchor="middle" x="318.5" y="-121.5" font-family="Helvetica,sans-Serif" font-size="10.00">formatXml</text>
</a>
</g>
</g>
<!-- Node2&#45;&gt;Node3 -->
<g id="edge2" class="edge"><title>Node2&#45;&gt;Node3</title>
<path fill="none" stroke="midnightblue" d="M208.637,-76.539C225.595,-84.3283 250.276,-95.5529 272,-105 276.175,-106.816 280.58,-108.697 284.938,-110.539"/>
<polygon fill="midnightblue" stroke="midnightblue" points="283.722,-113.824 294.297,-114.465 286.43,-107.369 283.722,-113.824"/>
</g>
<!-- Node4 -->
<g id="node4" class="node"><title>Node4</title>
<g id="a_node4"><a xlink:href="general_8js.html#ab624ce9aebffbb8bc3159502c4afc32b" target="_top" xlink:title="copyToClipboard">
<polygon fill="white" stroke="black" points="273.5,-76.5 273.5,-95.5 363.5,-95.5 363.5,-76.5 273.5,-76.5"/>
<text text-anchor="middle" x="318.5" y="-83.5" font-family="Helvetica,sans-Serif" font-size="10.00">copyToClipboard</text>
</a>
</g>
</g>
<!-- Node2&#45;&gt;Node4 -->
<g id="edge3" class="edge"><title>Node2&#45;&gt;Node4</title>
<path fill="none" stroke="midnightblue" d="M236.221,-74.0749C244.999,-75.3627 254.211,-76.7143 263.151,-78.026"/>
<polygon fill="midnightblue" stroke="midnightblue" points="262.69,-81.4957 273.092,-79.4845 263.706,-74.5699 262.69,-81.4957"/>
</g>
<!-- Node5 -->
<g id="node5" class="node"><title>Node5</title>
<g id="a_node5"><a xlink:href="consistency_8js.html#ae9dd19ed0c7bfeca794906a98cf25658" target="_top" xlink:title="getUnique">
<polygon fill="white" stroke="black" points="288,-38.5 288,-57.5 349,-57.5 349,-38.5 288,-38.5"/>
<text text-anchor="middle" x="318.5" y="-45.5" font-family="Helvetica,sans-Serif" font-size="10.00">getUnique</text>
</a>
</g>
</g>
<!-- Node2&#45;&gt;Node5 -->
<g id="edge4" class="edge"><title>Node2&#45;&gt;Node5</title>
<path fill="none" stroke="midnightblue" d="M236.221,-59.9251C249.839,-57.9271 264.503,-55.7756 277.576,-53.8576"/>
<polygon fill="midnightblue" stroke="midnightblue" points="278.282,-57.2915 287.668,-52.3769 277.266,-50.3657 278.282,-57.2915"/>
</g>
<!-- Node6 -->
<g id="node6" class="node"><title>Node6</title>
<g id="a_node6"><a xlink:href="consistency_8js.html#af2951749c203974c13172ee95209c02d" target="_top" xlink:title="getCountConcept">
<polygon fill="white" stroke="black" points="272,-0.5 272,-19.5 365,-19.5 365,-0.5 272,-0.5"/>
<text text-anchor="middle" x="318.5" y="-7.5" font-family="Helvetica,sans-Serif" font-size="10.00">getCountConcept</text>
</a>
</g>
</g>
<!-- Node2&#45;&gt;Node6 -->
<g id="edge5" class="edge"><title>Node2&#45;&gt;Node6</title>
<path fill="none" stroke="midnightblue" d="M208.637,-57.461C225.595,-49.6717 250.276,-38.4471 272,-29 276.175,-27.1843 280.58,-25.3029 284.938,-23.4615"/>
<polygon fill="midnightblue" stroke="midnightblue" points="286.43,-26.6312 294.297,-19.5353 283.722,-20.1761 286.43,-26.6312"/>
</g>
</g>
</svg>
