<?xml version="1.0" encoding="UTF-8" standalone="no"?>
<!DOCTYPE svg PUBLIC "-//W3C//DTD SVG 1.1//EN"
 "http://www.w3.org/Graphics/SVG/1.1/DTD/svg11.dtd">
<!-- Generated by graphviz version 2.38.0 (20140413.2041)
 -->
<!-- Title: getExampleValues Pages: 1 -->
<svg width="235pt" height="142pt"
 viewBox="0.00 0.00 235.00 142.00" xmlns="http://www.w3.org/2000/svg" xmlns:xlink="http://www.w3.org/1999/xlink">
<g id="graph0" class="graph" transform="scale(1 1) rotate(0) translate(4 138)">
<title>getExampleValues</title>
<polygon fill="white" stroke="none" points="-4,4 -4,-138 231,-138 231,4 -4,4"/>
<!-- Node1 -->
<g id="node1" class="node"><title>Node1</title>
<polygon fill="#bfbfbf" stroke="black" points="0,-57.5 0,-76.5 98,-76.5 98,-57.5 0,-57.5"/>
<text text-anchor="middle" x="49" y="-64.5" font-family="Helvetica,sans-Serif" font-size="10.00">getExampleValues</text>
</g>
<!-- Node2 -->
<g id="node2" class="node"><title>Node2</title>
<g id="a_node2"><a xlink:href="general_8js.html#a0edb409ffb3ee2517792cf9068954410" target="_top" xlink:title="formatXml">
<polygon fill="white" stroke="black" points="149.5,-114.5 149.5,-133.5 211.5,-133.5 211.5,-114.5 149.5,-114.5"/>
<text text-anchor="middle" x="180.5" y="-121.5" font-family="Helvetica,sans-Serif" font-size="10.00">formatXml</text>
</a>
</g>
</g>
<!-- Node1&#45;&gt;Node2 -->
<g id="edge1" class="edge"><title>Node1&#45;&gt;Node2</title>
<path fill="none" stroke="midnightblue" d="M70.6372,-76.539C87.5953,-84.3283 112.276,-95.5529 134,-105 138.175,-106.816 142.58,-108.697 146.938,-110.539"/>
<polygon fill="midnightblue" stroke="midnightblue" points="145.722,-113.824 156.297,-114.465 148.43,-107.369 145.722,-113.824"/>
</g>
<!-- Node3 -->
<g id="node3" class="node"><title>Node3</title>
<g id="a_node3"><a xlink:href="general_8js.html#ab624ce9aebffbb8bc3159502c4afc32b" target="_top" xlink:title="copyToClipboard">
<polygon fill="white" stroke="black" points="135.5,-76.5 135.5,-95.5 225.5,-95.5 225.5,-76.5 135.5,-76.5"/>
<text text-anchor="middle" x="180.5" y="-83.5" font-family="Helvetica,sans-Serif" font-size="10.00">copyToClipboard</text>
</a>
</g>
</g>
<!-- Node1&#45;&gt;Node3 -->
<g id="edge2" class="edge"><title>Node1&#45;&gt;Node3</title>
<path fill="none" stroke="midnightblue" d="M98.221,-74.0749C106.999,-75.3627 116.211,-76.7143 125.151,-78.026"/>
<polygon fill="midnightblue" stroke="midnightblue" points="124.69,-81.4957 135.092,-79.4845 125.706,-74.5699 124.69,-81.4957"/>
</g>
<!-- Node4 -->
<g id="node4" class="node"><title>Node4</title>
<g id="a_node4"><a xlink:href="consistency_8js.html#ae9dd19ed0c7bfeca794906a98cf25658" target="_top" xlink:title="getUnique">
<polygon fill="white" stroke="black" points="150,-38.5 150,-57.5 211,-57.5 211,-38.5 150,-38.5"/>
<text text-anchor="middle" x="180.5" y="-45.5" font-family="Helvetica,sans-Serif" font-size="10.00">getUnique</text>
</a>
</g>
</g>
<!-- Node1&#45;&gt;Node4 -->
<g id="edge3" class="edge"><title>Node1&#45;&gt;Node4</title>
<path fill="none" stroke="midnightblue" d="M98.221,-59.9251C111.839,-57.9271 126.503,-55.7756 139.576,-53.8576"/>
<polygon fill="midnightblue" stroke="midnightblue" points="140.282,-57.2915 149.668,-52.3769 139.266,-50.3657 140.282,-57.2915"/>
</g>
<!-- Node5 -->
<g id="node5" class="node"><title>Node5</title>
<g id="a_node5"><a xlink:href="consistency_8js.html#af2951749c203974c13172ee95209c02d" target="_top" xlink:title="getCountConcept">
<polygon fill="white" stroke="black" points="134,-0.5 134,-19.5 227,-19.5 227,-0.5 134,-0.5"/>
<text text-anchor="middle" x="180.5" y="-7.5" font-family="Helvetica,sans-Serif" font-size="10.00">getCountConcept</text>
</a>
</g>
</g>
<!-- Node1&#45;&gt;Node5 -->
<g id="edge4" class="edge"><title>Node1&#45;&gt;Node5</title>
<path fill="none" stroke="midnightblue" d="M70.6372,-57.461C87.5953,-49.6717 112.276,-38.4471 134,-29 138.175,-27.1843 142.58,-25.3029 146.938,-23.4615"/>
<polygon fill="midnightblue" stroke="midnightblue" points="148.43,-26.6312 156.297,-19.5353 145.722,-20.1761 148.43,-26.6312"/>
</g>
</g>
</svg>
