<?xml version="1.0" encoding="UTF-8" standalone="no"?>
<!DOCTYPE svg PUBLIC "-//W3C//DTD SVG 1.1//EN"
 "http://www.w3.org/Graphics/SVG/1.1/DTD/svg11.dtd">
<!-- Generated by graphviz version 2.38.0 (20140413.2041)
 -->
<!-- Title: loadMessages Pages: 1 -->
<svg width="249pt" height="66pt"
 viewBox="0.00 0.00 249.00 66.00" xmlns="http://www.w3.org/2000/svg" xmlns:xlink="http://www.w3.org/1999/xlink">
<g id="graph0" class="graph" transform="scale(1 1) rotate(0) translate(4 62)">
<title>loadMessages</title>
<polygon fill="white" stroke="none" points="-4,4 -4,-62 245,-62 245,4 -4,4"/>
<!-- Node1 -->
<g id="node1" class="node"><title>Node1</title>
<polygon fill="#bfbfbf" stroke="black" points="0,-19.5 0,-38.5 80,-38.5 80,-19.5 0,-19.5"/>
<text text-anchor="middle" x="40" y="-26.5" font-family="Helvetica,sans-Serif" font-size="10.00">loadMessages</text>
</g>
<!-- Node2 -->
<g id="node2" class="node"><title>Node2</title>
<g id="a_node2"><a xlink:href="lib_2get_messages_8php.html#a8866f7e7b1fb9d3d745f325d2739e114" target="_top" xlink:title="loadMessages">
<polygon fill="white" stroke="black" points="138.5,-38.5 138.5,-57.5 218.5,-57.5 218.5,-38.5 138.5,-38.5"/>
<text text-anchor="middle" x="178.5" y="-45.5" font-family="Helvetica,sans-Serif" font-size="10.00">loadMessages</text>
</a>
</g>
</g>
<!-- Node1&#45;&gt;Node2 -->
<g id="edge1" class="edge"><title>Node1&#45;&gt;Node2</title>
<path fill="none" stroke="midnightblue" d="M90.2605,-35.8568C106.083,-38.0592 123.385,-40.4676 138.379,-42.5546"/>
<polygon fill="midnightblue" stroke="midnightblue" points="90.5025,-32.3568 80.1154,-34.4446 89.5374,-39.29 90.5025,-32.3568"/>
</g>
<!-- Node3 -->
<g id="node3" class="node"><title>Node3</title>
<g id="a_node3"><a xlink:href="class_bms_1_1_bms.html#aec5f7b55928d9eb969567ab87ea9e021" target="_top" xlink:title="Bms\\Bms\\frontController">
<polygon fill="white" stroke="black" points="116,-0.5 116,-19.5 241,-19.5 241,-0.5 116,-0.5"/>
<text text-anchor="middle" x="178.5" y="-7.5" font-family="Helvetica,sans-Serif" font-size="10.00">Bms\Bms\frontController</text>
</a>
</g>
</g>
<!-- Node1&#45;&gt;Node3 -->
<g id="edge2" class="edge"><title>Node1&#45;&gt;Node3</title>
<path fill="none" stroke="midnightblue" d="M90.1007,-22.1655C98.4888,-20.9979 107.297,-19.7719 115.959,-18.5661"/>
<polygon fill="midnightblue" stroke="midnightblue" points="89.5374,-18.71 80.1154,-23.5554 90.5025,-25.6432 89.5374,-18.71"/>
</g>
</g>
</svg>
