<?xml version="1.0" encoding="UTF-8" standalone="no"?>
<!DOCTYPE svg PUBLIC "-//W3C//DTD SVG 1.1//EN"
 "http://www.w3.org/Graphics/SVG/1.1/DTD/svg11.dtd">
<!-- Generated by graphviz version 2.38.0 (20140413.2041)
 -->
<!-- Title: getTotalMaxCalls Pages: 1 -->
<svg width="509pt" height="285pt"
 viewBox="0.00 0.00 509.00 285.39" xmlns="http://www.w3.org/2000/svg" xmlns:xlink="http://www.w3.org/1999/xlink">
<g id="graph0" class="graph" transform="scale(1 1) rotate(0) translate(4 281.388)">
<title>getTotalMaxCalls</title>
<polygon fill="white" stroke="none" points="-4,4 -4,-281.388 505,-281.388 505,4 -4,4"/>
<!-- Node1 -->
<g id="node1" class="node"><title>Node1</title>
<polygon fill="#bfbfbf" stroke="black" points="0,-133.5 0,-152.5 93,-152.5 93,-133.5 0,-133.5"/>
<text text-anchor="middle" x="46.5" y="-140.5" font-family="Helvetica,sans-Serif" font-size="10.00">getTotalMaxCalls</text>
</g>
<!-- Node2 -->
<g id="node2" class="node"><title>Node2</title>
<g id="a_node2"><a xlink:href="frontend_8js.html#a6879c4dc7db6793991cd72ab19ca85ea" target="_top" xlink:title="getProviders">
<polygon fill="white" stroke="black" points="129,-133.5 129,-152.5 200,-152.5 200,-133.5 129,-133.5"/>
<text text-anchor="middle" x="164.5" y="-140.5" font-family="Helvetica,sans-Serif" font-size="10.00">getProviders</text>
</a>
</g>
</g>
<!-- Node1&#45;&gt;Node2 -->
<g id="edge1" class="edge"><title>Node1&#45;&gt;Node2</title>
<path fill="none" stroke="midnightblue" d="M93.0133,-143C101.497,-143 110.355,-143 118.813,-143"/>
<polygon fill="midnightblue" stroke="midnightblue" points="118.88,-146.5 128.88,-143 118.88,-139.5 118.88,-146.5"/>
</g>
<!-- Node3 -->
<g id="node3" class="node"><title>Node3</title>
<g id="a_node3"><a xlink:href="general_8js.html#a3c52670d7ece95bdca65208692bc18f2" target="_top" xlink:title="displayErrorMessage">
<polygon fill="white" stroke="black" points="393,-76.5 393,-95.5 501,-95.5 501,-76.5 393,-76.5"/>
<text text-anchor="middle" x="447" y="-83.5" font-family="Helvetica,sans-Serif" font-size="10.00">displayErrorMessage</text>
</a>
</g>
</g>
<!-- Node2&#45;&gt;Node3 -->
<g id="edge2" class="edge"><title>Node2&#45;&gt;Node3</title>
<path fill="none" stroke="midnightblue" d="M168.008,-152.678C174.584,-175.794 194.737,-234.002 236,-257 282.974,-283.181 311.026,-284.9 357,-257 412.229,-223.483 434.771,-143.288 442.519,-105.865"/>
<polygon fill="midnightblue" stroke="midnightblue" points="446.018,-106.203 444.469,-95.7225 439.144,-104.882 446.018,-106.203"/>
</g>
<!-- Node4 -->
<g id="node4" class="node"><title>Node4</title>
<g id="a_node4"><a xlink:href="frontend_8js.html#ad1b6f7258037f83d33075afa5ed17c83" target="_top" xlink:title="buildUI">
<polygon fill="white" stroke="black" points="273,-228.5 273,-247.5 320,-247.5 320,-228.5 273,-228.5"/>
<text text-anchor="middle" x="296.5" y="-235.5" font-family="Helvetica,sans-Serif" font-size="10.00">buildUI</text>
</a>
</g>
</g>
<!-- Node2&#45;&gt;Node4 -->
<g id="edge3" class="edge"><title>Node2&#45;&gt;Node4</title>
<path fill="none" stroke="midnightblue" d="M171.913,-152.654C183.07,-168.719 207.594,-200.952 236,-219 244.2,-224.21 253.948,-228.1 263.157,-230.957"/>
<polygon fill="midnightblue" stroke="midnightblue" points="262.265,-234.342 272.838,-233.664 264.15,-227.6 262.265,-234.342"/>
</g>
<!-- Node5 -->
<g id="node5" class="node"><title>Node5</title>
<g id="a_node5"><a xlink:href="frontend_8js.html#a27438af3e2a1563428ff28b90c847cfd" target="_top" xlink:title="getCitation">
<polygon fill="white" stroke="black" points="264.5,-190.5 264.5,-209.5 328.5,-209.5 328.5,-190.5 264.5,-190.5"/>
<text text-anchor="middle" x="296.5" y="-197.5" font-family="Helvetica,sans-Serif" font-size="10.00">getCitation</text>
</a>
</g>
</g>
<!-- Node2&#45;&gt;Node5 -->
<g id="edge4" class="edge"><title>Node2&#45;&gt;Node5</title>
<path fill="none" stroke="midnightblue" d="M181.321,-152.627C195.341,-160.889 216.548,-172.736 236,-181 241.895,-183.504 248.237,-185.864 254.505,-188.013"/>
<polygon fill="midnightblue" stroke="midnightblue" points="253.629,-191.409 264.222,-191.207 255.815,-184.76 253.629,-191.409"/>
</g>
<!-- Node6 -->
<g id="node6" class="node"><title>Node6</title>
<g id="a_node6"><a xlink:href="general_8js.html#ab624ce9aebffbb8bc3159502c4afc32b" target="_top" xlink:title="copyToClipboard">
<polygon fill="white" stroke="black" points="251.5,-152.5 251.5,-171.5 341.5,-171.5 341.5,-152.5 251.5,-152.5"/>
<text text-anchor="middle" x="296.5" y="-159.5" font-family="Helvetica,sans-Serif" font-size="10.00">copyToClipboard</text>
</a>
</g>
</g>
<!-- Node2&#45;&gt;Node6 -->
<g id="edge5" class="edge"><title>Node2&#45;&gt;Node6</title>
<path fill="none" stroke="midnightblue" d="M200.338,-148.092C212.926,-149.931 227.454,-152.055 241.307,-154.08"/>
<polygon fill="midnightblue" stroke="midnightblue" points="240.837,-157.548 251.238,-155.531 241.85,-150.622 240.837,-157.548"/>
</g>
<!-- Node7 -->
<g id="node7" class="node"><title>Node7</title>
<g id="a_node7"><a xlink:href="general_8js.html#ab591f84505f74590e87095cce52c8354" target="_top" xlink:title="displaySystemMessage">
<polygon fill="white" stroke="black" points="236,-114.5 236,-133.5 357,-133.5 357,-114.5 236,-114.5"/>
<text text-anchor="middle" x="296.5" y="-121.5" font-family="Helvetica,sans-Serif" font-size="10.00">displaySystemMessage</text>
</a>
</g>
</g>
<!-- Node2&#45;&gt;Node7 -->
<g id="edge6" class="edge"><title>Node2&#45;&gt;Node7</title>
<path fill="none" stroke="midnightblue" d="M200.338,-137.908C208.316,-136.742 217.073,-135.462 225.944,-134.166"/>
<polygon fill="midnightblue" stroke="midnightblue" points="226.583,-137.61 235.972,-132.7 225.571,-130.683 226.583,-137.61"/>
</g>
<!-- Node8 -->
<g id="node8" class="node"><title>Node8</title>
<g id="a_node8"><a xlink:href="frontend_8js.html#a4f74f201d6c3031faf50ce88c9041be2" target="_top" xlink:title="getCurrentRecords">
<polygon fill="white" stroke="black" points="247,-76.5 247,-95.5 346,-95.5 346,-76.5 247,-76.5"/>
<text text-anchor="middle" x="296.5" y="-83.5" font-family="Helvetica,sans-Serif" font-size="10.00">getCurrentRecords</text>
</a>
</g>
</g>
<!-- Node2&#45;&gt;Node8 -->
<g id="edge7" class="edge"><title>Node2&#45;&gt;Node8</title>
<path fill="none" stroke="midnightblue" d="M181.321,-133.373C195.341,-125.111 216.548,-113.264 236,-105 241.115,-102.827 246.567,-100.763 252.015,-98.8503"/>
<polygon fill="midnightblue" stroke="midnightblue" points="253.38,-102.084 261.746,-95.582 251.152,-95.4482 253.38,-102.084"/>
</g>
<!-- Node9 -->
<g id="node9" class="node"><title>Node9</title>
<g id="a_node9"><a xlink:href="frontend_8js.html#ab0858f7d9b6a5cdace9d1838e33cf1c2" target="_top" xlink:title="getCountConcept">
<polygon fill="white" stroke="black" points="250,-38.5 250,-57.5 343,-57.5 343,-38.5 250,-38.5"/>
<text text-anchor="middle" x="296.5" y="-45.5" font-family="Helvetica,sans-Serif" font-size="10.00">getCountConcept</text>
</a>
</g>
</g>
<!-- Node2&#45;&gt;Node9 -->
<g id="edge9" class="edge"><title>Node2&#45;&gt;Node9</title>
<path fill="none" stroke="midnightblue" d="M171.913,-133.346C183.07,-117.281 207.594,-85.048 236,-67 239.304,-64.9011 242.858,-63.0164 246.528,-61.3271"/>
<polygon fill="midnightblue" stroke="midnightblue" points="247.884,-64.5537 255.808,-57.5201 245.228,-58.0775 247.884,-64.5537"/>
</g>
<!-- Node10 -->
<g id="node10" class="node"><title>Node10</title>
<g id="a_node10"><a xlink:href="frontend_8js.html#a8d70fa25300ca2d61b7f6dcb509ab894" target="_top" xlink:title="allowMultipleOpen">
<polygon fill="white" stroke="black" points="248.5,-0.5 248.5,-19.5 344.5,-19.5 344.5,-0.5 248.5,-0.5"/>
<text text-anchor="middle" x="296.5" y="-7.5" font-family="Helvetica,sans-Serif" font-size="10.00">allowMultipleOpen</text>
</a>
</g>
</g>
<!-- Node2&#45;&gt;Node10 -->
<g id="edge11" class="edge"><title>Node2&#45;&gt;Node10</title>
<path fill="none" stroke="midnightblue" d="M168.759,-133.462C176.699,-111.648 199.136,-57.7891 236,-29 238.324,-27.1854 240.825,-25.542 243.439,-24.0538"/>
<polygon fill="midnightblue" stroke="midnightblue" points="245.208,-27.0859 252.674,-19.5689 242.15,-20.7891 245.208,-27.0859"/>
</g>
<!-- Node8&#45;&gt;Node3 -->
<g id="edge8" class="edge"><title>Node8&#45;&gt;Node3</title>
<path fill="none" stroke="midnightblue" d="M346.124,-86C357.821,-86 370.485,-86 382.741,-86"/>
<polygon fill="midnightblue" stroke="midnightblue" points="382.909,-89.5001 392.909,-86 382.909,-82.5001 382.909,-89.5001"/>
</g>
<!-- Node9&#45;&gt;Node3 -->
<g id="edge10" class="edge"><title>Node9&#45;&gt;Node3</title>
<path fill="none" stroke="midnightblue" d="M334.973,-57.589C354.392,-62.5583 378.302,-68.6767 398.954,-73.9613"/>
<polygon fill="midnightblue" stroke="midnightblue" points="398.241,-77.3916 408.797,-76.4799 399.976,-70.6101 398.241,-77.3916"/>
</g>
</g>
</svg>
