<?xml version="1.0" encoding="UTF-8" standalone="no"?>
<!DOCTYPE svg PUBLIC "-//W3C//DTD SVG 1.1//EN"
 "http://www.w3.org/Graphics/SVG/1.1/DTD/svg11.dtd">
<!-- Generated by graphviz version 2.38.0 (20140413.2041)
 -->
<!-- Title: getCountConcept Pages: 1 -->
<svg width="536pt" height="66pt"
 viewBox="0.00 0.00 536.00 66.00" xmlns="http://www.w3.org/2000/svg" xmlns:xlink="http://www.w3.org/1999/xlink">
<g id="graph0" class="graph" transform="scale(1 1) rotate(0) translate(4 62)">
<title>getCountConcept</title>
<polygon fill="white" stroke="none" points="-4,4 -4,-62 532,-62 532,4 -4,4"/>
<!-- Node1 -->
<g id="node1" class="node"><title>Node1</title>
<polygon fill="#bfbfbf" stroke="black" points="0,-19.5 0,-38.5 93,-38.5 93,-19.5 0,-19.5"/>
<text text-anchor="middle" x="46.5" y="-26.5" font-family="Helvetica,sans-Serif" font-size="10.00">getCountConcept</text>
</g>
<!-- Node2 -->
<g id="node2" class="node"><title>Node2</title>
<g id="a_node2"><a xlink:href="frontend_8js.html#a6879c4dc7db6793991cd72ab19ca85ea" target="_top" xlink:title="getProviders">
<polygon fill="white" stroke="black" points="129,-19.5 129,-38.5 200,-38.5 200,-19.5 129,-19.5"/>
<text text-anchor="middle" x="164.5" y="-26.5" font-family="Helvetica,sans-Serif" font-size="10.00">getProviders</text>
</a>
</g>
</g>
<!-- Node1&#45;&gt;Node2 -->
<g id="edge1" class="edge"><title>Node1&#45;&gt;Node2</title>
<path fill="none" stroke="midnightblue" d="M103.209,-29C111.963,-29 120.787,-29 128.88,-29"/>
<polygon fill="midnightblue" stroke="midnightblue" points="103.013,-25.5001 93.0133,-29 103.013,-32.5001 103.013,-25.5001"/>
</g>
<!-- Node3 -->
<g id="node3" class="node"><title>Node3</title>
<g id="a_node3"><a xlink:href="namespace_webservices.html#a982728deb9ddc1d58b4496ef46159b73" target="_top" xlink:title="Webservices\\getProviders">
<polygon fill="white" stroke="black" points="236,-38.5 236,-57.5 367,-57.5 367,-38.5 236,-38.5"/>
<text text-anchor="middle" x="301.5" y="-45.5" font-family="Helvetica,sans-Serif" font-size="10.00">Webservices\getProviders</text>
</a>
</g>
</g>
<!-- Node2&#45;&gt;Node3 -->
<g id="edge2" class="edge"><title>Node2&#45;&gt;Node3</title>
<path fill="none" stroke="midnightblue" d="M210.364,-35.3142C218.584,-36.4711 227.31,-37.6993 235.972,-38.9182"/>
<polygon fill="midnightblue" stroke="midnightblue" points="210.656,-31.8209 200.266,-33.893 209.68,-38.7526 210.656,-31.8209"/>
</g>
<!-- Node4 -->
<g id="node4" class="node"><title>Node4</title>
<g id="a_node4"><a xlink:href="frontend_8js.html#a8df3b053e7e7b29e3e7a408d1bd4b9b1" target="_top" xlink:title="getTotalMaxCalls">
<polygon fill="white" stroke="black" points="255,-0.5 255,-19.5 348,-19.5 348,-0.5 255,-0.5"/>
<text text-anchor="middle" x="301.5" y="-7.5" font-family="Helvetica,sans-Serif" font-size="10.00">getTotalMaxCalls</text>
</a>
</g>
</g>
<!-- Node2&#45;&gt;Node4 -->
<g id="edge3" class="edge"><title>Node2&#45;&gt;Node4</title>
<path fill="none" stroke="midnightblue" d="M210.374,-22.6844C224.687,-20.67 240.535,-18.4395 254.9,-16.4178"/>
<polygon fill="midnightblue" stroke="midnightblue" points="209.68,-19.2474 200.266,-24.107 210.656,-26.1791 209.68,-19.2474"/>
</g>
<!-- Node5 -->
<g id="node5" class="node"><title>Node5</title>
<g id="a_node5"><a xlink:href="class_bms_1_1_bms.html#aec5f7b55928d9eb969567ab87ea9e021" target="_top" xlink:title="Bms\\Bms\\frontController">
<polygon fill="white" stroke="black" points="403,-0.5 403,-19.5 528,-19.5 528,-0.5 403,-0.5"/>
<text text-anchor="middle" x="465.5" y="-7.5" font-family="Helvetica,sans-Serif" font-size="10.00">Bms\Bms\frontController</text>
</a>
</g>
</g>
<!-- Node4&#45;&gt;Node5 -->
<g id="edge4" class="edge"><title>Node4&#45;&gt;Node5</title>
<path fill="none" stroke="midnightblue" d="M358.305,-10C372.707,-10 388.289,-10 402.964,-10"/>
<polygon fill="midnightblue" stroke="midnightblue" points="358.057,-6.5001 348.057,-10 358.057,-13.5001 358.057,-6.5001"/>
</g>
</g>
</svg>
