<?xml version="1.0" encoding="UTF-8" standalone="no"?>
<!DOCTYPE svg PUBLIC "-//W3C//DTD SVG 1.1//EN"
 "http://www.w3.org/Graphics/SVG/1.1/DTD/svg11.dtd">
<!-- Generated by graphviz version 2.38.0 (20140413.2041)
 -->
<!-- Title: getCurrentRecords Pages: 1 -->
<svg width="542pt" height="85pt"
 viewBox="0.00 0.00 542.00 85.00" xmlns="http://www.w3.org/2000/svg" xmlns:xlink="http://www.w3.org/1999/xlink">
<g id="graph0" class="graph" transform="scale(1 1) rotate(0) translate(4 81)">
<title>getCurrentRecords</title>
<polygon fill="white" stroke="none" points="-4,4 -4,-81 538,-81 538,4 -4,4"/>
<!-- Node1 -->
<g id="node1" class="node"><title>Node1</title>
<polygon fill="#bfbfbf" stroke="black" points="0,-57.5 0,-76.5 99,-76.5 99,-57.5 0,-57.5"/>
<text text-anchor="middle" x="49.5" y="-64.5" font-family="Helvetica,sans-Serif" font-size="10.00">getCurrentRecords</text>
</g>
<!-- Node2 -->
<g id="node2" class="node"><title>Node2</title>
<g id="a_node2"><a xlink:href="class_bms_1_1_bms.html#aec5f7b55928d9eb969567ab87ea9e021" target="_top" xlink:title="Bms\\Bms\\frontController">
<polygon fill="white" stroke="black" points="409,-38.5 409,-57.5 534,-57.5 534,-38.5 409,-38.5"/>
<text text-anchor="middle" x="471.5" y="-45.5" font-family="Helvetica,sans-Serif" font-size="10.00">Bms\Bms\frontController</text>
</a>
</g>
</g>
<!-- Node1&#45;&gt;Node2 -->
<g id="edge1" class="edge"><title>Node1&#45;&gt;Node2</title>
<path fill="none" stroke="midnightblue" d="M109.288,-70.3814C174.057,-73.3201 281.218,-75.8596 373,-67 392.226,-65.1442 413.291,-61.2755 430.906,-57.5104"/>
<polygon fill="midnightblue" stroke="midnightblue" points="109.42,-66.8838 99.2663,-69.908 109.09,-73.876 109.42,-66.8838"/>
</g>
<!-- Node3 -->
<g id="node3" class="node"><title>Node3</title>
<g id="a_node3"><a xlink:href="frontend_8js.html#a6879c4dc7db6793991cd72ab19ca85ea" target="_top" xlink:title="getProviders">
<polygon fill="white" stroke="black" points="135,-38.5 135,-57.5 206,-57.5 206,-38.5 135,-38.5"/>
<text text-anchor="middle" x="170.5" y="-45.5" font-family="Helvetica,sans-Serif" font-size="10.00">getProviders</text>
</a>
</g>
</g>
<!-- Node1&#45;&gt;Node3 -->
<g id="edge2" class="edge"><title>Node1&#45;&gt;Node3</title>
<path fill="none" stroke="midnightblue" d="M109.132,-57.6387C117.934,-56.2332 126.762,-54.8237 134.844,-53.5333"/>
<polygon fill="midnightblue" stroke="midnightblue" points="108.568,-54.1842 99.2452,-59.2172 109.672,-61.0966 108.568,-54.1842"/>
</g>
<!-- Node4 -->
<g id="node4" class="node"><title>Node4</title>
<g id="a_node4"><a xlink:href="namespace_webservices.html#a982728deb9ddc1d58b4496ef46159b73" target="_top" xlink:title="Webservices\\getProviders">
<polygon fill="white" stroke="black" points="242,-38.5 242,-57.5 373,-57.5 373,-38.5 242,-38.5"/>
<text text-anchor="middle" x="307.5" y="-45.5" font-family="Helvetica,sans-Serif" font-size="10.00">Webservices\getProviders</text>
</a>
</g>
</g>
<!-- Node3&#45;&gt;Node4 -->
<g id="edge3" class="edge"><title>Node3&#45;&gt;Node4</title>
<path fill="none" stroke="midnightblue" d="M216.364,-48C224.584,-48 233.31,-48 241.972,-48"/>
<polygon fill="midnightblue" stroke="midnightblue" points="216.266,-44.5001 206.266,-48 216.266,-51.5001 216.266,-44.5001"/>
</g>
<!-- Node5 -->
<g id="node5" class="node"><title>Node5</title>
<g id="a_node5"><a xlink:href="frontend_8js.html#a8df3b053e7e7b29e3e7a408d1bd4b9b1" target="_top" xlink:title="getTotalMaxCalls">
<polygon fill="white" stroke="black" points="261,-0.5 261,-19.5 354,-19.5 354,-0.5 261,-0.5"/>
<text text-anchor="middle" x="307.5" y="-7.5" font-family="Helvetica,sans-Serif" font-size="10.00">getTotalMaxCalls</text>
</a>
</g>
</g>
<!-- Node3&#45;&gt;Node5 -->
<g id="edge4" class="edge"><title>Node3&#45;&gt;Node5</title>
<path fill="none" stroke="midnightblue" d="M215.262,-35.6817C233.811,-30.4607 255.099,-24.4684 272.445,-19.5859"/>
<polygon fill="midnightblue" stroke="midnightblue" points="214.244,-32.3323 205.566,-38.411 216.14,-39.0705 214.244,-32.3323"/>
</g>
<!-- Node5&#45;&gt;Node2 -->
<g id="edge5" class="edge"><title>Node5&#45;&gt;Node2</title>
<path fill="none" stroke="midnightblue" d="M359.215,-21.8961C381.986,-27.2374 408.487,-33.4537 429.915,-38.4799"/>
<polygon fill="midnightblue" stroke="midnightblue" points="359.915,-18.4653 349.379,-19.589 358.316,-25.2803 359.915,-18.4653"/>
</g>
</g>
</svg>
