<?xml version="1.0" encoding="UTF-8" standalone="no"?>
<!DOCTYPE svg PUBLIC "-//W3C//DTD SVG 1.1//EN"
 "http://www.w3.org/Graphics/SVG/1.1/DTD/svg11.dtd">
<!-- Generated by graphviz version 2.38.0 (20140413.2041)
 -->
<!-- Title: ready Pages: 1 -->
<svg width="339pt" height="28pt"
 viewBox="0.00 0.00 339.00 28.00" xmlns="http://www.w3.org/2000/svg" xmlns:xlink="http://www.w3.org/1999/xlink">
<g id="graph0" class="graph" transform="scale(1 1) rotate(0) translate(4 24)">
<title>ready</title>
<polygon fill="white" stroke="none" points="-4,4 -4,-24 335,-24 335,4 -4,4"/>
<!-- Node1 -->
<g id="node1" class="node"><title>Node1</title>
<polygon fill="#bfbfbf" stroke="black" points="0,-0.5 0,-19.5 41,-19.5 41,-0.5 0,-0.5"/>
<text text-anchor="middle" x="20.5" y="-7.5" font-family="Helvetica,sans-Serif" font-size="10.00">ready</text>
</g>
<!-- Node2 -->
<g id="node2" class="node"><title>Node2</title>
<g id="a_node2"><a xlink:href="frontend_8js.html#a8df3b053e7e7b29e3e7a408d1bd4b9b1" target="_top" xlink:title="getTotalMaxCalls">
<polygon fill="white" stroke="black" points="77,-0.5 77,-19.5 170,-19.5 170,-0.5 77,-0.5"/>
<text text-anchor="middle" x="123.5" y="-7.5" font-family="Helvetica,sans-Serif" font-size="10.00">getTotalMaxCalls</text>
</a>
</g>
</g>
<!-- Node1&#45;&gt;Node2 -->
<g id="edge1" class="edge"><title>Node1&#45;&gt;Node2</title>
<path fill="none" stroke="midnightblue" d="M51.6163,-10C59.4973,-10 68.1741,-10 76.6729,-10"/>
<polygon fill="midnightblue" stroke="midnightblue" points="51.4544,-6.5001 41.4543,-10 51.4543,-13.5001 51.4544,-6.5001"/>
</g>
<!-- Node3 -->
<g id="node3" class="node"><title>Node3</title>
<g id="a_node3"><a xlink:href="class_bms_1_1_bms.html#aec5f7b55928d9eb969567ab87ea9e021" target="_top" xlink:title="Bms\\Bms\\frontController">
<polygon fill="white" stroke="black" points="206,-0.5 206,-19.5 331,-19.5 331,-0.5 206,-0.5"/>
<text text-anchor="middle" x="268.5" y="-7.5" font-family="Helvetica,sans-Serif" font-size="10.00">Bms\Bms\frontController</text>
</a>
</g>
</g>
<!-- Node2&#45;&gt;Node3 -->
<g id="edge2" class="edge"><title>Node2&#45;&gt;Node3</title>
<path fill="none" stroke="midnightblue" d="M180.211,-10C188.62,-10 197.336,-10 205.861,-10"/>
<polygon fill="midnightblue" stroke="midnightblue" points="180.139,-6.5001 170.139,-10 180.139,-13.5001 180.139,-6.5001"/>
</g>
</g>
</svg>
