<?xml version="1.0" encoding="UTF-8" standalone="no"?>
<!DOCTYPE svg PUBLIC "-//W3C//DTD SVG 1.1//EN"
 "http://www.w3.org/Graphics/SVG/1.1/DTD/svg11.dtd">
<!-- Generated by graphviz version 2.38.0 (20140413.2041)
 -->
<!-- Title: getProviders Pages: 1 -->
<svg width="380pt" height="285pt"
 viewBox="0.00 0.00 380.00 285.39" xmlns="http://www.w3.org/2000/svg" xmlns:xlink="http://www.w3.org/1999/xlink">
<g id="graph0" class="graph" transform="scale(1 1) rotate(0) translate(4 281.388)">
<title>getProviders</title>
<polygon fill="white" stroke="none" points="-4,4 -4,-281.388 376,-281.388 376,4 -4,4"/>
<!-- Node1 -->
<g id="node1" class="node"><title>Node1</title>
<polygon fill="#bfbfbf" stroke="black" points="0,-133.5 0,-152.5 71,-152.5 71,-133.5 0,-133.5"/>
<text text-anchor="middle" x="35.5" y="-140.5" font-family="Helvetica,sans-Serif" font-size="10.00">getProviders</text>
</g>
<!-- Node2 -->
<g id="node2" class="node"><title>Node2</title>
<g id="a_node2"><a xlink:href="general_8js.html#a3c52670d7ece95bdca65208692bc18f2" target="_top" xlink:title="displayErrorMessage">
<polygon fill="white" stroke="black" points="264,-76.5 264,-95.5 372,-95.5 372,-76.5 264,-76.5"/>
<text text-anchor="middle" x="318" y="-83.5" font-family="Helvetica,sans-Serif" font-size="10.00">displayErrorMessage</text>
</a>
</g>
</g>
<!-- Node1&#45;&gt;Node2 -->
<g id="edge1" class="edge"><title>Node1&#45;&gt;Node2</title>
<path fill="none" stroke="midnightblue" d="M39.0083,-152.678C45.5842,-175.794 65.7371,-234.002 107,-257 153.974,-283.181 182.026,-284.9 228,-257 283.229,-223.483 305.771,-143.288 313.519,-105.865"/>
<polygon fill="midnightblue" stroke="midnightblue" points="317.018,-106.203 315.469,-95.7225 310.144,-104.882 317.018,-106.203"/>
</g>
<!-- Node3 -->
<g id="node3" class="node"><title>Node3</title>
<g id="a_node3"><a xlink:href="frontend_8js.html#ad1b6f7258037f83d33075afa5ed17c83" target="_top" xlink:title="buildUI">
<polygon fill="white" stroke="black" points="144,-228.5 144,-247.5 191,-247.5 191,-228.5 144,-228.5"/>
<text text-anchor="middle" x="167.5" y="-235.5" font-family="Helvetica,sans-Serif" font-size="10.00">buildUI</text>
</a>
</g>
</g>
<!-- Node1&#45;&gt;Node3 -->
<g id="edge2" class="edge"><title>Node1&#45;&gt;Node3</title>
<path fill="none" stroke="midnightblue" d="M42.9131,-152.654C54.0695,-168.719 78.5937,-200.952 107,-219 115.2,-224.21 124.948,-228.1 134.157,-230.957"/>
<polygon fill="midnightblue" stroke="midnightblue" points="133.265,-234.342 143.838,-233.664 135.15,-227.6 133.265,-234.342"/>
</g>
<!-- Node4 -->
<g id="node4" class="node"><title>Node4</title>
<g id="a_node4"><a xlink:href="frontend_8js.html#a27438af3e2a1563428ff28b90c847cfd" target="_top" xlink:title="getCitation">
<polygon fill="white" stroke="black" points="135.5,-190.5 135.5,-209.5 199.5,-209.5 199.5,-190.5 135.5,-190.5"/>
<text text-anchor="middle" x="167.5" y="-197.5" font-family="Helvetica,sans-Serif" font-size="10.00">getCitation</text>
</a>
</g>
</g>
<!-- Node1&#45;&gt;Node4 -->
<g id="edge3" class="edge"><title>Node1&#45;&gt;Node4</title>
<path fill="none" stroke="midnightblue" d="M52.3211,-152.627C66.3412,-160.889 87.548,-172.736 107,-181 112.895,-183.504 119.237,-185.864 125.505,-188.013"/>
<polygon fill="midnightblue" stroke="midnightblue" points="124.629,-191.409 135.222,-191.207 126.815,-184.76 124.629,-191.409"/>
</g>
<!-- Node5 -->
<g id="node5" class="node"><title>Node5</title>
<g id="a_node5"><a xlink:href="general_8js.html#ab624ce9aebffbb8bc3159502c4afc32b" target="_top" xlink:title="copyToClipboard">
<polygon fill="white" stroke="black" points="122.5,-152.5 122.5,-171.5 212.5,-171.5 212.5,-152.5 122.5,-152.5"/>
<text text-anchor="middle" x="167.5" y="-159.5" font-family="Helvetica,sans-Serif" font-size="10.00">copyToClipboard</text>
</a>
</g>
</g>
<!-- Node1&#45;&gt;Node5 -->
<g id="edge4" class="edge"><title>Node1&#45;&gt;Node5</title>
<path fill="none" stroke="midnightblue" d="M71.3376,-148.092C83.9259,-149.931 98.4535,-152.055 112.307,-154.08"/>
<polygon fill="midnightblue" stroke="midnightblue" points="111.837,-157.548 122.238,-155.531 112.85,-150.622 111.837,-157.548"/>
</g>
<!-- Node6 -->
<g id="node6" class="node"><title>Node6</title>
<g id="a_node6"><a xlink:href="general_8js.html#ab591f84505f74590e87095cce52c8354" target="_top" xlink:title="displaySystemMessage">
<polygon fill="white" stroke="black" points="107,-114.5 107,-133.5 228,-133.5 228,-114.5 107,-114.5"/>
<text text-anchor="middle" x="167.5" y="-121.5" font-family="Helvetica,sans-Serif" font-size="10.00">displaySystemMessage</text>
</a>
</g>
</g>
<!-- Node1&#45;&gt;Node6 -->
<g id="edge5" class="edge"><title>Node1&#45;&gt;Node6</title>
<path fill="none" stroke="midnightblue" d="M71.3376,-137.908C79.3158,-136.742 88.0729,-135.462 96.9437,-134.166"/>
<polygon fill="midnightblue" stroke="midnightblue" points="97.5834,-137.61 106.972,-132.7 96.571,-130.683 97.5834,-137.61"/>
</g>
<!-- Node7 -->
<g id="node7" class="node"><title>Node7</title>
<g id="a_node7"><a xlink:href="frontend_8js.html#a4f74f201d6c3031faf50ce88c9041be2" target="_top" xlink:title="getCurrentRecords">
<polygon fill="white" stroke="black" points="118,-76.5 118,-95.5 217,-95.5 217,-76.5 118,-76.5"/>
<text text-anchor="middle" x="167.5" y="-83.5" font-family="Helvetica,sans-Serif" font-size="10.00">getCurrentRecords</text>
</a>
</g>
</g>
<!-- Node1&#45;&gt;Node7 -->
<g id="edge6" class="edge"><title>Node1&#45;&gt;Node7</title>
<path fill="none" stroke="midnightblue" d="M52.3211,-133.373C66.3412,-125.111 87.548,-113.264 107,-105 112.115,-102.827 117.567,-100.763 123.015,-98.8503"/>
<polygon fill="midnightblue" stroke="midnightblue" points="124.38,-102.084 132.746,-95.582 122.152,-95.4482 124.38,-102.084"/>
</g>
<!-- Node8 -->
<g id="node8" class="node"><title>Node8</title>
<g id="a_node8"><a xlink:href="frontend_8js.html#ab0858f7d9b6a5cdace9d1838e33cf1c2" target="_top" xlink:title="getCountConcept">
<polygon fill="white" stroke="black" points="121,-38.5 121,-57.5 214,-57.5 214,-38.5 121,-38.5"/>
<text text-anchor="middle" x="167.5" y="-45.5" font-family="Helvetica,sans-Serif" font-size="10.00">getCountConcept</text>
</a>
</g>
</g>
<!-- Node1&#45;&gt;Node8 -->
<g id="edge8" class="edge"><title>Node1&#45;&gt;Node8</title>
<path fill="none" stroke="midnightblue" d="M42.9131,-133.346C54.0695,-117.281 78.5937,-85.048 107,-67 110.304,-64.9011 113.858,-63.0164 117.528,-61.3271"/>
<polygon fill="midnightblue" stroke="midnightblue" points="118.884,-64.5537 126.808,-57.5201 116.228,-58.0775 118.884,-64.5537"/>
</g>
<!-- Node9 -->
<g id="node9" class="node"><title>Node9</title>
<g id="a_node9"><a xlink:href="frontend_8js.html#a8d70fa25300ca2d61b7f6dcb509ab894" target="_top" xlink:title="allowMultipleOpen">
<polygon fill="white" stroke="black" points="119.5,-0.5 119.5,-19.5 215.5,-19.5 215.5,-0.5 119.5,-0.5"/>
<text text-anchor="middle" x="167.5" y="-7.5" font-family="Helvetica,sans-Serif" font-size="10.00">allowMultipleOpen</text>
</a>
</g>
</g>
<!-- Node1&#45;&gt;Node9 -->
<g id="edge10" class="edge"><title>Node1&#45;&gt;Node9</title>
<path fill="none" stroke="midnightblue" d="M39.7594,-133.462C47.6988,-111.648 70.1358,-57.7891 107,-29 109.324,-27.1854 111.825,-25.542 114.439,-24.0538"/>
<polygon fill="midnightblue" stroke="midnightblue" points="116.208,-27.0859 123.674,-19.5689 113.15,-20.7891 116.208,-27.0859"/>
</g>
<!-- Node7&#45;&gt;Node2 -->
<g id="edge7" class="edge"><title>Node7&#45;&gt;Node2</title>
<path fill="none" stroke="midnightblue" d="M217.124,-86C228.821,-86 241.485,-86 253.741,-86"/>
<polygon fill="midnightblue" stroke="midnightblue" points="253.909,-89.5001 263.909,-86 253.909,-82.5001 253.909,-89.5001"/>
</g>
<!-- Node8&#45;&gt;Node2 -->
<g id="edge9" class="edge"><title>Node8&#45;&gt;Node2</title>
<path fill="none" stroke="midnightblue" d="M205.973,-57.589C225.392,-62.5583 249.302,-68.6767 269.954,-73.9613"/>
<polygon fill="midnightblue" stroke="midnightblue" points="269.241,-77.3916 279.797,-76.4799 270.976,-70.6101 269.241,-77.3916"/>
</g>
</g>
</svg>
