<?xml version="1.0" encoding="UTF-8" standalone="no"?>
<!DOCTYPE svg PUBLIC "-//W3C//DTD SVG 1.1//EN"
 "http://www.w3.org/Graphics/SVG/1.1/DTD/svg11.dtd">
<!-- Generated by graphviz version 2.38.0 (20140413.2041)
 -->
<!-- Title: copyToClipboard Pages: 1 -->
<svg width="560pt" height="104pt"
 viewBox="0.00 0.00 560.00 104.00" xmlns="http://www.w3.org/2000/svg" xmlns:xlink="http://www.w3.org/1999/xlink">
<g id="graph0" class="graph" transform="scale(1 1) rotate(0) translate(4 100)">
<title>copyToClipboard</title>
<polygon fill="white" stroke="none" points="-4,4 -4,-100 556,-100 556,4 -4,4"/>
<!-- Node1 -->
<g id="node1" class="node"><title>Node1</title>
<polygon fill="#bfbfbf" stroke="black" points="0,-57.5 0,-76.5 90,-76.5 90,-57.5 0,-57.5"/>
<text text-anchor="middle" x="45" y="-64.5" font-family="Helvetica,sans-Serif" font-size="10.00">copyToClipboard</text>
</g>
<!-- Node2 -->
<g id="node2" class="node"><title>Node2</title>
<g id="a_node2"><a xlink:href="consistency_8js.html#a1e60b6d66b2394a2eff6d3992fefcc4e" target="_top" xlink:title="getExampleValues">
<polygon fill="white" stroke="black" points="126,-76.5 126,-95.5 224,-95.5 224,-76.5 126,-76.5"/>
<text text-anchor="middle" x="175" y="-83.5" font-family="Helvetica,sans-Serif" font-size="10.00">getExampleValues</text>
</a>
</g>
</g>
<!-- Node1&#45;&gt;Node2 -->
<g id="edge1" class="edge"><title>Node1&#45;&gt;Node2</title>
<path fill="none" stroke="midnightblue" d="M100.004,-75.0162C108.612,-76.294 117.468,-77.6086 125.928,-78.8643"/>
<polygon fill="midnightblue" stroke="midnightblue" points="100.456,-71.545 90.0503,-73.5387 99.428,-78.4692 100.456,-71.545"/>
</g>
<!-- Node4 -->
<g id="node4" class="node"><title>Node4</title>
<g id="a_node4"><a xlink:href="frontend_8js.html#a6879c4dc7db6793991cd72ab19ca85ea" target="_top" xlink:title="getProviders">
<polygon fill="white" stroke="black" points="139.5,-38.5 139.5,-57.5 210.5,-57.5 210.5,-38.5 139.5,-38.5"/>
<text text-anchor="middle" x="175" y="-45.5" font-family="Helvetica,sans-Serif" font-size="10.00">getProviders</text>
</a>
</g>
</g>
<!-- Node1&#45;&gt;Node4 -->
<g id="edge3" class="edge"><title>Node1&#45;&gt;Node4</title>
<path fill="none" stroke="midnightblue" d="M100.025,-58.9807C113.268,-57.0149 127.096,-54.9624 139.163,-53.171"/>
<polygon fill="midnightblue" stroke="midnightblue" points="99.428,-55.5308 90.0503,-60.4613 100.456,-62.455 99.428,-55.5308"/>
</g>
<!-- Node3 -->
<g id="node3" class="node"><title>Node3</title>
<g id="a_node3"><a xlink:href="consistency_8js.html#ab2bc9df2b9396792aff9dc3530669abf" target="_top" xlink:title="processCapabilities">
<polygon fill="white" stroke="black" points="274.5,-76.5 274.5,-95.5 376.5,-95.5 376.5,-76.5 274.5,-76.5"/>
<text text-anchor="middle" x="325.5" y="-83.5" font-family="Helvetica,sans-Serif" font-size="10.00">processCapabilities</text>
</a>
</g>
</g>
<!-- Node2&#45;&gt;Node3 -->
<g id="edge2" class="edge"><title>Node2&#45;&gt;Node3</title>
<path fill="none" stroke="midnightblue" d="M234.22,-86C247.529,-86 261.559,-86 274.488,-86"/>
<polygon fill="midnightblue" stroke="midnightblue" points="234.214,-82.5001 224.214,-86 234.214,-89.5001 234.214,-82.5001"/>
</g>
<!-- Node5 -->
<g id="node5" class="node"><title>Node5</title>
<g id="a_node5"><a xlink:href="namespace_webservices.html#a982728deb9ddc1d58b4496ef46159b73" target="_top" xlink:title="Webservices\\getProviders">
<polygon fill="white" stroke="black" points="260,-38.5 260,-57.5 391,-57.5 391,-38.5 260,-38.5"/>
<text text-anchor="middle" x="325.5" y="-45.5" font-family="Helvetica,sans-Serif" font-size="10.00">Webservices\getProviders</text>
</a>
</g>
</g>
<!-- Node4&#45;&gt;Node5 -->
<g id="edge4" class="edge"><title>Node4&#45;&gt;Node5</title>
<path fill="none" stroke="midnightblue" d="M221.184,-48C233.393,-48 246.847,-48 259.896,-48"/>
<polygon fill="midnightblue" stroke="midnightblue" points="220.817,-44.5001 210.817,-48 220.817,-51.5001 220.817,-44.5001"/>
</g>
<!-- Node6 -->
<g id="node6" class="node"><title>Node6</title>
<g id="a_node6"><a xlink:href="frontend_8js.html#a8df3b053e7e7b29e3e7a408d1bd4b9b1" target="_top" xlink:title="getTotalMaxCalls">
<polygon fill="white" stroke="black" points="279,-0.5 279,-19.5 372,-19.5 372,-0.5 279,-0.5"/>
<text text-anchor="middle" x="325.5" y="-7.5" font-family="Helvetica,sans-Serif" font-size="10.00">getTotalMaxCalls</text>
</a>
</g>
</g>
<!-- Node4&#45;&gt;Node6 -->
<g id="edge5" class="edge"><title>Node4&#45;&gt;Node6</title>
<path fill="none" stroke="midnightblue" d="M220.603,-36.5865C241.89,-31.1392 267.067,-24.6966 287.306,-19.5178"/>
<polygon fill="midnightblue" stroke="midnightblue" points="219.637,-33.2208 210.817,-39.0907 221.372,-40.0023 219.637,-33.2208"/>
</g>
<!-- Node7 -->
<g id="node7" class="node"><title>Node7</title>
<g id="a_node7"><a xlink:href="class_bms_1_1_bms.html#aec5f7b55928d9eb969567ab87ea9e021" target="_top" xlink:title="Bms\\Bms\\frontController">
<polygon fill="white" stroke="black" points="427,-0.5 427,-19.5 552,-19.5 552,-0.5 427,-0.5"/>
<text text-anchor="middle" x="489.5" y="-7.5" font-family="Helvetica,sans-Serif" font-size="10.00">Bms\Bms\frontController</text>
</a>
</g>
</g>
<!-- Node6&#45;&gt;Node7 -->
<g id="edge6" class="edge"><title>Node6&#45;&gt;Node7</title>
<path fill="none" stroke="midnightblue" d="M382.305,-10C396.707,-10 412.289,-10 426.964,-10"/>
<polygon fill="midnightblue" stroke="midnightblue" points="382.057,-6.5001 372.057,-10 382.057,-13.5001 382.057,-6.5001"/>
</g>
</g>
</svg>
