<?xml version="1.0" encoding="UTF-8" standalone="no"?>
<!DOCTYPE svg PUBLIC "-//W3C//DTD SVG 1.1//EN"
 "http://www.w3.org/Graphics/SVG/1.1/DTD/svg11.dtd">
<!-- Generated by graphviz version 2.38.0 (20140413.2041)
 -->
<!-- Title: displayErrorMessage Pages: 1 -->
<svg width="686pt" height="104pt"
 viewBox="0.00 0.00 686.00 104.00" xmlns="http://www.w3.org/2000/svg" xmlns:xlink="http://www.w3.org/1999/xlink">
<g id="graph0" class="graph" transform="scale(1 1) rotate(0) translate(4 100)">
<title>displayErrorMessage</title>
<polygon fill="white" stroke="none" points="-4,4 -4,-100 682,-100 682,4 -4,4"/>
<!-- Node1 -->
<g id="node1" class="node"><title>Node1</title>
<polygon fill="#bfbfbf" stroke="black" points="0,-38.5 0,-57.5 108,-57.5 108,-38.5 0,-38.5"/>
<text text-anchor="middle" x="54" y="-45.5" font-family="Helvetica,sans-Serif" font-size="10.00">displayErrorMessage</text>
</g>
<!-- Node2 -->
<g id="node2" class="node"><title>Node2</title>
<g id="a_node2"><a xlink:href="frontend_8js.html#a4f74f201d6c3031faf50ce88c9041be2" target="_top" xlink:title="getCurrentRecords">
<polygon fill="white" stroke="black" points="144,-76.5 144,-95.5 243,-95.5 243,-76.5 144,-76.5"/>
<text text-anchor="middle" x="193.5" y="-83.5" font-family="Helvetica,sans-Serif" font-size="10.00">getCurrentRecords</text>
</a>
</g>
</g>
<!-- Node1&#45;&gt;Node2 -->
<g id="edge1" class="edge"><title>Node1&#45;&gt;Node2</title>
<path fill="none" stroke="midnightblue" d="M99.5729,-60.3183C118.465,-65.5393 140.147,-71.5316 157.814,-76.4141"/>
<polygon fill="midnightblue" stroke="midnightblue" points="100.268,-56.8793 89.6971,-57.589 98.4034,-63.6264 100.268,-56.8793"/>
</g>
<!-- Node4 -->
<g id="node4" class="node"><title>Node4</title>
<g id="a_node4"><a xlink:href="frontend_8js.html#a6879c4dc7db6793991cd72ab19ca85ea" target="_top" xlink:title="getProviders">
<polygon fill="white" stroke="black" points="279,-38.5 279,-57.5 350,-57.5 350,-38.5 279,-38.5"/>
<text text-anchor="middle" x="314.5" y="-45.5" font-family="Helvetica,sans-Serif" font-size="10.00">getProviders</text>
</a>
</g>
</g>
<!-- Node1&#45;&gt;Node4 -->
<g id="edge9" class="edge"><title>Node1&#45;&gt;Node4</title>
<path fill="none" stroke="midnightblue" d="M118.428,-48C169.018,-48 237.962,-48 278.89,-48"/>
<polygon fill="midnightblue" stroke="midnightblue" points="118.248,-44.5001 108.248,-48 118.248,-51.5001 118.248,-44.5001"/>
</g>
<!-- Node7 -->
<g id="node7" class="node"><title>Node7</title>
<g id="a_node7"><a xlink:href="frontend_8js.html#ab0858f7d9b6a5cdace9d1838e33cf1c2" target="_top" xlink:title="getCountConcept">
<polygon fill="white" stroke="black" points="147,-0.5 147,-19.5 240,-19.5 240,-0.5 147,-0.5"/>
<text text-anchor="middle" x="193.5" y="-7.5" font-family="Helvetica,sans-Serif" font-size="10.00">getCountConcept</text>
</a>
</g>
</g>
<!-- Node1&#45;&gt;Node7 -->
<g id="edge7" class="edge"><title>Node1&#45;&gt;Node7</title>
<path fill="none" stroke="midnightblue" d="M99.5729,-35.6817C118.465,-30.4607 140.147,-24.4684 157.814,-19.5859"/>
<polygon fill="midnightblue" stroke="midnightblue" points="98.4034,-32.3736 89.6971,-38.411 100.268,-39.1207 98.4034,-32.3736"/>
</g>
<!-- Node3 -->
<g id="node3" class="node"><title>Node3</title>
<g id="a_node3"><a xlink:href="class_bms_1_1_bms.html#aec5f7b55928d9eb969567ab87ea9e021" target="_top" xlink:title="Bms\\Bms\\frontController">
<polygon fill="white" stroke="black" points="553,-38.5 553,-57.5 678,-57.5 678,-38.5 553,-38.5"/>
<text text-anchor="middle" x="615.5" y="-45.5" font-family="Helvetica,sans-Serif" font-size="10.00">Bms\Bms\frontController</text>
</a>
</g>
</g>
<!-- Node2&#45;&gt;Node3 -->
<g id="edge2" class="edge"><title>Node2&#45;&gt;Node3</title>
<path fill="none" stroke="midnightblue" d="M253.063,-84.8985C317.849,-83.1342 425.227,-78.5926 517,-67 535.136,-64.7091 554.969,-61.0578 571.985,-57.5655"/>
<polygon fill="midnightblue" stroke="midnightblue" points="252.945,-81.4002 243.039,-85.1584 253.127,-88.3979 252.945,-81.4002"/>
</g>
<!-- Node2&#45;&gt;Node4 -->
<g id="edge3" class="edge"><title>Node2&#45;&gt;Node4</title>
<path fill="none" stroke="midnightblue" d="M234.21,-73.3196C250.289,-68.1852 268.543,-62.3559 283.481,-57.5859"/>
<polygon fill="midnightblue" stroke="midnightblue" points="232.99,-70.0348 224.529,-76.411 235.12,-76.7031 232.99,-70.0348"/>
</g>
<!-- Node5 -->
<g id="node5" class="node"><title>Node5</title>
<g id="a_node5"><a xlink:href="namespace_webservices.html#a982728deb9ddc1d58b4496ef46159b73" target="_top" xlink:title="Webservices\\getProviders">
<polygon fill="white" stroke="black" points="386,-38.5 386,-57.5 517,-57.5 517,-38.5 386,-38.5"/>
<text text-anchor="middle" x="451.5" y="-45.5" font-family="Helvetica,sans-Serif" font-size="10.00">Webservices\getProviders</text>
</a>
</g>
</g>
<!-- Node4&#45;&gt;Node5 -->
<g id="edge4" class="edge"><title>Node4&#45;&gt;Node5</title>
<path fill="none" stroke="midnightblue" d="M360.364,-48C368.584,-48 377.31,-48 385.972,-48"/>
<polygon fill="midnightblue" stroke="midnightblue" points="360.266,-44.5001 350.266,-48 360.266,-51.5001 360.266,-44.5001"/>
</g>
<!-- Node6 -->
<g id="node6" class="node"><title>Node6</title>
<g id="a_node6"><a xlink:href="frontend_8js.html#a8df3b053e7e7b29e3e7a408d1bd4b9b1" target="_top" xlink:title="getTotalMaxCalls">
<polygon fill="white" stroke="black" points="405,-0.5 405,-19.5 498,-19.5 498,-0.5 405,-0.5"/>
<text text-anchor="middle" x="451.5" y="-7.5" font-family="Helvetica,sans-Serif" font-size="10.00">getTotalMaxCalls</text>
</a>
</g>
</g>
<!-- Node4&#45;&gt;Node6 -->
<g id="edge5" class="edge"><title>Node4&#45;&gt;Node6</title>
<path fill="none" stroke="midnightblue" d="M359.262,-35.6817C377.811,-30.4607 399.099,-24.4684 416.445,-19.5859"/>
<polygon fill="midnightblue" stroke="midnightblue" points="358.244,-32.3323 349.566,-38.411 360.14,-39.0705 358.244,-32.3323"/>
</g>
<!-- Node6&#45;&gt;Node3 -->
<g id="edge6" class="edge"><title>Node6&#45;&gt;Node3</title>
<path fill="none" stroke="midnightblue" d="M503.215,-21.8961C525.986,-27.2374 552.487,-33.4537 573.915,-38.4799"/>
<polygon fill="midnightblue" stroke="midnightblue" points="503.915,-18.4653 493.379,-19.589 502.316,-25.2803 503.915,-18.4653"/>
</g>
<!-- Node7&#45;&gt;Node4 -->
<g id="edge8" class="edge"><title>Node7&#45;&gt;Node4</title>
<path fill="none" stroke="midnightblue" d="M234.21,-22.6804C250.289,-27.8148 268.543,-33.6441 283.481,-38.4141"/>
<polygon fill="midnightblue" stroke="midnightblue" points="235.12,-19.2969 224.529,-19.589 232.99,-25.9652 235.12,-19.2969"/>
</g>
</g>
</svg>
