<?xml version="1.0" encoding="UTF-8" standalone="no"?>
<!DOCTYPE svg PUBLIC "-//W3C//DTD SVG 1.1//EN"
 "http://www.w3.org/Graphics/SVG/1.1/DTD/svg11.dtd">
<!-- Generated by graphviz version 2.38.0 (20140413.2041)
 -->
<!-- Title: formatXml Pages: 1 -->
<svg width="342pt" height="28pt"
 viewBox="0.00 0.00 342.00 28.00" xmlns="http://www.w3.org/2000/svg" xmlns:xlink="http://www.w3.org/1999/xlink">
<g id="graph0" class="graph" transform="scale(1 1) rotate(0) translate(4 24)">
<title>formatXml</title>
<polygon fill="white" stroke="none" points="-4,4 -4,-24 338,-24 338,4 -4,4"/>
<!-- Node1 -->
<g id="node1" class="node"><title>Node1</title>
<polygon fill="#bfbfbf" stroke="black" points="0,-0.5 0,-19.5 62,-19.5 62,-0.5 0,-0.5"/>
<text text-anchor="middle" x="31" y="-7.5" font-family="Helvetica,sans-Serif" font-size="10.00">formatXml</text>
</g>
<!-- Node2 -->
<g id="node2" class="node"><title>Node2</title>
<g id="a_node2"><a xlink:href="consistency_8js.html#a1e60b6d66b2394a2eff6d3992fefcc4e" target="_top" xlink:title="getExampleValues">
<polygon fill="white" stroke="black" points="98,-0.5 98,-19.5 196,-19.5 196,-0.5 98,-0.5"/>
<text text-anchor="middle" x="147" y="-7.5" font-family="Helvetica,sans-Serif" font-size="10.00">getExampleValues</text>
</a>
</g>
</g>
<!-- Node1&#45;&gt;Node2 -->
<g id="edge1" class="edge"><title>Node1&#45;&gt;Node2</title>
<path fill="none" stroke="midnightblue" d="M72.3942,-10C80.6646,-10 89.446,-10 97.9545,-10"/>
<polygon fill="midnightblue" stroke="midnightblue" points="72.2506,-6.5001 62.2506,-10 72.2506,-13.5001 72.2506,-6.5001"/>
</g>
<!-- Node3 -->
<g id="node3" class="node"><title>Node3</title>
<g id="a_node3"><a xlink:href="consistency_8js.html#ab2bc9df2b9396792aff9dc3530669abf" target="_top" xlink:title="processCapabilities">
<polygon fill="white" stroke="black" points="232,-0.5 232,-19.5 334,-19.5 334,-0.5 232,-0.5"/>
<text text-anchor="middle" x="283" y="-7.5" font-family="Helvetica,sans-Serif" font-size="10.00">processCapabilities</text>
</a>
</g>
</g>
<!-- Node2&#45;&gt;Node3 -->
<g id="edge2" class="edge"><title>Node2&#45;&gt;Node3</title>
<path fill="none" stroke="midnightblue" d="M206.553,-10C214.999,-10 223.627,-10 231.889,-10"/>
<polygon fill="midnightblue" stroke="midnightblue" points="206.377,-6.5001 196.377,-10 206.377,-13.5001 206.377,-6.5001"/>
</g>
</g>
</svg>
