<?xml version="1.0" encoding="UTF-8" standalone="no"?>
<!DOCTYPE svg PUBLIC "-//W3C//DTD SVG 1.1//EN"
 "http://www.w3.org/Graphics/SVG/1.1/DTD/svg11.dtd">
<!-- Generated by graphviz version 2.38.0 (20140413.2041)
 -->
<!-- Title: displaySystemMessage Pages: 1 -->
<svg width="636pt" height="351pt"
 viewBox="0.00 0.00 636.00 351.00" xmlns="http://www.w3.org/2000/svg" xmlns:xlink="http://www.w3.org/1999/xlink">
<g id="graph0" class="graph" transform="scale(1 1) rotate(0) translate(4 347)">
<title>displaySystemMessage</title>
<polygon fill="white" stroke="none" points="-4,4 -4,-347 632,-347 632,4 -4,4"/>
<!-- Node1 -->
<g id="node1" class="node"><title>Node1</title>
<polygon fill="#bfbfbf" stroke="black" points="0,-171.5 0,-190.5 121,-190.5 121,-171.5 0,-171.5"/>
<text text-anchor="middle" x="60.5" y="-178.5" font-family="Helvetica,sans-Serif" font-size="10.00">displaySystemMessage</text>
</g>
<!-- Node2 -->
<g id="node2" class="node"><title>Node2</title>
<g id="a_node2"><a xlink:href="manage_user_8php.html#ac4a74e72e3c7731da127516dd1265aae" target="_top" xlink:title="bin2crud">
<polygon fill="white" stroke="black" points="202,-323.5 202,-342.5 255,-342.5 255,-323.5 202,-323.5"/>
<text text-anchor="middle" x="228.5" y="-330.5" font-family="Helvetica,sans-Serif" font-size="10.00">bin2crud</text>
</a>
</g>
</g>
<!-- Node1&#45;&gt;Node2 -->
<g id="edge1" class="edge"><title>Node1&#45;&gt;Node2</title>
<path fill="none" stroke="midnightblue" d="M69.849,-199.872C83.6827,-228.918 114.144,-284.324 157,-314 170.235,-323.165 187.689,-327.913 201.919,-330.37"/>
<polygon fill="midnightblue" stroke="midnightblue" points="73.0232,-198.397 65.6563,-190.782 66.6668,-201.329 73.0232,-198.397"/>
</g>
<!-- Node3 -->
<g id="node3" class="node"><title>Node3</title>
<g id="a_node3"><a xlink:href="backend_8js.html#ad8bb15255910bba8451a623c74323537" target="_top" xlink:title="saveMainMetadata">
<polygon fill="white" stroke="black" points="179,-285.5 179,-304.5 278,-304.5 278,-285.5 179,-285.5"/>
<text text-anchor="middle" x="228.5" y="-292.5" font-family="Helvetica,sans-Serif" font-size="10.00">saveMainMetadata</text>
</a>
</g>
</g>
<!-- Node1&#45;&gt;Node3 -->
<g id="edge2" class="edge"><title>Node1&#45;&gt;Node3</title>
<path fill="none" stroke="midnightblue" d="M74.5221,-198.713C91.2435,-220.187 122.277,-255.98 157,-276 163.699,-279.862 171.208,-282.963 178.761,-285.445"/>
<polygon fill="midnightblue" stroke="midnightblue" points="77.2921,-196.573 68.4535,-190.731 71.7198,-200.81 77.2921,-196.573"/>
</g>
<!-- Node4 -->
<g id="node4" class="node"><title>Node4</title>
<g id="a_node4"><a xlink:href="backend_8js.html#a7702fac8dffb55e0ad31437f4a91ca20" target="_top" xlink:title="getDataSourceAccessPoints">
<polygon fill="white" stroke="black" points="157,-247.5 157,-266.5 300,-266.5 300,-247.5 157,-247.5"/>
<text text-anchor="middle" x="228.5" y="-254.5" font-family="Helvetica,sans-Serif" font-size="10.00">getDataSourceAccessPoints</text>
</a>
</g>
</g>
<!-- Node1&#45;&gt;Node4 -->
<g id="edge3" class="edge"><title>Node1&#45;&gt;Node4</title>
<path fill="none" stroke="midnightblue" d="M83.1972,-196.315C101.981,-208.984 130.262,-226.674 157,-238 165.754,-241.708 175.43,-244.874 184.736,-247.498"/>
<polygon fill="midnightblue" stroke="midnightblue" points="85.0144,-193.318 74.7875,-190.55 81.0562,-199.091 85.0144,-193.318"/>
</g>
<!-- Node7 -->
<g id="node7" class="node"><title>Node7</title>
<g id="a_node7"><a xlink:href="backend_8js.html#a36b49b10ca5bff2748b29988f1582f34" target="_top" xlink:title="removeDSA">
<polygon fill="white" stroke="black" points="193.5,-209.5 193.5,-228.5 263.5,-228.5 263.5,-209.5 193.5,-209.5"/>
<text text-anchor="middle" x="228.5" y="-216.5" font-family="Helvetica,sans-Serif" font-size="10.00">removeDSA</text>
</a>
</g>
</g>
<!-- Node1&#45;&gt;Node7 -->
<g id="edge6" class="edge"><title>Node1&#45;&gt;Node7</title>
<path fill="none" stroke="midnightblue" d="M113.146,-192.823C139.297,-198.809 170.315,-205.909 193.444,-211.204"/>
<polygon fill="midnightblue" stroke="midnightblue" points="113.918,-189.409 103.389,-190.589 112.356,-196.232 113.918,-189.409"/>
</g>
<!-- Node8 -->
<g id="node8" class="node"><title>Node8</title>
<g id="a_node8"><a xlink:href="backend_8js.html#aa19813ae51cc1b506e8543a7cd6a0e42" target="_top" xlink:title="removeCount">
<polygon fill="white" stroke="black" points="191,-171.5 191,-190.5 266,-190.5 266,-171.5 191,-171.5"/>
<text text-anchor="middle" x="228.5" y="-178.5" font-family="Helvetica,sans-Serif" font-size="10.00">removeCount</text>
</a>
</g>
</g>
<!-- Node1&#45;&gt;Node8 -->
<g id="edge7" class="edge"><title>Node1&#45;&gt;Node8</title>
<path fill="none" stroke="midnightblue" d="M131.636,-181C152,-181 173.423,-181 190.839,-181"/>
<polygon fill="midnightblue" stroke="midnightblue" points="131.43,-177.5 121.43,-181 131.43,-184.5 131.43,-177.5"/>
</g>
<!-- Node9 -->
<g id="node9" class="node"><title>Node9</title>
<g id="a_node9"><a xlink:href="backend_8js.html#af64a4f08a169e74e835e8779804d2982" target="_top" xlink:title="saveCount">
<polygon fill="white" stroke="black" points="196.5,-133.5 196.5,-152.5 260.5,-152.5 260.5,-133.5 196.5,-133.5"/>
<text text-anchor="middle" x="228.5" y="-140.5" font-family="Helvetica,sans-Serif" font-size="10.00">saveCount</text>
</a>
</g>
</g>
<!-- Node1&#45;&gt;Node9 -->
<g id="edge8" class="edge"><title>Node1&#45;&gt;Node9</title>
<path fill="none" stroke="midnightblue" d="M113.168,-169.172C140.432,-162.931 172.984,-155.48 196.368,-150.127"/>
<polygon fill="midnightblue" stroke="midnightblue" points="112.356,-165.768 103.389,-171.411 113.918,-172.591 112.356,-165.768"/>
</g>
<!-- Node10 -->
<g id="node10" class="node"><title>Node10</title>
<g id="a_node10"><a xlink:href="backend_8js.html#a2b6e8bcc79cbc217976969a2c3830205" target="_top" xlink:title="removeUsefulLink">
<polygon fill="white" stroke="black" points="181,-95.5 181,-114.5 276,-114.5 276,-95.5 181,-95.5"/>
<text text-anchor="middle" x="228.5" y="-102.5" font-family="Helvetica,sans-Serif" font-size="10.00">removeUsefulLink</text>
</a>
</g>
</g>
<!-- Node1&#45;&gt;Node10 -->
<g id="edge9" class="edge"><title>Node1&#45;&gt;Node10</title>
<path fill="none" stroke="midnightblue" d="M83.1972,-165.685C101.981,-153.016 130.262,-135.326 157,-124 165.754,-120.292 175.43,-117.126 184.736,-114.502"/>
<polygon fill="midnightblue" stroke="midnightblue" points="81.0562,-162.909 74.7875,-171.45 85.0144,-168.682 81.0562,-162.909"/>
</g>
<!-- Node11 -->
<g id="node11" class="node"><title>Node11</title>
<g id="a_node11"><a xlink:href="backend_8js.html#a9cf58bffa4998cb385ea09dfdc7470fe" target="_top" xlink:title="saveUsefulLink">
<polygon fill="white" stroke="black" points="186.5,-57.5 186.5,-76.5 270.5,-76.5 270.5,-57.5 186.5,-57.5"/>
<text text-anchor="middle" x="228.5" y="-64.5" font-family="Helvetica,sans-Serif" font-size="10.00">saveUsefulLink</text>
</a>
</g>
</g>
<!-- Node1&#45;&gt;Node11 -->
<g id="edge10" class="edge"><title>Node1&#45;&gt;Node11</title>
<path fill="none" stroke="midnightblue" d="M74.5221,-163.287C91.2435,-141.813 122.277,-106.02 157,-86 165.895,-80.8713 176.219,-77.086 186.178,-74.3074"/>
<polygon fill="midnightblue" stroke="midnightblue" points="71.7198,-161.19 68.4535,-171.269 77.2921,-165.427 71.7198,-161.19"/>
</g>
<!-- Node12 -->
<g id="node12" class="node"><title>Node12</title>
<g id="a_node12"><a xlink:href="frontend_8js.html#a6879c4dc7db6793991cd72ab19ca85ea" target="_top" xlink:title="getProviders">
<polygon fill="white" stroke="black" points="193,-19.5 193,-38.5 264,-38.5 264,-19.5 193,-19.5"/>
<text text-anchor="middle" x="228.5" y="-26.5" font-family="Helvetica,sans-Serif" font-size="10.00">getProviders</text>
</a>
</g>
</g>
<!-- Node1&#45;&gt;Node12 -->
<g id="edge11" class="edge"><title>Node1&#45;&gt;Node12</title>
<path fill="none" stroke="midnightblue" d="M69.849,-162.128C83.6827,-133.082 114.144,-77.6764 157,-48 167.526,-40.7112 180.72,-36.2163 192.838,-33.4452"/>
<polygon fill="midnightblue" stroke="midnightblue" points="66.6668,-160.671 65.6563,-171.218 73.0232,-163.603 66.6668,-160.671"/>
</g>
<!-- Node5 -->
<g id="node5" class="node"><title>Node5</title>
<g id="a_node5"><a xlink:href="backend_8js.html#a40b1dad19404febd0ef4c2b8be5e1033" target="_top" xlink:title="getAllMetadata">
<polygon fill="white" stroke="black" points="360.5,-247.5 360.5,-266.5 442.5,-266.5 442.5,-247.5 360.5,-247.5"/>
<text text-anchor="middle" x="401.5" y="-254.5" font-family="Helvetica,sans-Serif" font-size="10.00">getAllMetadata</text>
</a>
</g>
</g>
<!-- Node4&#45;&gt;Node5 -->
<g id="edge4" class="edge"><title>Node4&#45;&gt;Node5</title>
<path fill="none" stroke="midnightblue" d="M310.257,-257C327.7,-257 345.407,-257 360.462,-257"/>
<polygon fill="midnightblue" stroke="midnightblue" points="310.04,-253.5 300.04,-257 310.039,-260.5 310.04,-253.5"/>
</g>
<!-- Node6 -->
<g id="node6" class="node"><title>Node6</title>
<g id="a_node6"><a xlink:href="backend_8js.html#ad55b6eadd077d9b3c51a8c4941540d82" target="_top" xlink:title="getLinkCategories">
<polygon fill="white" stroke="black" points="518,-247.5 518,-266.5 613,-266.5 613,-247.5 518,-247.5"/>
<text text-anchor="middle" x="565.5" y="-254.5" font-family="Helvetica,sans-Serif" font-size="10.00">getLinkCategories</text>
</a>
</g>
</g>
<!-- Node5&#45;&gt;Node6 -->
<g id="edge5" class="edge"><title>Node5&#45;&gt;Node6</title>
<path fill="none" stroke="midnightblue" d="M452.752,-257C473.487,-257 497.38,-257 517.736,-257"/>
<polygon fill="midnightblue" stroke="midnightblue" points="452.545,-253.5 442.545,-257 452.545,-260.5 452.545,-253.5"/>
</g>
<!-- Node13 -->
<g id="node13" class="node"><title>Node13</title>
<g id="a_node13"><a xlink:href="namespace_webservices.html#a982728deb9ddc1d58b4496ef46159b73" target="_top" xlink:title="Webservices\\getProviders">
<polygon fill="white" stroke="black" points="336,-38.5 336,-57.5 467,-57.5 467,-38.5 336,-38.5"/>
<text text-anchor="middle" x="401.5" y="-45.5" font-family="Helvetica,sans-Serif" font-size="10.00">Webservices\getProviders</text>
</a>
</g>
</g>
<!-- Node12&#45;&gt;Node13 -->
<g id="edge12" class="edge"><title>Node12&#45;&gt;Node13</title>
<path fill="none" stroke="midnightblue" d="M274.178,-33.9642C293.007,-36.0564 315.289,-38.5321 335.856,-40.8173"/>
<polygon fill="midnightblue" stroke="midnightblue" points="274.43,-30.4707 264.104,-32.8449 273.657,-37.4279 274.43,-30.4707"/>
</g>
<!-- Node14 -->
<g id="node14" class="node"><title>Node14</title>
<g id="a_node14"><a xlink:href="frontend_8js.html#a8df3b053e7e7b29e3e7a408d1bd4b9b1" target="_top" xlink:title="getTotalMaxCalls">
<polygon fill="white" stroke="black" points="355,-0.5 355,-19.5 448,-19.5 448,-0.5 355,-0.5"/>
<text text-anchor="middle" x="401.5" y="-7.5" font-family="Helvetica,sans-Serif" font-size="10.00">getTotalMaxCalls</text>
</a>
</g>
</g>
<!-- Node12&#45;&gt;Node14 -->
<g id="edge13" class="edge"><title>Node12&#45;&gt;Node14</title>
<path fill="none" stroke="midnightblue" d="M274.346,-24.0171C299.176,-21.2583 329.967,-17.837 354.914,-15.0651"/>
<polygon fill="midnightblue" stroke="midnightblue" points="273.657,-20.5721 264.104,-25.1551 274.43,-27.5293 273.657,-20.5721"/>
</g>
<!-- Node15 -->
<g id="node15" class="node"><title>Node15</title>
<g id="a_node15"><a xlink:href="class_bms_1_1_bms.html#aec5f7b55928d9eb969567ab87ea9e021" target="_top" xlink:title="Bms\\Bms\\frontController">
<polygon fill="white" stroke="black" points="503,-0.5 503,-19.5 628,-19.5 628,-0.5 503,-0.5"/>
<text text-anchor="middle" x="565.5" y="-7.5" font-family="Helvetica,sans-Serif" font-size="10.00">Bms\Bms\frontController</text>
</a>
</g>
</g>
<!-- Node14&#45;&gt;Node15 -->
<g id="edge14" class="edge"><title>Node14&#45;&gt;Node15</title>
<path fill="none" stroke="midnightblue" d="M458.305,-10C472.707,-10 488.289,-10 502.964,-10"/>
<polygon fill="midnightblue" stroke="midnightblue" points="458.057,-6.5001 448.057,-10 458.057,-13.5001 458.057,-6.5001"/>
</g>
</g>
</svg>
