<?xml version="1.0" encoding="UTF-8" standalone="no"?>
<!DOCTYPE svg PUBLIC "-//W3C//DTD SVG 1.1//EN"
 "http://www.w3.org/Graphics/SVG/1.1/DTD/svg11.dtd">
<!-- Generated by graphviz version 2.38.0 (20140413.2041)
 -->
<!-- Title: getProviders Pages: 1 -->
<svg width="487pt" height="285pt"
 viewBox="0.00 0.00 487.00 285.39" xmlns="http://www.w3.org/2000/svg" xmlns:xlink="http://www.w3.org/1999/xlink">
<g id="graph0" class="graph" transform="scale(1 1) rotate(0) translate(4 281.388)">
<title>getProviders</title>
<polygon fill="white" stroke="none" points="-4,4 -4,-281.388 483,-281.388 483,4 -4,4"/>
<!-- Node1 -->
<g id="node1" class="node"><title>Node1</title>
<polygon fill="#bfbfbf" stroke="black" points="0,-133.5 0,-152.5 71,-152.5 71,-133.5 0,-133.5"/>
<text text-anchor="middle" x="35.5" y="-140.5" font-family="Helvetica,sans-Serif" font-size="10.00">getProviders</text>
</g>
<!-- Node2 -->
<g id="node2" class="node"><title>Node2</title>
<g id="a_node2"><a xlink:href="frontend_8js.html#a6879c4dc7db6793991cd72ab19ca85ea" target="_top" xlink:title="getProviders">
<polygon fill="white" stroke="black" points="107,-133.5 107,-152.5 178,-152.5 178,-133.5 107,-133.5"/>
<text text-anchor="middle" x="142.5" y="-140.5" font-family="Helvetica,sans-Serif" font-size="10.00">getProviders</text>
</a>
</g>
</g>
<!-- Node1&#45;&gt;Node2 -->
<g id="edge1" class="edge"><title>Node1&#45;&gt;Node2</title>
<path fill="none" stroke="midnightblue" d="M71.1719,-143C79.3257,-143 88.1305,-143 96.6597,-143"/>
<polygon fill="midnightblue" stroke="midnightblue" points="96.8645,-146.5 106.864,-143 96.8644,-139.5 96.8645,-146.5"/>
</g>
<!-- Node3 -->
<g id="node3" class="node"><title>Node3</title>
<g id="a_node3"><a xlink:href="general_8js.html#a3c52670d7ece95bdca65208692bc18f2" target="_top" xlink:title="displayErrorMessage">
<polygon fill="white" stroke="black" points="371,-76.5 371,-95.5 479,-95.5 479,-76.5 371,-76.5"/>
<text text-anchor="middle" x="425" y="-83.5" font-family="Helvetica,sans-Serif" font-size="10.00">displayErrorMessage</text>
</a>
</g>
</g>
<!-- Node2&#45;&gt;Node3 -->
<g id="edge2" class="edge"><title>Node2&#45;&gt;Node3</title>
<path fill="none" stroke="midnightblue" d="M146.008,-152.678C152.584,-175.794 172.737,-234.002 214,-257 260.974,-283.181 289.026,-284.9 335,-257 390.229,-223.483 412.771,-143.288 420.519,-105.865"/>
<polygon fill="midnightblue" stroke="midnightblue" points="424.018,-106.203 422.469,-95.7225 417.144,-104.882 424.018,-106.203"/>
</g>
<!-- Node4 -->
<g id="node4" class="node"><title>Node4</title>
<g id="a_node4"><a xlink:href="frontend_8js.html#ad1b6f7258037f83d33075afa5ed17c83" target="_top" xlink:title="buildUI">
<polygon fill="white" stroke="black" points="251,-228.5 251,-247.5 298,-247.5 298,-228.5 251,-228.5"/>
<text text-anchor="middle" x="274.5" y="-235.5" font-family="Helvetica,sans-Serif" font-size="10.00">buildUI</text>
</a>
</g>
</g>
<!-- Node2&#45;&gt;Node4 -->
<g id="edge3" class="edge"><title>Node2&#45;&gt;Node4</title>
<path fill="none" stroke="midnightblue" d="M149.913,-152.654C161.07,-168.719 185.594,-200.952 214,-219 222.2,-224.21 231.948,-228.1 241.157,-230.957"/>
<polygon fill="midnightblue" stroke="midnightblue" points="240.265,-234.342 250.838,-233.664 242.15,-227.6 240.265,-234.342"/>
</g>
<!-- Node5 -->
<g id="node5" class="node"><title>Node5</title>
<g id="a_node5"><a xlink:href="frontend_8js.html#a27438af3e2a1563428ff28b90c847cfd" target="_top" xlink:title="getCitation">
<polygon fill="white" stroke="black" points="242.5,-190.5 242.5,-209.5 306.5,-209.5 306.5,-190.5 242.5,-190.5"/>
<text text-anchor="middle" x="274.5" y="-197.5" font-family="Helvetica,sans-Serif" font-size="10.00">getCitation</text>
</a>
</g>
</g>
<!-- Node2&#45;&gt;Node5 -->
<g id="edge4" class="edge"><title>Node2&#45;&gt;Node5</title>
<path fill="none" stroke="midnightblue" d="M159.321,-152.627C173.341,-160.889 194.548,-172.736 214,-181 219.895,-183.504 226.237,-185.864 232.505,-188.013"/>
<polygon fill="midnightblue" stroke="midnightblue" points="231.629,-191.409 242.222,-191.207 233.815,-184.76 231.629,-191.409"/>
</g>
<!-- Node6 -->
<g id="node6" class="node"><title>Node6</title>
<g id="a_node6"><a xlink:href="general_8js.html#ab624ce9aebffbb8bc3159502c4afc32b" target="_top" xlink:title="copyToClipboard">
<polygon fill="white" stroke="black" points="229.5,-152.5 229.5,-171.5 319.5,-171.5 319.5,-152.5 229.5,-152.5"/>
<text text-anchor="middle" x="274.5" y="-159.5" font-family="Helvetica,sans-Serif" font-size="10.00">copyToClipboard</text>
</a>
</g>
</g>
<!-- Node2&#45;&gt;Node6 -->
<g id="edge5" class="edge"><title>Node2&#45;&gt;Node6</title>
<path fill="none" stroke="midnightblue" d="M178.338,-148.092C190.926,-149.931 205.454,-152.055 219.307,-154.08"/>
<polygon fill="midnightblue" stroke="midnightblue" points="218.837,-157.548 229.238,-155.531 219.85,-150.622 218.837,-157.548"/>
</g>
<!-- Node7 -->
<g id="node7" class="node"><title>Node7</title>
<g id="a_node7"><a xlink:href="general_8js.html#ab591f84505f74590e87095cce52c8354" target="_top" xlink:title="displaySystemMessage">
<polygon fill="white" stroke="black" points="214,-114.5 214,-133.5 335,-133.5 335,-114.5 214,-114.5"/>
<text text-anchor="middle" x="274.5" y="-121.5" font-family="Helvetica,sans-Serif" font-size="10.00">displaySystemMessage</text>
</a>
</g>
</g>
<!-- Node2&#45;&gt;Node7 -->
<g id="edge6" class="edge"><title>Node2&#45;&gt;Node7</title>
<path fill="none" stroke="midnightblue" d="M178.338,-137.908C186.316,-136.742 195.073,-135.462 203.944,-134.166"/>
<polygon fill="midnightblue" stroke="midnightblue" points="204.583,-137.61 213.972,-132.7 203.571,-130.683 204.583,-137.61"/>
</g>
<!-- Node8 -->
<g id="node8" class="node"><title>Node8</title>
<g id="a_node8"><a xlink:href="frontend_8js.html#a4f74f201d6c3031faf50ce88c9041be2" target="_top" xlink:title="getCurrentRecords">
<polygon fill="white" stroke="black" points="225,-76.5 225,-95.5 324,-95.5 324,-76.5 225,-76.5"/>
<text text-anchor="middle" x="274.5" y="-83.5" font-family="Helvetica,sans-Serif" font-size="10.00">getCurrentRecords</text>
</a>
</g>
</g>
<!-- Node2&#45;&gt;Node8 -->
<g id="edge7" class="edge"><title>Node2&#45;&gt;Node8</title>
<path fill="none" stroke="midnightblue" d="M159.321,-133.373C173.341,-125.111 194.548,-113.264 214,-105 219.115,-102.827 224.567,-100.763 230.015,-98.8503"/>
<polygon fill="midnightblue" stroke="midnightblue" points="231.38,-102.084 239.746,-95.582 229.152,-95.4482 231.38,-102.084"/>
</g>
<!-- Node9 -->
<g id="node9" class="node"><title>Node9</title>
<g id="a_node9"><a xlink:href="frontend_8js.html#ab0858f7d9b6a5cdace9d1838e33cf1c2" target="_top" xlink:title="getCountConcept">
<polygon fill="white" stroke="black" points="228,-38.5 228,-57.5 321,-57.5 321,-38.5 228,-38.5"/>
<text text-anchor="middle" x="274.5" y="-45.5" font-family="Helvetica,sans-Serif" font-size="10.00">getCountConcept</text>
</a>
</g>
</g>
<!-- Node2&#45;&gt;Node9 -->
<g id="edge9" class="edge"><title>Node2&#45;&gt;Node9</title>
<path fill="none" stroke="midnightblue" d="M149.913,-133.346C161.07,-117.281 185.594,-85.048 214,-67 217.304,-64.9011 220.858,-63.0164 224.528,-61.3271"/>
<polygon fill="midnightblue" stroke="midnightblue" points="225.884,-64.5537 233.808,-57.5201 223.228,-58.0775 225.884,-64.5537"/>
</g>
<!-- Node10 -->
<g id="node10" class="node"><title>Node10</title>
<g id="a_node10"><a xlink:href="frontend_8js.html#a8d70fa25300ca2d61b7f6dcb509ab894" target="_top" xlink:title="allowMultipleOpen">
<polygon fill="white" stroke="black" points="226.5,-0.5 226.5,-19.5 322.5,-19.5 322.5,-0.5 226.5,-0.5"/>
<text text-anchor="middle" x="274.5" y="-7.5" font-family="Helvetica,sans-Serif" font-size="10.00">allowMultipleOpen</text>
</a>
</g>
</g>
<!-- Node2&#45;&gt;Node10 -->
<g id="edge11" class="edge"><title>Node2&#45;&gt;Node10</title>
<path fill="none" stroke="midnightblue" d="M146.759,-133.462C154.699,-111.648 177.136,-57.7891 214,-29 216.324,-27.1854 218.825,-25.542 221.439,-24.0538"/>
<polygon fill="midnightblue" stroke="midnightblue" points="223.208,-27.0859 230.674,-19.5689 220.15,-20.7891 223.208,-27.0859"/>
</g>
<!-- Node8&#45;&gt;Node3 -->
<g id="edge8" class="edge"><title>Node8&#45;&gt;Node3</title>
<path fill="none" stroke="midnightblue" d="M324.124,-86C335.821,-86 348.485,-86 360.741,-86"/>
<polygon fill="midnightblue" stroke="midnightblue" points="360.909,-89.5001 370.909,-86 360.909,-82.5001 360.909,-89.5001"/>
</g>
<!-- Node9&#45;&gt;Node3 -->
<g id="edge10" class="edge"><title>Node9&#45;&gt;Node3</title>
<path fill="none" stroke="midnightblue" d="M312.973,-57.589C332.392,-62.5583 356.302,-68.6767 376.954,-73.9613"/>
<polygon fill="midnightblue" stroke="midnightblue" points="376.241,-77.3916 386.797,-76.4799 377.976,-70.6101 376.241,-77.3916"/>
</g>
</g>
</svg>
