<?xml version="1.0" encoding="UTF-8" standalone="no"?>
<!DOCTYPE svg PUBLIC "-//W3C//DTD SVG 1.1//EN"
 "http://www.w3.org/Graphics/SVG/1.1/DTD/svg11.dtd">
<!-- Generated by graphviz version 2.38.0 (20140413.2041)
 -->
<!-- Title: getProviderBasicInfos Pages: 1 -->
<svg width="298pt" height="142pt"
 viewBox="0.00 0.00 298.00 142.00" xmlns="http://www.w3.org/2000/svg" xmlns:xlink="http://www.w3.org/1999/xlink">
<g id="graph0" class="graph" transform="scale(1 1) rotate(0) translate(4 138)">
<title>getProviderBasicInfos</title>
<polygon fill="white" stroke="none" points="-4,4 -4,-138 294,-138 294,4 -4,4"/>
<!-- Node1 -->
<g id="node1" class="node"><title>Node1</title>
<polygon fill="#bfbfbf" stroke="black" points="0,-57.5 0,-76.5 110,-76.5 110,-57.5 0,-57.5"/>
<text text-anchor="middle" x="55" y="-64.5" font-family="Helvetica,sans-Serif" font-size="10.00">getProviderBasicInfos</text>
</g>
<!-- Node2 -->
<g id="node2" class="node"><title>Node2</title>
<g id="a_node2"><a xlink:href="class_bms_1_1_bms.html#a7bb33c1754f399ede0a3fa0babe6983c" target="_top" xlink:title="Bms\\Bms\\getCurrentRecords">
<polygon fill="white" stroke="black" points="146,-114.5 146,-133.5 290,-133.5 290,-114.5 146,-114.5"/>
<text text-anchor="middle" x="218" y="-121.5" font-family="Helvetica,sans-Serif" font-size="10.00">Bms\Bms\getCurrentRecords</text>
</a>
</g>
</g>
<!-- Node1&#45;&gt;Node2 -->
<g id="edge1" class="edge"><title>Node1&#45;&gt;Node2</title>
<path fill="none" stroke="midnightblue" d="M85.9814,-80.8865C103.295,-88.594 125.616,-98.0065 146,-105 156.018,-108.437 167.003,-111.642 177.275,-114.405"/>
<polygon fill="midnightblue" stroke="midnightblue" points="86.9736,-77.4947 76.4186,-76.5767 84.0974,-83.8765 86.9736,-77.4947"/>
</g>
<!-- Node3 -->
<g id="node3" class="node"><title>Node3</title>
<g id="a_node3"><a xlink:href="class_bms_1_1_bms.html#ac3777e4d1d5c4807fae75a4784e06ed2" target="_top" xlink:title="Bms\\Bms\\getCountConcepts">
<polygon fill="white" stroke="black" points="146.5,-76.5 146.5,-95.5 289.5,-95.5 289.5,-76.5 146.5,-76.5"/>
<text text-anchor="middle" x="218" y="-83.5" font-family="Helvetica,sans-Serif" font-size="10.00">Bms\Bms\getCountConcepts</text>
</a>
</g>
</g>
<!-- Node1&#45;&gt;Node3 -->
<g id="edge2" class="edge"><title>Node1&#45;&gt;Node3</title>
<path fill="none" stroke="midnightblue" d="M120.018,-74.5549C128.626,-75.5708 137.497,-76.6177 146.214,-77.6463"/>
<polygon fill="midnightblue" stroke="midnightblue" points="120.4,-71.0758 110.059,-73.3796 119.579,-78.0275 120.4,-71.0758"/>
</g>
<!-- Node4 -->
<g id="node4" class="node"><title>Node4</title>
<g id="a_node4"><a xlink:href="class_bms_1_1_bms.html#ae49caba006e4fd1521d7f96f427ce56a" target="_top" xlink:title="Bms\\Bms\\getCitation">
<polygon fill="white" stroke="black" points="163,-38.5 163,-57.5 273,-57.5 273,-38.5 163,-38.5"/>
<text text-anchor="middle" x="218" y="-45.5" font-family="Helvetica,sans-Serif" font-size="10.00">Bms\Bms\getCitation</text>
</a>
</g>
</g>
<!-- Node1&#45;&gt;Node4 -->
<g id="edge3" class="edge"><title>Node1&#45;&gt;Node4</title>
<path fill="none" stroke="midnightblue" d="M120.191,-59.4247C134.311,-57.7583 149.13,-56.0095 162.81,-54.3951"/>
<polygon fill="midnightblue" stroke="midnightblue" points="119.579,-55.9725 110.059,-60.6204 120.4,-62.9242 119.579,-55.9725"/>
</g>
<!-- Node5 -->
<g id="node5" class="node"><title>Node5</title>
<g id="a_node5"><a xlink:href="class_bms_1_1_bms.html#aec5f7b55928d9eb969567ab87ea9e021" target="_top" xlink:title="Bms\\Bms\\frontController">
<polygon fill="white" stroke="black" points="156.5,-0.5 156.5,-19.5 279.5,-19.5 279.5,-0.5 156.5,-0.5"/>
<text text-anchor="middle" x="218" y="-7.5" font-family="Helvetica,sans-Serif" font-size="10.00">Bms\Bms\frontController</text>
</a>
</g>
</g>
<!-- Node1&#45;&gt;Node5 -->
<g id="edge4" class="edge"><title>Node1&#45;&gt;Node5</title>
<path fill="none" stroke="midnightblue" d="M85.9814,-53.1135C103.295,-45.406 125.616,-35.9935 146,-29 156.018,-25.5631 167.003,-22.3576 177.275,-19.5947"/>
<polygon fill="midnightblue" stroke="midnightblue" points="84.0974,-50.1235 76.4186,-57.4233 86.9736,-56.5053 84.0974,-50.1235"/>
</g>
</g>
</svg>
