<?xml version="1.0" encoding="UTF-8" standalone="no"?>
<!DOCTYPE svg PUBLIC "-//W3C//DTD SVG 1.1//EN"
 "http://www.w3.org/Graphics/SVG/1.1/DTD/svg11.dtd">
<!-- Generated by graphviz version 2.38.0 (20140413.2041)
 -->
<!-- Title: sluggify Pages: 1 -->
<svg width="239pt" height="104pt"
 viewBox="0.00 0.00 239.00 104.00" xmlns="http://www.w3.org/2000/svg" xmlns:xlink="http://www.w3.org/1999/xlink">
<g id="graph0" class="graph" transform="scale(1 1) rotate(0) translate(4 100)">
<title>sluggify</title>
<polygon fill="white" stroke="none" points="-4,4 -4,-100 235,-100 235,4 -4,4"/>
<!-- Node1 -->
<g id="node1" class="node"><title>Node1</title>
<polygon fill="#bfbfbf" stroke="black" points="0,-38.5 0,-57.5 50,-57.5 50,-38.5 0,-38.5"/>
<text text-anchor="middle" x="25" y="-45.5" font-family="Helvetica,sans-Serif" font-size="10.00">sluggify</text>
</g>
<!-- Node2 -->
<g id="node2" class="node"><title>Node2</title>
<g id="a_node2"><a xlink:href="class_bms_1_1_bms.html#ac3777e4d1d5c4807fae75a4784e06ed2" target="_top" xlink:title="Bms\\Bms\\getCountConcepts">
<polygon fill="white" stroke="black" points="86,-76.5 86,-95.5 231,-95.5 231,-76.5 86,-76.5"/>
<text text-anchor="middle" x="158.5" y="-83.5" font-family="Helvetica,sans-Serif" font-size="10.00">Bms\Bms\getCountConcepts</text>
</a>
</g>
</g>
<!-- Node1&#45;&gt;Node2 -->
<g id="edge1" class="edge"><title>Node1&#45;&gt;Node2</title>
<path fill="none" stroke="midnightblue" d="M59.7987,-59.0084C68.3257,-61.7015 77.4792,-64.5202 86,-67 97.0991,-70.2301 109.231,-73.5374 120.298,-76.4684"/>
<polygon fill="midnightblue" stroke="midnightblue" points="60.7427,-55.6359 50.152,-55.9327 58.6162,-62.3051 60.7427,-55.6359"/>
</g>
<!-- Node3 -->
<g id="node3" class="node"><title>Node3</title>
<g id="a_node3"><a xlink:href="class_bms_1_1_bms.html#ae49caba006e4fd1521d7f96f427ce56a" target="_top" xlink:title="Bms\\Bms\\getCitation">
<polygon fill="white" stroke="black" points="103.5,-38.5 103.5,-57.5 213.5,-57.5 213.5,-38.5 103.5,-38.5"/>
<text text-anchor="middle" x="158.5" y="-45.5" font-family="Helvetica,sans-Serif" font-size="10.00">Bms\Bms\getCitation</text>
</a>
</g>
</g>
<!-- Node1&#45;&gt;Node3 -->
<g id="edge2" class="edge"><title>Node1&#45;&gt;Node3</title>
<path fill="none" stroke="midnightblue" d="M60.14,-48C73.2992,-48 88.6752,-48 103.27,-48"/>
<polygon fill="midnightblue" stroke="midnightblue" points="60.1192,-44.5001 50.1191,-48 60.1191,-51.5001 60.1192,-44.5001"/>
</g>
<!-- Node4 -->
<g id="node4" class="node"><title>Node4</title>
<g id="a_node4"><a xlink:href="class_bms_1_1_bms.html#aec5f7b55928d9eb969567ab87ea9e021" target="_top" xlink:title="Bms\\Bms\\frontController">
<polygon fill="white" stroke="black" points="96,-0.5 96,-19.5 221,-19.5 221,-0.5 96,-0.5"/>
<text text-anchor="middle" x="158.5" y="-7.5" font-family="Helvetica,sans-Serif" font-size="10.00">Bms\Bms\frontController</text>
</a>
</g>
</g>
<!-- Node1&#45;&gt;Node4 -->
<g id="edge3" class="edge"><title>Node1&#45;&gt;Node4</title>
<path fill="none" stroke="midnightblue" d="M59.7987,-36.9916C68.3257,-34.2985 77.4792,-31.4798 86,-29 97.0991,-25.7699 109.231,-22.4626 120.298,-19.5316"/>
<polygon fill="midnightblue" stroke="midnightblue" points="58.6162,-33.6949 50.152,-40.0673 60.7427,-40.3641 58.6162,-33.6949"/>
</g>
</g>
</svg>
